<svg version="1" xmlns="http://www.w3.org/2000/svg" width="850" height="711.734" viewBox="0 0 637.5 533.8"><path d="M282.8 1.212c-2.2.8-5.6 2.4-7.3 3.6-3.3 2.3-9 9.5-9 11.3 0 .5 1.2-.8 2.6-2.9 4.6-7 11.2-11 20.2-12.3 4.9-.7 5.1-.9 1.7-.9-2.2 0-5.9.5-8.2 1.2zm18.2 2c6.3 2.3 12.3 5.8 19 11 2.2 1.7 3.3 2.2 2.5 1.2-2.4-3.1-15.2-11.2-20.4-12.9-7.3-2.5-8.1-2-1.1.7zm29.2 20.6c1.5 2.2 3.4 4.2 4.1 4.5.7.2-.4-1.6-2.5-4-4.6-5.6-5.3-5.8-1.6-.5zm7.3 8.7c1.3 1.8 2.5 3.3 2.7 3.3.8 0-1.7-3.8-3.3-5.1-1.1-.9-.9-.2.6 1.8zm4.5 7.3c.9 1.6 1.8 3 2.1 3 .2 0-.2-1.4-1.1-3-.9-1.7-1.8-3-2.1-3-.2 0 .2 1.3 1.1 3zm-70.5 4.4c1.9 2.1 4.4 4.2 5.5 4.8 1.1.6 1.8.9 1.5.6-.3-.2-2.7-2.4-5.5-4.8-4.8-4.2-4.8-4.2-1.5-.6zm16 9.9c0 .2 1.5 1.6 3.3 3.3l3.2 2.9-2.9-3.3c-2.8-3-3.6-3.7-3.6-2.9zM85 114.712c-.3.5 0 1.3.6 1.7.8.5.9.3.4-.6-.5-.8-.3-1.1.6-.8.8.3 2 2.2 2.8 4.4.9 2.1 2.1 4.3 2.8 4.9 1.6 1.3 4.3 10 4.3 14.2 0 3.2.2 3.3 3.9 3.3 2.2 0 4.2.3 4.4.7.3.5-2.4.8-5.9.8-6.7 0-11 2-6.6 3.1 2.8.8 2.9 3 .2 4.4-2.5 1.3-4.3 5.5-3.5 8.1.8 2.4 3.2 2.5 3.8.1.4-1.5.5-1.5.6 0 0 .9-1.2 2.3-3 3.2-2.9 1.4-3 1.4-3.9-.7-.7-1.6-.9-.3-.9 4.8 0 3.8-.2 11.5-.5 17-1.2 20.7-2.5 47.2-2.6 51.2 0 3.8-.3 4.3-2.3 4.3-1.9 0-2.4-.6-2.5-2.8-.2-5.9-6.3-78.9-6.8-81.8-.4-1.8-.1-3.5.5-3.8.6-.4 1.1-1.8 1.1-3.1s.5-3.5 1.1-4.9c1.5-3.2-.2-5.7-3.5-5.2-1.6.2-2.2 1.1-2.4 3.7-.1 1.9-.7 4.3-1.2 5.4-2.7 6-3.4 46.1-1.2 71 1 11.5 1.8 21.1 1.8 21.1-.1.1-2.7.4-5.8.8-4.9.5-5.9.3-7-1.3-1.2-1.7-1.6-1.7-3.3-.5-2.5 1.9-3.1 1.8-5.4-.8-1.8-1.8-2.6-6.8-1.1-6.6 1.4.3 3.9-1.5 3.4-2.4-.7-1.2 3.8 1.3 4.8 2.6.8 1.2 1.9-5.6 3.3-22.4.2-1.9.6-6.8 1-10.9.6-7 .6-7.3-1.3-6.9-2.1.6-4.2-1.9-4.2-5 0-2.4 3-5 5.2-4.7 1.8.3 2.2-1.7 3.4-15.8.8-9.5-.2-16.7-2.2-16.7s-2-18.8.1-25.6c.8-2.7 1.5-5.2 1.5-5.7 0-1.6-1.7-.6-3.3 2-4.5 7.2-8.4 10.4-14.6 11.9-8.2 1.9-13.8 5.4-12.4 7.8.3.5.1.6-.4.3-1.3-.8-3.6 1.7-2.5 2.8.4.5.1.5-.6 0-.9-.4-2.5.3-4.5 2.2-1.8 1.6-4.5 3.7-6 4.7-1.8 1.1-2.6 2.3-2.3 3.2.3.8.2 1.2-.4.9-2.8-1.7-6.3 17.2-3.7 20.4.8 1 .8 1.3 0 .8-1.3-.8-1.4.3-3.9 31.6-.8 10.9-1.3 20.5-1 21.3.3.9.1 1.2-.4.9-1.5-.9-1.2 4.1.4 5.4.7.6 1.6 3.7 2 6.7.4 3.1 1.4 7 2.4 8.6 1.3 2.3 1.4 3.2.4 4.8-1.6 2.7-1.6 8.4.1 7.4.9-.6.9-.4-.1.8-1.2 1.5-1.1 3.3.5 9.1.4 1.4 1.1 1.7 3.5 1.2l3-.7-.6 4.4c-.3 2.3-1 6.1-1.5 8.3-1.3 4.9-1.4 6.8-.2 6.1.4-.3 1.6.1 2.7.8 1.7 1.3 1.8 1.8.6 7.3-3.1 14.1-5.4 49.1-3.1 47.7.8-.4.9-.3.5.5-.4.6-.8 2.9-.8 5.2 0 4.3-1.8 6.9-4.8 6.9-2.7 0-3.1-2.3-3.1-16.4.1-12.9-.4-16-1.2-7.6-.3 2.5-.8 5.2-1.1 6.1-.4.9-.8 3.6-.9 6-.1 2.4-.5 4.6-.9 4.9-.3.3-.8 2.1-1 4l-.3 3.5 6.5.6c9.5 1 16 .5 17.1-1.2.5-.8.9-.9.9-.3 0 1.5 7.4 5.4 10.1 5.4 1.6 0 1.9-.4 1.4-1.8s-.4-1.5.7-.4 1 1.6-.7 2.8c-1.7 1.3-2 2.9-2.3 14.7-.3 11 0 14.9 1.9 23.2 1.2 5.5 2.4 14.8 2.7 20.7.3 9.5.6 10.8 2.1 10.8 2.2 0 14.2-3.9 15.7-5.1.6-.5 1.4-5.1 1.7-10.1.4-5.1 1.3-11.1 2.1-13.3 1.1-2.9 1.5-8.7 1.6-21.7 0-10.7.4-17.9 1-18.3.6-.3 1-1.5 1-2.6 0-1.3.7-1.9 2.3-1.9 2.3 0 2.3.1 1.9 9-.4 8.5-.3 9.1 2 11.1l2.4 2.1-1.7 9.2c-2 10.7-5.4 61.5-4.2 62.6 1.8 1.6 11.2 3.9 17.6 4.3 6.2.4 6.9.2 7.6-1.7 1.1-2.9 5.1-33.9 6.1-46.6.4-5.8 1.5-19.2 2.5-29.8.9-10.7 1.4-19.6 1.1-19.9-.3-.4-1.4.1-2.5 1.1-1.5 1.3-3.6 1.6-9.9 1.5l-8-.2-.4-5.3c-.1-3 0-5.4.5-5.4.4 0 .7 2.2.7 4.9v4.8l8.1.2c6.4.2 7.9-.1 7.3-1.1-.4-.7-.4-1 .1-.6.4.4 2.1-.2 3.8-1.4 1.7-1.2 2.7-1.7 2.3-1-.9 1.5-.3 1.5 4.4.1 3.5-1.1 4.1-.9 7.2 1.5 4.1 3.1 8.8 3.5 8.8.8 0-2.9-3-26.4-3.5-27.2-.2-.4-.7-3.4-1-6.6-1-9.5-2.6-17.8-3.8-19.3-.9-1.2-.9-1.3.1-.7 1 .6 1.1-.2.6-3.6-.9-6.4-1.3-7.3-2.6-6-1.1 1.1-3.8.5-5.1-1.2-.8-1.1 0-14.9 1.2-20.6.9-4.4 3.2-5.8 6.4-4.1 2.3 1.2 2.4 1.6 1.5 4.8-1.3 4.6.3 6.4 3.2 3.8 1.1-1 1.7-2.2 1.3-2.8-.3-.5-.1-.7.5-.4 1.3.9 7.4-8.2 6.5-9.7-.4-.6.1-.5 1 .3.9.7 1.8 1.1 1.8.7.2-1 .6-2 1.2-3.6.3-.8.5-2.2.5-3 0-3.5 1.1-12.1 1.8-13.1.5-.8.3-.9-.7-.4-1.2.7-1.2.6-.1-.7.7-.8 1.2-3.1 1.1-4.9v-7.9c.2-5.1-.5-10.6-1.4-12-.3-.6-.1-1 .4-1 .6 0 1.1-1.3 1.1-2.8 0-1.5.5-3.3 1.1-3.9.7-.7.9-2.9.6-5.5-.6-4.3-1.1-9.3-2.1-21.8-.2-3.6-.8-9.9-1.1-14-.4-4.1-.7-8.4-.6-9.5 0-1-.5-2.5-1-3.2-.6-.6-.8-1.6-.5-2.2.9-1.4-3.3-12.1-4.8-12.1-.7 0-2.1-.8-3.2-1.8-4-3.7-9.1-7.1-16.1-10.7-6-3-8.4-5.1-13.8-11.6-6.4-7.8-7.8-8.8-9-7zm22.5 22.7c0 1.6-.2 1.6-2.4.8-1.3-.5-1.4-.9-.5-2 1.3-1.6 2.9-.9 2.9 1.2zm-79.6 8.6c-.4.7-1.8 2.6-3 4.3-1.2 1.6-2.5 4-2.9 5.2-.7 2.7-3 3-3.9.7-.7-1.8 6.9-11.1 9.2-11.3.8-.1 1 .4.6 1.1zm26.6-.2c1.1.7.5.8-2 .4-4.3-.8-5.1-1.4-1.9-1.4 1.3 0 3.1.5 3.9 1zm53 1.5c0 .7-.7 1.8-1.5 2.5-1.1.9-1.5.9-1.5.1 0-.7-.4-.9-1-.6-.5.3-1 .1-1-.4 0-.6-.3-1-.7-1-2.2.4-4.3-.2-3.9-1 .9-1.4 9.6-1 9.6.4zm8.8.7c1.2 1.5.9 4.7-1.7 22.3-1.1 7.1-1.8 13.1-1.6 13.3.2.3 0 1.2-.5 2.1-.4.9-1.1 4.1-1.4 7.1-.3 3-1.3 9.8-2.1 15-.9 5.2-1.4 10.5-1.2 11.7.2 1.2 0 2.4-.4 2.5-.7.3-2 8.8-2.2 13.5 0 .7-.4 1.3-.9 1.3s-.7.4-.4.9c.8 1.2-4.2.1-5.3-1.3-1.5-1.8-2.9-27.8-3.2-58.3-.1-8.1-.5-12-1.2-11.6-.5.3-.7.2-.4-.4.3-.5 2.4-1 4.7-1 4.1 0 4.5.6 4.2 5-.1 1.2.2 1.6 1.1 1.1.9-.6.9-.4 0 .7-.7.7-1.3 1.9-1.3 2.6 0 .7.6 1.2 1.3 1 1.3-.2 1.3.2.3 4.8-.5 2-.4 2.7.3 2 .5-.6 1.2-3.7 1.6-7 .3-3.3.8-6.9 1-8 .5-1.9 1.1-6.7 2-14.9.3-2.2 1.1-4.3 1.7-4.8 1.9-1.2 4.4-1 5.6.4zm-17.6 3.2c.3 1.4.1 3.1-.3 3.8-.6.8-.9-.1-.9-2.5 0-4.2.6-4.8 1.2-1.3zm-66.5 19.9c-.7 1.1-2 2.3-2.7 2.5-.7.3-.3-.5.9-1.7s1.9-2.7 1.5-3.3c-.5-.7-.3-.8.5-.4.9.6.9 1.3-.2 2.9zm-20.2 14.9c-.4 5.1-1.1 9.7-1.7 10.3-1.1 1.1-.5-16.6.7-18.5 1.4-2.3 1.6-.5 1 8.2zm104-.3c-2.1 4.3-2.9 3.9-.8-.4.9-1.9 1.8-3.3 2.1-3.1.2.2-.4 1.8-1.3 3.5zm3.3 11.8c-1.6 3.9-2.8 5-2.2 2.2 1-4.2 1.3-4.9 2.3-4.9.7 0 .6 1-.1 2.7zm-73.2 2c-.8 1.5-1.5 2.5-1.6 2.1 0-1.2 2.3-5.8 2.7-5.4.3.2-.2 1.7-1.1 3.3zm46-1.1c-.4 1.1-.2 1.5.7 1.1.8-.3 1.4.1 1.4.8 0 1-.5 1.1-1.9.4-1-.5-2.4-.7-3.1-.3-.6.4-.3-.2.8-1.4 2.4-2.5 2.9-2.7 2.1-.6zm-37.1 7.5c.3.4-.6.7-2.1.6-5.5-.4-5.8 5.9-.3 7.4 2.4.7 2.4.7-.3.8-1.5.1-3-.4-3.3-.9-.4-.6-1-.8-1.5-.5-.4.3-.4-1.2.1-3.2.4-2.1 1.3-3.9 1.9-4.1.5-.2.8-.7.5-1.1-.2-.5.7-.6 2-.3 1.4.2 2.8.8 3 1.3zm79.7 2.4c.7 3.5-1.2 4.8-4.8 3.4-1.6-.7-3.2-1.2-3.6-1.1-.5.1-.8-.3-.8-.8 0-1.2 1.3-1.3 2.6-.1.5.5 1.8 1.2 3 1.5 1.8.6 2 .3 1.6-2.4-.5-3.6 1.4-4.1 2-.5zm-88.4 2.6c-.2.6-.8 1.1-1.3 1.1-.6 0-1.5.4-2.1.9-.7.5-1.1.4-1.1-.5 0-.8.8-1.3 1.9-1.1 1 .2 1.8 0 1.8-.6 0-.5.3-.9.6-.9s.4.5.2 1.1zm40.4 7.4c-.2 1.4-.9 2.5-1.4 2.5-.5 0-.7-.3-.5-.8.2-.4.7-1.5 1-2.5.9-2.5 1.5-2.1.9.8zm41.4 3.7c.1.8-.3 2.2-.8 2.9-.8 1.1-.9 1-.4-.4.3-.9.1-1.7-.3-1.7-.5 0-1.1-.6-1.4-1.4-.4-.9 0-1.3 1-1.2.9.2 1.7 1 1.9 1.8zm-118.8.1c1.4-.6 1.5-.5.2.9-1.5 1.6-3.1.7-2.9-1.7 0-.6.3-.5.5.2.3.7 1.3.9 2.2.6zm16.2 12.7c-.6 1.1-1.5 1.8-2 1.5-.4-.3-2.3.7-4.2 2.1l-3.3 2.6 3.3-3.1c1.8-1.7 3.7-2.9 4.1-2.6.5.3 1.1-.2 1.5-1 .3-.8.8-1.5 1.1-1.5.3 0 .1.9-.5 2zm-13.3 6.4c-.1 1.9-.5 3.2-.9 3-.5-.4-.5-4.9.1-6.2.6-1.3 1.1.5.8 3.2zm39.8 7.3c-.4 5.4-.9 10-1.2 10.3-.2.3-.3-4.1-.1-9.8.2-5.6.7-10.2 1.1-10.2.5 0 .6 4.4.2 9.7zm31.5-5c-.4 4.2-.5 4.4-.8 1.5-.3-3 .2-6.2 1-6.2.2 0 .1 2.1-.2 4.7zm49.2 3.2c.2 1.7.1 2.8-.4 2.5-.4-.3-.8 2.1-.9 5.3-.1 4.9-1.5 12.6-1.8 9.9-.1-.5-.8-.3-1.6.4-1.9 1.6-1.9.6.1-4.9.8-2.5 1.3-5.5 1-6.6-.3-1.2-.2-2.5.2-2.9.7-.8.9-1.4 1.1-4.6.2-3.1 1.8-2.4 2.3.9zm-24.9-.2c-.4 1.1-.3 1.4.5.9.7-.4 1.2-.2 1.2.3 0 .6-.4 1.1-.9 1.1-1.4 0-2.3-1.8-1.6-3 1-1.6 1.5-1.2.8.7zm-84.1 4.9c-.6 1.2-.9.7-.9-1.6s.3-2.8.9-1.6c.5.9.5 2.3 0 3.2zm102.2-3.4c-.5.7-.2.9.9.5s1.4-.2 1 .9c-.4 1.1-.9 1.2-1.9.3-1.2-1-1.1-2.9.2-2.9.3 0 .2.5-.2 1.2zm-32.3 1.4c-1.7 1.3-2.5 1.4-3.4.5-.9-.9-.8-1.1.4-.6 1 .4 2 .2 2.4-.4.3-.6 1.1-1.1 1.8-1.1.6 0 .1.7-1.2 1.6zm-52.1 7.2c3-1.9 7 .4 7 4 0 1.5-.5 3.3-1.2 4-1.7 1.7-5.3 1.5-6.8-.3-.7-.8-1.7-1.2-2.4-.8-.7.4-.6.1.1-.7 1-1.1 1.6-1 3.3.5 2.6 2.3 5.5 1 5.5-2.5 0-3.7-3-4.9-5.7-2.3l-2.3 2.2-.1-2.7c-.1-1.5.1-2.2.3-1.5.3.9.9 1 2.3.1zm83.1 3.4c1.6 2.9.2 2.1-2.2-1.5-1.7-2.3-1.8-2.8-.6-1.8 1 .8 2.3 2.3 2.8 3.3zm-41.8 2.4c0 3-.4 4.9-1.2 5-.8.2-.8.1 0-.3.7-.3.7-.8.2-1.2-.5-.3-.8-2.5-.5-4.9.5-5.5 1.4-4.7 1.5 1.4zm-62.3-.5c-1 3.5-2 4.9-2 2.9 0-1-.3-1-1.5 0-.8.7-1.5.8-1.5.2 0-.5.6-1.5 1.4-2.1 1.1-.9 1.5-.9 1.9.1.3.7.6.4.6-.8.1-1.8.9-3.4 1.7-3.4.1 0-.1 1.4-.6 3.1zm29.5 8.4c-.4 5.3-1 9.4-1.2 9.1-.3-.2-.2-4.8.2-10.1s1-9.4 1.2-9.1c.3.2.2 4.8-.2 10.1zm64-7.6l2 2.4-2.2-1.4c-1.3-.8-2.3-2-2.3-2.8 0-.8.1-1.2.3-1 .1.2 1.1 1.5 2.2 2.8zm-78.9.3c.1 1.2-.3 1.5-1.4 1-1.2-.4-1.3-.7-.3-1 1.1-.4 1.1-.6 0-1.4-1.2-.8-1.2-.9 0-.6.8.2 1.5 1.1 1.7 2zm83.4 6.1c1 2 1 2-.3.5-.8-1-1.6-1.6-1.9-1.3-.2.3-.5-.2-.5-1 0-1.9 1.4-1 2.7 1.8zm-36.8 3.9c0 1.8-.1 3.5-.2 3.8-.4.9-1 11.3-1.2 21.2-.2 5.4-.7 9.8-1.1 9.8-1.2 0 0-35.4 1.2-35.8.5-.2.7-1.1.4-2-.3-.9-.3-1.4.2-1 .4.4.7 2.2.7 4zm32 30.3c-.5 3-1.9 4.1-1.9 1.7 0-1.4 1.4-4.2 2.2-4.2.1 0 0 1.1-.3 2.5zm-23 4.4c.7-1.1.9-1.1.6-.1-.5 1.7-2.3 1.7-2.4 0-.1-.9.1-.8.4.1.3 1.2.5 1.2 1.4 0zm-10.7 15.6c1.1 22.9 1.1 27.5.4 27.5-.4 0-.7-2.4-.7-5.3 0-2.8-.4-12.4-.7-21.2-.4-8.8-.5-15.8-.2-15.5.3.3.9 6.8 1.2 14.5zm-42.4 19c-1.1 4.4-2 7.3-2 6.4-.1-2.3 3.2-16.6 3.5-15.4.2.5-.5 4.6-1.5 9zm-17.8 1.7c.4 2.6.2 3.8-.6 3.8-.9 0-1.1-1.3-.9-4.1.5-4.7.7-4.7 1.5.3zm16.4 13c-.2 1.3-.4.5-.4-1.7-.1-2.2.1-3.2.4-2.3.2 1 .2 2.8 0 4zm-18.4-1.2c.4 1.7.3 1.9-.9.9-.8-.6-1.4-1.8-1.4-2.6 0-2 1.6-.8 2.3 1.7zm102.9-.8c-.3 1.4-.1 1.9.6 1.4.8-.5 1-.2.6.8-.7 1.8-3.4 2.2-3.4.5 0-1.1 1.9-4.9 2.4-4.9.2 0 .2 1-.2 2.2zm201.5-237.9c-2.5 2.6-7.2 5.7-8.6 5.7-.5 0-1.1-.6-1.4-1.3-.2-.6-.3-.5-.2.5.2 1-1.1 2.2-3.9 3.4-2.2 1-4.8 2.3-5.6 3-.8.7-3.8 2.1-6.6 3.2-8.9 3.3-16.3 10.7-17 16.7-.1 1.1-1 17.1-1.9 35.5-1.7 32.9-1.8 33.7-4.8 42.5l-3.2 9v55.8l2.5.2c1.3.1 3.8-.6 5.5-1.6 1.6-1 5.6-2.4 8.8-3.2l5.7-1.5v7.1c0 4 .9 10.8 1.9 15.2 2 8.3 7.1 20.8 9 21.9.6.4 1.1 3.7 1.1 7.6 0 3.8.5 8.1 1 9.6.9 2.3.7 2.9-1.1 4.2-1.7 1.2-2 2.2-1.6 5.3.5 4.2-.9 6.5-1.6 2.7-.2-1.3-.3-1.1-.2.6.1 1.6-.1 4.5-.5 6.3-.5 1.9-.4 3 .1 2.7.5-.3.9 1.2.9 3.3 0 2.3-.3 3.3-.8 2.5-.9-1.4-.5 16.4.7 27.6.6 6.4.4 8.1-1.6 13-2.8 7-2.8 7.8-.1 9.3 3.1 1.7 18.5-.8 19.8-3.1 2-3.6 7-26 7.6-33.6.5-6 1.1-8.3 2.5-9.4 1.3-1 2.2-3.4 2.6-6.8.3-2.9 1-5.5 1.6-5.9 1.1-.7.4 12.6-1.3 22.2-.5 3.3-1 10.1-1.1 15.2-.1 5.1-.5 9.1-.8 8.9-.3-.2-.5 8.5-.3 19.4.2 17.4.5 20 2 21.4 3.1 2.7 25.2 5 25.2 2.5 0-.5.3-.8.8-.6.4.3.7-9.5.8-21.6 0-13.4.6-24.8 1.3-28.7.7-3.6 1.5-8.8 1.7-11.5.2-2.8 3.5-23.5 7.3-46 5.4-32.1 7-44.4 7.6-56.6.7-15.3.8-15.6 2.6-13.8 1.2 1.2 3.3 1.9 5.5 1.9 2 0 5.8 1.2 8.6 2.7 3.9 2.1 5.1 2.4 5.8 1.4 1.2-2 1.9-10.6 2.6-33.4.4-11.4 1-21 1.4-21.2.4-.3.4-2.4 0-4.7-.5-2.7-.4-4.8.2-5.6.8-.9.8-2-.1-3.8-.6-1.4-1.1-3.8-1.1-5.3 0-1.6-1.1-7.3-2.5-12.7-1.5-5.6-2.8-13.6-3-18.8-.6-13.9-3.6-27.1-7.1-30.7-1.5-1.6-3.3-2.9-3.9-2.9-.7 0-2-.9-3.1-2.1-1-1.1-4.6-4-7.9-6.4-3.4-2.4-8.9-7.3-12.3-11-7.3-7.7-9.2-7.9-9.2-1 0 2.6-.4 4.4-.9 4.1-.4-.3-1.6.3-2.6 1.4-1.5 1.6-1.6 2.2-.5 3.5.9 1.1 1.6 1.3 2.4.5 1.6-1.6 2.3-1.2 2.9 1.7.3 1.8 0 3.1-1.1 4-1.4 1-1.5 1.4-.3 2.2 1.7 1.1.6 6.7-1.5 7.5-1.9.7-1.8 5.5.1 6.2 2.1.9 1.9 5-.5 7.4-1.1 1.1-2 2.5-2 3 0 .6.9 1.8 2 2.7 2.2 1.9 2.6 5.3.9 7-1.9 1.9-.7 5.8 1.7 5.7 1.8 0 2.5 1.1 4.3 6.5 1.1 3.6 2.7 8.5 3.6 10.9 1.4 4.1 1.4 4.5-.3 6.7-2.4 3-2.5 11-.2 11 .9 0 1.5-.9 1.4-2.3-.1-3.7 1.3-2.5 2.4 2 .7 2.7.8 4.4.2 4.6-.6.2-1 1.9-1 3.8 0 2.6.4 3.4 1.8 3.4 1.3 0 2 1.3 2.9 4.7 1.3 5.6 1 6.3-2.4 6.3-2.1 0-2.3-.2-1.3-1.4 1.8-2.3.9-6.1-1.5-6.1-2.3 0-3.4 4-1.6 5.8 1.2 1.2 1.5 3.1.3 2.3-.4-.2-3.2.2-6.2 1-7.1 1.8-12.4 1.8-14-.1-1.3-1.5-5-2.1-5-.7 0 .4 1.2 1.5 2.8 2.4 2 1.3 2.2 1.8 1 1.8-1 0-1.8-.5-1.8-1 0-.6-4.2-1-10.5-1-8.7 0-10.5-.3-10.5-1.5s1.3-1.5 5.9-1.5c6.3 0 8.1-1 5.6-3-1.3-1.1-2-1.1-3.9 0-3 1.5-4.6.6-4.6-2.6 0-1.3-.4-2.4-1-2.4-.5 0-1-1.1-1-2.5 0-2 .5-2.5 2.5-2.5s2.5-.5 2.5-2.5c0-1.4-.9-3.3-2-4.2-1.1-1-2-2.1-2-2.6s.9-2 2-3.4c2.3-3 2.6-6.3.6-6.3-.8 0-1.6-1.3-1.8-3-.4-2.5-.1-2.9 1.6-2.7 1.6.2 2.2-.5 2.4-2.7.4-3.5-1.4-5.8-2.8-3.6-.7 1.1-1 .7-1-1.8 0-2 .6-3.5 1.5-3.8 1.3-.5 1.5-3.2 1.3-17.2l-.3-16.6 2.5-.6c2-.5 2.5-1.2 2.5-3.5 0-2.4-.5-3.1-2.3-3.3-2.3-.4-2.3-.5-1.8-9.5.8-13.3 1-15.5 1.9-16.3 1.1-1.1.8-5.4-.3-5.4-.6 0-2.1 1-3.3 2.3zm-33 128c-.2 2.3-.3.1-.3-4.8 0-5 .1-6.8.3-4.2.2 2.6.2 6.7 0 9zm1 25.9c-.2 1.8-.4.6-.4-2.7 0-3.3.2-4.8.4-3.3s.2 4.2 0 6z"/><path d="M349 121.212c-.9 1.3-3.4 3.6-5.5 5.1-3.8 2.6-4.1 2.7-6.5 1.1-1.4-.9-3-1.4-3.6-1-.6.3-1.3-.3-1.6-1.5-.6-2.2-2.7-2.8-3.8-1.1-.3.5-.3 2 0 3.3.7 2.7 4 3.2 5.4.8.7-1.1 1.3-1 3.6.5 2.7 1.8 2.7 1.8.7 2.7-3.2 1.5-3.5 3.7-.7 6.5 2.1 2 2.4 3.1 1.9 5.9-.6 3.4.3 4.2 2.4 2.1.8-.8 1.5-.8 2.4 0 1.1.8 1.4.7 1.5-.9.1-1-.2-1.9-.8-1.9-.5 0-.8-1-.6-2.3.1-1.6-.3-2.1-1.5-1.9-1.2.2-1.8-.4-1.8-1.8 0-1.2-.7-2-1.7-2.1-1.1 0-1.3-.3-.5-.6.6-.2 1.2-1.1 1.2-1.8s2.3-3.2 5-5.5c2.8-2.3 5.5-5.1 6.1-6.1 1.4-2.7.2-2.3-1.6.5zm225 2.6c-1.5 4.7-.7 9.7 2.5 14.6 2.8 4.4 3.1 4.7 3.6 2.6.4-1.2 1-2.2 1.5-2.2 1.4 0 1.1 2-.5 3.6-1.3 1.2-1.2 1.9.2 5.4.9 2.2 2 4 2.3 4 1.1 0 2.3-7.2 2-11.8-.3-4-.2-4.2 2.6-4.2 2.7 0 2.9.2 3 4.7.1 2.7.8 7 1.6 9.8l1.4 5 3.2-5c1.7-2.8 4.3-8.5 5.6-12.7 2-6.4 2.3-8.2 1.3-10.3-.6-1.4-1.4-2.5-1.7-2.5-.3 0-1.8 1.5-3.3 3.4-2.3 2.8-3.4 3.4-8.3 3.9-4.6.5-6.1.2-8.9-1.6-1.9-1.2-4.3-3.7-5.4-5.6-1.9-3.3-2-3.3-2.7-1.1zm5.3 12.6c-1 1-2.8-.6-2.8-2.4 0-1.5.1-1.5 1.7.1.9.9 1.4 1.9 1.1 2.3zm-487.7-.9c-.1 5.2.2 6.1 1.4 5.7 1.8-.7 1.8-2.5 0-7.9l-1.3-4-.1 6.2zm234.5-2.8c-2.4 2.6-1.7 5.6 1.3 5.6 3.7 0 5-3 2.5-5.5-2-2.1-2-2.1-3.8-.1z"/><path d="M333 142.212c-1.8 1.3-1.6 4.6.3 4.6 1.5 0 4.4-3.8 3.7-4.9-.8-1.4-1.7-1.4-4 .3zm5.7 7.8c.3 2-.2 2.3-2.7 2.3s-3.1.4-3.3 2.7c-.4 3.2 3.4 6.1 4.4 3.3.9-2.2 8.4-2.1 8.4.1 0 2 2.4 1.3 2.8-.8.2-.9-.5-2.3-1.4-3.2-.9-1-1.6-2.8-1.6-4.2 0-2.1-.5-2.4-3.5-2.4s-3.4.3-3.1 2.2zm-13 9c-1.7 1.7-1.5 4.5.4 5.2 2.2.9 4.6-1.3 4.2-3.8-.4-2.4-2.8-3.2-4.6-1.4zm265 1.3c-.6 1.4-.7 2.5-.2 2.5.9 0 2.5-3.9 1.8-4.6-.3-.2-1 .7-1.6 2.1zm-252.3-.1c-.1 0-.3 1.7-.4 3.6-.4 4.7-.5 4.8-1.6 2.2-1-2.7-3.3-2.5-3.7.4-.4 2.5 3.6 6.4 4.7 4.6.4-.6 2.1-1.2 3.9-1.4 2.3-.2 3.2-.7 3-1.8-.1-.8.4-2.6 1.1-3.8.7-1.3 1-2.7.6-3-.5-.6-7.2-1.3-7.6-.8zm7.1 8.1c0 1.7.5 2.5 1.3 2.2.6-.2 1.2-1.2 1.2-2.2 0-1-.6-2-1.2-2.3-.8-.2-1.3.6-1.3 2.3zm-18.3 2.2c-1.3 1.2-.7 6 .8 7.3 3.2 2.6 6.3-3.8 3.3-6.8-1.3-1.3-3.1-1.6-4.1-.5zm10.6 5c0 1.9.2 2.2.8 1.1.6-1 1.9-1.4 3.9-1.2 2.1.3 3-.1 3-1.1 0-1.1-1.1-1.5-3.9-1.5-3.5 0-3.8.2-3.8 2.7zm6.5 1.9c-.3.3-2 .7-3.8.9-1.8.3-3.5.7-3.9 1-1.1 1.1 1.9 2.1 5.3 1.7 2.7-.3 3.4-.8 3.3-2.3-.1-2.1-.1-2.1-.9-1.3zm-291.5 6c-.8 2.2.9 4.8 3.5 5.2 1.6.2 2.3-.3 2.8-2.2.3-1.4.3-3-.1-3.5-1-1.7-5.5-1.3-6.2.5zm274.7 4.3c0 2.5.4 3.1 2.1 3.1 1.6 0 2-.5 1.7-2.7-.2-1.7-1-2.9-2-3.1-1.4-.3-1.8.3-1.8 2.7zm9.3-1.7c.2.7 1.8 1.3 3.6 1.3 1.7 0 3.5.6 4 1.4.6.9.9.5.9-1.3 0-2.4-.4-2.6-4.5-2.6-3.1 0-4.3.4-4 1.2zm12.5 3.3c-.9 1.9-.9 2.8 0 3.7 1.5 1.5 2.8.2 3.7-3.5.9-3.6-2-3.8-3.7-.2zm-12.4 1.4c-1.3 1.4.1 2.1 4.1 2.1 2.5 0 4.5-.4 4.5-.9 0-.9-7.7-2-8.6-1.2zm7.6 4.4c0 .9-1.3 1.3-3.7 1.3-2.1-.1-3.8.4-4.1 1.2-.2.8 1 1.2 4.2 1.2 4.2 0 4.6-.2 4.6-2.5 0-1.4-.2-2.5-.5-2.5s-.5.6-.5 1.3zm11.5.8c-1.3 1.9.4 5.9 2.5 5.9s2.4-1 1.4-4.8c-.7-2.3-2.8-3-3.9-1.1zm-28.2 3.1c-1.6 2-2.4 6.6-1.3 7.3 2.9 1.8 7.2-4.3 5-7-1.5-1.8-2.5-1.9-3.7-.3zm20.7 3.2c0 2.8 3.5 5.7 5.6 4.9 2-.7 1.7-3.7-.4-5.6-2.8-2.5-5.2-2.2-5.2.7zm-12.3-.8c-1.4 1.4.6 2.4 4.9 2.4 3 0 4.4-.4 4.4-1.3 0-1.4-8.1-2.3-9.3-1.1zm-.5 6.6c.3.8 2.5 1.4 5.7 1.6 4 .2 5.2 0 4.9-1-.3-.8-2.5-1.4-5.7-1.6-4-.2-5.2 0-4.9 1zm-9.5 3.5c-1.2 1.1-.7 4.7.8 6.7 1.8 2.4 4.5 1.4 4.5-1.6-.1-3.9-3.4-7.1-5.3-5.1zm9.8 1.4c-.9 1.4-.7 1.5 4.7 2.3 2.9.4 4.9.3 5.3-.4.7-1.2-.5-1.7-5.7-2.4-2.1-.3-4-.1-4.3.5zm17 .9c-1 1.7 2.3 6 4.5 6 2.6 0 2.6-3.1.2-5.3-2.1-1.9-3.8-2.2-4.7-.7zm-16.5 4c0 .5.1 1 .3 1.1.1 0 2.3.3 5 .6 4.8.5 6.6-.9 2.5-2.1-3.6-.9-7.8-.7-7.8.4zm12.3 2.1c-.5.5-.8 2.1-.5 3.5.4 2 1 2.4 3.1 2.2 1.8-.2 2.6-.9 2.6-2.2 0-2.4-3.7-5-5.2-3.5zm-12.7 1.7c-1.3 1.3-.4 2 4 3.1 3.2.8 5 .9 5.7.2 1.1-1.1.7-1.3-5.5-2.9-2-.6-3.9-.7-4.2-.4zm19.2 4.4c-1.6.5-2.8 1.7-2.8 2.5 0 1.2.7 1.4 3.2.9 4-.8 5.3-2 3.6-3.3-.9-.7-2.3-.7-4-.1zm-31.3.8c-.4.7-.3 1.6.3 2.2 1.4 1.4 6.5.1 5.9-1.5-.5-1.6-5.3-2.1-6.2-.7zm11.5 1c0 1.3 4.1 2.9 8.4 3.4 2.3.2 3.2.9 3.6 2.7.8 3.3 4 3.8 4 .7 0-3.1-2.3-6.2-4.1-5.6-.8.3-3.1-.1-5.3-.8-4.6-1.7-6.6-1.8-6.6-.4zm-289 3c-3.7 3.7.9 8.5 5.1 5.1 2.5-2 2.1-4.4-1-6.1-1.7-.8-2.4-.7-4.1 1z"/><path d="M335.5 233.112c0 1 1.4 1.8 4 2.2 2.2.4 4 1.2 4 1.8 0 .7.5.4 1.1-.6 1.4-2.4.4-3.3-4.8-4.2-3.5-.5-4.3-.4-4.3.8zm183.1 31.8c-1.9 1.1-3.1 2.5-2.8 3.3.3.7.9 3.4 1.2 6 .4 2.5.8 4.6 1 4.6.1 0 1.7-.8 3.6-1.7 1.8-.9 4.8-1.7 6.7-1.7l3.3-.1-.2-5.2c-.3-5.6-.9-6.3-6.5-6.9-1.7-.2-4.4.5-6.3 1.7zm17.6 5.6c-1.2 1.1-.8 4.6.6 6.2 1.1 1.2 1.8 11.3 3 40.6.9 21.4 1.6 39.8 1.6 40.8s1.1 4.2 2.5 7.3l2.5 5.5-3 2.7c-3 2.7-3 2.7-1.5 7.2.8 2.5 3 10.2 4.9 17.1 3 10.5 3.5 13.6 3 19-.3 3.5-.9 6.6-1.3 6.9-.3.3-2.1 4.8-3.9 10-3.8 10.9-3.9 17.2-.2 27.5 2.5 7.1 4.1 8.9 7 8 4.6-1.4 8-5.6 11-13.5 2.8-7.1 3.1-9.1 3.1-18.9 0-7-.4-11.2-1.1-11.7-.7-.4-.2-1.4 1.4-2.8 2.2-1.8 2.6-3.2 3.2-10.7.4-5.4.3-8.9-.3-9.3-.6-.4.2-3 2-6.6 1.6-3.3 2.8-6.8 2.6-7.9-.2-1.1.8-3 2.3-4.4 2.5-2.2 2.7-3.2 3.4-13.9.5-8.2.4-12.7-.5-15.3-1.3-3.8-.9-11.2 1.2-21.8 1.5-7.7 2.7-8.1 2.4-.7-.1 3.3.3 7.7 1.1 9.8 1.6 4.5 1.6 20.8 0 23.4-1 1.5-.7 2.8 1.6 6.8 4.3 7.9 3.8 17.8-2.8 52.6-2.8 14.3-3.5 20.8-3.7 31.5-.1 13.5.3 16.5 2.4 15.3.8-.5.9 0 .3 1.7-.4 1.3-.9 5.3-1.1 8.9-.2 5.5.1 6.7 1.9 8.6 3.2 3.2 4.7 5.2 4.7 6.2 0 1.6 5.4 3.3 12.2 3.9 5.9.5 6.8.4 6.8-1.1 0-.9.7-1.6 1.5-1.6 1.2 0 1.3-.9.8-4.8-.4-3.6-1.5-5.7-4.4-8.9-4.1-4.5-4.7-5.9-2.6-6.6.9-.3.7-.9-.5-2.4-2.2-2.4-2.3-3.4-.3-2.7 2 .8 2.8-1.7 5.4-17.6 1.2-7.4 2.4-14.6 2.7-16 .2-1.4.9-5.4 1.4-9 .6-3.6 1.3-7.6 1.6-9 .2-1.4.9-5.4 1.4-9 .5-3.6 1.1-7.4 1.4-8.5.2-1.1.7-4.3 1-7 .4-2.8 1.5-6.1 2.3-7.4 1.9-3 1.3-16.2-1.2-25.4-1-3.9-1.2-6.4-.6-7.6.5-.9 1.2-6.2 1.6-11.7.3-5.4.8-11.3 1-12.9.2-1.7.7-6.2 1-10 .8-10 1.5-13.5 2.5-13.5.6 0 1-3.7 1-8.4v-8.5l3 .9c2.8.8 8 1.3 10.8 1.1.7-.1 1.2-1.7 1.2-4.5v-4.3l-6.2-.9c-3.5-.4-7-.8-7.8-.9-1 0-1.4-.9-1.2-2.4.1-1.3-.3-3-.9-3.7-.8-1-.8-1.4 0-1.4.6 0 1.1-.6 1.1-1.3 0-.8-2.5-1.3-8.7-1.5-4.9-.1-13.5-.7-19.3-1.2-11.8-1.1-57.3-1.4-58.3-.3zm54.8 201.3c.7 1.2-2.2 1.2-5 0-1.7-.7-1.5-.9 1.2-.9 1.7-.1 3.5.3 3.8.9zm-207.8-184.3c-.4.3-.7 1.1-.7 1.7 0 .6.4.4 1-.4.7-1.2 1.2-1.1 3.2.5l2.3 2-1.9-2.3c-2-2.3-2.8-2.6-3.9-1.5zm-96.8 9.5c-.3 2.2-.1 3.4.4 2.9s.7-2.1.5-3.7c-.3-2.7-.4-2.6-.9.8zm3.4 1.3c0 2.2.2 3 .4 1.7.2-1.2.2-3 0-4-.3-.9-.5.1-.4 2.3zm90 4.5c.4 1.5 3 1.8 5.8.6 1-.5 1.9.1 2.7 1.6.6 1.3 1.1 1.8 1.1 1.2.1-.5-.5-1.8-1.2-2.8-1.1-1.5-1.6-1.6-4.1-.5-2.3 1.1-2.9 1-3.7-.2-.9-1.2-1-1.2-.6.1zm-94.5 3.7c1.2.2 3 .2 4 0 .9-.3-.1-.5-2.3-.4-2.2 0-3 .2-1.7.4zm16.4 31.3c0 1.9.2 2.7.5 1.7.2-.9.2-2.5 0-3.5-.3-.9-.5-.1-.5 1.8zm-.8 7.4c-.3.8-.4 2.5-.1 3.8.3 1.7.5 1.5.6-1 .1-2.2.5-3.1 1.3-2.6.7.4.8.3.4-.4-1-1.6-1.5-1.5-2.2.2zm6.9 89.6c0 2.5.2 3.5.4 2.2.2-1.2.2-3.2 0-4.5-.2-1.2-.4-.2-.4 2.3zm-262.3 8.3c-1.4 1.2-4.3 6.2-6.3 11-3.5 8-3.7 9.3-3.1 14.7 1 8.8 5.1 12.5 13.8 12.5 5.2 0 6.1-.3 8.2-3 2.3-2.8 2.4-3.5 1.8-10.5-.4-4.1-.8-10.9-1-15-.1-4.1-.3-7.9-.3-8.3-.1-1-6.5-3.7-8.8-3.7-1 .1-2.9 1.1-4.3 2.3zm261-1.1c0 .4 1.4.8 3 .8 1.7 0 3-.2 3-.4s-1.3-.6-3-.8c-1.6-.3-3-.1-3 .4zm9.5 2.3c1.7.9 3.6 2.3 4.3 3.2.6.9 1.2 1.2 1.2.6 0-1.4-5.3-5.3-7.2-5.3-.7 0 .1.7 1.7 1.5zm-7.5 2.4c0 .5-1.2 2.1-2.6 3.6-2.6 2.8-4.8 7.4-4 8.2.7.7 6.4-2.6 7.4-4.2.8-1.6 4.2-1.1 4.2.6 0 .5.5.9 1.1.9.7 0 .9-1.1.6-3-.8-3.7-.2-3.7 4.8-.3 2.6 1.7 3.5 2 2.5.9-3.3-4.1-14-9.2-14-6.7zm2.5 2c.6 1.1-4.9 7.1-6.5 7.1-.6 0 .4-1.8 2.2-4 3.7-4.5 3.5-4.3 4.3-3.1zm70.7 2.1c0 1.9.2 2.7.5 1.7.2-.9.2-2.5 0-3.5-.3-.9-.5-.1-.5 1.8zm-54.8 6.7c1.9 2.1 2.7 3.9 2.3 5.2-.3 1.2-.1 1.9.4 1.5 1.8-1.1.8-4.1-2.3-7l-3.3-2.9 2.9 3.2zm-250.5 2.8c-.3.3-3.5.8-7 1.1-7.1.6-7.6.8-6.2 2.6.9 1.1 1.1 11.7.3 12.5-.7.8-.5 7 .2 8.5.6 1.3 1.6 1.6 4.1 1.2 1.7-.3 6.4-.6 10.2-.7 3.9-.1 7.3-.5 7.6-1 .8-1.1-.2-6.7-1.1-6.7-1.6 0-3.7-5.7-3.5-9.3 0-2.1-.2-3.7-.5-3.7-.4 0-.6-1-.6-2.2.1-2.1-2.3-3.6-3.5-2.3zm.9 14.3c.2.7-.6 1.2-1.7 1.2-2.1 0-2.7-1.1-1.4-2.4.9-.9 2.6-.2 3.1 1.2zm246.5-7.8c-2.3 1.4-3.3 2.7-3.2 4.2l.2 2.3.4-2.3c.2-1.2 1.8-2.9 3.4-3.7 1.6-.9 2.9-1.8 2.9-2 0-.7-.2-.6-3.7 1.5zm13.2.9c-.3.9 0 1.1 1 .7 1.1-.4.9.3-.6 2.3-2.3 3.1-1.9 5.1.9 4.6.9-.2 2-.4 2.4-.4.3-.1.9-1.5 1.3-3.1l.7-3.1 3.4 3.7c1.8 2.1 3.6 3.5 3.9 3.2.3-.3 0-1.2-.7-2-.7-.7-2.2-2.4-3.2-3.6-1.9-2.2-1.9-2.2.5-2 1.3.2 2.9 1 3.6 1.8.6.8 1.5 1.2 1.9.7.4-.4.2-.7-.4-.7-.6 0-.9-.7-.6-1.5.4-1 0-1.3-1.5-1-1.2.2-2.1 0-2.1-.4 0-1.4-9.9-.7-10.5.8zm3.5 4.1c-1.1 2-3 2.8-3 1.2 0-1.1 2.2-3.2 3.2-3.2.5 0 .4.9-.2 2zm-37.8 9.7c.2 1.6 1 1.8 6.9 1.5 8.8-.5 8.4-2.6-.6-3-5.6-.3-6.4-.1-6.3 1.5zm29.5 5.5c-.5 1.7 3.1 4.8 5.7 4.9 13.7.4 20.6-.7 19-3.2-.2-.4-4.5-.8-9.5-.8-4.9 0-9.8-.5-10.9-1.1-2.5-1.3-3.7-1.3-4.3.2zm-51.6 4.3c-1.7 2-3.1 3.9-3.1 4.2 0 .4.3.3.8-.3.4-.5 2-2.4 3.6-4.2 1.7-1.7 2.7-3.2 2.4-3.2-.3 0-2 1.6-3.7 3.5zm87.4 7.7l-5 5.3 5.3-5c4.8-4.6 5.7-5.5 4.9-5.5-.1 0-2.5 2.4-5.2 5.2zm-26.7 17.4c-3.8 2-3.6 2.8.2.9 1.7-.9 3-1.8 3-2 0-.7-.1-.6-3.2 1.1z"/><path d="M330.3 521.912c-3.2 1.6-5.8 3.2-5.8 3.4 0 .5 11.9-5.2 12.9-6.1 1.3-1.2-2.2.1-7.1 2.7zm-50.8 2.8c2.2 3.2 10.3 9.1 12.4 9.1.6 0-.9-1.2-3.4-2.5-2.5-1.4-6-4.2-7.9-6.3-3.3-3.7-3.3-3.7-1.1-.3z"/></svg>