<svg version="1" xmlns="http://www.w3.org/2000/svg" width="543.961" height="1080.348" viewBox="0 0 407.97 810.261"><path d="M25.67 3.484c-.8 1.9-1.3 4.6-1 6 .4 1.9-.1 2.9-2.1 4.2-2.8 1.8-3.7 5.1-1.1 4.2 2.1-.9 2.9 1.1 1.1 2.9-.9.8-1.6 2.3-1.6 3.3 0 .9-.5 2.2-1.1 2.8-1.2 1.2-.2 6.3 1.3 6.3.6 0 .7.8.3 1.7-.4 1-.9 4-1 6.6-.2 2.6-.8 5.3-1.4 6-.5.7-.8 2.3-.4 3.5.3 1.2.1 2.2-.4 2.2-.6 0-1.5 3.7-2.2 8.2-1.7 10.8-1.6 12.3.8 15.2.7.8 1 2.3.7 3.3-1.2 4.2-1.6 8-1 11.5.7 4.3 1.5 4.8 2.9 1.6.6-1.2 1.6-2.4 2.3-2.6 1.1-.3 1.2 0 .2 1.8-.6 1.2-.9 2.4-.6 2.7.3.4.2 1.1-.3 1.7-1.4 1.8-2.4 8.9-1.2 8.1.6-.3 1.1-1.3 1.1-2.1s.7-2.6 1.6-4c.9-1.3 1.4-2.7 1-3.1-.3-.3.5-2.5 1.9-4.9 1.4-2.3 2.5-4.9 2.5-5.6 0-.8.9-3.1 2-5.3 1.1-2.2 2-4.5 2-5.2 0-.7.4-1.3.8-1.3s1.4-2 2.1-4.5c.7-2.5 1.7-4.5 2.1-4.5.5 0 1.2-1 1.5-2.1.4-1.2 1.8-3.3 3-4.8 3-3.3 7.5-9.9 7.5-11 0-.4 1.2-1.3 2.6-1.9 1.9-.9 2.4-1.7 1.9-3.2-.5-1.5-.3-1.8.9-1.4 1 .4 2.1-.7 3.6-3.6 1.1-2.2 2.7-4.3 3.5-4.7.8-.3 1.5-1.4 1.5-2.4 0-2 1.5-2.6 2.5-.9.4.6 1.1.8 1.6.4.5-.3.7-1 .3-1.5-.3-.6.1-1.8.9-2.7.9-.9 1.8-2.9 2.2-4.4.4-1.5 1.3-3.2 2-3.8.8-.6 1.1-1.8.8-2.6-.4-1 0-1.2 1.3-.7 1.4.5 1.6.3 1.1-1.1-.4-1-.7-2.4-.7-3.1 0-.8-2.1-1.8-5.2-2.5-6.2-1.3-27.6-4.6-36.5-5.5l-6.2-.7-1.4 3.5zm157 44.3c-.4.4.6 2.1 2.2 3.9 3.2 3.7 4.8 9.9 3.1 12-.9 1.1-.7 1.2.8.9 1.3-.4 2.2.2 3 2 1.3 2.8 3.2 3.5 3.2 1.1 0-.8-.4-1.5-1-1.5-.5 0-1-.5-1-1.1 0-.6.6-.9 1.4-.6 1.8.7 3-4.8 1.5-7.5-1.3-2.4-.6-3.4 1-1.4 1.5 1.8 2.4 11.9 1 11.1-.5-.4-.9-.1-.9.4 0 .6.7 1.1 1.5 1.1s1.5.7 1.5 1.6c0 .8-.4 1.2-1 .9-.5-.3-1-.2-1 .2 0 1 2.9 5.1 3 4.3.8-3.6 1-5.4 1.1-10.7 0-3.4-.2-6.7-.5-7.2-.7-1.1-16.3-10.1-17.5-10.1-.4 0-1.1.3-1.4.6zm-13.7 12c0 1.1.7 2.9 1.5 4 1.4 1.9 1.4 1.9 1.5-.2 0-1.1-.7-2.9-1.5-4-1.4-1.9-1.4-1.9-1.5.2zm69.8 23.6c-.3.7.2 2.6 1.1 4.3l1.6 3 .3-2.9c.4-3.2-2.2-6.9-3-4.4zm-221.5 31.3c.2 3.9 1.2 4.6 2 1.4.3-1.2 1-1.8 1.6-1.4 1.6.9 1.3-.1-.5-1.9-2.4-2.5-3.4-1.9-3.1 1.9zm-.8 7.6c-.4 1.1-.4 2.3-.1 2.7.8.7 3.6-3 3-4-.9-1.4-2.3-.8-2.9 1.3zm1.2 6c-2.9 4-.7 15.3 2.5 13.3.4-.3.5-1.6.2-3-.4-1.7-.2-2.4.6-2.2.7.2 1.5-.3 1.8-1.1.3-1 0-1.2-1.2-.8-1.5.6-1.7.1-1.5-3.3.4-4.8-.4-5.8-2.4-2.9zm276.8 5.9c.9 4.9.8 6.9-.4 11.4-1.2 4.8-.6 5.9 2.5 5.3 2-.3 2.2-.1 1.4 1.4-1.6 2.8-1.1 3.7.5.9 1.7-2.9 2-8 .5-8-.5 0-1-.5-1-1.1 0-.7 1-.9 2.5-.5 2.7.7 3.4-.8 1-2.2-.9-.4-1.7-1.9-2-3.2-.3-1.3-1.6-3.6-3.1-5l-2.5-2.5.6 3.5z"/><path d="M16.57 142.984c-.2.4-.2 4.1.1 8.2.3 4.1.5 8.4.4 9.5 0 1.6.2 1.7.9.5.8-1.2 1.1-1.3 1.9-.1.6.9 1 1 1.6.2.4-.7.2-1.8-.4-2.4-1.1-1.3-.5-5.3 1.1-7.3.5-.7.3-1.4-.7-1.8-.8-.3-1.5-1.4-1.5-2.5 0-3.9-2-6.5-3.4-4.3zm284.4 11.6c0 1.4.5 2.6 1 2.6.6 0 1-.9 1-1.9 0-1.1-.4-2.3-1-2.6-.6-.4-1 .5-1 1.9zm-2.3 7.3c-1 1.6 1.1 3.9 2.3 2.7.8-.8.7-1.4-.4-2.3-.8-.7-1.7-.8-1.9-.4zm22.4 4.7c-.9 1-.7 1.6.5 2.7 1.3 1 1.7 1 2.4-.1.9-1.4.3-4-1-4-.4 0-1.3.6-1.9 1.4zm-303.9 3.1c.1 1.6-.2 4.7-.7 6.9-.7 3.5-.6 3.8 1 2.8 1.8-1 5-9.3 3.5-8.9-.5.1-1.5-.7-2.4-1.8-1.5-1.9-1.5-1.9-1.4 1zm260.8-1c0 .8.5 1.5 1 1.5.6 0 1-.7 1-1.5s-.4-1.5-1-1.5c-.5 0-1 .7-1 1.5zm19.4-.1c-.3.8-.1 2.3.5 3.3.9 1.5 1 1.3 1.1-1.5 0-3.4-.7-4.2-1.6-1.8zm15.9 13.9c-.6.6-1.6 3.4-2.4 6.1-1.5 5.2-3.1 6.5-5.4 4.6-1.3-1.1-1.5-.8-1.5 1.8 0 3.3-1.7 4.5-7.2 5-1.1.2-2 1.8-2.8 5.2-1.1 4.7-3 6.8-3 3.4 0-1.1-.5-1.4-1.7-1-.9.4-2 .1-2.4-.6-.6-1-1.1-1-2-.1-1.8 1.8.7 4.3 4.3 4.3 2.8 0 3 .2 2.4 2.7-.4 1.6-1.4 3.3-2.1 3.9-1.7 1.3-.9 2.4 1.7 2.4 1.1 0 1.8-.7 1.8-2 0-1.1.5-2 1.1-2 .9 0 .8 2.4-.4 6-.1.3.2.6.7.8.6.1 1.2-1 1.4-2.5.5-4.3 2-5.2 4-2.5 1 1.3 2.1 2 2.5 1.6.4-.4.2-1.3-.4-2-1.4-1.7-.1-5.7 1.6-5.1.7.3 1.8 0 2.4-.6.8-.8 1.4-.8 2.3.1.7.7 1.7.8 3 .1 1-.5 1.8-.6 1.8-.2 0 .4.7-.1 1.6-1.2 1.4-1.9 1.5-1.9 2 .3.9 3.2 2.4 2.7 2.4-.8 0-2 .5-3 1.5-3 1.7 0 2.1 4.5.4 5.5-.6.4-.7 1.4-.3 2.4.4.9.6 2.8.5 4.2 0 1.5.6 3.2 1.4 3.9 1.2 1 1.5 1 1.5-.1.2-11.7 1.1-17.1 3.8-22.1 3.4-6 3.2-8.1-.4-7.2-2.6.7-2.9-.1-1.4-4 .6-1.7.6-2.7-.1-3.2-.6-.3-.9-1.7-.6-3 .5-3-1.1-3.2-1.7-.2-.6 2.8-1.5 9.7-1.6 12 0 2.9-2.7 2.1-3.3-1-1-5.1-1.3-6.1-2-6.8-.4-.4-.7-1.8-.7-3 0-2.7-1.4-3.8-2.7-2.1zm1.7 11.5c0 1.1-.8 1.8-2 1.9-1.2.1-2-.4-2-1.4 0-.9.6-1.3 1.5-.9.8.3 1.5.1 1.5-.4 0-.6.2-1 .5-1s.5.8.5 1.8zm8 7.3c0 1-.5 1.9-1.2 1.9-.6 0-2 .7-3 1.7-2.6 2.4-2.3-.2.5-3.7 2.4-3 3.7-3 3.7.1zm-283.7 2.8c-1.3 1.1-2.3 2.6-2.3 3.4 0 1.3-.6 1.4-3 .7-2.5-.7-3.2-.5-4.5 1.3-1.3 1.9-1.5 1.9-1.5.4 0-1.4-.5-1.7-2.2-1.1-3 .9-3.9 2.4-2.7 4.6.6 1.2.6 1.8-.1 1.8-.5 0-1 1.3-1 2.9 0 2.9-2.2 6.1-4.1 6.1-.5 0-.9 2-.9 4.5 0 3.3-.4 4.5-1.5 4.5-2.2 0-4.7 4.4-4 7.3.4 1.5.1 3-.8 3.9-.8.8-1.7 2.3-2 3.4-.4 1.6-.5 1.6-.6.1 0-.9-.5-1.7-1-1.7-1.3 0-2.4 5.5-1.6 7.9.3 1.1.1 2.2-.5 2.6-.8.5-1 2.9-.5 7.5.4 4.4.3 7-.4 7.4-.6.4-.8 2-.4 3.6.6 3.3-1 4.1-2.6 1.2-.6-.9-1.1-1.3-1.1-.9 0 2 4.7 8.7 6.1 8.7 1.9 0 7.1 4.5 6.7 5.8-.5 1.4 7.3 8.2 9.3 8.2 1.1 0 1.9.4 1.9.9 0 .6 1.4.4 3.3-.3 6.5-2.6 7.2-2.9 9.7-3.1 1.4-.1 3 .2 3.6.7.6.4 2.2.8 3.5.9 1.3 0 5.6.2 9.4.3 10.4.4 10.5.4 10.5 2.4 0 1.5.7 1.8 3.9 1.6 2.1-.1 4.3-.4 4.8-.7 1.2-.8 4.8 1.7 10.6 7.2 2.5 2.4 6 5.6 7.7 7.1 1.6 1.5 3 3 3 3.3 0 .4-1.3 1.3-3 2.2-1.6.9-3 2.2-3 3.1 0 .8-.9 2.4-2 3.6-1.3 1.4-2 3.6-2 5.9 0 4.1 1.4 5.8 2.7 3.4.6-1 1.6-1.2 3.3-.7 2.3.6 2.5 1.3 2.7 6.5.1 3.3.6 6.4 1.1 7 .5.7.8 2.1.6 3.2-.9 4.8 7.1 27.5 9.7 27.5.5 0 .9 1.4.9 3.1 0 1.7 1.2 5.1 2.7 7.7 1.6 2.6 2.7 5.3 2.5 6-.2.7.5 1.6 1.5 2 1.1.4 1.8 1.7 1.8 3.2 0 1.6.6 2.6 1.8 2.8 1.3.3 1.8-.2 1.6-1.5-.2-1 .1-2.8.5-4.1.6-1.7.3-2.9-1-4.3-1.6-1.7-1.6-2.2-.4-2.9 1.3-.8 1.2-1-.2-1-1.1 0-1.5-.5-1.2-1.5.4-.8.1-1.5-.5-1.5s-1.1-.6-1.1-1.3c0-.6-1.2-2.3-2.5-3.6-1.4-1.3-2.5-3.1-2.5-4.1 0-1-1-2.5-2.2-3.3-2.1-1.4-2.1-1.6-.4-1.6 1.8-.1 1.8-.2.1-2.9-1-1.5-2.4-3.1-3.2-3.5-.7-.4-1.3-1.3-1.3-1.8 0-.6.4-.8.9-.4.5.3 1.2.1 1.6-.5.3-.5-.1-1-.9-1-1.9 0-2.1-2.1-.4-3.8.9-.9.7-1.9-1-4.2-1.8-2.3-2-3.4-1.2-4.9.5-1.1.7-2.7.3-3.7-.4-1 0-2 1-2.6 2.2-1.2 2.2-3.2.1-2.4-1.3.5-1.5.1-1-1.7.3-1.4-.1-3.2-.9-4.3-1.3-1.7-1.6-1.7-2.6-.4-.9 1.3-1 1.2-.5-.3.3-1 .6-2.3.6-2.8s.9-.9 2-.9c2.2 0 2.7-1.6.8-2.2-1.1-.4 1.4-6.3 8.3-20.1 1.3-2.5-1.9-2.3-4.7.4-3.4 3.2-5 1.9-6.3-5.4-1.4-8.2-1.4-8.8.4-8.1.8.4 1.5.1 1.5-.4 0-.6-.7-1.2-1.5-1.4-1.3-.2-1.2-.8.5-3.6 2.2-3.6 4.8-4.6 3-1.1-.7 1.1-.9 2.3-.7 2.6 1 .9 4.7-2.2 4.2-3.5-.3-.7 0-1 .5-.7.6.3 1 1.3 1 2.1s.7 1.4 1.5 1.4c1.2 0 1.4-.7.9-2.8-.7-2.4-.6-2.6.9-1.3 1.4 1.1 2 1.1 3.2.1 1.1-.9 1.9-1 2.6-.3 1.3 1.3.1 4.3-1.6 3.7-.7-.3-1.5-.1-1.9.4-.3.5 1.2.9 3.3 1 3.4.2 4-.2 4.5-2.4.6-2.4.8-2.5 2.9-1.1 1.2.8 3.6 1.7 5.4 2.1 3.4.8 5.2 3.5 3.1 4.7-.7.4-1 1-.8 1.3.3.2 1.3-.2 2.3-.9 1.6-1.2 1.7-1.8.6-5.4-.7-2.3-1.9-4.7-2.7-5.4-1.5-1.2-16.6-1.5-28.2-.5-3.4.3-8.7-.2-14-1.4-4.7-1-9.4-1.7-10.5-1.4-2.3.6-10.6-3.2-11.3-5.2-.2-.7.2-1 1.1-.6.9.3 2-.2 2.6-1.4.6-1.1 2.2-2.3 3.7-2.6 5.3-1.4 1.3-1.8-5.4-.6-7.9 1.4-12.2.8-12.2-1.8 0-.9-.7-2.6-1.5-3.6-1.3-1.7-1.2-2.3.6-5.3 2.1-3.3 2.1-3.3 0-3.3-3.2 0-3.5-1.8-.6-4.3 1.5-1.2 3.5-2.9 4.4-3.7.9-.8 2.4-1.4 3.3-1.2 1.2.2 1.5-.2 1.1-1.7-.4-1.7-.1-2.1 2-2.1 2.7 0 5.4-2.4 3.8-3.4-.5-.3-1.6-.3-2.5 0-1.1.4-1.6.1-1.6-1.1 0-1.1.6-1.5 1.8-1.1 3.4 1.1 7.8.9 11.7-.4 7-2.4 8.8-5 3.6-5-2 0-3.6-.9-4.9-2.5-1.6-2-2.6-2.4-5-1.9-1.9.4-3.4.1-4.3-.9-1.2-1.2-1.8-1.2-4.7.4-3.5 2-10.2 2.6-10.2.9 0-.6 1.7-1 3.8-1.1 2 0 3.1-.3 2.5-.6-2-.8-1.5-2.2 1.2-3.5 1.4-.6 2.5-1.7 2.5-2.5 0-.7.7-1.6 1.6-2 1.3-.5 1.3-.7.2-1.4-.9-.6-.6-.9 1-.9 2.3 0 6.2-1.6 7.2-3 .3-.4 1.4-1.2 2.5-1.8 1.9-1 1.8-1.1-.8-2.3-3.3-1.5-6.4-.2-5.9 2.5.4 2.2-2 2-5.1-.4-1.7-1.3-4.4-2.1-7.9-2.4-4.8-.2-12.8-2.8-12.8-4 0-.3 1.6-.4 3.5-.2 1.9.1 3.5-.1 3.5-.5 0-.5-1.6-1.1-3.5-1.5-1.9-.3-3.5-1-3.5-1.5 0-1.4-1.3-1-3.7 1zm33.7 8c0 1.4-1.8 2.3-3 1.6-.6-.4-.8-1.1-.5-1.6.8-1.2 3.5-1.2 3.5 0z"/><path d="M58.57 208.084c-.3.5.6 1.2 2 1.5 2.9.8 3.9.3 2.9-1.3-.8-1.3-4.2-1.4-4.9-.2zm221.9 5.6c-3.1 2.7-4.1 3-5 1.5-1-1.5-5.5 3.1-5.5 5.6 0 3.2 1.3 3.7 3.1 1.2 1.4-1.9 2-2 3.3-.9 1.3 1.1 1.7.9 2.7-1.2.7-1.6 1.7-2.3 2.9-2 1 .3 2.1 0 2.4-.5.3-.6 1.5-.8 2.5-.5 1 .3 2.2 0 2.5-.5 1-1.6-.4-4.1-2-3.5-.8.3-2 0-2.7-.5-1-.8-2-.5-4.2 1.3zm45.2 1.1c-.3.4 0 2.2.9 4.2 1.7 4.2 1 7.5-1.4 6.8-1.4-.5-1.7.2-1.7 3.7 0 3.7-.3 4.2-2.4 4.5-1.8.3-2.1.6-1.1 1.2.9.6 1.4 3.1 1.5 7.3.1 6.2 1.4 9.7 3.7 9.7.6 0 .7-.8.3-1.8-.4-.9-.9-2.8-1.1-4.2-.2-1.4-.6-3.4-.9-4.6-.6-2.7 2.4-5.7 4.5-4.4 2.3 1.5 2.7 1.2 3.9-2 .5-1.7 1.5-3 2-3 1.4 0 1.4-2.7 0-3.6-.6-.3-1.4-.2-1.8.5-.4.6-.7-.5-.8-2.4-.1-2-1-5.6-2.2-8-2.2-4.7-2.4-4.9-3.4-3.9zm-15.2 1.5c-1 1.5.3 2.5 1.6 1.2.7-.7.7-1.3.1-1.7-.6-.3-1.4-.1-1.7.5zm-225.9 8.4c.4.8.9 1.5 1.3 1.6.3 0 1.8.3 3.4.5 3.4.6 3.6-1.3.1-2.6-3.7-1.4-5.4-1.2-4.8.5zm263.9.4c-.3 1.1-1.4 2.3-2.4 2.6-1.2.4-1.8 1.5-1.7 3.5.1 3.4 1.5 4 2.3 1 .3-1.1 1.6-2.3 2.9-2.6 2.4-.6 3.4-2.4 1.3-2.4-.6 0-.8-.9-.4-2 .3-1.1.2-2-.4-2-.5 0-1.2.9-1.6 1.9zm-259.5 6.2c-1.4.4-2.3.8-2 .9 1.9.7 3.9.7 5 0 1.8-1.1-.2-1.8-3-.9zm-1 7.9c-.8.5-2.5.7-3.6.4-2.4-.6-4.2 1.2-2.7 2.7 1.3 1.3 8.3-.9 8.3-2.6 0-1.7 0-1.8-2-.5zm-82.8 1.3c-.9 1.1-1 1.7-.2 2.2 1.5.9 2.3.1 1.8-2.1-.3-1.5-.4-1.6-1.6-.1zm337.3 1.7c-.5 1.6-1 1.8-2.5 1-1.6-.9-2.1-.6-2.6 1.4-.8 3.2.8 8.1 2.7 8.1 1 0 1.3-1 1.1-3.3-.3-2.7 0-3.2 1.7-3.2s2.1-.6 2.1-3c0-3.4-1.5-4-2.5-1zm5.1.6c-1.1 2.7-.7 3.7.9 2.4 1.6-1.4 2-4 .6-4-.5 0-1.2.7-1.5 1.6zm19 5.1c-.3.3-.6 2.1-.6 3.9 0 1.8-.6 3.4-1.2 3.7-.7.2-1 .8-.6 1.2 1.1 1.2 3.4-1.7 4.1-5.2.6-3.1-.3-5-1.7-3.6zm-17.8 2.8c-.7.7.3 6.5 1.2 6.5 1 0 1.1-5.8.1-6.5-.5-.2-1-.2-1.3 0zm-277.2 3.7c.7 1.1 3.4 1 3.4-.1 0-.6-.9-.9-1.9-.8-1.1 0-1.7.5-1.5.9zm298.1-.6c-.8.9-1 6.8-.1 7.7 1 1 3.4-.4 2.7-1.6-.3-.5-.9-2.3-1.2-3.9-.3-1.6-.9-2.6-1.4-2.2zm-305.9 1.5c-.7.4-1 .9-.8 1.1 3.9 2.5 5 2.7 6.5 1.2.8-.8 1.5-1.7 1.5-1.9 0-.7-6.1-1.1-7.2-.4zm281.4 4.8c-.8.4-1.2 1.6-1 2.7.2 1.1-.6 2.3-2.2 3.1-1.9.9-2.4 1.9-2.2 4.1.4 3.6-1.9 4.8-4.2 2.1-.9-1.1-1.6-2.3-1.6-2.8s-1.3-1.1-3-1.5c-1.6-.3-3-1.2-3-2 0-1.7-3.2-2.6-5.4-1.4-2.4 1.3-2.1 6.5.4 7.3 2.8.9 2.5 4-.5 5.3-1.4.6-2.5 1.6-2.5 2.2 0 .5-.9 1-2 1s-2 .4-2 1c0 1.3 2.6 1.3 5.2-.1 1.5-.8 1.9-.8 1.3.1-.4.7-.2 2.3.5 3.6 1.1 2 1.1 2.7-.4 4.3-1.3 1.5-1.5 2.6-.9 5.2 1.2 4.6 3.2 4.9 2.8.5-.2-2-.6-4-1-4.6-.3-.5.1-1 1-1 1.3 0 1.5-.7.9-3.5-.5-2.7-.3-3.5.9-3.5 2.3 0 3.9-2.4 2.5-3.8-1.8-1.8 3.2-1.5 5.5.2 1.4 1.1 1.7 2.3 1.2 5.3-.4 3-.3 3.3.4 1.5 1.1-2.4 2.6-2.9 3.6-1.2.9 1.5 3.7-.9 3.1-2.7-.3-.7.1-1.3 1-1.3.8 0 1.7-.7 2-1.5 1-2.5 1.9-1.7 3.8 3.5 1 2.8 2.4 5 3.2 5 .8 0 1.4.6 1.4 1.4 0 .8 1 2.3 2.3 3.3 1.6 1.2 2.6 3.3 3 6.6.6 4.5.6 4.6-1.4 3.4-1.7-1-2.2-.9-3.3.5-2 2.7-2.3 2.2-2.1-2.8.1-4.5.1-4.5-1.6-2.2-1.4 1.8-2 2.1-3 1-1.8-1.7-2.6-1.5-3.3 1-.5 2.2-.6 2.2-2 .3-1.2-1.6-1.9-1.8-3.3-.9-2.3 1.3-5.3.7-5.3-1.2 0-.8-.5-1.4-1.1-1.4-.6 0-.9.8-.6 1.9.3 1.5 0 1.7-1.6 1.3-1.6-.4-1.9-.2-1.4 1.2.4 1 .7 2 .7 2.2 0 .2.6.4 1.4.4 2.1 0 3 1.9 2.8 5.8-.3 4.2-2.2 7.9-5.6 11.1-1.4 1.4-2.6 3.1-2.6 3.9 0 3-1.5 0-1.6-3.1 0-2.8-.4-3.2-2.9-3.4-3.8-.3-6.6-3.9-6.1-7.6.4-2.2.1-2.7-1.1-2.3-.8.3-2.1.6-2.9.6-.9 0-1.4 1.1-1.4 3.2-.1 2.8-.2 3-1.1 1.5-.8-1.4-1.4-1.5-2.4-.7s-1.3 3.1-1.1 7.5c.3 5.5 0 6.4-1.5 6.8-3.3.9-5.3 9.9-2.8 12.4 1.8 1.8.4 4.2-2 3.6-1.4-.3-2.1-.1-2.1.8-.1 3.1-2.2-2.5-2.2-5.7 0-4.6-2.9-6.4-5.1-3-.9 1.3-1.4 3.2-1.2 4.2.2 1 .4 2.3.4 2.8.1.4.8.6 1.6.2 1.1-.4 1.5.1 1.5 1.9 0 1.3.5 2.7 1 3 1.8 1.1 1 2.5-1.5 2.5-1.9 0-2.5.5-2.5 2.1 0 1.1.5 1.7 1 1.4.6-.3 1 .1 1 .9 0 .9-.3 1.5-.8 1.3-.4-.1-.7.2-.7.8 0 .5.3.9.8.8.4-.2.7 1.3.7 3.2 0 2.1.5 3.6 1.3 3.7.6 0 1.7.2 2.2.2 3.4.4 4.9 5.1 2.1 6.2-.8.3-1.6 1.4-1.9 2.5-.7 2.5-3.7 2.5-3.7 0 0-1.1.5-2.3 1-2.6.6-.3 1-1.2 1-1.8 0-.7-.4-.6-1 .3-.5.8-1 1.1-1 .6 0-.5-.9-.1-2 .9-2.4 2.2-2.6 5.1-.5 7.2.8.8 1.2 1.9.9 2.5-.4.7-1.4.1-2.5-1.3l-1.9-2.4v2.3c0 2.4 2.6 7.2 4.7 8.5 2.1 1.3 1.6 5.7-.6 5.7-1.1 0-2.2.4-2.5.9-.9 1.4 2.5 2.3 4 1 1.1-.9 1.5-.7 2 .5.7 1.8-3.6 11.1-4.8 10.5-.4-.2-1.3.5-2.1 1.5-2 2.7-4.1 1.1-3.1-2.3 1.4-5.4 2.1-11.2 1.2-11.7-1.4-.9-4.8.6-4.8 2.2 0 .8-.4 1.4-1 1.4-1.3 0-1.3-1.6.2-4 1-1.6.9-2.3-.7-4l-1.9-2.1-1.3 2.3c-1.4 2.6-1.2 3.2-1.9-5.6-.4-4.5-1.1-5.6-2.5-3.6-1.1 1.7-.6 4.1 1.8 9.6 2.1 4.9 2.6 12.4.8 12.4-.7 0-1.6.7-1.9 1.6-.3.8-1 1.2-1.6.9-1.5-.9-1.2-4.4.5-6.1 2-2 .1-6.4-2.5-5.7-1.9.5-2.2-1-.6-3.6.7-1 .4-1.2-1.3-.6-1.6.5-2.2.3-2-.7.3-2.4-.1-3.8-1.1-3.8-.5 0-.9 2.1-1 4.7 0 2.7-.2 6.6-.4 8.8-.2 2.2-.4 4.8-.5 5.8-.1 1.2-.7 1.7-1.9 1.5-2.3-.4-5.8 3.2-5.4 5.7.3 2.6-2.1 7.1-3.7 6.7-.7-.1-.9.2-.6.8.4.6-.1 1.7-1.1 2.5-1.2.9-2.1 1-2.5.3-.4-.6-.6.2-.6 1.6 0 3.1 1.4 4.4 2.3 2.1.5-1.2.9-1.3 2-.4s1.4.9 1.4 0c0-.7 1.1-2.4 2.5-3.9s2.5-3.6 2.3-4.7c-.3-2.8 1.2-6.6 2.3-6 1.4.9 1.1 6.3-.6 9.4-.8 1.6-1.2 3.1-1 3.3.3.3-.4 1.3-1.5 2.3-2.6 2.3-2.6 3.8 0 3 3.2-1 2.7 3.8-.6 6-2.6 1.7-6 1.4-4.9-.5.3-.5-.1-1-.9-1-1.7 0-3.9 6.6-3.9 11.2 0 1.6-.4 2.8-.8 2.8-.5 0-.9-.9-.9-2s-.4-2-.9-2c-1.2 0-2.2 5.4-1 5.8.5.2.4 1.2-.1 2.3-1.3 2.3-4.5 2.6-3.6.4.7-1.9-.3-1.9-2.8 0-2.8 2.1-4.5 1.9-5.6-.8-.5-1.3-.9-1.6-1-.7 0 .8-.5 2.2-1 3-.9 1.3-1.1 1.3-2 0-.7-1.2-1.3-.6-2.7 2.7-1.1 2.7-2.4 4.3-3.5 4.3-2 0-2.5 2.6-.6 3.2.6.2 1.2 2.6 1.4 5.2.2 2.7.9 5.6 1.7 6.5 2.4 2.8 3.1 4.7.8 2.3-3-3.1-4.1-2.8-4.1 1.3 0 1.9-.5 4.5-1.1 5.9-.9 1.9-.9 2.9 0 4 .6.7 1.4 3.9 1.6 7 .4 4.4.2 5.8-1 6.2-.8.4-1.5 1.3-1.5 2.1 0 1 .6 1.3 1.6.9 1.7-.6 5.4 1.9 5.4 3.6 0 .4-.9 1.7-2.1 2.9-1.5 1.5-2.4 1.8-3.4.9-.9-.8-1.5-.8-2 0-.3.5-1.5 1-2.6 1-1 0-1.9.4-1.9 1s-.9.6-2.6 0c-3.2-1.3-4.8-.4-3.5 1.8.7 1.2.5 2.2-.7 3.5-1.1 1.2-1.6 3.3-1.5 6 .5 10.5.4 11.5-1.2 12.1-.8.3-1.7-.3-2-1.5-.9-2.7-2.6-1.9-3.9 1.8-1.5 4.4-2.4 5-4 2.7-1.3-1.7-1.4-1.7-.9.9.3 1.5.9 2.4 1.4 2.1 1.5-.9.9 1-1 3.3-2.4 2.8-3.1 2.9-3.1.3 0-1.1-.4-2-.8-2-.5 0-1.9.9-3.2 2-1.3 1.1-2.7 2-3.2 2-.4 0-.8 1-.8 2.2l.1 2.3 1.9-2.3c1.8-2.1 1.9-2.1 3.6-.5 1.6 1.7 1.6 1.8.1 2.1-.9.2-1.7.8-1.7 1.3 0 .6-.5.7-1.1.4-.5-.4-1.9.1-2.9 1-1.8 1.6-2 1.5-4.1-.8-2-2.4-2.3-2.5-4.4-1.1-1.5 1-2.1 2.1-1.8 3.4.4 1.4 0 2-1.1 2-1 0-1.6-.9-1.6-2.5 0-3.5-1.6-3.1-3.6.7-.9 1.8-3 4.9-4.5 6.8-1.6 1.9-2.9 4-2.9 4.7 0 2.6-2.4 6.3-4.2 6.3-1 0-1.8.6-1.8 1.4 0 .8-.6 1.7-1.2 1.9-1 .4-1 .8 0 1.5 1.1.7 1.1 1.3.1 2.9-1 1.7-.9 2.3 1 4.2 1.3 1.3 2.6 1.9 2.9 1.5.4-.3.2-.9-.5-1.1-.8-.3-1-1.6-.6-3.6.8-4.2.7-4.1 3.7-2.2 2.1 1.4 2.4 2.1 1.5 3.1-.6.8-.9 2.1-.5 2.9.4 1.1.2 1.4-.6.9-.7-.5-.9-.2-.5.8.4 1.2.1 1.4-1.4 1.1-1.1-.3-2.8.2-3.8 1.1-1.6 1.5-2 1.5-3.1.1-.7-.8-1-2.2-.6-3 .3-.8 0-1.5-.5-1.5-.6 0-.9-.9-.6-2 .3-1.1.1-1.8-.4-1.4-.5.3-.9-.1-1-.8-.2-4.4-1.8-7.4-2.6-5.1-.8 2.1-4.1 1.5-4.9-1-.4-1.2-1.5-2.9-2.5-3.8-1.1-.9-1.9-2.2-1.9-2.9 0-1-.3-1-1.4-.1-2.8 2.3-6.9-6-5.6-11.4.1-.6.5-1.8.8-2.9 1-3.5-3.1-1.3-4.3 2.4-1.1 3.4-1.2 3.4-2.3 1.3-.7-1.2-1.2-3.1-1.2-4.2 0-2.9-1.7-2.6-2.4.4-.4 1.4-1.1 2.5-1.6 2.5-1.2 0-1.2-.1.1-5.6 1-4 .9-5-.8-8.2-1.1-2-2.4-5.4-2.7-7.4-.4-2.2-1.2-3.7-1.9-3.5-.7.1-1.3-1-1.5-2.6-.5-4-2.3-3.3-2 .8.2 3.8-.5 5.1-2.2 4-.7-.5-1-1.9-.6-3.7.3-1.6.1-3.8-.4-4.8-.7-1.3-.5-2.1.6-3.1 1.3-1.1 1.9-.9 3.5 1.1 2.1 2.8 2.5 1.6.9-2.6-1.2-3.1-5.5-7.4-7.4-7.4-.8 0-1.1-1.2-.8-3.6.4-2.8 0-3.9-1.4-4.8-1.1-.6-2.1-1.1-2.4-1.1-.3 0-1.1-.4-1.7-.8-.8-.5-2.2 0-3.5 1.2-1.4 1.4-1.7 2.1-.8 2.1.7 0 1.1.2.8.5-.3.3-1.8-.1-3.4-1-1.6-.8-4.1-1.5-5.6-1.5-2.9 0-3.8-1.4-1.5-2.4.9-.5.9-.7-.1-1.2-.7-.3-1.8-1.2-2.6-1.9-.7-.7-2.4-1.4-3.7-1.4-1.3-.1-4.4-.3-6.9-.4-2.8-.1-5-.8-5.7-1.9-1.5-1.9-3.1-1.8-6.6.5-1.5.9-2.9 1.7-3.2 1.7-.4 0-2.1 1.5-4 3.2-1.8 1.8-5.2 4.8-7.5 6.7-2.3 1.9-3.9 4-3.6 4.8.3.7-.6 2.9-1.9 4.9-1.4 2-2.2 4-1.9 4.5.3.5.1.9-.5.9-1.6 0-3.4 15.8-3.4 30.7 0 9.1.7 10.2 13.1 20 5.3 4.3 10.2 8.3 10.7 8.9.6.5 2.6 2.2 4.5 3.6s4.6 3.7 6 5c4.9 4.9 17.2 13.8 19.1 13.8 2.3 0 4.4 3.5 2.7 4.6-.6.4-.8.3-.4-.4 1-1.7-.7-2.2-2.7-.8-1.6 1.2-1.5 1.6.6 7 2 4.7 3 6 6.6 7.8 5.4 2.7 8.8 7.2 11.2 15 1.7 5.3 2 8.8 1.8 23.1-.1 9.2-.6 17-1.1 17.3-1.1.7-1 10.2.2 10.9.6.3 1 .1 1-.5s.5-.8 1-.5c1.4.9 1.2 2.5-.2 2.2-.8-.1-1.3.8-1.2 2.1.1 2.6-1.2 1.7-1.8-1.3-.4-1.7-.6-1.6-1.2.7-.6 2-.3 3.2.8 4.3.8.9 1.3 2.2 1 3-.8 2-2.2 1.9-2.7-.2-.4-1.4-.5-1.2-.6.4-.1 1.4.5 2.3 1.4 2.3 2.4 0 3.6 3.3 1.8 5.2-1.1 1.2-1.2 2.1-.4 3.5.9 1.6 1 1.5 1.1-1 0-3.1.7-3.4 2.6-1 1.8 2.4 1.8 4.7 0 4-.8-.3-1.7.1-2 .9-.3.8-1.3 1.4-2.1 1.4-.9 0-1.3.5-.9 1.1 1.2 1.9-1.9 2.9-3.3 1.1-.9-1.3-1.2-1.4-1.3-.3 0 .8.8 2.3 1.7 3.3 1.6 1.8 1.6 2.1 0 4.7-2.2 3.8-2.3 5.8-.2 4.1.8-.7 1.5-1.8 1.5-2.6 0-.7.9-1.8 2.1-2.4 1.1-.6 1.9-1.9 1.7-2.8-.1-.9.2-1.9.7-2.2.6-.3 1.1.7 1.3 2.2.2 1.9-.1 2.8-1.1 2.8-.9 0-1.3 1.2-1.3 3.8.1 3.3-.2 3.8-2.3 4-3.5.3-3.8 1-.7 2.1 2.8 1.1 3.2 2.2 1.6 5.2-.8 1.4-.8 1.9.2 1.7.8-.2 1.1.8.9 3.2-.2 3.5 6.3 21.1 8.1 21.8.4.2.8 1.3.8 2.5 0 2.8 1.5 5.2 3.2 5.2.8 0 1.2 1.1 1.1 2.5-.3 3.6.6 7.2 1.6 6.5.5-.3.7.4.4 1.6-.5 1.7-.2 1.9 2.1 1.3 2.9-.7 6.6 1.7 6.6 4.4 0 .8 1.8 3.2 4 5.3 4.1 3.9 5.2 7.5 2.5 8.6-1.4.5-1.4.8.1 2.5 1 1 2.4 1.6 3.2 1.3 2.1-.8 3.5.5 2.1 2.1-2.2 2.7 5 1.5 14-2.3 13.8-5.8 33.9-15.5 45.2-21.8 13.1-7.2 43.6-27.4 48.5-32 2-1.9 4-3.5 4.4-3.5 3.2 0 47.4-41.4 46.6-43.7-.3-.7.1-1 .8-.7 2.4.9 26.3-27.6 25.8-30.8-.2-1 .2-1.8.8-1.8.6 0 .8.6.5 1.2-2.4 4.8 7.5-8.5 16.9-22.7 14.6-21.9 28.7-47.4 34.7-62.8 1.1-2.9 2.7-6.6 3.4-8.2 4.6-10.1 10.5-26.4 15-41.3 3.6-12.1 4.2-15.8 2.6-14.8-.5.3-1.2-.1-1.5-1-.7-1.9 1-4.4 3-4.4.8 0 1.6-1 1.9-2.3 3.9-17.2 8.5-42.9 8.5-48 0-.9-.6-1.6-1.2-1.5-.7.2-1.3-.3-1.2-1 .1-.6.2-2.1.3-3.2 0-1.1.7-2 1.5-2 2.4 0 3.8-25.4 1.4-26.2-.9-.3-.7-1.4.5-4 1.1-2.4 1.7-6.1 1.7-11.3 0-7.2-.1-7.5-1.7-6-1.6 1.6-1.8 1.6-3.5-.5-1-1.3-1.8-3.9-1.8-6.1 0-2.7-.6-4.5-2-5.6-2.3-2-2.7-5.3-.5-5.3.8 0 1.5.9 1.5 2s.7 2 1.5 2 1.6.4 1.6 1c.1.5.3 1.4.4 2 .1.5.3 2 .4 3.2.1 1.7.3 2 1 .9.5-.8 1.4-1 2.1-.6 1 .6 1.2 0 .7-2.5-.4-1.8-.7-5.2-.7-7.7 0-3-.4-4.2-1.1-3.7-.9.5-1-.3-.5-3 .4-2.3.3-3.6-.4-3.6-.5 0-1 .4-1 .8 0 .5-1.1 2.2-2.5 3.8-1.4 1.6-2.5 2.5-2.5 2s-.7-.3-1.5.4c-1 .9-1.5.9-1.5.1 0-.6.5-1.1 1-1.1.6 0 1-.7 1-1.5 0-1.1-.9-1.4-3.2-1.3-2.3.2-3.3-.1-3.3-1.2 0-.8-.7-1.5-1.5-1.5-1 0-1.4.8-1.2 2.7.2 1.4-.1 2.9-.7 3.2-1.7 1.1-5.9-1.5-6.5-4-.4-1.3-1.7-3.4-3.1-4.8-2.8-2.9-3.2-4.8-1-6.6 1.3-1.1 1.3-1.5 0-4.1-2-3.7-2-7.9 0-7.9.8 0 1.5.8 1.5 1.8 0 1.3.7 1.8 2.1 1.7 2.4-.2 4.5-3 2.9-4-1.5-.9-1.2-4.5.4-4.5 1.8 0 2.6-2.2 1.9-4.9-.6-2.3-3.1-2.8-3.9-.8-.5 1.5-4.4 2-4.4.6 0-.5.4-.9 1-.9.5 0 1.2-1.1 1.6-2.5.8-3.3 4.1-3.3 5.4-.1 1.3 3.5 2.7 3.9 4.9 1.7 2.1-2.1 5.2-1.9 7.2.5 1.4 1.7 3.9 1.8 3.9.1 0-1.4-4.1-5.5-7.4-7.4-6.1-3.6-6.7-3.7-7.7-2.2-1.4 2.2-3.1-.9-1.8-3.3.7-1.2.6-1.8-.2-1.8-1.1 0-.8-2.5.7-6.4.5-1.2.2-1.5-1-1-1.3.5-1.6 0-1.6-2.4 0-1.7-.7-3.7-1.5-4.6-1.5-1.4-1.1-4.6.6-4.6 1.8 0 .9-1.9-1.2-2.5-2.8-.9-4.6.9-2.9 3 .7.8 1 1.8.7 2.1-.3.3-1.3-.5-2.1-1.9-1.2-1.7-1.4-3.1-.8-4.8.9-2.3.8-3.4-.5-6.9-.3-.8-.6-2.5-.7-3.8-.1-1.3-.7-2.6-1.3-3-.6-.4-1.5-2.1-1.9-3.7-.3-1.7-1.4-3.8-2.2-4.8-.8-.9-1.6-3.2-1.7-5-.3-4.1-3.4-11.4-3.5-8 0 3.4-1.7 2.8-3-1.1-.8-2.4-1.6-3.3-3.2-3.2-1.1 0-2.6-.7-3.2-1.6-.8-1.4-.6-2.2 1-3.9 1.9-1.8 2.4-1.9 4.3-.8 1.3.9 2.1 2.4 2.1 4.1 0 1.9.5 2.8 1.6 2.8.8 0 1.2-.4.9-1-.3-.5.2-2.1 1.1-3.5 1.3-2.1 1.5-3.4.7-6.8l-.9-4.2-1.8 3.4c-1.6 3.1-2 3.3-3.1 1.8-.9-1.3-1.8-1.5-4.4-.7-3.1.9-4.5 0-4-2.6.4-2.3-.4-3.7-.9-1.6-.9 2.9-2.6 3-3 .2-.4-2.2-1-2.4-3-1.1zm14 30.4c-.6 1.1-3-1.3-3.2-3.3-.7-4.7.2-5.3 1.9-1.5 1 2.2 1.6 4.4 1.3 4.8zm-18.8 13.4c.7 1.8-.1 3.3-1.8 3.3-1.4 0-2.9-3.8-2-5.1.7-1.2 3.1 0 3.8 1.8zm9.6-.2c0 .8-.7 1.5-1.5 1.5-.9 0-1.2-.6-.9-1.5.4-.8 1-1.5 1.5-1.5s.9.7.9 1.5zm9.9 4.6c1.1-1.7 3.3-1 3.7 1.2.1 1.1-.5 1.7-1.6 1.7-2.6 0-3.6 4.8-1.4 6.5 1.7 1.2 1.7 1.4.1 3.9-1 1.4-2.1 2.6-2.5 2.6-1.2 0-4.2-5.6-4.2-7.8 0-1.2-.5-2.4-1.1-2.8-.8-.4-.8-.9 0-1.7.6-.6 1.1-2.1 1.1-3.2 0-3.3 1.2-3.8 3.2-1.3 1.4 1.8 2 2 2.7.9zm-49.8 13.2c-1.3 1.3-2.6.3-1.6-1.2.3-.6 1.1-.8 1.7-.5.6.4.6 1-.1 1.7zm9.3.2c-.4.8-1 1.2-1.5.9-1.4-.8-1-2.4.6-2.4.9 0 1.2.6.9 1.5zm14.9 3c-.3.8-.9 1.5-1.4 1.5-1 0-1.2-2.4-.3-3.3 1.1-1.1 2.4.3 1.7 1.8zm15.5 6.3c.3.9-.3 1.3-1.9 1-1.2-.1-2.4-.9-2.7-1.6-.3-.9.3-1.3 1.9-1 1.2.1 2.4.9 2.7 1.6zm-37.1 3.4c-1.7 4.1-3.3 6.8-3.9 6.8-1.2 0-.9-3.8.4-6 1.4-2.2 4.4-2.8 3.5-.8zm28.9 4.4c-.4 1.4 0 2.4.9 2.8 2.2.8 1.8 2.1-1 3.4-3.7 1.7-3.8 1.6-3-3.1.4-2.3.7-5.3.7-6.7-.1-2.4-.1-2.5 1.4-.5.8 1.1 1.2 3 1 4.1zm27.4-2.5c0 1.1-.4 1.7-1 1.4-.5-.3-1-1.5-1-2.6s.5-1.7 1-1.4c.6.3 1 1.5 1 2.6zm-77 1c0 1.1-.4 1.7-1 1.4-.5-.3-1-1.3-1-2.1s.5-1.4 1-1.4c.6 0 1 .9 1 2.1zm21.9 5c-.9.5-1.5.4-1.8-.2-.2-.6.3-1.5 1-2 .9-.5 1.5-.4 1.8.2.2.6-.3 1.5-1 2zm-4.9 1c0 .6-.7 2.5-1.6 4.2-3.2 6.2-3.5 6.9-3 7.4.8.8 2.6-.7 2.6-2.3 0-.8.4-1.4.9-1.4.6 0 .7 1.6.4 3.7-.4 2.6-.3 3.4.5 2.9.7-.4 1.2-1.3 1.2-2.1 0-.7.7-1.5 1.5-1.9 1.2-.4 1.4 0 .9 2.2-.8 2.9-3.3 7.3-4.9 8.4-.5.4-1.3-.2-1.7-1.3-.7-1.7-1.3-1.9-3.9-1.4l-3.1.7.7-4.1c.6-3.5.4-4-.9-3.5-1 .4-1.6.1-1.6-.7.1-1.7 2.4-4.9 3.5-4.9.4 0 2.1-1.6 3.8-3.5 3-3.5 4.7-4.4 4.7-2.4zm66 1.5c0 .8-.4 1.2-1 .9-.5-.3-1-1.3-1-2.1s.5-1.2 1-.9c.6.3 1 1.3 1 2.1zm-5 2.4c1.6 3 1.2 3.8-1.6 3.2-2.5-.5-5-4.4-3.8-6.3.7-1.2 4.1.7 5.4 3.1zm-37.6 1.9c.5 3 .4 3.3-1.5 2.8-1.5-.4-2.3 0-2.6 1.2-.3 1.3-1.2 1.6-3.9 1.3-3.8-.5-4.6 1.1-1.3 2.9 1.5.8 1.8 1.4 1 2.2-.8.8-1.4.6-2.3-.6-.7-.9-2.2-1.5-3.3-1.3-3 .5-3.5-.2-2.3-2.9.6-1.4 1.9-2.5 3-2.5 1 0 1.9-.5 1.9-1 .1-.6.2-1.5.3-2.2.2-1.8 2.5-2.1 3.2-.4.5 1.3.9 1.4 2.1.4 1.1-.9 1.7-.9 2.5.3s.9 1.1.5-.2c-.3-.9 0-2.2.6-2.8 1.3-1.3 1.3-1.4 2.1 2.8zm-18.4-1.5c0 .8-.4 1.7-.9 2-1 .7-2.3-1.9-1.4-2.8 1.1-1.1 2.3-.6 2.3.8zm43.5 3.7c.8-1.3 3.8-.9 5.9.8.8.7 1.9 1 2.3.8.5-.3.8 1.6.8 4.1l-.1 4.7-5 .2c-5.9.1-10.5-2.7-8.4-5.2.6-.8.9-2.3.5-3.4-.9-3 .5-4.8 2.1-2.7.7 1.1 1.4 1.3 1.9.7zm16.8 1.4c-.5 1.3-2.3 2.2-2.3 1.1 0-1.5 1.4-3.5 2.1-3.1.4.3.6 1.2.2 2zm5.7 7.1c0 1.6-2.6 1.9-3.5.4-.3-.6-.4-1.4 0-2 .8-1.3 3.5-.1 3.5 1.6zm-6.5 3.2c-1.4 6.9-1.6 7.4-3.2 6.8-1.2-.5-1.4-.2-.8 1.6.4 1.3.8 4.3.9 6.8.1 3.8-.2 4.5-1.9 4.8-3 .4-4.7-2.9-3.3-6.6.9-2.4.9-3.6-.1-5.5-1.6-2.9 0-6.7 2.7-6.7.9 0 2.3-.9 3-2 1.4-2.4 3.2-1.9 2.7.8zm-45 3.3c.4 2.6.3 4.5-.4 5.2-.8.8-1.1.5-1.1-1.1 0-1.5-.5-2-1.5-1.6-.8.4-1.5 1.2-1.5 2 0 1.9-2 1.8-2.1-.1-.1-.8-.2-2.1-.3-2.8-.4-2 1.4-4.7 2.9-4.7.8 0 1.5-.5 1.5-1.1 0-2.6 1.9.5 2.5 4.2zm20.3 2c-.2.6-.8 1-1.3 1s-1.1-.4-1.3-1c-.2-.6.4-1.1 1.3-1.1s1.5.5 1.3 1.1zm-15.3 2.9c-.6 1 1.9 2 5.1 2 2.6 0 3 1.8 1.4 5.5-.7 1.7-.9 1.6-.9-.9-.1-3.3-1.6-2.6-1.6.7 0 1.1-.4 2.2-1 2.3-2.2.8-3.6-1.5-3.9-6.4-.2-3 0-4.9.5-4.6.5.3.7.9.4 1.4zm-29.9.5c.4.8.1 2.1-.5 2.8-.6.8-.8 2.9-.4 5.1.5 3 .2 4.1-1.6 5.7-2.1 2-2.3 2-4.1.4-1-.9-2.4-1.4-2.9-1-.6.3-1.1-.1-1.1-1 0-1 .7-1.5 1.8-1.3 1.3.2 1.8-.5 2-2.9.2-1.7 1-3.7 1.8-4.3.8-.7 1.4-2.1 1.4-3.1 0-2.3 2.8-2.5 3.6-.4zm6.9.6c.4.6 1.3.8 2 .5.8-.3 1.8.1 2.3.7 1.3 1.7 2.1 10.2 1.1 11.8-.4.7-.3 1.9.2 2.6.8.9.4 1.1-1.8.9-2-.2-2.9-.9-3.1-2.5-.2-1.4.2-2.1 1.2-2.1 2 0 2-.4 0-5.6-1-2.5-2.4-4.4-3.6-4.7-1.1-.3-1.7-1-1.3-1.6.8-1.4 2.2-1.4 3 0zm-14.5 3.3c0 .8-.7 1.6-1.5 2-1.7.6-1.8.4-.9-1.8.8-2 2.4-2.1 2.4-.2zm10.8 2.2c.5.9.7 2.5.4 3.6-.4 1.8-.5 1.8-1.8.1-1.6-2.1-1.8-5.3-.4-5.3.5 0 1.3.7 1.8 1.6zm42.2 2.4c0 1.6-.9 4.5-2 6.5-1.1 1.9-1.9 3.9-1.7 4.4.1.5-.2.8-.8.7-.5 0-.9-1.4-.8-3.1.1-1.6-.3-3.3-.9-3.6-.6-.4-.8-1.8-.4-3.4.5-2.1 1.2-2.6 2.6-2.2 1.3.3 2 0 2-.9 0-.8.5-1.4 1-1.4.6 0 1 1.3 1 3zm-27.8 2.2c.7 1.8-.2 3.9-1.3 3.2-1.2-.7-1.2-4.4 0-4.4.5 0 1.1.6 1.3 1.2zm47.8 6.8c0 .5-.9.6-2 .3s-1.7-.9-1.5-1.4c.7-1 3.5-.1 3.5 1.1zm6 4.1c-.9 1.6-.8 1.9 1.1 1.6 2.1-.2 3.2 1 4.3 4.6.7 2.3 2.6 1.3 2.6-1.4 0-2.4 2.8-2.5 3.7-.2.4 1 1.2 2.2 2 2.6.7.4 1.3 1.5 1.3 2.4 0 1.2-.7 1.4-2.9 1-2.5-.5-2.8-.4-2.3 1.9.4 2.2.2 2.4-2.9 1.8-5.3-1-8.9-3.2-8.9-5.4 0-1.3-.7-2-1.8-2-2.6 0-5-4.6-3.3-6.3 1-.9 1.5-.8 2.7.7 1.3 1.9 1.4 1.9 1.4-.6 0-1.5.6-2.8 1.3-3.1 2-.7 2.8.3 1.7 2.4zm-26 2.1c0 .5-.4.8-1 .8-.5 0-1-1-1-2.3 0-1.8.2-1.9 1-.7.5.8 1 1.8 1 2.2zm11.8-.9c.5 2.4-1.5 2.1-2.1-.4-.3-1.3-.1-1.9.6-1.6.7.2 1.3 1.1 1.5 2zm-17 3.5c1.2 1.2 2.2 2.6 2.2 3.2 0 .5.5 1 1 1 .6 0 1-.9 1-2.1 0-1.8.3-1.7 2.6 1.1 2.1 2.4 2.5 3.7 2 6.2-.3 1.7-.1 3.7.4 4.3.8.9.7 2.3-.4 4.7-1.2 2.8-1.4 2.9-1.5 1-.1-2.6-.7-2.7-2.7-.7-2.1 2-2.8 1.9-6-.8l-2.7-2.4 1.8-4.6c1.7-4.5 1.4-7.7-.4-4.8-1.2 1.9-2.4-.4-1.6-3 .4-1.3.2-2.5-.5-2.9-1.5-.9-.5-2.9 1.3-2.6.7.1 2.3 1.2 3.5 2.4zm-32.9 7.8c-.9 1.8-1.5 2.1-2.1 1.2-1.2-2-1-5.6.5-6.1 2-.7 3 2.3 1.6 4.9zm84.1-2.1c0 .8-.4 1.7-1 2-.6.4-1-.5-1-2s.4-2.4 1-2c.6.3 1 1.2 1 2zm-129.7 1.2c.3 1.6.1 3.2-.4 3.7-.5.6-.9 2.3-.9 3.9 0 2.2-.4 2.8-1.7 2.5-1.9-.4-2-4.2-.1-6.5.5-.6.8-1.7.7-2.5-.6-4.4 1.6-5.3 2.4-1.1zm15.5 7.6c1.2 1.4.5 5.7-.9 5.7-.6 0-1.2-.7-1.5-1.5-.9-2.4-2.4-1.7-2.4 1 0 1.4.5 2.5 1 2.5 2 0 .9 1.8-1.5 2.4-1.4.4-2.5 1.2-2.5 2 0 2.2 1.2 2.6 2.6.8 1.2-1.5 1.3-1.4 1.4 1.4 0 4.4-2.4 6.3-5 3.9-1.1-1-2-2.6-2-3.5 0-.9-.5-2.1-1.1-2.7-.8-.8-.5-1.5 1-2.5 1.1-.8 2.4-3.2 2.9-5.3.5-2.6 1.4-3.9 2.6-4.1 1-.1 2-.5 2.4-.8.9-.9 1.9-.7 3 .7zm22.3 3.1c1.7 1.8 1 5.6-1 5.6-2.3 0-3.3-2.3-2.5-5.8 1-4 1.8-5 2.2-2.7.2 1.1.8 2.4 1.3 2.9zm11.1 4.8c-.9.9-1.2.7-1.2-1.2s.3-2.1 1.2-1.2c.9.9.9 1.5 0 2.4zm-49.2-.8c0 .8-.6 1.6-1.4 1.9-.9.4-1.2 1.4-.9 2.6.4 1.5.1 2.1-1.1 2.1-.9 0-1.6.8-1.6 2 0 1.1-.4 2-1 2-1.3 0-1.3-2.5 0-4.8.5-.9 1.4-2.9 2-4.5 1-2.8 4-3.8 4-1.3zm76.3 1.8c2.2 2.6 2.2 4.8 0 4.8-.9 0-1.3-.3-1-.7.8-.7-1.1-3.3-2.5-3.3-.5 0-.8 1.7-.7 3.7.1 2.1-.2 4.7-.8 5.8-.7 1.3-.8 3.6-.3 6.5.5 2.5.6 4.8.4 5.2-2.4 3.8-14.4-7.1-14.4-13 0-1.2.9-3 2-3.9 1.1-1 2-3 2-4.5 0-3 .9-3.5 2.9-1.6 1 1 1.5 1 1.8.1.2-.7 1-1 1.8-.7.7.3 1.6 0 2-.6.9-1.5 4.6-.3 6.8 2.2zm25.7-.2c0 1.1-5 3.4-5.7 2.6-.2-.2.3-1.1 1.2-2 1.8-1.8 4.5-2.1 4.5-.6zm-77.2 4c.3 2.1.2 2.2-1.2 1.1-1.9-1.6-2.1-4.4-.3-3.9.6.3 1.4 1.5 1.5 2.8zm60.2 3.6c0 .8-.4 1.4-1 1.4-.5 0-1-.9-1-2.1 0-1.1.5-1.7 1-1.4.6.3 1 1.3 1 2.1zm-63 4c0 1.3-.4 2.5-.9 2.9-1.4.8-2.5-1.5-2.8-5.4-.2-3.2-.1-3.3 1.7-1.6 1.1 1 2 2.8 2 4.1zm21.8-2c-.4 2.4-2.4 2.9-3.2.8-.8-2 1.3-4.9 2.7-3.5.5.5.7 1.7.5 2.7zm79.5 1.1c.8 4.5.1 5.3-3.5 4.6-2.6-.5-4.2-3.2-2.9-5 .6-1 4.2-3.2 5.2-3.3.4 0 .9 1.7 1.2 3.7zm-86.3-1.2c0 .8-.4 1.5-1 1.5-.5 0-1-.7-1-1.5s.5-1.5 1-1.5c.6 0 1 .7 1 1.5zm-41.5 5.5c-.3.5-1.8.8-3.3.6-1.5-.2-2.1-.1-1.4.1.6.2 1.2 1.5 1.2 2.8 0 1.8-.4 2.3-1.5 1.9-.9-.4-1.5 0-1.5 1 0 .9-.3 1.6-.7 1.6-.5 0-1.8.3-3 .6-2.8.8-3-1.3-.7-6.2 1.1-2.3 2.3-3.4 3.8-3.4 1.1 0 3-.7 4.1-1.5 1.7-1.3 2-1.3 2.8 0 .4.8.5 1.9.2 2.5zm13.5 1.6c0 .8-.4 1.4-1 1.4-.5 0-1-.9-1-2.1 0-1.1.5-1.7 1-1.4.6.3 1 1.3 1 2.1zm47.3 7c-1.3 3.4-4.5-1.1-3.5-4.9.4-1.6.7-1.5 2.2.9 1 1.5 1.6 3.3 1.3 4zm54.4-4.1c-.4.8-1.1 1.5-1.7 1.5-1.4 0-1.3-2.7.3-3.3 1.6-.6 2.1-.1 1.4 1.8zm12.5 1c-1.2 2.2-2.7.2-1.8-2.2.5-1.2 1-1.3 1.7-.6.7.7.8 1.7.1 2.8zm-101.2-1.7c0 1.2-4 3.3-5 2.7-1.6-1-1.1-2.8.5-2.2.8.4 1.7.2 2-.3.7-1.2 2.5-1.3 2.5-.2zm-18.9 9.4c-1 2.7-5.9 5.5-10.6 6-2.6.3-3-.1-3.3-2.3-.5-4.1 7.5-10.8 9.4-7.8.3.5 1.5.2 2.7-.6 2-1.4 2.2-1.4 2.5.3.2 1-.1 3-.7 4.4zm45.9 1.9c0 .9 1.1 2.9 2.5 4.5 2.1 2.4 2.7 2.7 3.5 1.4 1.4-2.2 1.2-3.1-1.1-5.6-1.2-1.3-1.6-2.4-1.1-2.8 1.2-.7 5.2 4 5.2 6 0 .8-1.1 2.4-2.5 3.6-1.7 1.5-2.4 3-2.3 5.4.1 1.8-.4 3.9-1.1 4.7-.6.8-.9 2.2-.5 3.1.3.9.3 2.3 0 3.1-.8 2.2-4.6.1-4.6-2.5 0-1.5-.7-2-2.5-2-2.6 0-2.7-1.1-.4-10 .5-1.9.9-4.4.9-5.4 0-1.8-.1-1.8-2-.1-1.1 1-1.7 2.2-1.4 2.6.3.5-.2.9-1 .9-2.4 0-1.9-2.2 1.4-6 1.6-1.9 2.9-4.4 3-5.5 0-1.8.2-1.8 2 .5 1.1 1.4 2 3.2 2 4.1zm-20.5-2c-.4.5-1.3.9-2.2.9-1.3 0-1.3-.3-.3-1.5 1.3-1.5 3.5-1.1 2.5.6zm-15.2 4.4c1.6 3.3 1.7 4.2.5 6.3-.7 1.4-1.2 3.3-1 4.4.2 1-.2 1.8-.7 1.8-.6 0-1.1-1.1-1.1-2.5s-.4-2.5-.8-2.5c-1.6 0-2.1 1.3-1.3 2.9.5.9.5 2.5 0 3.6-.6 1.7-.8 1.7-.8.2-.1-.9-.6-1.7-1.2-1.7-.7 0-.9-.9-.5-2.4s.1-2.6-.7-2.9c-.8-.3-.7-1 .7-2.6 2.3-2.6 1.3-4-1.6-2.2-2.3 1.5-1.9.6 1.9-3.8 1.5-1.7 3.2-3 3.8-2.8.5.2 1.8 2.1 2.8 4.2zm-26 3.7c.3 1 .2 2-.3 2.3-1 .6-3.7-4.3-3.4-6.3.1-.6.2-1.5.3-2 .1-.7 2.2 3 3.4 6zm105.5-2.7c0 4.1-.7 4.3-3.1 1-1.6-2.3-1.6-2.4 0-3.4 2.8-1.6 3.1-1.3 3.1 2.4zm-117.2 3.1c-.3.9-.6 2.2-.6 3 0 .8-.7 1.4-1.5 1.4s-1.2-.6-1-1.5c.3-.8.7-2.2 1-3 .2-.8.9-1.5 1.6-1.5.6 0 .8.7.5 1.6zm111.8 6.4c.4 1.4.2 3.2-.3 4-1.4 2.1-3.6-.2-3.7-3.8-.1-1.5-.2-3.2-.4-3.7-.1-.6-.2-1.9-.1-3 .1-1.7.4-1.6 2 1 1.1 1.6 2.2 4.1 2.5 5.5zm-120.2-1.9c-.8 1.2-1 3.3-.7 5.2.4 1.8.2 4.3-.3 5.7-.6 1.5-.6 3.5-.1 4.8 1.1 3 .2 6.9-1.8 7.6-1.2.5-1.4.1-1-2 .3-1.8-.4-4.2-1.9-6.9-1.3-2.3-2.1-4.5-1.8-4.7.2-.3.6-2.3.7-4.4.1-2.9.7-4.1 2.4-4.9 1.2-.5 2.4-1.8 2.7-2.9.4-1.7.8-1.8 1.8-.8s1 1.6 0 3.3zm15.6-1.5c1.2-.7 3.8 2.2 2.8 3.1-.4.4-1.6.1-2.8-.6-1.7-1.1-2.2-1.1-2.9.1-.5.7-.9 1.7-.9 2.2 0 .6-.4.6-1 0-.7-.7-.6-2.1.1-4.4 1.1-3 1.3-3.1 2.5-1.6.7 1 1.7 1.5 2.2 1.2zm57.2 4c0 2.3-1.4 3.2-2.4 1.6-.8-1.3.5-5.2 1.5-4.6.5.3.9 1.6.9 3zm35.6-2c-.3.9-.6 3.3-.6 5.5 0 4.4-2.1 5.4-4.1 1.7-.9-1.7-.9-2.4.5-3.3.9-.7 1.6-2.2 1.6-3.4 0-1.3.6-2.1 1.6-2.1 1.1 0 1.4.5 1 1.6zm-90.6 9.5c0 2.4-1.6 3.3-2.4 1.3-.9-2.4-.7-3.1.9-3.1.8 0 1.5.8 1.5 1.8zm86 7.6c0 2.7-3.3.9-3.4-1.9-.2-2.5 0-2.6 1.6-1.1 1 .9 1.8 2.2 1.8 3zm16 2c0 3.2-1.5 3.6-3 .8-1.1-2-1.1-2.7 0-4 1.6-1.9 3-.4 3 3.2zm10.3-2.7c.3 1.1.1 2.2-.3 2.5-1.1.7-3.2-3-2.3-3.9 1.1-1.1 2.1-.6 2.6 1.4zm-26.6 7.9c-.9 1.5-1.3 3.2-.9 3.7.4.4-.1.2-1-.5-1-.7-1.8-1.8-1.8-2.3 0-.5.8-2 1.8-3.3 2.4-3.3 4.1-1.3 1.9 2.4zm-67.2-.8c-.8 1.2-4.5 1.2-4.5 0 0-1 3-2 4.3-1.4.4.3.5.9.2 1.4zm-7.9 2.6c-.6 1.4-.9 1.5-1.6.4-1.1-1.9-.1-4.6 1.3-3.2.5.5.7 1.8.3 2.8zm-23.6 1.4c0 1.8-1.9 2.8-2.1 1.1 0-.4-.2-1.5-.4-2.4-.2-1.1.2-1.5 1.1-1.1.8.3 1.4 1.4 1.4 2.4zm-10 0c0 1.1-.4 1.7-1 1.4-.5-.3-1-1.3-1-2.1s.5-1.4 1-1.4c.6 0 1 .9 1 2.1zm136.5 1.2c0 .7.9 1.3 2 1.3 1.1.1 2.4.2 2.9.3.5.1.2.9-.7 1.9-.8.9-2 2.9-2.6 4.5-1.3 3.5-3.1 3.5-3.2-.1 0-1.5-.2-3.6-.4-4.7-.5-2.4.4-5.9 1.3-5 .4.4.7 1.2.7 1.8zm-37.7 1.1c-.1 1.4-.6 2.2-1 2-1.2-.7-1-4.4.2-4.4.5 0 .9 1.1.8 2.4zm-102.8.7c0 1.1-.4 1.7-1 1.4-.5-.3-1-1.3-1-2.1s.5-1.4 1-1.4c.6 0 1 .9 1 2.1zm47.4.1c1.1 1.5 1.2 2.5.5 3.4-1.7 2-3.9.5-3.9-2.7 0-3.4 1.3-3.7 3.4-.7zm15.8 1c-.9.9-1.2.7-1.2-1.2s.3-2.1 1.2-1.2c.9.9.9 1.5 0 2.4zm66.3 1.7c.4 2.3-.3 5.1-1.4 5.1-.8 0-1.2-5-.5-6.9.6-1.7 1.3-1 1.9 1.8zm-7.3.4c1.1 1.9-.3 2.8-3.2 2.2-2.6-.6-2.9-.4-3.2 2.6-.2 1.8-.8 3.4-1.4 3.6-1.7.6-2.6-2.7-1.3-4.3.6-.8.9-2 .6-2.9-1.3-3.1 6.6-4.3 8.5-1.2zm-49.3 2.3c1.7-1.1 1.3.5-.5 1.9-1.3.9-2.3.9-4 .1-1.3-.6-2.4-1.4-2.4-1.8 0-1 4.4-1.4 5.1-.4.4.5 1.2.5 1.8.2zm80.4 2.9c-.3.8-.9 1.5-1.4 1.5-1 0-1.2-2.4-.3-3.3 1.1-1.1 2.4.3 1.7 1.8zm-111.4 2.1c-1.7 2.1-3.1 1.7-1.9-.6.6-1.1 1.5-1.8 2.1-1.4.6.4.6 1.1-.2 2zm66.1 2c0 .8-.9 1.4-2 1.4-1.9 0-2.7-1.9-1.4-3.3 1-.9 3.4.4 3.4 1.9zm12 2c0 1.3-.4 2.4-.9 2.4-1.3 0-2.4-3.7-1.6-5 1-1.6 2.5-.1 2.5 2.6zm36-.1c0 2-.5 2.5-2.5 2.5-2.7 0-3.3-1.8-1.3-3.8 2-2 3.8-1.4 3.8 1.3zm-68 3.2c0 3.8 0 3.8-1.3 1.3-1.4-2.6-1.2-5 .4-5 .5 0 .9 1.7.9 3.7zm-73-.2c0 .8-.4 1.5-1 1.5-.5 0-1-.7-1-1.5s.5-1.5 1-1.5c.6 0 1 .7 1 1.5zm121.4 1.2c-.1 1.6-.3 3.2-.3 3.6-.1.5-.5.5-1.1.2-1.4-.9-1.2-5.2.3-5.8l1.2-.6c.1-.1 0 1.1-.1 2.6zm-130.4 2.7c0 2.4-2.3 4.1-4.1 3-1.5-.9-1-3.2.9-4.3 2.6-1.6 3.2-1.3 3.2 1.3zm79.2 1.8c-1.5 1.5-2.4.6-1.6-1.6.5-1.2 1-1.4 1.7-.7.8.8.8 1.4-.1 2.3zm7.8 5.3c0 4.7-.9 5.6-3 3-1-1.2-1-1.5.4-1.5 1.9 0 2.1-1.1.5-2.7-1.2-1.2-.4-3.3 1.2-3.3.5 0 .9 2 .9 4.5zm-7.7.8c-.7 1.1-2.3-1.2-2.3-3.3.1-1.2.4-1.1 1.5.4.8 1 1.2 2.3.8 2.9zm-80.5 1.4c-.8 1-1.4 1.1-2.5.1-1.3-1-1.2-1.4.3-2.5 2.2-1.6 3.9.4 2.2 2.4zm159.6-.6c-.8 1.3-2.4.1-2.4-1.8 0-1.3.3-1.3 1.5-.3.8.7 1.2 1.6.9 2.1zm-35.4 2.9v2.5l-1.5-2.9c-.8-1.5-1.2-3.3-.9-3.8.9-1.4 2.4 1.2 2.4 4.2zm-29.8 2.8c.3 2.2 0 2.8-1.4 2.9-1.2.1-1.8-.5-1.8-2.1 0-4.3 2.6-5 3.2-.8zm8.4 3.5c.1 4-1.3 5.8-2.7 3.6-.5-.8-.9-2.9-.9-4.7 0-2.7.4-3.3 1.8-3 1.2.2 1.7 1.4 1.8 4.1zm19.9-3.2c1 1.5-.1 2.3-2 1.5-.9-.3-1.3-1-1-1.6.8-1.3 2.2-1.3 3 .1zm-38.9 1.4c.6 1.5-1.2 4.5-2.7 4.5-1.5 0-2.2-4.2-.8-5.1 2-1.3 2.9-1.1 3.5.6zm46.7 2.2c-.3.7-.9 1.3-1.4 1.3-1.1 0-1.2-3.4-.2-4.3.9-1 2.2 1.3 1.6 3zm-114.3-.7c0 .5.7 1 1.5 1s1.5.7 1.5 1.5-.7 1.5-1.5 1.5-1.5-.4-1.5-.9-.9-1.1-2.1-1.4c-1.2-.3-1.8-1-1.4-1.6.8-1.4 3.5-1.4 3.5-.1zm72.5 5.7c-.6 2.7-.7 2.7-2 .9-1.1-1.4-1.1-2.4-.4-3.8 1.5-2.9 3.3-.7 2.4 2.9zm9.3-.4c.2 1-.3 1.7-1.2 1.7-1 0-1.6-.9-1.6-2.1 0-2.4 2.3-2.1 2.8.4zm-23.7-.3c.4 0 .6.6.3 1.4-.7 1.8-3 1.1-3.8-1.1-.5-1.1-.2-1.3 1-.9.8.3 2 .6 2.5.6zm6 3.3c-.8.8-1.1.5-1.1-.9 0-2.7 1.4-4.1 1.8-1.9.2.9-.1 2.2-.7 2.8zm54.2-2.2c-.1.8-.5 2.4-.9 3.6-.5 1.9-.2 2.3 1.5 2.3 1.4 0 2.1.6 2.1 2 0 2.4-2.2 2.6-4 .5-.7-.8-1.6-1.5-2.1-1.5-1.4 0-1 2.8.5 3.7 1.2.7 1.1 1.2-.6 3.2-1.6 2-2.1 2.2-2.8 1.1-.5-.9-.5-1.9.1-2.7.7-.8.7-1.8 0-3-.6-1.1-.6-2.5-.1-3.3.6-1 .3-2.1-.7-3.2-1.8-2-.4-2.5 1.5-.6.8.8 1.4.4 2.3-1.6 1.3-2.7 3.6-3.1 3.2-.5zm-24.9 4.2c-.3.9-1 1.7-1.5 1.7-1.1 0-1.2-3.4-.2-4.4 1.1-1.1 2.4.9 1.7 2.7zm-88.4 2.7c0 1-.4 2.2-1 2.5-.6.4-1-.7-1-2.5s.4-2.9 1-2.5c.6.3 1 1.5 1 2.5zm84.6 2.5c1.6 1.2 1.7 1.6.5 2.4-1.2.7-1.2 1.3-.3 2.4 1.4 1.7.6 2.7-2.4 2.7-1.2 0-2.4-.8-2.7-1.8-.2-.9-.8-2.5-1.2-3.5-.6-1.3-.3-1.6.9-1.1 1.1.4 1.6.1 1.6-1 0-2 1.1-2 3.6-.1zm-83.1 4.5c2.5 0 1.7 1.7-1 2.2-2.6.5-3.5-.6-2.7-3.6.4-1.6.6-1.7 1.4-.2.5.9 1.6 1.6 2.3 1.6zm-60.5.1c-.7 1.1-1.4 1.8-1.7 1.5-.8-.8.5-3.6 1.7-3.6.7 0 .7.6 0 2.1zm3.6 3.6c-1.1 1.1-1.9-.6-1.1-2.4.8-1.7.8-1.7 1.2 0 .3 1 .2 2.1-.1 2.4zm44.2-.9c.2.7-.3 1.2-1.2 1.2-.9 0-1.6-.7-1.6-1.6 0-1.7 2.2-1.4 2.8.4zm86 2.6c.3 2 0 2.7-1 2.4-.7-.3-1.3-1.7-1.4-3.2-.1-3.5 2-2.8 2.4.8zm-140.1 1.9c-.1 1.8-.7 3.7-1.2 4.3-1 1.1-4.8 1.5-4.2.5.2-.3 1.2-2.5 2.2-4.8 2-4.8 3.6-4.8 3.2 0zm-13.2.6c.3.5 0 1.3-.6 1.6-.5.4-.8 1.3-.5 2.1.3.8.1 1.4-.4 1.4-.6 0-1-1.4-1-3 0-2.9 1.3-4 2.5-2.1zm-6.5 2.1c0 1.1-.7 2-1.5 2-1.3 0-1.3-.3-.3-2 .7-1.1 1.4-2 1.5-2 .2 0 .3.9.3 2zm86-.1c0 .5-.7 1.1-1.5 1.5-.9.3-1.5 0-1.5-.9 0-.8.7-1.5 1.5-1.5s1.5.4 1.5.9zm6 3.7c0 1.4-.4 2.3-1 1.9-.5-.3-1-1.5-1-2.6 0-1 .5-1.9 1-1.9.6 0 1 1.2 1 2.6zm89.7 1.9c-.4.8-1.1 1.5-1.7 1.5-1.4 0-1.3-2.7.3-3.3 1.6-.6 2.1-.1 1.4 1.8zm21.4-.2c-1.3 1.3-2.6.3-1.6-1.2.3-.6 1.1-.8 1.7-.5.6.4.6 1-.1 1.7zm-185.1 1.2c0 1.6-.6 2.5-1.5 2.5-1.5 0-2.1-3.1-.8-4.3 1.3-1.4 2.3-.6 2.3 1.8zm15.6 1.2c-1.1 1.1-1.7-.4-.9-2.3.7-1.8.8-1.8 1.1-.1.2 1 .1 2.1-.2 2.4zm128 0c-1.1 1.1-1.7-.4-.9-2.3.7-1.8.8-1.8 1.1-.1.2 1 .1 2.1-.2 2.4zm-124.3 3.5c-1 2.1-1.2 2.1-1.8.5-1-2.5.2-5.4 1.7-3.9.8.8.8 1.8.1 3.4zm143-.8c.6 1.6-1.9 3-2.8 1.6-.7-1.1.2-3 1.5-3 .4 0 1 .6 1.3 1.4zm-129.1 2.8c-.9.9-1.2.7-1.2-1.2s.3-2.1 1.2-1.2c.9.9.9 1.5 0 2.4zm-45.7.8c-2 2.2-3.1 2-2.2-.5.4-.8 1.4-1.5 2.3-1.5 1.6 0 1.6.2-.1 2zm92.6 3.1c-.9 2.3-1 2.3-1 .2-.1-1.2.2-3 .6-4 .6-1.5.8-1.5 1.1-.2.1.8-.2 2.6-.7 4zm-64.5 4.6c-1.1 1.1-1.7-.4-.9-2.3.7-1.8.8-1.8 1.1-.1.2 1 .1 2.1-.2 2.4zm-6.6-.5c0 2.8-1.6 5.5-2.7 4.5-.4-.5-.1-1.2.7-1.7 1.5-1 .8-1.4-2.2-1.1-1.9.2-3.2-1.4-2.3-2.9.3-.6 1.9-1 3.6-1 2.3 0 2.9.4 2.9 2.2zm22.4 2.4c2.1 2 2 2.7-.5 4.2-2.5 1.6-2.5 1.6-3.4-2.6-.5-2.5-.3-3.2.8-3.2.9 0 2.3.7 3.1 1.6zm-48.4 8.9c1.7-.5 2-.2 2 2.2 0 3.2-1.6 5.3-4 5.3-1.1 0-1.9-1.6-2.7-5.8-1.2-6.7-.6-8.8 1.3-4.3 1.1 2.6 1.8 3.1 3.4 2.6zm35 0c-.7.9-1.5 1.3-1.8 1-.3-.2.1-1.1.8-2 .7-.9 1.5-1.3 1.8-1 .3.2-.1 1.1-.8 2zm-25 .8c0 2.1-2.6 5.7-4.2 5.7-1.1 0-1-3.7.1-5.9 1.3-2.4 4.1-2.3 4.1.2zm4.3 15.6c.5.1.6.5.3 1-.7 1.1-4.6.3-4.6-.9 0-.5.8-.7 1.8-.5.9.2 2.1.4 2.5.4zm113.7 23.7c0 1.7-2.2 1.4-2.8-.4-.2-.7.3-1.2 1.2-1.2.9 0 1.6.7 1.6 1.6zm-166.9 2.7c-.1.4-.1 1.4-.1 2.3 0 .8-.4 1.2-1 .9-1.3-.8-1.3-4.8.1-4.3.6.2 1 .7 1 1.1zm-12.8 42.5c-.3 1.2-.9 2.2-1.4 2.2-1.2 0-1.1-.7.2-3.2s2-1.9 1.2 1zm-12.2 5.5c-.8.8-1.1.7-1.1-.4 0-2 1.3-3.4 1.8-1.9.3.7-.1 1.7-.7 2.3zm8.9-2.4c0 .5-.7 1.1-1.5 1.5-1.5.5-2-.5-.8-1.7.9-1 2.3-.9 2.3.2zm26.6 6.1c1.8 0 1.8 1.6 0 2.3-1.8.7-2.6-.1-2.5-2.7 0-1.2.3-1.5.6-.9.2.7 1.1 1.3 1.9 1.3zm-20.5 17.3c-.1 1.2-1.5.9-1.9-.4-.3-.6.1-1 .8-.8.6.3 1.1.8 1.1 1.2zm-13.4 30.4c-.3.3-1.1.2-1.7-.2-.9-.6-.9-1 .1-1.6 1.4-.8 2.7.7 1.6 1.8zm201.4-475.4c-1.7 2.1-.3 4.7 2.5 4.7 1.8 0 2.4.6 2.4 2.1 0 2.9 2.2 1.9 3.1-1.5.5-1.9.4-2.6-.4-2.3-.7.3-2.4-.6-3.8-2-2.2-2-2.8-2.2-3.8-1zm-27.9 4.3c.1.9.9 1.9 1.6 2.2.9.3 1.3-.2 1-1.4-.1-.9-.9-1.9-1.6-2.2-.9-.3-1.3.2-1 1.4z"/><path d="M299.17 272.684c1.1 2.5 1 2.9-1.7 5.2l-3 2.5 2.8-.6c1.6-.4 2.7-.2 2.7.4 0 1.4 5 1.2 5.5-.3.8-2-1.9-8.4-3.3-7.9-.7.2-2-.2-2.8-.9-1.3-1.1-1.4-.9-.2 1.6zm-16 4.7c-1.3 1.3-1.6 4.8-.4 4.8.4 0 1.3-1 2-2.1 1.6-2.4.3-4.6-1.6-2.7zm91.3.8c-.3.6 0 1.3.8 1.6.8.3 1.3 1.3 1 2.4-.3 1 0 2.1.7 2.5 1.3.8 1.6.7 2.4-2.1.5-1.6 0-2.6-1.8-3.8-1.6-1-2.7-1.2-3.1-.6zm-63.5 3c0 .5 1 1 2.3 1 1.8 0 1.9-.2.7-1-1.9-1.3-3-1.3-3 0zm-7.3 5.6c-.4.4-.7 1.4-.7 2.3 0 1.1.3 1.2 1.1.4.6-.6 1-1.6.7-2.3-.2-.6-.7-.8-1.1-.4zm36.9.1c-.3.3-.6 1.7-.6 3.1 0 2.1.2 2.2 1.5 1.2.8-.7 1.5-1.8 1.5-2.6 0-1.5-1.5-2.6-2.4-1.7zm-55 2.1c-.8 1.3.3 4.2 1.5 4.2 1.1 0 1.1-2.1 0-3.9-.5-.8-1.1-.9-1.5-.3zm42.5 1.1c-.7.5-1.2 1.4-1 2 .3.6.9.7 1.8.2.7-.5 1.2-1.4 1-2-.3-.6-.9-.7-1.8-.2zm51.5 3.8c.8 3.3 1.2 3.9 2 3 .9-.9-.5-5.7-1.6-5.7-.6 0-.8 1.1-.4 2.7zm-67.9 2.9c-.8 1.4.8 3.7 2.2 3.3.8-.3.8-1-.2-2.3-.8-1.1-1.7-1.5-2-1zm-25.4 4c.2 1.5-.5 1.9-3.3 2-1.9 0-4.3-.7-5.2-1.5-1.1-.8-1.8-1-1.8-.3 0 .6-.2 1.7-.6 2.5-.4 1 .6 1.6 3.5 2.1 2.7.4 4.1 1.1 4.1 2.1 0 .8.9 2.4 1.9 3.4 2.1 2.1 2.2 6.2.2 9.9-1.5 2.8-.6 2.8 3.3-.2 2.6-1.9 3.1-3 3-6.2-.1-2.6-.6-3.9-1.5-3.9-1 0-1.4-1.4-1.4-4.7 0-2.6-.5-5.2-1.2-5.8-.8-.9-1.1-.8-1 .6zm37.9 10.5c.2.7 1 1.5 1.7 1.7.8.3 1.2-.1.9-.9-.2-.7-1-1.5-1.7-1.7-.8-.3-1.2.1-.9.9zm60.8 11.1c0 2 1.2 3.2 4.2 4.5 1.7.8 3 .9 3.3.3.4-.6.1-1-.5-1s-1.6-1.1-2.2-2.5c-1.1-2.6-4.8-3.5-4.8-1.3zm-115.2 10.5c-2.2.5-2.2 1-.4 2.8 1.5 1.5 3.6.2 3.6-2.2 0-1.3-.3-1.4-3.2-.6zm122.8 2.2c-.4.6-1.3.8-2.1.4-1.7-.6-2.1 1.2-.5 2.2.6.4.7 1.2.3 1.8-.4.7.1.6 1-.2 1.5-1.2 2-1.1 3.7.4 2.7 2.4 3.8 1.1 2-2.2-1.7-2.9-3.5-3.9-4.4-2.4zm-132.9 22.3c-.7 2.5 0 4.1 1.4 3.3 1.2-.8 1.2-5.5 0-5.5-.5 0-1.1 1-1.4 2.2zm127.3 11c0 .8.5 1.9 1.1 2.5.9.9.8 1.6-.4 2.7-2 2-5.7 2.1-5.7.1 0-.8-.4-1.5-.8-1.5-2.3 0-.4 3.1 2.7 4.6 2 .9 4.7 2.3 6.1 2.9 2.6 1.3 7 .2 7-1.7 0-1.7-3.2-5.8-4.5-5.8-.8 0-1.5-1-1.7-2.2-.3-2.5-3.8-3.9-3.8-1.6zm-113.3 1.5c-1.3 1.3-.7 5.4 1.2 7.4 2.1 2.3 4.1.8 2.1-1.6-.7-.8-1-2.1-.7-2.9.6-1.6-1.6-4-2.6-2.9zm1.3 12.3c0 1.1.4 2 1 2 .5 0 1.4-.9 2-2 .9-1.7.8-2-1-2-1.3 0-2 .7-2 2zm-157.7 24.8c-1 .6-1 5.8-.1 6.7.2.2.8-1.2 1.4-3.1 1.1-3.5.7-4.8-1.3-3.6zm130.4.9c-.4.3-.7 1.8-.7 3.1 0 3.2 1.4 2 1.6-1.3.1-2.7.1-2.8-.9-1.8zm-13.5 20.9c-.7 1.4-1.7 2.2-2.2 1.9-1-.6-2.7 2.2-1.8 3.1.3.2 1.9.1 3.6-.2 2.8-.6 3.2-1 3.2-4 0-4-1.2-4.4-2.8-.8zm-9.5 4.4c-.3 1.1-.2 2.2.3 2.5.4.3 1-.4 1.3-1.5.3-1.1.2-2.2-.3-2.5-.4-.3-1 .4-1.3 1.5zm-2 8.1c-2.6 3.9-3.6 8.9-1.9 8.9.5 0 2.1-2.2 3.5-4.9 4.5-8.1 3.2-11.3-1.6-4zm-14.1 16.1c-1.8 2.5-2.1 4.8-.7 4.8 1 0 4.1-4.5 4.1-6 0-1.7-1.8-1.1-3.4 1.2zm-4.1 7.3c-.3.8-.7 2.2-1 3.1-.4 1.4-.3 1.5.9.5 1.7-1.4 2.8-5.1 1.5-5.1-.5 0-1.2.7-1.4 1.5zm-4.7 14.2c.5 1 .7 2.3.5 3-.7 1.8 1.3 2.3 3.3.8 1.9-1.3 1.8-1.4-.3-3.4-2.8-2.6-4.7-2.8-3.5-.4zm-163 2.4c-3.1 1.6-8.8 8-12.2 13.7-1.5 2.5 1.4 4.2 7 4.2 2.9 0 5.6-.5 5.9-1 .3-.6 1.5-1 2.6-1 1 0 1.9-.6 1.9-1.4 0-.8.8-2.8 1.7-4.4 1.6-2.8 1.6-3 0-4.7-1.8-1.8-1.9-3.7-.2-3.6.5.1 1 .9 1 1.8s.6 1.8 1.3 2c.6.3 1.2-.2 1.2-1.1 0-.9.5-1.6 1-1.6.9 0 1.4 1.4 1.1 3.2 0 .5.4.8.9.8.9 0 1.2-1.1 1.4-5.8.1-1.9-2.2-2.4-4.1-.9-.9.6-1.5.4-1.9-.7-.8-2.1-4.1-2-8.6.5zm159.5 11.1c-1.7 2.2-2.1 4.2-1.1 6.1 1.1 2.2 3.1 1.2 2.3-1.3-.3-1-.1-2.1.5-2.5 1.2-.8 1.3-3.5.1-3.5-.5 0-1.3.6-1.8 1.2zm7.7 1.3c-.7.8-.9 1.5-.4 1.5.4 0 .3.5-.4 1.2s-1.2 2.1-1.2 3.2c.1 1.9.3 1.8 2.5-.9 1.4-1.7 2.5-3.5 2.5-4.2 0-1.9-1.7-2.4-3-.8zm-1 12.3c0 .9 1 2.3 2.1 3.1 2 1.2 2.1 1.1 1.4-.6-.4-1-.8-2.4-.8-3.1-.1-1.9-2.7-1.4-2.7.6zm-11.4 20.8c-.7 1.7 2.2 2.6 4.5 1.4 2.6-1.4 2.4-1.7-1.1-2.2-1.7-.3-3.1 0-3.4.8zm-14 13.9c-1.1 2.3-2.1 3.2-3.1 2.8-1.1-.4-1.3-.1-.9 1.1.9 2.3 3.6 1.6 5-1.3.7-1.3 1.8-2.7 2.4-3.1 1.3-.8.6-3-.9-3-.5 0-1.6 1.6-2.5 3.5z"/></svg>