
<svg width="795px" height="952px" viewBox="59 123 795 952" version="1.1" xmlns="http://www.w3.org/2000/svg" xmlns:xlink="http://www.w3.org/1999/xlink">
    <!-- Generator: Sketch 3.8.3 (29802) - http://www.bohemiancoding.com/sketch -->
    <desc>Created with Sketch.</desc>
    <defs>
        <rect id="path-1" x="178.42835" y="48.6622773" width="69.5175389" height="9.26900519" rx="4.6345026"></rect>
        <mask id="mask-2" maskContentUnits="userSpaceOnUse" maskUnits="objectBoundingBox" x="0" y="0" width="69.5175389" height="9.26900519" fill="white">
            <use xlink:href="#path-1"></use>
        </mask>
        <path d="M419.422485,243.002321 L419.422485,796.118872 C419.422485,824.823171 396.139226,848.113975 367.417871,848.113975 L58.956368,848.113975 C30.2351284,848.113975 6.95175389,824.834974 6.95175389,796.118872 L6.95175389,51.9951035 C6.95175389,23.2908037 30.2350127,0 58.956368,0 L367.417871,0 C396.13911,0 419.422485,23.2790008 419.422485,51.9951035 L419.422485,181.055216 C418.86535,181.409486 418.495528,182.032652 418.495528,182.738875 L418.495528,241.318112 C418.495528,242.026648 418.865694,242.648839 419.422485,243.002321 Z" id="path-3"></path>
        <rect id="path-4" x="18.5380104" y="9.26900519" width="391.615469" height="827.258713" rx="44"></rect>
        <mask id="mask-5" maskContentUnits="userSpaceOnUse" maskUnits="objectBoundingBox" x="0" y="0" width="391.615469" height="827.258713" fill="white">
            <use xlink:href="#path-4"></use>
        </mask>
        <mask id="mask-6" maskContentUnits="userSpaceOnUse" maskUnits="objectBoundingBox" x="0" y="0" width="391.615469" height="827.258713" fill="white">
            <use xlink:href="#path-4"></use>
        </mask>
        <rect id="path-7" x="32.4415182" y="99.6418058" width="361.491203" height="644.195861" rx="4"></rect>
        <mask id="mask-8" maskContentUnits="userSpaceOnUse" maskUnits="objectBoundingBox" x="0" y="0" width="361.491203" height="644.195861" fill="white">
            <use xlink:href="#path-7"></use>
        </mask>
    </defs>
    <g id="Group-2" stroke="none" stroke-width="1" fill="none" fill-rule="evenodd" transform="translate(455.000000, 599.500000) rotate(-30.000000) translate(-455.000000, -599.500000) translate(245.000000, 175.000000)">
        <g id="Group" stroke="#000000">
            <g id="iPhone-6">
                <ellipse id="Oval-6" stroke-width="2" cx="148.304083" cy="53.2967799" rx="6.95175389" ry="6.95175389"></ellipse>
                <use id="Rectangle-7" mask="url(#mask-2)" stroke-width="4" xlink:href="#path-1"></use>
                <g id="Rectangle-5" stroke-width="2">
                    <use xlink:href="#path-3"></use>
                    <use xlink:href="#path-3"></use>
                </g>
                <g id="Rectangle-6" stroke-width="4">
                    <use mask="url(#mask-5)" xlink:href="#path-4"></use>
                    <use mask="url(#mask-6)" xlink:href="#path-4"></use>
                </g>
                <path d="M4.63039024,177.259117 L4.63039035,240.994135" id="Line" stroke-width="2" stroke-linecap="square"></path>
                <path d="M5.79312825,107.615876 L5.79312825,140.330012" id="Line" stroke-width="2" stroke-linecap="square"></path>
                <path d="M4.62934858,257.238067 L4.62934858,321.904823" id="Line" stroke-width="2" stroke-linecap="square"></path>
                <ellipse id="Oval-5" stroke-width="2" cx="213.187119" cy="25.4897643" rx="4.6345026" ry="4.6345026"></ellipse>
                <use id="Rectangle-8" mask="url(#mask-8)" stroke-width="4" xlink:href="#path-7"></use>
                <ellipse id="Oval-7" stroke-width="2" cx="213.187119" cy="792.499944" rx="27.8070156" ry="27.8070156"></ellipse>
                <path d="M213.187119,824.941462 C231.104075,824.941462 245.628638,810.4169 245.628638,792.499944 C245.628638,774.582988 231.104075,760.058426 213.187119,760.058426 C195.270164,760.058426 180.745601,774.582988 180.745601,792.499944 C180.745601,810.4169 195.270164,824.941462 213.187119,824.941462 Z" id="Oval-8" stroke-width="2"></path>
            </g>
        </g>
        <path d="M35.5,424 L393.003143,424" id="Line" stroke="#FFFFFF" stroke-width="2" stroke-linecap="square"></path>
        <polyline id="Path-249" stroke="#FFFFFF" stroke-width="2" points="147.032813 742.521148 147.032813 694.592562 273.938775 694.592562 273.938775 743.287103"></polyline>
        <polyline id="Path-249" stroke="#FFFFFF" stroke-width="2" transform="translate(210.485794, 126.939833) rotate(-180.000000) translate(-210.485794, -126.939833) " points="147.032813 150.521148 147.032813 102.592562 273.938775 102.592562 273.938775 151.287103"></polyline>
    </g>
    <text id="⚽️" stroke="none" fill="none" font-family="AppleColorEmoji, Apple Color Emoji" font-size="83.4210467" font-weight="normal">
        <tspan x="408.206519" y="636.069108" fill="#A5A6A9">⚽️</tspan>
    </text>
</svg>