<svg width="795" height="952" viewBox="59 123 795 952" xmlns="http://www.w3.org/2000/svg" xmlns:xlink="http://www.w3.org/1999/xlink"><defs><rect id="a" x="178.428" y="48.662" width="69.518" height="9.269" rx="4.635"/><mask id="d" x="0" y="0" width="69.518" height="9.269" fill="#fff"><use xlink:href="#a"/></mask><path d="M419.422 243.002V796.12c0 28.704-23.283 51.995-52.004 51.995H58.956c-28.72 0-52.004-23.279-52.004-51.995V51.995C6.952 23.291 30.235 0 58.956 0h308.462c28.721 0 52.004 23.279 52.004 51.995v129.06a1.995 1.995 0 0 0-.926 1.684v58.58c0 .708.37 1.33.926 1.683z" id="e"/><rect id="b" x="18.538" y="9.269" width="391.615" height="827.259" rx="44"/><mask id="f" x="0" y="0" width="391.615" height="827.259" fill="#fff"><use xlink:href="#b"/></mask><mask id="g" x="0" y="0" width="391.615" height="827.259" fill="#fff"><use xlink:href="#b"/></mask><rect id="c" x="32.442" y="99.642" width="361.491" height="644.196" rx="4"/><mask id="h" x="0" y="0" width="361.491" height="644.196" fill="#fff"><use xlink:href="#c"/></mask></defs><g fill="none" fill-rule="evenodd"><g transform="rotate(-30 659.054 54.824)" stroke="#000"><ellipse stroke-width="2" cx="148.304" cy="53.297" rx="6.952" ry="6.952"/><use mask="url(#d)" stroke-width="4" xlink:href="#a"/><g stroke-width="2"><use xlink:href="#e"/><use xlink:href="#e"/></g><g stroke-width="4"><use mask="url(#f)" xlink:href="#b"/><use mask="url(#g)" xlink:href="#b"/></g><path d="M4.63 177.26v63.734m1.163-133.378v32.714M4.63 257.238v64.667" stroke-width="2" stroke-linecap="square"/><ellipse stroke-width="2" cx="213.187" cy="25.49" rx="4.635" ry="4.635"/><use mask="url(#h)" stroke-width="4" xlink:href="#c"/><ellipse stroke-width="2" cx="213.187" cy="792.5" rx="27.807" ry="27.807"/><path d="M213.187 824.941c17.917 0 32.442-14.524 32.442-32.441s-14.525-32.442-32.442-32.442-32.441 14.525-32.441 32.442 14.524 32.441 32.441 32.441z" stroke-width="2"/></g><path d="M303.629 686.317l309.606-178.752" stroke="#FFF" stroke-width="2" stroke-linecap="square"/><path stroke="#FFF" stroke-width="2" d="M559.48 906.398l-23.965-41.507 109.904-63.453 24.347 42.17M349.802 289.414l23.964 41.507-109.904 63.453-24.347-42.17"/></g><text fill="none" font-family="AppleColorEmoji, Apple Color Emoji" font-size="83.421"><tspan x="408.207" y="636.069" fill="#A5A6A9">⚽️</tspan></text></svg>