<?xml version="1.0" standalone="no"?>
<!DOCTYPE svg PUBLIC "-//W3C//DTD SVG 20010904//EN"
 "http://www.w3.org/TR/2001/REC-SVG-20010904/DTD/svg10.dtd">
<svg version="1.0" xmlns="http://www.w3.org/2000/svg"
 width="407.970462pt" height="810.260689pt" viewBox="0 0 407.970462 810.260689"
 preserveAspectRatio="xMidYMid meet">
<metadata>
Created by potrace 1.12, written by Peter Selinger 2001-2015
</metadata>
<g transform="translate(-432.029538,946.184320) scale(0.100000,-0.100000)"
fill="#000000" stroke="none">
<path d="M4577 9427 c-8 -19 -13 -46 -10 -60 4 -19 -1 -29 -21 -42 -28 -18
-37 -51 -11 -42 21 9 29 -11 11 -29 -9 -8 -16 -23 -16 -33 0 -9 -5 -22 -11
-28 -12 -12 -2 -63 13 -63 6 0 7 -8 3 -17 -4 -10 -9 -40 -10 -66 -2 -26 -8
-53 -14 -60 -5 -7 -8 -23 -4 -35 3 -12 1 -22 -4 -22 -6 0 -15 -37 -22 -82 -17
-108 -16 -123 8 -152 7 -8 10 -23 7 -33 -12 -42 -16 -80 -10 -115 7 -43 15
-48 29 -16 6 12 16 24 23 26 11 3 12 0 2 -18 -6 -12 -9 -24 -6 -27 3 -4 2 -11
-3 -17 -14 -18 -24 -89 -12 -81 6 3 11 13 11 21 0 8 7 26 16 40 9 13 14 27 10
31 -3 3 5 25 19 49 14 23 25 49 25 56 0 8 9 31 20 53 11 22 20 45 20 52 0 7 4
13 8 13 4 0 14 20 21 45 7 25 17 45 21 45 5 0 12 10 15 21 4 12 18 33 30 48
30 33 75 99 75 110 0 4 12 13 26 19 19 9 24 17 19 32 -5 15 -3 18 9 14 10 -4
21 7 36 36 11 22 27 43 35 47 8 3 15 14 15 24 0 20 15 26 25 9 4 -6 11 -8 16
-4 5 3 7 10 3 15 -3 6 1 18 9 27 9 9 18 29 22 44 4 15 13 32 20 38 8 6 11 18
8 26 -4 10 0 12 13 7 14 -5 16 -3 11 11 -4 10 -7 24 -7 31 0 8 -21 18 -52 25
-62 13 -276 46 -365 55 l-62 7 -14 -35z"/>
<path d="M6147 8984 c-4 -4 6 -21 22 -39 32 -37 48 -99 31 -120 -9 -11 -7 -12
8 -9 13 4 22 -2 30 -20 13 -28 32 -35 32 -11 0 8 -4 15 -10 15 -5 0 -10 5 -10
11 0 6 6 9 14 6 18 -7 30 48 15 75 -13 24 -6 34 10 14 15 -18 24 -119 10 -111
-5 4 -9 1 -9 -4 0 -6 7 -11 15 -11 8 0 15 -7 15 -16 0 -8 -4 -12 -10 -9 -5 3
-10 2 -10 -2 0 -10 29 -51 30 -43 8 36 10 54 11 107 0 34 -2 67 -5 72 -7 11
-163 101 -175 101 -4 0 -11 -3 -14 -6z"/>
<path d="M6010 8864 c0 -11 7 -29 15 -40 14 -19 14 -19 15 2 0 11 -7 29 -15
40 -14 19 -14 19 -15 -2z"/>
<path d="M6708 8628 c-3 -7 2 -26 11 -43 l16 -30 3 29 c4 32 -22 69 -30 44z"/>
<path d="M4493 8315 c2 -39 12 -46 20 -14 3 12 10 18 16 14 16 -9 13 1 -5 19
-24 25 -34 19 -31 -19z"/>
<path d="M4485 8239 c-4 -11 -4 -23 -1 -27 8 -7 36 30 30 40 -9 14 -23 8 -29
-13z"/>
<path d="M4497 8179 c-29 -40 -7 -153 25 -133 4 3 5 16 2 30 -4 17 -2 24 6 22
7 -2 15 3 18 11 3 10 0 12 -12 8 -15 -6 -17 -1 -15 33 4 48 -4 58 -24 29z"/>
<path d="M7265 8120 c9 -49 8 -69 -4 -114 -12 -48 -6 -59 25 -53 20 3 22 1 14
-14 -16 -28 -11 -37 5 -9 17 29 20 80 5 80 -5 0 -10 5 -10 11 0 7 10 9 25 5
27 -7 34 8 10 22 -9 4 -17 19 -20 32 -3 13 -16 36 -31 50 l-25 25 6 -35z"/>
<path d="M4486 8032 c-2 -4 -2 -41 1 -82 3 -41 5 -84 4 -95 0 -16 2 -17 9 -5
8 12 11 13 19 1 6 -9 10 -10 16 -2 4 7 2 18 -4 24 -11 13 -5 53 11 73 5 7 3
14 -7 18 -8 3 -15 14 -15 25 0 39 -20 65 -34 43z"/>
<path d="M7330 7916 c0 -14 5 -26 10 -26 6 0 10 9 10 19 0 11 -4 23 -10 26 -6
4 -10 -5 -10 -19z"/>
<path d="M7307 7843 c-10 -16 11 -39 23 -27 8 8 7 14 -4 23 -8 7 -17 8 -19 4z"/>
<path d="M7531 7796 c-9 -10 -7 -16 5 -27 13 -10 17 -10 24 1 9 14 3 40 -10
40 -4 0 -13 -6 -19 -14z"/>
<path d="M4492 7765 c1 -16 -2 -47 -7 -69 -7 -35 -6 -38 10 -28 18 10 50 93
35 89 -5 -1 -15 7 -24 18 -15 19 -15 19 -14 -10z"/>
<path d="M7100 7775 c0 -8 5 -15 10 -15 6 0 10 7 10 15 0 8 -4 15 -10 15 -5 0
-10 -7 -10 -15z"/>
<path d="M7294 7776 c-3 -8 -1 -23 5 -33 9 -15 10 -13 11 15 0 34 -7 42 -16
18z"/>
<path d="M7453 7637 c-6 -6 -16 -34 -24 -61 -15 -52 -31 -65 -54 -46 -13 11
-15 8 -15 -18 0 -33 -17 -45 -72 -50 -11 -2 -20 -18 -28 -52 -11 -47 -30 -68
-30 -34 0 11 -5 14 -17 10 -9 -4 -20 -1 -24 6 -6 10 -11 10 -20 1 -18 -18 7
-43 43 -43 28 0 30 -2 24 -27 -4 -16 -14 -33 -21 -39 -17 -13 -9 -24 17 -24
11 0 18 7 18 20 0 11 5 20 11 20 9 0 8 -24 -4 -60 -1 -3 2 -6 7 -8 6 -1 12 10
14 25 5 43 20 52 40 25 10 -13 21 -20 25 -16 4 4 2 13 -4 20 -14 17 -1 57 16
51 7 -3 18 0 24 6 8 8 14 8 23 -1 7 -7 17 -8 30 -1 10 5 18 6 18 2 0 -4 7 1
16 12 14 19 15 19 20 -3 9 -32 24 -27 24 8 0 20 5 30 15 30 17 0 21 -45 4 -55
-6 -4 -7 -14 -3 -24 4 -9 6 -28 5 -42 0 -15 6 -32 14 -39 12 -10 15 -10 15 1
2 117 11 171 38 221 34 60 32 81 -4 72 -26 -7 -29 1 -14 40 6 17 6 27 -1 32
-6 3 -9 17 -6 30 5 30 -11 32 -17 2 -6 -28 -15 -97 -16 -120 0 -29 -27 -21
-33 10 -10 51 -13 61 -20 68 -4 4 -7 18 -7 30 0 27 -14 38 -27 21z m17 -115
c0 -11 -8 -18 -20 -19 -12 -1 -20 4 -20 14 0 9 6 13 15 9 8 -3 15 -1 15 4 0 6
2 10 5 10 3 0 5 -8 5 -18z m80 -73 c0 -10 -5 -19 -12 -19 -6 0 -20 -7 -30 -17
-26 -24 -23 2 5 37 24 30 37 30 37 -1z"/>
<path d="M4713 7421 c-13 -11 -23 -26 -23 -34 0 -13 -6 -14 -30 -7 -25 7 -32
5 -45 -13 -13 -19 -15 -19 -15 -4 0 14 -5 17 -22 11 -30 -9 -39 -24 -27 -46 6
-12 6 -18 -1 -18 -5 0 -10 -13 -10 -29 0 -29 -22 -61 -41 -61 -5 0 -9 -20 -9
-45 0 -33 -4 -45 -15 -45 -22 0 -47 -44 -40 -73 4 -15 1 -30 -8 -39 -8 -8 -17
-23 -20 -34 -4 -16 -5 -16 -6 -1 0 9 -5 17 -10 17 -13 0 -24 -55 -16 -79 3
-11 1 -22 -5 -26 -8 -5 -10 -29 -5 -75 4 -44 3 -70 -4 -74 -6 -4 -8 -20 -4
-36 6 -33 -10 -41 -26 -12 -6 9 -11 13 -11 9 0 -20 47 -87 61 -87 19 0 71 -45
67 -58 -5 -14 73 -82 93 -82 11 0 19 -4 19 -9 0 -6 14 -4 33 3 65 26 72 29 97
31 14 1 30 -2 36 -7 6 -4 22 -8 35 -9 13 0 56 -2 94 -3 104 -4 105 -4 105 -24
0 -15 7 -18 39 -16 21 1 43 4 48 7 12 8 48 -17 106 -72 25 -24 60 -56 77 -71
16 -15 30 -30 30 -33 0 -4 -13 -13 -30 -22 -16 -9 -30 -22 -30 -31 0 -8 -9
-24 -20 -36 -13 -14 -20 -36 -20 -59 0 -41 14 -58 27 -34 6 10 16 12 33 7 23
-6 25 -13 27 -65 1 -33 6 -64 11 -70 5 -7 8 -21 6 -32 -9 -48 71 -275 97 -275
5 0 9 -14 9 -31 0 -17 12 -51 27 -77 16 -26 27 -53 25 -60 -2 -7 5 -16 15 -20
11 -4 18 -17 18 -32 0 -16 6 -26 18 -28 13 -3 18 2 16 15 -2 10 1 28 5 41 6
17 3 29 -10 43 -16 17 -16 22 -4 29 13 8 12 10 -2 10 -11 0 -15 5 -12 15 4 8
1 15 -5 15 -6 0 -11 6 -11 13 0 6 -12 23 -25 36 -14 13 -25 31 -25 41 0 10
-10 25 -22 33 -21 14 -21 16 -4 16 18 1 18 2 1 29 -10 15 -24 31 -32 35 -7 4
-13 13 -13 18 0 6 4 8 9 4 5 -3 12 -1 16 5 3 5 -1 10 -9 10 -19 0 -21 21 -4
38 9 9 7 19 -10 42 -18 23 -20 34 -12 49 5 11 7 27 3 37 -4 10 0 20 10 26 22
12 22 32 1 24 -13 -5 -15 -1 -10 17 3 14 -1 32 -9 43 -13 17 -16 17 -26 4 -9
-13 -10 -12 -5 3 3 10 6 23 6 28 0 5 9 9 20 9 22 0 27 16 8 22 -11 4 14 63 83
201 13 25 -19 23 -47 -4 -34 -32 -50 -19 -63 54 -14 82 -14 88 4 81 8 -4 15
-1 15 4 0 6 -7 12 -15 14 -13 2 -12 8 5 36 22 36 48 46 30 11 -7 -11 -9 -23
-7 -26 10 -9 47 22 42 35 -3 7 0 10 5 7 6 -3 10 -13 10 -21 0 -8 7 -14 15 -14
12 0 14 7 9 28 -7 24 -6 26 9 13 14 -11 20 -11 32 -1 11 9 19 10 26 3 13 -13
1 -43 -16 -37 -7 3 -15 1 -19 -4 -3 -5 12 -9 33 -10 34 -2 40 2 45 24 6 24 8
25 29 11 12 -8 36 -17 54 -21 34 -8 52 -35 31 -47 -7 -4 -10 -10 -8 -13 3 -2
13 2 23 9 16 12 17 18 6 54 -7 23 -19 47 -27 54 -15 12 -166 15 -282 5 -34 -3
-87 2 -140 14 -47 10 -94 17 -105 14 -23 -6 -106 32 -113 52 -2 7 2 10 11 6 9
-3 20 2 26 14 6 11 22 23 37 26 53 14 13 18 -54 6 -79 -14 -122 -8 -122 18 0
9 -7 26 -15 36 -13 17 -12 23 6 53 21 33 21 33 0 33 -32 0 -35 18 -6 43 15 12
35 29 44 37 9 8 24 14 33 12 12 -2 15 2 11 17 -4 17 -1 21 20 21 27 0 54 24
38 34 -5 3 -16 3 -25 0 -11 -4 -16 -1 -16 11 0 11 6 15 18 11 34 -11 78 -9
117 4 70 24 88 50 36 50 -20 0 -36 9 -49 25 -16 20 -26 24 -50 19 -19 -4 -34
-1 -43 9 -12 12 -18 12 -47 -4 -35 -20 -102 -26 -102 -9 0 6 17 10 38 11 20 0
31 3 25 6 -20 8 -15 22 12 35 14 6 25 17 25 25 0 7 7 16 16 20 13 5 13 7 2 14
-9 6 -6 9 10 9 23 0 62 16 72 30 3 4 14 12 25 18 19 10 18 11 -8 23 -33 15
-64 2 -59 -25 4 -22 -20 -20 -51 4 -17 13 -44 21 -79 24 -48 2 -128 28 -128
40 0 3 16 4 35 2 19 -1 35 1 35 5 0 5 -16 11 -35 15 -19 3 -35 10 -35 15 0 14
-13 10 -37 -10z m337 -80 c0 -14 -18 -23 -30 -16 -6 4 -8 11 -5 16 8 12 35 12
35 0z"/>
<path d="M4906 7381 c-3 -5 6 -12 20 -15 29 -8 39 -3 29 13 -8 13 -42 14 -49
2z"/>
<path d="M7125 7325 c-31 -27 -41 -30 -50 -15 -10 15 -55 -31 -55 -56 0 -32
13 -37 31 -12 14 19 20 20 33 9 13 -11 17 -9 27 12 7 16 17 23 29 20 10 -3 21
0 24 5 3 6 15 8 25 5 10 -3 22 0 25 5 10 16 -4 41 -20 35 -8 -3 -20 0 -27 5
-10 8 -20 5 -42 -13z"/>
<path d="M7577 7314 c-3 -4 0 -22 9 -42 17 -42 10 -75 -14 -68 -14 5 -17 -2
-17 -37 0 -37 -3 -42 -24 -45 -18 -3 -21 -6 -11 -12 9 -6 14 -31 15 -73 1 -62
14 -97 37 -97 6 0 7 8 3 18 -4 9 -9 28 -11 42 -2 14 -6 34 -9 46 -6 27 24 57
45 44 23 -15 27 -12 39 20 5 17 15 30 20 30 14 0 14 27 0 36 -6 3 -14 2 -18
-5 -4 -6 -7 5 -8 24 -1 20 -10 56 -22 80 -22 47 -24 49 -34 39z"/>
<path d="M7425 7299 c-10 -15 3 -25 16 -12 7 7 7 13 1 17 -6 3 -14 1 -17 -5z"/>
<path d="M5166 7215 c4 -8 9 -15 13 -16 3 0 18 -3 34 -5 34 -6 36 13 1 26 -37
14 -54 12 -48 -5z"/>
<path d="M7805 7211 c-3 -11 -14 -23 -24 -26 -12 -4 -18 -15 -17 -35 1 -34 15
-40 23 -10 3 11 16 23 29 26 24 6 34 24 13 24 -6 0 -8 9 -4 20 3 11 2 20 -4
20 -5 0 -12 -9 -16 -19z"/>
<path d="M5210 7149 c-14 -4 -23 -8 -20 -9 19 -7 39 -7 50 0 18 11 -2 18 -30
9z"/>
<path d="M5200 7070 c-8 -5 -25 -7 -36 -4 -24 6 -42 -12 -27 -27 13 -13 83 9
83 26 0 17 0 18 -20 5z"/>
<path d="M4372 7057 c-9 -11 -10 -17 -2 -22 15 -9 23 -1 18 21 -3 15 -4 16
-16 1z"/>
<path d="M7745 7040 c-5 -16 -10 -18 -25 -10 -16 9 -21 6 -26 -14 -8 -32 8
-81 27 -81 10 0 13 10 11 33 -3 27 0 32 17 32 17 0 21 6 21 30 0 34 -15 40
-25 10z"/>
<path d="M7796 7034 c-11 -27 -7 -37 9 -24 16 14 20 40 6 40 -5 0 -12 -7 -15
-16z"/>
<path d="M7986 6983 c-3 -3 -6 -21 -6 -39 0 -18 -6 -34 -12 -37 -7 -2 -10 -8
-6 -12 11 -12 34 17 41 52 6 31 -3 50 -17 36z"/>
<path d="M7808 6955 c-7 -7 3 -65 12 -65 10 0 11 58 1 65 -5 2 -10 2 -13 0z"/>
<path d="M5036 6918 c7 -11 34 -10 34 1 0 6 -9 9 -19 8 -11 0 -17 -5 -15 -9z"/>
<path d="M8017 6924 c-8 -9 -10 -68 -1 -77 10 -10 34 4 27 16 -3 5 -9 23 -12
39 -3 16 -9 26 -14 22z"/>
<path d="M4958 6909 c-7 -4 -10 -9 -8 -11 39 -25 50 -27 65 -12 8 8 15 17 15
19 0 7 -61 11 -72 4z"/>
<path d="M7772 6861 c-8 -4 -12 -16 -10 -27 2 -11 -6 -23 -22 -31 -19 -9 -24
-19 -22 -41 4 -36 -19 -48 -42 -21 -9 11 -16 23 -16 28 0 5 -13 11 -30 15 -16
3 -30 12 -30 20 0 17 -32 26 -54 14 -24 -13 -21 -65 4 -73 28 -9 25 -40 -5
-53 -14 -6 -25 -16 -25 -22 0 -5 -9 -10 -20 -10 -11 0 -20 -4 -20 -10 0 -13
26 -13 52 1 15 8 19 8 13 -1 -4 -7 -2 -23 5 -36 11 -20 11 -27 -4 -43 -13 -15
-15 -26 -9 -52 12 -46 32 -49 28 -5 -2 20 -6 40 -10 46 -3 5 1 10 10 10 13 0
15 7 9 35 -5 27 -3 35 9 35 23 0 39 24 25 38 -18 18 32 15 55 -2 14 -11 17
-23 12 -53 -4 -30 -3 -33 4 -15 11 24 26 29 36 12 9 -15 37 9 31 27 -3 7 1 13
10 13 8 0 17 7 20 15 10 25 19 17 38 -35 10 -28 24 -50 32 -50 8 0 14 -6 14
-14 0 -8 10 -23 23 -33 16 -12 26 -33 30 -66 6 -45 6 -46 -14 -34 -17 10 -22
9 -33 -5 -20 -27 -23 -22 -21 28 1 45 1 45 -16 22 -14 -18 -20 -21 -30 -10
-18 17 -26 15 -33 -10 -5 -22 -6 -22 -20 -3 -12 16 -19 18 -33 9 -23 -13 -53
-7 -53 12 0 8 -5 14 -11 14 -6 0 -9 -8 -6 -19 3 -15 0 -17 -16 -13 -16 4 -19
2 -14 -12 4 -10 7 -20 7 -22 0 -2 6 -4 14 -4 21 0 30 -19 28 -58 -3 -42 -22
-79 -56 -111 -14 -14 -26 -31 -26 -39 0 -30 -15 0 -16 31 0 28 -4 32 -29 34
-38 3 -66 39 -61 76 4 22 1 27 -11 23 -8 -3 -21 -6 -29 -6 -9 0 -14 -11 -14
-32 -1 -28 -2 -30 -11 -15 -8 14 -14 15 -24 7 -10 -8 -13 -31 -11 -75 3 -55 0
-64 -15 -68 -33 -9 -53 -99 -28 -124 18 -18 4 -42 -20 -36 -14 3 -21 1 -21 -8
-1 -31 -22 25 -22 57 0 46 -29 64 -51 30 -9 -13 -14 -32 -12 -42 2 -10 4 -23
4 -28 1 -4 8 -6 16 -2 11 4 15 -1 15 -19 0 -13 5 -27 10 -30 18 -11 10 -25
-15 -25 -19 0 -25 -5 -25 -21 0 -11 5 -17 10 -14 6 3 10 -1 10 -9 0 -9 -3 -15
-8 -13 -4 1 -7 -2 -7 -8 0 -5 3 -9 8 -8 4 2 7 -13 7 -32 0 -21 5 -36 13 -37 6
0 17 -2 22 -2 34 -4 49 -51 21 -62 -8 -3 -16 -14 -19 -25 -7 -25 -37 -25 -37
0 0 11 5 23 10 26 6 3 10 12 10 18 0 7 -4 6 -10 -3 -5 -8 -10 -11 -10 -6 0 5
-9 1 -20 -9 -24 -22 -26 -51 -5 -72 8 -8 12 -19 9 -25 -4 -7 -14 -1 -25 13
l-19 24 0 -23 c0 -24 26 -72 47 -85 21 -13 16 -57 -6 -57 -11 0 -22 -4 -25 -9
-9 -14 25 -23 40 -10 11 9 15 7 20 -5 7 -18 -36 -111 -48 -105 -4 2 -13 -5
-21 -15 -20 -27 -41 -11 -31 23 14 54 21 112 12 117 -14 9 -48 -6 -48 -22 0
-8 -4 -14 -10 -14 -13 0 -13 16 2 40 10 16 9 23 -7 40 l-19 21 -13 -23 c-14
-26 -12 -32 -19 56 -4 45 -11 56 -25 36 -11 -17 -6 -41 18 -96 21 -49 26 -124
8 -124 -7 0 -16 -7 -19 -16 -3 -8 -10 -12 -16 -9 -15 9 -12 44 5 61 20 20 1
64 -25 57 -19 -5 -22 10 -6 36 7 10 4 12 -13 6 -16 -5 -22 -3 -20 7 3 24 -1
38 -11 38 -5 0 -9 -21 -10 -47 0 -27 -2 -66 -4 -88 -2 -22 -4 -48 -5 -58 -1
-12 -7 -17 -19 -15 -23 4 -58 -32 -54 -57 3 -26 -21 -71 -37 -67 -7 1 -9 -2
-6 -8 4 -6 -1 -17 -11 -25 -12 -9 -21 -10 -25 -3 -4 6 -6 -2 -6 -16 0 -31 14
-44 23 -21 5 12 9 13 20 4 11 -9 14 -9 14 0 0 7 11 24 25 39 14 15 25 36 23
47 -3 28 12 66 23 60 14 -9 11 -63 -6 -94 -8 -16 -12 -31 -10 -33 3 -3 -4 -13
-15 -23 -26 -23 -26 -38 0 -30 32 10 27 -38 -6 -60 -26 -17 -60 -14 -49 5 3 5
-1 10 -9 10 -17 0 -39 -66 -39 -112 0 -16 -4 -28 -8 -28 -5 0 -9 9 -9 20 0 11
-4 20 -9 20 -12 0 -22 -54 -10 -58 5 -2 4 -12 -1 -23 -13 -23 -45 -26 -36 -4
7 19 -3 19 -28 0 -28 -21 -45 -19 -56 8 -5 13 -9 16 -10 7 0 -8 -5 -22 -10
-30 -9 -13 -11 -13 -20 0 -7 12 -13 6 -27 -27 -11 -27 -24 -43 -35 -43 -20 0
-25 -26 -6 -32 6 -2 12 -26 14 -52 2 -27 9 -56 17 -65 24 -28 31 -47 8 -23
-30 31 -41 28 -41 -13 0 -19 -5 -45 -11 -59 -9 -19 -9 -29 0 -40 6 -7 14 -39
16 -70 4 -44 2 -58 -10 -62 -8 -4 -15 -13 -15 -21 0 -10 6 -13 16 -9 17 6 54
-19 54 -36 0 -4 -9 -17 -21 -29 -15 -15 -24 -18 -34 -9 -9 8 -15 8 -20 0 -3
-5 -15 -10 -26 -10 -10 0 -19 -4 -19 -10 0 -6 -9 -6 -26 0 -32 13 -48 4 -35
-18 7 -12 5 -22 -7 -35 -11 -12 -16 -33 -15 -60 5 -105 4 -115 -12 -121 -8 -3
-17 3 -20 15 -9 27 -26 19 -39 -18 -15 -44 -24 -50 -40 -27 -13 17 -14 17 -9
-9 3 -15 9 -24 14 -21 15 9 9 -10 -10 -33 -24 -28 -31 -29 -31 -3 0 11 -4 20
-8 20 -5 0 -19 -9 -32 -20 -13 -11 -27 -20 -32 -20 -4 0 -8 -10 -8 -22 l1 -23
19 23 c18 21 19 21 36 5 16 -17 16 -18 1 -21 -9 -2 -17 -8 -17 -13 0 -6 -5 -7
-11 -4 -5 4 -19 -1 -29 -10 -18 -16 -20 -15 -41 8 -20 24 -23 25 -44 11 -15
-10 -21 -21 -18 -34 4 -14 0 -20 -11 -20 -10 0 -16 9 -16 25 0 35 -16 31 -36
-7 -9 -18 -30 -49 -45 -68 -16 -19 -29 -40 -29 -47 0 -26 -24 -63 -42 -63 -10
0 -18 -6 -18 -14 0 -8 -6 -17 -12 -19 -10 -4 -10 -8 0 -15 11 -7 11 -13 1 -29
-10 -17 -9 -23 10 -42 13 -13 26 -19 29 -15 4 3 2 9 -5 11 -8 3 -10 16 -6 36
8 42 7 41 37 22 21 -14 24 -21 15 -31 -6 -8 -9 -21 -5 -29 4 -11 2 -14 -6 -9
-7 5 -9 2 -5 -8 4 -12 1 -14 -14 -11 -11 3 -28 -2 -38 -11 -16 -15 -20 -15
-31 -1 -7 8 -10 22 -6 30 3 8 0 15 -5 15 -6 0 -9 9 -6 20 3 11 1 18 -4 14 -5
-3 -9 1 -10 8 -2 44 -18 74 -26 51 -8 -21 -41 -15 -49 10 -4 12 -15 29 -25 38
-11 9 -19 22 -19 29 0 10 -3 10 -14 1 -28 -23 -69 60 -56 114 1 6 5 18 8 29
10 35 -31 13 -43 -24 -11 -34 -12 -34 -23 -13 -7 12 -12 31 -12 42 0 29 -17
26 -24 -4 -4 -14 -11 -25 -16 -25 -12 0 -12 1 1 56 10 40 9 50 -8 82 -11 20
-24 54 -27 74 -4 22 -12 37 -19 35 -7 -1 -13 10 -15 26 -5 40 -23 33 -20 -8 2
-38 -5 -51 -22 -40 -7 5 -10 19 -6 37 3 16 1 38 -4 48 -7 13 -5 21 6 31 13 11
19 9 35 -11 21 -28 25 -16 9 26 -12 31 -55 74 -74 74 -8 0 -11 12 -8 36 4 28
0 39 -14 48 -11 6 -21 11 -24 11 -3 0 -11 4 -17 8 -8 5 -22 0 -35 -12 -14 -14
-17 -21 -8 -21 7 0 11 -2 8 -5 -3 -3 -18 1 -34 10 -16 8 -41 15 -56 15 -29 0
-38 14 -15 24 9 5 9 7 -1 12 -7 3 -18 12 -26 19 -7 7 -24 14 -37 14 -13 1 -44
3 -69 4 -28 1 -50 8 -57 19 -15 19 -31 18 -66 -5 -15 -9 -29 -17 -32 -17 -4 0
-21 -15 -40 -32 -18 -18 -52 -48 -75 -67 -23 -19 -39 -40 -36 -48 3 -7 -6 -29
-19 -49 -14 -20 -22 -40 -19 -45 3 -5 1 -9 -5 -9 -16 0 -34 -158 -34 -307 0
-91 7 -102 131 -200 53 -43 102 -83 107 -89 6 -5 26 -22 45 -36 19 -14 46 -37
60 -50 49 -49 172 -138 191 -138 23 0 44 -35 27 -46 -6 -4 -8 -3 -4 4 10 17
-7 22 -27 8 -16 -12 -15 -16 6 -70 20 -47 30 -60 66 -78 54 -27 88 -72 112
-150 17 -53 20 -88 18 -231 -1 -92 -6 -170 -11 -173 -11 -7 -10 -102 2 -109 6
-3 10 -1 10 5 0 6 5 8 10 5 14 -9 12 -25 -2 -22 -8 1 -13 -8 -12 -21 1 -26
-12 -17 -18 13 -4 17 -6 16 -12 -7 -6 -20 -3 -32 8 -43 8 -9 13 -22 10 -30 -8
-20 -22 -19 -27 2 -4 14 -5 12 -6 -4 -1 -14 5 -23 14 -23 24 0 36 -33 18 -52
-11 -12 -12 -21 -4 -35 9 -16 10 -15 11 10 0 31 7 34 26 10 18 -24 18 -47 0
-40 -8 3 -17 -1 -20 -9 -3 -8 -13 -14 -21 -14 -9 0 -13 -5 -9 -11 12 -19 -19
-29 -33 -11 -9 13 -12 14 -13 3 0 -8 8 -23 17 -33 16 -18 16 -21 0 -47 -22
-38 -23 -58 -2 -41 8 7 15 18 15 26 0 7 9 18 21 24 11 6 19 19 17 28 -1 9 2
19 7 22 6 3 11 -7 13 -22 2 -19 -1 -28 -11 -28 -9 0 -13 -12 -13 -38 1 -33 -2
-38 -23 -40 -35 -3 -38 -10 -7 -21 28 -11 32 -22 16 -52 -8 -14 -8 -19 2 -17
8 2 11 -8 9 -32 -2 -35 63 -211 81 -218 4 -2 8 -13 8 -25 0 -28 15 -52 32 -52
8 0 12 -11 11 -25 -3 -36 6 -72 16 -65 5 3 7 -4 4 -16 -5 -17 -2 -19 21 -13
29 7 66 -17 66 -44 0 -8 18 -32 40 -53 41 -39 52 -75 25 -86 -14 -5 -14 -8 1
-25 10 -10 24 -16 32 -13 21 8 35 -5 21 -21 -22 -27 50 -15 140 23 138 58 339
155 452 218 131 72 436 274 485 320 20 19 40 35 44 35 32 0 474 414 466 437
-3 7 1 10 8 7 24 -9 263 276 258 308 -2 10 2 18 8 18 6 0 8 -6 5 -12 -24 -48
75 85 169 227 146 219 287 474 347 628 11 29 27 66 34 82 46 101 105 264 150
413 36 121 42 158 26 148 -5 -3 -12 1 -15 10 -7 19 10 44 30 44 8 0 16 10 19
23 39 172 85 429 85 480 0 9 -6 16 -12 15 -7 -2 -13 3 -12 10 1 6 2 21 3 32 0
11 7 20 15 20 24 0 38 254 14 262 -9 3 -7 14 5 40 11 24 17 61 17 113 0 72 -1
75 -17 60 -16 -16 -18 -16 -35 5 -10 13 -18 39 -18 61 0 27 -6 45 -20 56 -23
20 -27 53 -5 53 8 0 15 -9 15 -20 0 -11 7 -20 15 -20 8 0 16 -4 16 -10 1 -5 3
-14 4 -20 1 -5 3 -20 4 -32 1 -17 3 -20 10 -9 5 8 14 10 21 6 10 -6 12 0 7 25
-4 18 -7 52 -7 77 0 30 -4 42 -11 37 -9 -5 -10 3 -5 30 4 23 3 36 -4 36 -5 0
-10 -4 -10 -8 0 -5 -11 -22 -25 -38 -14 -16 -25 -25 -25 -20 0 5 -7 3 -15 -4
-10 -9 -15 -9 -15 -1 0 6 5 11 10 11 6 0 10 7 10 15 0 11 -9 14 -32 13 -23 -2
-33 1 -33 12 0 8 -7 15 -15 15 -10 0 -14 -8 -12 -27 2 -14 -1 -29 -7 -32 -17
-11 -59 15 -65 40 -4 13 -17 34 -31 48 -28 29 -32 48 -10 66 13 11 13 15 0 41
-20 37 -20 79 0 79 8 0 15 -8 15 -18 0 -13 7 -18 21 -17 24 2 45 30 29 40 -15
9 -12 45 4 45 18 0 26 22 19 49 -6 23 -31 28 -39 8 -5 -15 -44 -20 -44 -6 0 5
4 9 10 9 5 0 12 11 16 25 8 33 41 33 54 1 13 -35 27 -39 49 -17 21 21 52 19
72 -5 14 -17 39 -18 39 -1 0 14 -41 55 -74 74 -61 36 -67 37 -77 22 -14 -22
-31 9 -18 33 7 12 6 18 -2 18 -11 0 -8 25 7 64 5 12 2 15 -10 10 -13 -5 -16 0
-16 24 0 17 -7 37 -15 46 -15 14 -11 46 6 46 18 0 9 19 -12 25 -28 9 -46 -9
-29 -30 7 -8 10 -18 7 -21 -3 -3 -13 5 -21 19 -12 17 -14 31 -8 48 9 23 8 34
-5 69 -3 8 -6 25 -7 38 -1 13 -7 26 -13 30 -6 4 -15 21 -19 37 -3 17 -14 38
-22 48 -8 9 -16 32 -17 50 -3 41 -34 114 -35 80 0 -34 -17 -28 -30 11 -8 24
-16 33 -32 32 -11 0 -26 7 -32 16 -8 14 -6 22 10 39 19 18 24 19 43 8 13 -9
21 -24 21 -41 0 -19 5 -28 16 -28 8 0 12 4 9 10 -3 5 2 21 11 35 13 21 15 34
7 68 l-9 42 -18 -34 c-16 -31 -20 -33 -31 -18 -9 13 -18 15 -44 7 -31 -9 -45
0 -40 26 4 23 -4 37 -9 16 -9 -29 -26 -30 -30 -2 -4 22 -10 24 -30 11z m140
-304 c-6 -11 -30 13 -32 33 -7 47 2 53 19 15 10 -22 16 -44 13 -48z m-188
-134 c7 -18 -1 -33 -18 -33 -14 0 -29 38 -20 51 7 12 31 0 38 -18z m96 2 c0
-8 -7 -15 -15 -15 -9 0 -12 6 -9 15 4 8 10 15 15 15 5 0 9 -7 9 -15z m99 -46
c11 17 33 10 37 -12 1 -11 -5 -17 -16 -17 -26 0 -36 -48 -14 -65 17 -12 17
-14 1 -39 -10 -14 -21 -26 -25 -26 -12 0 -42 56 -42 78 0 12 -5 24 -11 28 -8
4 -8 9 0 17 6 6 11 21 11 32 0 33 12 38 32 13 14 -18 20 -20 27 -9z m-498
-132 c-13 -13 -26 -3 -16 12 3 6 11 8 17 5 6 -4 6 -10 -1 -17z m93 -2 c-4 -8
-10 -12 -15 -9 -14 8 -10 24 6 24 9 0 12 -6 9 -15z m149 -30 c-3 -8 -9 -15
-14 -15 -10 0 -12 24 -3 33 11 11 24 -3 17 -18z m155 -63 c3 -9 -3 -13 -19
-10 -12 1 -24 9 -27 16 -3 9 3 13 19 10 12 -1 24 -9 27 -16z m-371 -34 c-17
-41 -33 -68 -39 -68 -12 0 -9 38 4 60 14 22 44 28 35 8z m289 -44 c-4 -14 0
-24 9 -28 22 -8 18 -21 -10 -34 -37 -17 -38 -16 -30 31 4 23 7 53 7 67 -1 24
-1 25 14 5 8 -11 12 -30 10 -41z m274 25 c0 -11 -4 -17 -10 -14 -5 3 -10 15
-10 26 0 11 5 17 10 14 6 -3 10 -15 10 -26z m-770 -10 c0 -11 -4 -17 -10 -14
-5 3 -10 13 -10 21 0 8 5 14 10 14 6 0 10 -9 10 -21z m219 -50 c-9 -5 -15 -4
-18 2 -2 6 3 15 10 20 9 5 15 4 18 -2 2 -6 -3 -15 -10 -20z m-49 -10 c0 -6 -7
-25 -16 -42 -32 -62 -35 -69 -30 -74 8 -8 26 7 26 23 0 8 4 14 9 14 6 0 7 -16
4 -37 -4 -26 -3 -34 5 -29 7 4 12 13 12 21 0 7 7 15 15 19 12 4 14 0 9 -22 -8
-29 -33 -73 -49 -84 -5 -4 -13 2 -17 13 -7 17 -13 19 -39 14 l-31 -7 7 41 c6
35 4 40 -9 35 -10 -4 -16 -1 -16 7 1 17 24 49 35 49 4 0 21 16 38 35 30 35 47
44 47 24z m660 -15 c0 -8 -4 -12 -10 -9 -5 3 -10 13 -10 21 0 8 5 12 10 9 6
-3 10 -13 10 -21z m-50 -24 c16 -30 12 -38 -16 -32 -25 5 -50 44 -38 63 7 12
41 -7 54 -31z m-376 -19 c5 -30 4 -33 -15 -28 -15 4 -23 0 -26 -12 -3 -13 -12
-16 -39 -13 -38 5 -46 -11 -13 -29 15 -8 18 -14 10 -22 -8 -8 -14 -6 -23 6 -7
9 -22 15 -33 13 -30 -5 -35 2 -23 29 6 14 19 25 30 25 10 0 19 5 19 10 1 6 2
15 3 22 2 18 25 21 32 4 5 -13 9 -14 21 -4 11 9 17 9 25 -3 8 -12 9 -11 5 2
-3 9 0 22 6 28 13 13 13 14 21 -28z m-184 15 c0 -8 -4 -17 -9 -20 -10 -7 -23
19 -14 28 11 11 23 6 23 -8z m435 -37 c8 13 38 9 59 -8 8 -7 19 -10 23 -8 5 3
8 -16 8 -41 l-1 -47 -50 -2 c-59 -1 -105 27 -84 52 6 8 9 23 5 34 -9 30 5 48
21 27 7 -11 14 -13 19 -7z m168 -14 c-5 -13 -23 -22 -23 -11 0 15 14 35 21 31
4 -3 6 -12 2 -20z m57 -71 c0 -16 -26 -19 -35 -4 -3 6 -4 14 0 20 8 13 35 1
35 -16z m-65 -32 c-14 -69 -16 -74 -32 -68 -12 5 -14 2 -8 -16 4 -13 8 -43 9
-68 1 -38 -2 -45 -19 -48 -30 -4 -47 29 -33 66 9 24 9 36 -1 55 -16 29 0 67
27 67 9 0 23 9 30 20 14 24 32 19 27 -8z m-450 -33 c4 -26 3 -45 -4 -52 -8 -8
-11 -5 -11 11 0 15 -5 20 -15 16 -8 -4 -15 -12 -15 -20 0 -19 -20 -18 -21 1
-1 8 -2 21 -3 28 -4 20 14 47 29 47 8 0 15 5 15 11 0 26 19 -5 25 -42z m203
-20 c-2 -6 -8 -10 -13 -10 -5 0 -11 4 -13 10 -2 6 4 11 13 11 9 0 15 -5 13
-11z m-153 -29 c-6 -10 19 -20 51 -20 26 0 30 -18 14 -55 -7 -17 -9 -16 -9 9
-1 33 -16 26 -16 -7 0 -11 -4 -22 -10 -23 -22 -8 -36 15 -39 64 -2 30 0 49 5
46 5 -3 7 -9 4 -14z m-299 -5 c4 -8 1 -21 -5 -28 -6 -8 -8 -29 -4 -51 5 -30 2
-41 -16 -57 -21 -20 -23 -20 -41 -4 -10 9 -24 14 -29 10 -6 -3 -11 1 -11 10 0
10 7 15 18 13 13 -2 18 5 20 29 2 17 10 37 18 43 8 7 14 21 14 31 0 23 28 25
36 4z m69 -6 c4 -6 13 -8 20 -5 8 3 18 -1 23 -7 13 -17 21 -102 11 -118 -4 -7
-3 -19 2 -26 8 -9 4 -11 -18 -9 -20 2 -29 9 -31 25 -2 14 2 21 12 21 20 0 20
4 0 56 -10 25 -24 44 -36 47 -11 3 -17 10 -13 16 8 14 22 14 30 0z m-145 -33
c0 -8 -7 -16 -15 -20 -17 -6 -18 -4 -9 18 8 20 24 21 24 2z m108 -22 c5 -9 7
-25 4 -36 -4 -18 -5 -18 -18 -1 -16 21 -18 53 -4 53 5 0 13 -7 18 -16z m422
-24 c0 -16 -9 -45 -20 -65 -11 -19 -19 -39 -17 -44 1 -5 -2 -8 -8 -7 -5 0 -9
14 -8 31 1 16 -3 33 -9 36 -6 4 -8 18 -4 34 5 21 12 26 26 22 13 -3 20 0 20 9
0 8 5 14 10 14 6 0 10 -13 10 -30z m-278 -22 c7 -18 -2 -39 -13 -32 -12 7 -12
44 0 44 5 0 11 -6 13 -12z m478 -68 c0 -5 -9 -6 -20 -3 -11 3 -17 9 -15 14 7
10 35 1 35 -11z m60 -41 c-9 -16 -8 -19 11 -16 21 2 32 -10 43 -46 7 -23 26
-13 26 14 0 24 28 25 37 2 4 -10 12 -22 20 -26 7 -4 13 -15 13 -24 0 -12 -7
-14 -29 -10 -25 5 -28 4 -23 -19 4 -22 2 -24 -29 -18 -53 10 -89 32 -89 54 0
13 -7 20 -18 20 -26 0 -50 46 -33 63 10 9 15 8 27 -7 13 -19 14 -19 14 6 0 15
6 28 13 31 20 7 28 -3 17 -24z m-260 -21 c0 -5 -4 -8 -10 -8 -5 0 -10 10 -10
23 0 18 2 19 10 7 5 -8 10 -18 10 -22z m118 9 c5 -24 -15 -21 -21 4 -3 13 -1
19 6 16 7 -2 13 -11 15 -20z m-170 -35 c12 -12 22 -26 22 -32 0 -5 5 -10 10
-10 6 0 10 9 10 21 0 18 3 17 26 -11 21 -24 25 -37 20 -62 -3 -17 -1 -37 4
-43 8 -9 7 -23 -4 -47 -12 -28 -14 -29 -15 -10 -1 26 -7 27 -27 7 -21 -20 -28
-19 -60 8 l-27 24 18 46 c17 45 14 77 -4 48 -12 -19 -24 4 -16 30 4 13 2 25
-5 29 -15 9 -5 29 13 26 7 -1 23 -12 35 -24z m-329 -78 c-9 -18 -15 -21 -21
-12 -12 20 -10 56 5 61 20 7 30 -23 16 -49z m841 21 c0 -8 -4 -17 -10 -20 -6
-4 -10 5 -10 20 0 15 4 24 10 20 6 -3 10 -12 10 -20z m-1297 -12 c3 -16 1 -32
-4 -37 -5 -6 -9 -23 -9 -39 0 -22 -4 -28 -17 -25 -19 4 -20 42 -1 65 5 6 8 17
7 25 -6 44 16 53 24 11z m155 -76 c12 -14 5 -57 -9 -57 -6 0 -12 7 -15 15 -9
24 -24 17 -24 -10 0 -14 5 -25 10 -25 20 0 9 -18 -15 -24 -14 -4 -25 -12 -25
-20 0 -22 12 -26 26 -8 12 15 13 14 14 -14 0 -44 -24 -63 -50 -39 -11 10 -20
26 -20 35 0 9 -5 21 -11 27 -8 8 -5 15 10 25 11 8 24 32 29 53 5 26 14 39 26
41 10 1 20 5 24 8 9 9 19 7 30 -7z m223 -31 c17 -18 10 -56 -10 -56 -23 0 -33
23 -25 58 10 40 18 50 22 27 2 -11 8 -24 13 -29z m111 -48 c-9 -9 -12 -7 -12
12 0 19 3 21 12 12 9 -9 9 -15 0 -24z m-492 8 c0 -8 -6 -16 -14 -19 -9 -4 -12
-14 -9 -26 4 -15 1 -21 -11 -21 -9 0 -16 -8 -16 -20 0 -11 -4 -20 -10 -20 -13
0 -13 25 0 48 5 9 14 29 20 45 10 28 40 38 40 13z m763 -18 c22 -26 22 -48 0
-48 -9 0 -13 3 -10 7 8 7 -11 33 -25 33 -5 0 -8 -17 -7 -37 1 -21 -2 -47 -8
-58 -7 -13 -8 -36 -3 -65 5 -25 6 -48 4 -52 -24 -38 -144 71 -144 130 0 12 9
30 20 39 11 10 20 30 20 45 0 30 9 35 29 16 10 -10 15 -10 18 -1 2 7 10 10 18
7 7 -3 16 0 20 6 9 15 46 3 68 -22z m257 2 c0 -11 -50 -34 -57 -26 -2 2 3 11
12 20 18 18 45 21 45 6z m-772 -40 c3 -21 2 -22 -12 -11 -19 16 -21 44 -3 39
6 -3 14 -15 15 -28z m602 -36 c0 -8 -4 -14 -10 -14 -5 0 -10 9 -10 21 0 11 5
17 10 14 6 -3 10 -13 10 -21z m-630 -40 c0 -13 -4 -25 -9 -29 -14 -8 -25 15
-28 54 -2 32 -1 33 17 16 11 -10 20 -28 20 -41z m218 20 c-4 -24 -24 -29 -32
-8 -8 20 13 49 27 35 5 -5 7 -17 5 -27z m795 -11 c8 -45 1 -53 -35 -46 -26 5
-42 32 -29 50 6 10 42 32 52 33 4 0 9 -17 12 -37z m-863 12 c0 -8 -4 -15 -10
-15 -5 0 -10 7 -10 15 0 8 5 15 10 15 6 0 10 -7 10 -15z m-415 -55 c-3 -5 -18
-8 -33 -6 -15 2 -21 1 -14 -1 6 -2 12 -15 12 -28 0 -18 -4 -23 -15 -19 -9 4
-15 0 -15 -10 0 -9 -3 -16 -7 -16 -5 0 -18 -3 -30 -6 -28 -8 -30 13 -7 62 11
23 23 34 38 34 11 0 30 7 41 15 17 13 20 13 28 0 4 -8 5 -19 2 -25z m135 -16
c0 -8 -4 -14 -10 -14 -5 0 -10 9 -10 21 0 11 5 17 10 14 6 -3 10 -13 10 -21z
m473 -70 c-13 -34 -45 11 -35 49 4 16 7 15 22 -9 10 -15 16 -33 13 -40z m544
41 c-4 -8 -11 -15 -17 -15 -14 0 -13 27 3 33 16 6 21 1 14 -18z m125 -10 c-12
-22 -27 -2 -18 22 5 12 10 13 17 6 7 -7 8 -17 1 -28z m-1012 17 c0 -12 -40
-33 -50 -27 -16 10 -11 28 5 22 8 -4 17 -2 20 3 7 12 25 13 25 2z m-189 -94
c-10 -27 -59 -55 -106 -60 -26 -3 -30 1 -33 23 -5 41 75 108 94 78 3 -5 15 -2
27 6 20 14 22 14 25 -3 2 -10 -1 -30 -7 -44z m459 -19 c0 -9 11 -29 25 -45 21
-24 27 -27 35 -14 14 22 12 31 -11 56 -12 13 -16 24 -11 28 12 7 52 -40 52
-60 0 -8 -11 -24 -25 -36 -17 -15 -24 -30 -23 -54 1 -18 -4 -39 -11 -47 -6 -8
-9 -22 -5 -31 3 -9 3 -23 0 -31 -8 -22 -46 -1 -46 25 0 15 -7 20 -25 20 -26 0
-27 11 -4 100 5 19 9 44 9 54 0 18 -1 18 -20 1 -11 -10 -17 -22 -14 -26 3 -5
-2 -9 -10 -9 -24 0 -19 22 14 60 16 19 29 44 30 55 0 18 2 18 20 -5 11 -14 20
-32 20 -41z m-205 20 c-4 -5 -13 -9 -22 -9 -13 0 -13 3 -3 15 13 15 35 11 25
-6z m-152 -44 c16 -33 17 -42 5 -63 -7 -14 -12 -33 -10 -44 2 -10 -2 -18 -7
-18 -6 0 -11 11 -11 25 0 14 -4 25 -8 25 -16 0 -21 -13 -13 -29 5 -9 5 -25 0
-36 -6 -17 -8 -17 -8 -2 -1 9 -6 17 -12 17 -7 0 -9 9 -5 24 4 15 1 26 -7 29
-8 3 -7 10 7 26 23 26 13 40 -16 22 -23 -15 -19 -6 19 38 15 17 32 30 38 28 5
-2 18 -21 28 -42z m-260 -37 c3 -10 2 -20 -3 -23 -10 -6 -37 43 -34 63 1 6 2
15 3 20 1 7 22 -30 34 -60z m1055 27 c0 -41 -7 -43 -31 -10 -16 23 -16 24 0
34 28 16 31 13 31 -24z m-1172 -31 c-3 -9 -6 -22 -6 -30 0 -8 -7 -14 -15 -14
-8 0 -12 6 -10 15 3 8 7 22 10 30 2 8 9 15 16 15 6 0 8 -7 5 -16z m1118 -64
c4 -14 2 -32 -3 -40 -14 -21 -36 2 -37 38 -1 15 -2 32 -4 37 -1 6 -2 19 -1 30
1 17 4 16 20 -10 11 -16 22 -41 25 -55z m-1202 19 c-8 -12 -10 -33 -7 -52 4
-18 2 -43 -3 -57 -6 -15 -6 -35 -1 -48 11 -30 2 -69 -18 -76 -12 -5 -14 -1
-10 20 3 18 -4 42 -19 69 -13 23 -21 45 -18 47 2 3 6 23 7 44 1 29 7 41 24 49
12 5 24 18 27 29 4 17 8 18 18 8 10 -10 10 -16 0 -33z m156 15 c12 7 38 -22
28 -31 -4 -4 -16 -1 -28 6 -17 11 -22 11 -29 -1 -5 -7 -9 -17 -9 -22 0 -6 -4
-6 -10 0 -7 7 -6 21 1 44 11 30 13 31 25 16 7 -10 17 -15 22 -12z m572 -40 c0
-23 -14 -32 -24 -16 -8 13 5 52 15 46 5 -3 9 -16 9 -30z m356 20 c-3 -9 -6
-33 -6 -55 0 -44 -21 -54 -41 -17 -9 17 -9 24 5 33 9 7 16 22 16 34 0 13 6 21
16 21 11 0 14 -5 10 -16z m-906 -95 c0 -24 -16 -33 -24 -13 -9 24 -7 31 9 31
8 0 15 -8 15 -18z m860 -76 c0 -27 -33 -9 -34 19 -2 25 0 26 16 11 10 -9 18
-22 18 -30z m160 -20 c0 -32 -15 -36 -30 -8 -11 20 -11 27 0 40 16 19 30 4 30
-32z m103 27 c3 -11 1 -22 -3 -25 -11 -7 -32 30 -23 39 11 11 21 6 26 -14z
m-266 -79 c-9 -15 -13 -32 -9 -37 4 -4 -1 -2 -10 5 -10 7 -18 18 -18 23 0 5 8
20 18 33 24 33 41 13 19 -24z m-672 8 c-8 -12 -45 -12 -45 0 0 10 30 20 43 14
4 -3 5 -9 2 -14z m-79 -26 c-6 -14 -9 -15 -16 -4 -11 19 -1 46 13 32 5 -5 7
-18 3 -28z m-236 -14 c0 -18 -19 -28 -21 -11 0 4 -2 15 -4 24 -2 11 2 15 11
11 8 -3 14 -14 14 -24z m-100 0 c0 -11 -4 -17 -10 -14 -5 3 -10 13 -10 21 0 8
5 14 10 14 6 0 10 -9 10 -21z m1365 -12 c0 -7 9 -13 20 -13 11 -1 24 -2 29 -3
5 -1 2 -9 -7 -19 -8 -9 -20 -29 -26 -45 -13 -35 -31 -35 -32 1 0 15 -2 36 -4
47 -5 24 4 59 13 50 4 -4 7 -12 7 -18z m-377 -11 c-1 -14 -6 -22 -10 -20 -12
7 -10 44 2 44 5 0 9 -11 8 -24z m-1028 -7 c0 -11 -4 -17 -10 -14 -5 3 -10 13
-10 21 0 8 5 14 10 14 6 0 10 -9 10 -21z m474 -1 c11 -15 12 -25 5 -34 -17
-20 -39 -5 -39 27 0 34 13 37 34 7z m158 -10 c-9 -9 -12 -7 -12 12 0 19 3 21
12 12 9 -9 9 -15 0 -24z m663 -17 c4 -23 -3 -51 -14 -51 -8 0 -12 50 -5 69 6
17 13 10 19 -18z m-73 -4 c11 -19 -3 -28 -32 -22 -26 6 -29 4 -32 -26 -2 -18
-8 -34 -14 -36 -17 -6 -26 27 -13 43 6 8 9 20 6 29 -13 31 66 43 85 12z m-493
-23 c17 11 13 -5 -5 -19 -13 -9 -23 -9 -40 -1 -13 6 -24 14 -24 18 0 10 44 14
51 4 4 -5 12 -5 18 -2z m804 -29 c-3 -8 -9 -15 -14 -15 -10 0 -12 24 -3 33 11
11 24 -3 17 -18z m-1114 -21 c-17 -21 -31 -17 -19 6 6 11 15 18 21 14 6 -4 6
-11 -2 -20z m661 -20 c0 -8 -9 -14 -20 -14 -19 0 -27 19 -14 33 10 9 34 -4 34
-19z m120 -20 c0 -13 -4 -24 -9 -24 -13 0 -24 37 -16 50 10 16 25 1 25 -26z
m360 1 c0 -20 -5 -25 -25 -25 -27 0 -33 18 -13 38 20 20 38 14 38 -13z m-680
-32 c0 -38 0 -38 -13 -13 -14 26 -12 50 4 50 5 0 9 -17 9 -37z m-730 2 c0 -8
-4 -15 -10 -15 -5 0 -10 7 -10 15 0 8 5 15 10 15 6 0 10 -7 10 -15z m1214 -12
c-1 -16 -3 -32 -3 -36 -1 -5 -5 -5 -11 -2 -14 9 -12 52 3 58 6 3 12 6 12 6 1
1 0 -11 -1 -26z m-1304 -27 c0 -24 -23 -41 -41 -30 -15 9 -10 32 9 43 26 16
32 13 32 -13z m792 -18 c-15 -15 -24 -6 -16 16 5 12 10 14 17 7 8 -8 8 -14 -1
-23z m78 -53 c0 -47 -9 -56 -30 -30 -10 12 -10 15 4 15 19 0 21 11 5 27 -12
12 -4 33 12 33 5 0 9 -20 9 -45z m-77 -8 c-7 -11 -23 12 -23 33 1 12 4 11 15
-4 8 -10 12 -23 8 -29z m-805 -14 c-8 -10 -14 -11 -25 -1 -13 10 -12 14 3 25
22 16 39 -4 22 -24z m1596 6 c-8 -13 -24 -1 -24 18 0 13 3 13 15 3 8 -7 12
-16 9 -21z m-354 -29 l0 -25 -15 29 c-8 15 -12 33 -9 38 9 14 24 -12 24 -42z
m-298 -28 c3 -22 0 -28 -14 -29 -12 -1 -18 5 -18 21 0 43 26 50 32 8z m84 -35
c1 -40 -13 -58 -27 -36 -5 8 -9 29 -9 47 0 27 4 33 18 30 12 -2 17 -14 18 -41z
m199 32 c10 -15 -1 -23 -20 -15 -9 3 -13 10 -10 16 8 13 22 13 30 -1z m-389
-14 c6 -15 -12 -45 -27 -45 -15 0 -22 42 -8 51 20 13 29 11 35 -6z m467 -22
c-3 -7 -9 -13 -14 -13 -11 0 -12 34 -2 43 9 10 22 -13 16 -30z m-1143 7 c0 -5
7 -10 15 -10 8 0 15 -7 15 -15 0 -8 -7 -15 -15 -15 -8 0 -15 4 -15 9 0 5 -9
11 -21 14 -12 3 -18 10 -14 16 8 14 35 14 35 1z m725 -57 c-6 -27 -7 -27 -20
-9 -11 14 -11 24 -4 38 15 29 33 7 24 -29z m93 4 c2 -10 -3 -17 -12 -17 -10 0
-16 9 -16 21 0 24 23 21 28 -4z m-237 3 c4 0 6 -6 3 -14 -7 -18 -30 -11 -38
11 -5 11 -2 13 10 9 8 -3 20 -6 25 -6z m60 -33 c-8 -8 -11 -5 -11 9 0 27 14
41 18 19 2 -9 -1 -22 -7 -28z m542 22 c-1 -8 -5 -24 -9 -36 -5 -19 -2 -23 15
-23 14 0 21 -6 21 -20 0 -24 -22 -26 -40 -5 -7 8 -16 15 -21 15 -14 0 -10 -28
5 -37 12 -7 11 -12 -6 -32 -16 -20 -21 -22 -28 -11 -5 9 -5 19 1 27 7 8 7 18
0 30 -6 11 -6 25 -1 33 6 10 3 21 -7 32 -18 20 -4 25 15 6 8 -8 14 -4 23 16
13 27 36 31 32 5z m-249 -42 c-3 -9 -10 -17 -15 -17 -11 0 -12 34 -2 44 11 11
24 -9 17 -27z m-884 -27 c0 -10 -4 -22 -10 -25 -6 -4 -10 7 -10 25 0 18 4 29
10 25 6 -3 10 -15 10 -25z m846 -25 c16 -12 17 -16 5 -24 -12 -7 -12 -13 -3
-24 14 -17 6 -27 -24 -27 -12 0 -24 8 -27 18 -2 9 -8 25 -12 35 -6 13 -3 16 9
11 11 -4 16 -1 16 10 0 20 11 20 36 1z m-831 -45 c25 0 17 -17 -10 -22 -26 -5
-35 6 -27 36 4 16 6 17 14 2 5 -9 16 -16 23 -16z m-605 -1 c-7 -11 -14 -18
-17 -15 -8 8 5 36 17 36 7 0 7 -6 0 -21z m36 -36 c-11 -11 -19 6 -11 24 8 17
8 17 12 0 3 -10 2 -21 -1 -24z m442 9 c2 -7 -3 -12 -12 -12 -9 0 -16 7 -16 16
0 17 22 14 28 -4z m860 -26 c3 -20 0 -27 -10 -24 -7 3 -13 17 -14 32 -1 35 20
28 24 -8z m-1401 -19 c-1 -18 -7 -37 -12 -43 -10 -11 -48 -15 -42 -5 2 3 12
25 22 48 20 48 36 48 32 0z m-132 -6 c3 -5 0 -13 -6 -16 -5 -4 -8 -13 -5 -21
3 -8 1 -14 -4 -14 -6 0 -10 14 -10 30 0 29 13 40 25 21z m-65 -21 c0 -11 -7
-20 -15 -20 -13 0 -13 3 -3 20 7 11 14 20 15 20 2 0 3 -9 3 -20z m860 1 c0 -5
-7 -11 -15 -15 -9 -3 -15 0 -15 9 0 8 7 15 15 15 8 0 15 -4 15 -9z m60 -37 c0
-14 -4 -23 -10 -19 -5 3 -10 15 -10 26 0 10 5 19 10 19 6 0 10 -12 10 -26z
m897 -19 c-4 -8 -11 -15 -17 -15 -14 0 -13 27 3 33 16 6 21 1 14 -18z m214 2
c-13 -13 -26 -3 -16 12 3 6 11 8 17 5 6 -4 6 -10 -1 -17z m-1851 -12 c0 -16
-6 -25 -15 -25 -15 0 -21 31 -8 43 13 14 23 6 23 -18z m156 -12 c-11 -11 -17
4 -9 23 7 18 8 18 11 1 2 -10 1 -21 -2 -24z m1280 0 c-11 -11 -17 4 -9 23 7
18 8 18 11 1 2 -10 1 -21 -2 -24z m-1243 -35 c-10 -21 -12 -21 -18 -5 -10 25
2 54 17 39 8 -8 8 -18 1 -34z m1430 8 c6 -16 -19 -30 -28 -16 -7 11 2 30 15
30 4 0 10 -6 13 -14z m-1291 -28 c-9 -9 -12 -7 -12 12 0 19 3 21 12 12 9 -9 9
-15 0 -24z m-457 -8 c-20 -22 -31 -20 -22 5 4 8 14 15 23 15 16 0 16 -2 -1
-20z m926 -31 c-9 -23 -10 -23 -10 -2 -1 12 2 30 6 40 6 15 8 15 11 2 1 -8 -2
-26 -7 -40z m-645 -46 c-11 -11 -17 4 -9 23 7 18 8 18 11 1 2 -10 1 -21 -2
-24z m-66 5 c0 -28 -16 -55 -27 -45 -4 5 -1 12 7 17 15 10 8 14 -22 11 -19 -2
-32 14 -23 29 3 6 19 10 36 10 23 0 29 -4 29 -22z m224 -24 c21 -20 20 -27 -5
-42 -25 -16 -25 -16 -34 26 -5 25 -3 32 8 32 9 0 23 -7 31 -16z m-484 -89 c17
5 20 2 20 -22 0 -32 -16 -53 -40 -53 -11 0 -19 16 -27 58 -12 67 -6 88 13 43
11 -26 18 -31 34 -26z m350 0 c-7 -9 -15 -13 -18 -10 -3 2 1 11 8 20 7 9 15
13 18 10 3 -2 -1 -11 -8 -20z m-250 -8 c0 -21 -26 -57 -42 -57 -11 0 -10 37 1
59 13 24 41 23 41 -2z m43 -156 c5 -1 6 -5 3 -10 -7 -11 -46 -3 -46 9 0 5 8 7
18 5 9 -2 21 -4 25 -4z m1137 -237 c0 -17 -22 -14 -28 4 -2 7 3 12 12 12 9 0
16 -7 16 -16z m-1669 -27 c-1 -4 -1 -14 -1 -23 0 -8 -4 -12 -10 -9 -13 8 -13
48 1 43 6 -2 10 -7 10 -11z m-128 -425 c-3 -12 -9 -22 -14 -22 -12 0 -11 7 2
32 13 25 20 19 12 -10z m-122 -55 c-8 -8 -11 -7 -11 4 0 20 13 34 18 19 3 -7
-1 -17 -7 -23z m89 24 c0 -5 -7 -11 -15 -15 -15 -5 -20 5 -8 17 9 10 23 9 23
-2z m266 -61 c18 0 18 -16 0 -23 -18 -7 -26 1 -25 27 0 12 3 15 6 9 2 -7 11
-13 19 -13z m-205 -173 c-1 -12 -15 -9 -19 4 -3 6 1 10 8 8 6 -3 11 -8 11 -12z
m-134 -304 c-3 -3 -11 -2 -17 2 -9 6 -9 10 1 16 14 8 27 -7 16 -18z"/>
<path d="M7361 6847 c-17 -21 -3 -47 25 -47 18 0 24 -6 24 -21 0 -29 22 -19
31 15 5 19 4 26 -4 23 -7 -3 -24 6 -38 20 -22 20 -28 22 -38 10z"/>
<path d="M7082 6804 c1 -9 9 -19 16 -22 9 -3 13 2 10 14 -1 9 -9 19 -16 22 -9
3 -13 -2 -10 -14z"/>
<path d="M7312 6735 c11 -25 10 -29 -17 -52 l-30 -25 28 6 c16 4 27 2 27 -4 0
-14 50 -12 55 3 8 20 -19 84 -33 79 -7 -2 -20 2 -28 9 -13 11 -14 9 -2 -16z"/>
<path d="M7152 6688 c-13 -13 -16 -48 -4 -48 4 0 13 10 20 21 16 24 3 46 -16
27z"/>
<path d="M8065 6680 c-3 -6 0 -13 8 -16 8 -3 13 -13 10 -24 -3 -10 0 -21 7
-25 13 -8 16 -7 24 21 5 16 0 26 -18 38 -16 10 -27 12 -31 6z"/>
<path d="M7430 6650 c0 -5 10 -10 23 -10 18 0 19 2 7 10 -19 13 -30 13 -30 0z"/>
<path d="M7357 6594 c-4 -4 -7 -14 -7 -23 0 -11 3 -12 11 -4 6 6 10 16 7 23
-2 6 -7 8 -11 4z"/>
<path d="M7726 6593 c-3 -3 -6 -17 -6 -31 0 -21 2 -22 15 -12 8 7 15 18 15 26
0 15 -15 26 -24 17z"/>
<path d="M7176 6572 c-8 -13 3 -42 15 -42 11 0 11 21 0 39 -5 8 -11 9 -15 3z"/>
<path d="M7601 6561 c-7 -5 -12 -14 -10 -20 3 -6 9 -7 18 -2 7 5 12 14 10 20
-3 6 -9 7 -18 2z"/>
<path d="M8116 6523 c8 -33 12 -39 20 -30 9 9 -5 57 -16 57 -6 0 -8 -11 -4
-27z"/>
<path d="M7437 6494 c-8 -14 8 -37 22 -33 8 3 8 10 -2 23 -8 11 -17 15 -20 10z"/>
<path d="M7183 6454 c2 -15 -5 -19 -33 -20 -19 0 -43 7 -52 15 -11 8 -18 10
-18 3 0 -6 -2 -17 -6 -25 -4 -10 6 -16 35 -21 27 -4 41 -11 41 -21 0 -8 9 -24
19 -34 21 -21 22 -62 2 -99 -15 -28 -6 -28 33 2 26 19 31 30 30 62 -1 26 -6
39 -15 39 -10 0 -14 14 -14 47 0 26 -5 52 -12 58 -8 9 -11 8 -10 -6z"/>
<path d="M7562 6349 c2 -7 10 -15 17 -17 8 -3 12 1 9 9 -2 7 -10 15 -17 17 -8
3 -12 -1 -9 -9z"/>
<path d="M8170 6238 c0 -20 12 -32 42 -45 17 -8 30 -9 33 -3 4 6 1 10 -5 10
-6 0 -16 11 -22 25 -11 26 -48 35 -48 13z"/>
<path d="M7018 6133 c-22 -5 -22 -10 -4 -28 15 -15 36 -2 36 22 0 13 -3 14
-32 6z"/>
<path d="M8246 6111 c-4 -6 -13 -8 -21 -4 -17 6 -21 -12 -5 -22 6 -4 7 -12 3
-18 -4 -7 1 -6 10 2 15 12 20 11 37 -4 27 -24 38 -11 20 22 -17 29 -35 39 -44
24z"/>
<path d="M6917 5888 c-7 -25 0 -41 14 -33 12 8 12 55 0 55 -5 0 -11 -10 -14
-22z"/>
<path d="M8190 5778 c0 -8 5 -19 11 -25 9 -9 8 -16 -4 -27 -20 -20 -57 -21
-57 -1 0 8 -4 15 -8 15 -23 0 -4 -31 27 -46 20 -9 47 -23 61 -29 26 -13 70 -2
70 17 0 17 -32 58 -45 58 -8 0 -15 10 -17 22 -3 25 -38 39 -38 16z"/>
<path d="M7057 5763 c-13 -13 -7 -54 12 -74 21 -23 41 -8 21 16 -7 8 -10 21
-7 29 6 16 -16 40 -26 29z"/>
<path d="M7070 5640 c0 -11 4 -20 10 -20 5 0 14 9 20 20 9 17 8 20 -10 20 -13
0 -20 -7 -20 -20z"/>
<path d="M5493 5392 c-10 -6 -10 -58 -1 -67 2 -2 8 12 14 31 11 35 7 48 -13
36z"/>
<path d="M6797 5383 c-4 -3 -7 -18 -7 -31 0 -32 14 -20 16 13 1 27 1 28 -9 18z"/>
<path d="M6662 5174 c-7 -14 -17 -22 -22 -19 -10 6 -27 -22 -18 -31 3 -2 19
-1 36 2 28 6 32 10 32 40 0 40 -12 44 -28 8z"/>
<path d="M6567 5130 c-3 -11 -2 -22 3 -25 4 -3 10 4 13 15 3 11 2 22 -3 25 -4
3 -10 -4 -13 -15z"/>
<path d="M6547 5049 c-26 -39 -36 -89 -19 -89 5 0 21 22 35 49 45 81 32 113
-16 40z"/>
<path d="M6406 4888 c-18 -25 -21 -48 -7 -48 10 0 41 45 41 60 0 17 -18 11
-34 -12z"/>
<path d="M6365 4815 c-3 -8 -7 -22 -10 -31 -4 -14 -3 -15 9 -5 17 14 28 51 15
51 -5 0 -12 -7 -14 -15z"/>
<path d="M6318 4673 c5 -10 7 -23 5 -30 -7 -18 13 -23 33 -8 19 13 18 14 -3
34 -28 26 -47 28 -35 4z"/>
<path d="M4688 4649 c-31 -16 -88 -80 -122 -137 -15 -25 14 -42 70 -42 29 0
56 5 59 10 3 6 15 10 26 10 10 0 19 6 19 14 0 8 8 28 17 44 16 28 16 30 0 47
-18 18 -19 37 -2 36 5 -1 10 -9 10 -18 0 -9 6 -18 13 -20 6 -3 12 2 12 11 0 9
5 16 10 16 9 0 14 -14 11 -32 0 -5 4 -8 9 -8 9 0 12 11 14 58 1 19 -22 24 -41
9 -9 -6 -15 -4 -19 7 -8 21 -41 20 -86 -5z"/>
<path d="M6283 4538 c-17 -22 -21 -42 -11 -61 11 -22 31 -12 23 13 -3 10 -1
21 5 25 12 8 13 35 1 35 -5 0 -13 -6 -18 -12z"/>
<path d="M6360 4525 c-7 -8 -9 -15 -4 -15 4 0 3 -5 -4 -12 -7 -7 -12 -21 -12
-32 1 -19 3 -18 25 9 14 17 25 35 25 42 0 19 -17 24 -30 8z"/>
<path d="M6350 4402 c0 -9 10 -23 21 -31 20 -12 21 -11 14 6 -4 10 -8 24 -8
31 -1 19 -27 14 -27 -6z"/>
<path d="M6236 4194 c-7 -17 22 -26 45 -14 26 14 24 17 -11 22 -17 3 -31 0
-34 -8z"/>
<path d="M6096 4055 c-11 -23 -21 -32 -31 -28 -11 4 -13 1 -9 -11 9 -23 36
-16 50 13 7 13 18 27 24 31 13 8 6 30 -9 30 -5 0 -16 -16 -25 -35z"/>
</g>
</svg>
