<?xml version="1.0" standalone="no"?>
<!DOCTYPE svg PUBLIC "-//W3C//DTD SVG 20010904//EN"
 "http://www.w3.org/TR/2001/REC-SVG-20010904/DTD/svg10.dtd">
<svg version="1.0" xmlns="http://www.w3.org/2000/svg"
 width="921.987021pt" height="1062.000000pt" viewBox="0 0 921.987021 1062.000000"
 preserveAspectRatio="xMidYMid meet">
<metadata>
Created by potrace 1.12, written by Peter Selinger 2001-2015
</metadata>
<g transform="translate(-150.120624,1062.000000) scale(0.100000,-0.100000)"
fill="#000000" stroke="none">
<path d="M4106 10503 c-3 -64 -1 -187 5 -274 10 -134 9 -172 -4 -251 -9 -51
-24 -173 -33 -271 l-18 -177 -68 -93 c-194 -264 -339 -664 -388 -1072 -8 -61
-24 -123 -52 -195 -46 -120 -73 -150 -253 -292 -55 -43 -111 -87 -124 -98 -95
-82 -176 -143 -236 -179 -38 -24 -106 -66 -150 -93 -44 -28 -132 -83 -195
-121 -127 -78 -252 -168 -318 -231 -24 -22 -93 -115 -154 -206 -60 -91 -120
-176 -133 -190 -48 -52 -103 -152 -120 -217 -10 -37 -28 -88 -40 -113 -12 -25
-26 -55 -29 -68 -4 -12 -40 -91 -81 -175 -177 -371 -221 -501 -213 -632 6 -95
47 -171 143 -267 40 -40 76 -83 79 -95 4 -13 10 -23 14 -23 4 0 48 -7 97 -15
124 -20 139 -19 246 15 52 16 110 30 130 30 36 0 66 21 56 38 -10 15 8 30 97
77 112 59 163 65 184 21 14 -28 13 -31 -12 -53 -15 -13 -34 -23 -42 -23 -24 0
-16 -19 12 -26 36 -9 166 4 249 25 l70 17 -34 12 c-19 7 -44 12 -57 12 -29 0
-54 10 -54 21 0 4 17 16 38 25 83 36 105 50 110 67 2 9 13 17 25 17 11 0 44
16 73 35 29 19 57 35 63 35 27 0 60 25 75 57 18 38 12 37 111 16 48 -11 89 5
74 28 -14 22 -11 29 11 29 11 0 20 5 20 10 0 6 9 10 20 10 11 0 20 4 20 10 0
16 30 -1 31 -19 1 -9 4 -6 9 9 5 16 8 19 9 8 1 -13 8 -17 27 -16 19 2 24 7 20
21 -3 13 1 21 13 24 25 6 38 37 46 109 8 65 38 134 59 134 7 0 32 18 57 40 48
44 54 45 145 29 48 -8 67 -16 79 -35 8 -13 20 -24 26 -24 6 0 27 -14 48 -31
38 -30 126 -63 142 -54 4 3 17 -3 29 -15 19 -19 60 -27 72 -14 10 9 128 13
133 4 10 -17 60 -1 81 26 12 15 30 57 39 93 9 36 23 74 32 83 11 12 14 27 9
49 -5 26 0 38 26 68 41 47 66 57 84 34 12 -16 13 -16 14 -2 0 9 8 16 18 16 58
0 94 4 89 10 -4 3 -2 12 4 19 7 9 6 21 -5 41 -8 15 -15 21 -16 13 0 -13 -1
-13 -10 0 -6 10 -10 11 -10 3 0 -7 -7 -13 -15 -13 -10 0 -15 11 -16 38 -1 33
-2 34 -9 12 l-8 -25 -1 28 c-1 17 4 27 13 27 7 0 17 10 20 23 l7 22 9 -23 c6
-13 14 -20 20 -17 5 3 10 1 10 -6 0 -18 14 -1 15 19 1 9 2 30 3 45 1 16 6 25
12 22 6 -3 10 3 10 14 0 11 11 53 24 93 37 112 40 141 17 169 -41 53 -114 206
-128 269 -15 66 -34 232 -37 309 -2 83 -5 96 -25 112 -32 26 -83 224 -68 263
5 13 12 12 54 0 101 -31 482 -10 817 45 82 13 124 16 135 9 13 -8 16 -31 17
-114 l2 -105 -59 -26 c-46 -20 -58 -30 -53 -42 24 -57 8 -98 -49 -127 -17 -9
-35 -21 -39 -27 -3 -6 -33 -13 -65 -15 -89 -6 -92 -11 -97 -138 -2 -60 -1
-219 3 -354 4 -135 3 -276 -1 -315 -11 -101 -5 -120 49 -146 43 -21 49 -21
149 -9 106 13 239 9 286 -9 46 -17 97 -70 104 -108 7 -38 -9 -108 -28 -119 -6
-4 -49 -8 -94 -8 -86 -1 -100 -6 -91 -29 4 -11 16 -12 61 -4 31 6 59 7 62 4
12 -12 -18 -36 -52 -43 -19 -3 -37 -10 -40 -15 -3 -5 -25 -9 -49 -9 -37 0 -44
3 -49 25 -9 35 -31 31 -42 -7 -8 -28 -17 -34 -79 -54 -39 -13 -93 -24 -122
-24 l-51 0 8 -32 c9 -33 20 -384 12 -406 -2 -7 -19 -12 -37 -12 -45 0 -68 -24
-60 -61 4 -16 8 -205 9 -421 l3 -391 23 -19 c12 -10 35 -18 51 -18 16 0 32 -6
34 -12 2 -7 11 -296 20 -643 18 -725 33 -1086 45 -1099 4 -4 50 -11 102 -15
98 -8 114 -13 136 -43 12 -16 29 -18 141 -18 124 0 128 1 150 26 l22 25 252
-5 c229 -5 1304 -16 1707 -17 129 0 168 -4 181 -15 9 -8 42 -28 75 -44 32 -17
86 -48 119 -69 67 -42 169 -80 285 -106 156 -34 180 -43 180 -69 0 -12 -8 -31
-19 -40 -15 -14 -26 -15 -62 -7 -53 13 -186 14 -193 3 -3 -5 53 -14 123 -20
112 -11 134 -10 178 4 47 15 53 15 89 -1 22 -9 46 -21 54 -26 37 -23 82 -39
109 -39 32 0 50 15 29 23 -10 4 -9 8 2 16 8 6 22 8 30 4 22 -10 171 -12 165
-3 -3 5 -1 11 5 15 17 11 11 25 -11 25 -12 0 -49 13 -83 29 -50 25 -76 30
-148 32 -61 2 -89 7 -92 16 -3 7 -16 13 -28 13 -35 0 -112 30 -122 47 -7 12
-21 14 -81 8 -71 -6 -72 -6 -103 24 -17 17 -36 46 -42 65 -6 19 -17 37 -25 40
-8 3 -40 -5 -73 -16 l-58 -22 -84 27 c-47 15 -89 32 -95 38 -5 6 -39 25 -75
43 -46 23 -73 45 -93 74 l-28 42 -69 0 c-60 0 -73 3 -102 27 -18 15 -39 36
-47 46 -9 13 -22 18 -42 15 -16 -3 -27 0 -26 6 1 6 -14 18 -33 28 -19 9 -41
22 -47 28 -22 19 -15 76 13 109 40 48 91 44 212 -19 53 -27 133 -66 177 -86
44 -20 130 -60 191 -90 62 -30 114 -54 117 -54 3 0 35 -13 70 -30 36 -16 70
-30 76 -30 21 0 136 -40 174 -61 30 -17 48 -20 85 -14 26 3 67 7 92 8 44 2 45
3 48 36 3 27 -2 39 -19 52 -20 15 -26 15 -57 2 -19 -8 -46 -13 -61 -11 -22 2
-26 8 -24 31 2 29 -22 38 -45 15 -18 -18 -99 18 -149 66 -24 23 -43 44 -43 49
0 15 39 6 49 -10 8 -16 11 -15 21 11 6 16 8 37 4 48 -4 15 -12 18 -42 13 -80
-13 -91 -17 -96 -31 -9 -22 -56 -18 -56 5 0 28 -17 35 -25 11 -6 -19 -7 -19
-53 6 -25 14 -71 45 -102 68 -30 23 -77 59 -105 79 -78 57 -86 67 -80 99 7 32
-4 34 -82 19 -24 -5 -43 -4 -43 0 0 5 7 9 16 9 8 0 12 5 9 10 -4 6 -10 8 -14
6 -4 -3 -24 12 -43 33 -35 36 -91 61 -137 61 -26 0 -28 -16 -3 -24 10 -4 32
-19 48 -34 16 -16 44 -37 62 -47 17 -11 32 -26 32 -34 0 -18 -212 -13 -1255
30 -154 6 -290 15 -303 20 -49 19 -45 -98 -66 1659 -4 272 -11 662 -16 865
-11 381 -14 748 -7 845 l4 55 42 3 c38 3 398 -16 711 -38 396 -27 458 -32 483
-40 30 -10 32 -6 60 73 12 33 52 38 211 26 181 -13 199 -14 391 -10 175 4 361
-11 530 -42 66 -12 154 -21 195 -22 69 0 75 2 78 21 4 27 -19 36 -168 64 -63
12 -123 26 -133 32 -43 22 -134 37 -293 48 -93 6 -182 15 -198 20 -16 6 -92
10 -168 10 -84 0 -148 5 -161 11 -44 23 -67 52 -67 85 0 47 9 63 44 81 27 14
73 16 361 16 182 -1 345 -2 363 -2 25 -1 35 -7 42 -26 8 -22 16 -25 55 -25 28
0 44 4 40 10 -4 6 14 10 46 10 49 0 78 -6 154 -32 17 -5 62 -19 100 -30 39
-10 80 -26 92 -34 45 -29 113 -7 113 38 0 23 -40 53 -105 78 -33 13 -112 49
-175 80 -63 32 -134 60 -158 63 -24 3 -51 12 -61 21 -10 9 -41 20 -69 26 -29
5 -65 16 -81 25 -16 8 -53 24 -83 35 -29 11 -69 32 -87 48 -29 24 -34 34 -34
72 0 71 31 83 138 54 33 -9 78 -20 100 -26 22 -5 51 -17 65 -26 51 -34 73 -42
117 -42 41 0 95 -21 153 -59 14 -9 48 -24 75 -34 59 -20 205 -50 212 -44 14
14 -34 35 -94 41 -68 7 -69 7 -95 51 -20 32 -34 44 -55 47 -40 4 -31 22 14 28
44 6 51 24 23 59 -15 17 -23 21 -33 13 -10 -9 -16 -2 -25 31 -15 54 -12 99 10
114 20 16 17 47 -5 51 -12 3 -17 -4 -17 -21 0 -38 -22 -51 -63 -36 -27 9 -33
16 -29 32 3 10 18 24 34 29 16 6 61 27 101 48 40 20 90 43 112 50 22 7 45 17
52 22 7 5 31 16 55 23 86 28 208 72 215 78 3 4 16 7 27 7 18 -1 16 -5 -14 -30
-19 -16 -44 -33 -55 -36 -11 -4 -43 -25 -72 -47 -39 -29 -61 -56 -84 -102 -17
-34 -44 -72 -60 -84 -16 -12 -38 -40 -49 -62 -12 -22 -25 -37 -29 -34 -7 4
-21 -16 -21 -31 0 -10 28 -2 66 18 35 18 44 30 58 74 11 35 23 55 36 59 11 4
20 12 20 18 0 18 80 87 101 87 11 0 19 6 19 13 0 17 45 50 93 67 20 8 37 18
37 22 0 4 7 8 15 8 8 0 19 9 25 20 6 11 25 27 43 36 18 9 34 20 37 24 3 3 29
25 58 48 30 23 51 42 47 42 -4 0 -2 7 5 15 11 14 15 14 29 1 9 -8 35 -19 59
-26 24 -6 45 -18 48 -28 14 -43 30 -64 59 -76 16 -7 36 -20 44 -29 9 -12 29
-17 66 -17 50 0 54 2 79 40 14 22 30 40 35 40 5 0 11 9 14 20 3 12 14 20 27
20 12 0 35 15 53 35 17 19 35 35 41 35 6 0 17 4 25 9 11 7 -2 28 -63 95 -43
47 -86 88 -97 91 -10 4 -19 15 -19 26 0 10 -13 40 -29 66 -16 27 -32 64 -36
83 -4 19 -11 40 -15 45 -17 24 4 90 54 164 59 88 80 96 84 34 2 -32 8 -44 24
-48 35 -12 166 -144 292 -295 67 -79 156 -185 200 -235 43 -49 95 -115 116
-145 33 -48 88 -100 105 -100 3 0 5 621 5 1380 l0 1380 -3303 0 -3304 0 -7
-117z m2162 -1645 c29 -22 99 -61 155 -87 243 -115 303 -135 442 -150 77 -8
117 -5 270 18 38 5 73 7 77 3 3 -4 0 -31 -8 -61 -17 -68 -21 -299 -5 -329 17
-31 14 -92 -4 -92 -10 0 -15 10 -15 29 0 23 -6 30 -26 35 -29 8 -54 -8 -54
-33 0 -9 -9 -23 -20 -31 -11 -8 -20 -19 -20 -25 0 -5 -16 -27 -36 -49 -19 -21
-33 -40 -31 -43 10 -10 -66 -74 -94 -80 -20 -4 -29 -11 -29 -25 0 -28 -18 -58
-35 -58 -8 0 -15 -8 -15 -17 0 -23 -29 -53 -54 -54 -15 -1 -16 -3 -5 -6 15 -4
15 -8 2 -46 -19 -57 -25 -61 -86 -63 -28 -1 -59 -2 -68 -3 -11 -1 -19 -14 -23
-36 -5 -26 -12 -35 -26 -35 -15 0 -20 -7 -20 -25 0 -14 -4 -25 -10 -25 -5 0
-10 -11 -10 -25 0 -15 -6 -25 -14 -25 -8 0 -25 -13 -38 -28 -39 -47 -100 -48
-146 -5 -16 15 -42 17 -42 3 0 -5 -6 -10 -13 -10 -18 0 -75 28 -82 41 -4 5
-10 7 -15 4 -4 -3 -13 1 -19 9 -8 9 -24 12 -50 9 -56 -8 -149 14 -156 37 -3
10 -19 22 -35 25 -16 4 -63 24 -104 46 -41 21 -85 39 -98 39 -14 0 -37 13 -53
30 -29 30 -77 41 -90 20 -3 -5 -16 -10 -27 -10 l-22 0 22 20 c27 26 30 45 37
279 l6 195 40 43 c21 23 39 47 39 52 0 5 28 39 61 77 34 37 72 90 85 119 27
57 57 89 129 134 82 52 168 135 199 192 44 81 47 81 134 17z m770 -1590 c-7
-20 -68 -23 -68 -4 0 12 10 16 36 16 24 0 34 -4 32 -12z m-964 -11 c16 -11 15
-13 -8 -15 -17 -1 -26 3 -26 13 0 18 11 19 34 2z m-599 -84 c38 -18 46 -33 17
-33 -21 0 -62 27 -62 41 0 12 4 12 45 -8z m-945 -843 c0 -5 -7 -10 -15 -10 -8
0 -15 5 -15 10 0 6 7 10 15 10 8 0 15 -4 15 -10z m-2198 -245 c8 -19 8 -31 0
-48 -6 -12 -16 -44 -22 -70 -16 -73 -35 -114 -65 -133 -14 -9 -32 -31 -39 -49
-26 -61 -110 -105 -201 -105 -59 0 -85 22 -85 71 0 34 -3 39 -23 39 -48 0 -65
56 -25 84 35 25 44 20 58 -29 l13 -45 52 0 c62 0 105 27 105 66 0 36 11 53 85
130 36 37 65 73 65 79 0 39 65 47 82 10z m-172 -56 c0 -13 -11 -25 -32 -35
-18 -8 -44 -22 -58 -29 -52 -30 -95 -8 -54 26 67 56 144 76 144 38z m3328
-3141 c-4 -27 -28 -36 -28 -10 0 20 8 32 22 32 5 0 8 -10 6 -22z m322 -53 c0
-8 -7 -15 -15 -15 -8 0 -15 7 -15 15 0 8 7 15 15 15 8 0 15 -7 15 -15z"/>
<path d="M10069 7992 c-19 -20 -61 -59 -93 -86 -61 -52 -91 -96 -69 -103 23
-8 142 -159 159 -203 l18 -43 -34 -29 c-19 -15 -42 -28 -52 -28 -10 0 -18 -4
-18 -10 0 -5 -15 -16 -32 -24 -18 -8 -40 -21 -48 -28 -34 -28 -73 -90 -74
-116 -1 -17 -6 -26 -15 -24 -9 2 -12 -4 -8 -18 3 -11 1 -20 -4 -20 -5 0 -9
-45 -9 -99 0 -55 -2 -105 -5 -113 -4 -9 -24 -12 -75 -10 -76 4 -97 -12 -32
-24 20 -4 54 -15 74 -25 21 -11 47 -19 58 -19 12 0 30 -5 42 -11 24 -13 40 -1
15 12 -35 20 -11 113 64 243 61 107 104 161 141 177 20 8 28 19 30 42 3 28 7
32 34 35 19 2 36 -3 44 -12 7 -9 19 -16 27 -16 24 0 111 78 163 147 48 64 48
64 34 99 -14 33 -118 170 -222 292 -24 28 -52 52 -61 51 -9 0 -32 -17 -52 -37z"/>
<path d="M9088 7286 c-41 -47 -37 -66 14 -66 20 0 26 4 22 15 -3 8 -1 29 5 47
17 49 0 51 -41 4z"/>
<path d="M9225 7166 c99 -48 162 -69 170 -56 6 10 -115 70 -165 81 -89 20 -89
17 -5 -25z"/>
<path d="M10598 6893 c-10 -2 -18 -9 -18 -14 0 -14 44 -11 66 6 18 14 18 14
-6 14 -14 -1 -33 -3 -42 -6z"/>
<path d="M7390 6518 c0 -103 1 -106 24 -112 13 -3 49 -1 81 5 31 6 63 8 71 5
10 -4 14 3 14 28 0 22 8 40 25 56 l26 24 30 -30 c21 -21 30 -40 31 -67 1 -23
6 -37 14 -37 8 0 14 -17 16 -47 3 -43 5 -47 41 -59 41 -14 88 -7 49 7 -28 10
-29 29 -2 29 18 0 25 10 21 33 0 4 3 7 9 7 6 0 10 22 10 50 0 40 4 51 22 61
19 10 25 8 50 -20 26 -29 28 -36 22 -83 -6 -46 -5 -50 12 -45 10 3 43 9 72 12
28 4 52 11 52 15 0 16 -24 24 -61 21 -24 -1 -36 2 -37 11 -1 7 -4 25 -8 40 -5
23 -1 29 25 43 30 15 33 15 61 -7 23 -18 28 -29 24 -49 -3 -18 0 -28 10 -32
18 -7 26 1 26 28 0 13 9 26 24 33 21 9 28 7 50 -13 14 -13 26 -31 26 -39 0
-21 26 -32 92 -40 51 -5 58 -4 68 14 27 50 50 5 50 -98 0 -53 11 -58 86 -37
123 34 168 67 176 130 2 24 -3 32 -31 48 -20 12 -49 20 -72 19 -21 -1 -56 5
-76 13 -21 8 -74 19 -118 24 -44 6 -120 15 -170 21 -49 6 -108 16 -130 21 -42
11 -281 35 -420 42 -44 3 -91 8 -104 12 -23 8 -24 7 -17 -28 4 -21 3 -37 -2
-37 -5 0 -12 -9 -15 -20 -7 -26 -27 -33 -60 -21 -39 15 -63 56 -49 85 9 20 6
30 -14 57 l-24 33 0 -106z"/>
<path d="M8180 6139 c-13 -6 -39 -21 -56 -34 -30 -23 -32 -28 -28 -72 3 -30
11 -54 23 -63 52 -43 27 -73 -59 -68 -33 1 -60 0 -60 -3 0 -3 -11 -11 -25 -17
-19 -9 -27 -8 -40 4 -8 9 -15 20 -15 25 0 6 -5 7 -11 3 -6 -3 -8 -17 -4 -31
10 -43 -8 -52 -93 -46 -71 5 -76 4 -61 -11 22 -24 51 -29 174 -31 69 -1 119 3
135 11 14 6 48 15 75 18 28 3 79 10 115 16 147 24 167 24 178 4 6 -11 12 -205
16 -484 3 -256 11 -713 17 -1016 11 -528 9 -644 -12 -644 -5 0 -22 14 -37 30
-19 21 -39 32 -66 35 -22 3 -48 13 -58 22 -21 19 -89 23 -95 6 -3 -7 3 -13 14
-13 10 -1 34 -10 53 -20 19 -11 51 -26 70 -35 19 -9 47 -22 62 -30 14 -8 31
-15 38 -15 15 0 78 -47 116 -87 25 -26 40 -33 71 -33 37 0 93 -23 157 -65 l25
-17 0 589 c-1 323 2 604 6 624 4 20 0 76 -9 128 -20 111 -10 159 41 208 18 18
33 36 33 40 0 8 89 92 200 189 36 31 75 71 88 89 18 25 40 38 103 59 44 14 85
26 91 26 6 0 63 23 126 51 64 28 206 82 316 120 111 38 226 82 256 98 30 15
112 58 182 94 156 82 253 122 383 157 l100 27 3 35 3 36 -43 -8 c-153 -29
-219 -44 -224 -51 -7 -13 -48 -11 -61 2 -14 14 -105 -4 -154 -30 -19 -10 -49
-22 -66 -25 -18 -4 -36 -13 -40 -19 -14 -22 -64 -39 -78 -27 -13 11 -25 -14
-25 -56 0 -22 -19 -34 -100 -64 -19 -7 -39 -17 -44 -22 -14 -11 -69 -10 -102
3 -16 5 -92 12 -169 14 -96 3 -153 9 -178 20 -20 8 -47 15 -61 15 -14 0 -28 5
-31 10 -3 6 -16 10 -29 10 -12 0 -37 15 -55 34 -30 31 -38 34 -112 38 -43 3
-82 7 -85 10 -3 4 2 20 10 37 20 38 21 38 -9 57 -20 13 -28 14 -40 4 -10 -9
-34 -10 -78 -6 -55 6 -69 4 -121 -20 -47 -21 -83 -29 -175 -36 -185 -13 -371
-15 -379 -3 -4 5 -20 16 -37 24 -100 45 -96 41 -93 90 3 44 4 46 46 59 23 8
42 20 42 28 0 16 -14 17 -50 3z m718 -442 c26 -12 28 -29 6 -48 -24 -20 -67
-90 -59 -97 3 -4 14 -1 23 6 29 20 143 71 184 83 22 6 51 21 64 34 27 27 65
35 85 19 19 -15 48 -14 42 2 -12 32 164 31 213 -1 15 -10 39 -19 53 -20 66 -6
141 -18 141 -22 0 -10 -55 -48 -95 -66 -22 -10 -69 -25 -104 -32 -41 -9 -73
-23 -90 -39 -30 -29 -138 -86 -163 -86 -10 0 -18 -4 -18 -8 0 -16 -120 -72
-153 -72 -18 0 -41 -6 -52 -13 -11 -7 -33 -12 -50 -11 -23 1 -39 -8 -67 -37
-33 -34 -41 -37 -63 -29 -37 14 -50 13 -76 -9 -23 -18 -23 -20 -6 -38 22 -25
22 -25 -15 -65 -18 -18 -43 -46 -55 -61 -13 -15 -32 -27 -42 -27 -11 0 -23 -9
-26 -21 -8 -25 -23 -21 -49 14 -46 62 -8 210 79 313 39 45 155 133 195 147 10
4 9 6 -5 6 -12 1 -26 -4 -32 -10 -7 -7 -14 -1 -22 22 -22 63 -7 152 30 180 17
13 30 14 63 7 22 -5 51 -15 64 -21z"/>
<path d="M6152 6117 c-10 -11 -11 -21 -3 -34 9 -17 10 -17 16 -1 4 9 5 25 3
34 -3 16 -4 16 -16 1z"/>
<path d="M4770 6105 c0 -9 12 -20 26 -25 54 -21 170 -82 190 -101 28 -26 134
-63 146 -51 12 12 -57 54 -246 151 -85 44 -116 50 -116 26z"/>
<path d="M7837 6017 c-42 -14 -57 -24 -53 -34 4 -8 6 -35 6 -60 0 -37 3 -44
18 -41 11 2 16 12 15 28 -1 14 3 42 8 63 11 41 31 48 61 20 16 -14 18 -14 18
-1 0 9 7 18 15 22 23 8 18 26 -7 25 -13 -1 -49 -11 -81 -22z"/>
<path d="M3345 5358 c-27 -4 -104 -12 -170 -17 -179 -15 -287 -31 -315 -47
-22 -13 -7 -14 130 -9 294 10 455 26 477 49 19 19 -57 34 -122 24z"/>
<path d="M6151 5153 c0 -164 12 -350 23 -360 18 -18 25 33 25 187 0 222 -9
304 -31 308 -17 3 -18 -8 -17 -135z"/>
<path d="M9501 5161 c-20 -20 -20 -22 -3 -56 11 -23 24 -35 38 -35 23 0 33
-19 41 -77 8 -55 -10 -73 -72 -73 -48 0 -55 3 -55 20 0 12 -5 17 -14 14 -8 -3
-17 -1 -21 5 -11 18 -42 12 -57 -10 -10 -15 -24 -21 -53 -21 -40 0 -94 -21
-107 -41 -4 -7 -46 -12 -100 -12 -139 -3 -247 -46 -262 -106 -14 -55 13 -118
65 -155 50 -34 86 -97 104 -183 13 -56 36 -128 61 -189 8 -18 14 -54 14 -80 0
-42 4 -51 31 -71 29 -22 30 -25 24 -72 -4 -27 -4 -49 -1 -49 8 0 30 18 62 49
13 13 30 21 39 17 8 -3 15 -1 15 4 0 6 7 10 15 10 8 0 15 7 15 15 0 8 9 15 20
15 11 0 20 -4 20 -10 0 -5 5 -10 11 -10 6 0 8 9 4 21 -7 20 -4 21 31 17 28 -3
42 0 51 11 6 8 22 16 35 16 19 0 23 5 23 28 -1 19 3 26 13 22 7 -3 16 -5 18
-5 2 0 4 -7 4 -15 0 -8 5 -15 12 -15 7 0 22 -12 35 -27 18 -22 22 -24 23 -10
0 12 8 17 29 17 25 0 30 5 35 34 4 19 13 39 21 46 8 7 15 23 15 36 0 21 -5 24
-39 24 l-39 0 -12 88 c-7 48 -16 91 -21 96 -4 5 2 18 12 30 15 15 19 30 15 51
-14 79 -20 101 -30 107 -8 5 -7 8 2 8 7 0 12 13 12 29 0 17 5 33 10 36 6 3 10
16 10 27 0 27 27 47 63 48 17 0 27 5 27 15 0 8 9 15 20 15 13 0 20 7 20 20 0
15 7 20 25 20 16 0 25 6 25 15 0 8 8 15 17 15 9 0 30 12 45 27 24 23 30 25 38
13 5 -8 10 -10 10 -5 0 11 -28 56 -41 65 -3 3 -6 16 -5 30 1 23 -3 25 -42 27
-24 1 -45 3 -46 5 -1 1 -11 26 -22 53 -25 61 -52 76 -145 83 -58 4 -69 2 -88
-17z m313 -234 c-3 -9 -11 -17 -16 -17 -6 0 -7 7 -4 16 3 9 6 21 6 27 0 8 3 8
10 1 6 -6 8 -18 4 -27z m-66 1 c31 0 27 -13 -9 -29 -28 -11 -33 -10 -45 6 -20
27 -17 38 9 30 12 -4 32 -7 45 -7z m-198 -223 c0 -37 -4 -65 -10 -65 -6 0 -10
28 -10 65 0 37 4 65 10 65 6 0 10 -28 10 -65z m-280 -16 c0 -24 -4 -38 -10
-34 -5 3 -10 22 -10 41 0 19 5 34 10 34 6 0 10 -18 10 -41z"/>
<path d="M10663 4427 c-82 -46 -228 -117 -241 -117 -8 0 -22 -7 -31 -16 -75
-73 -118 -104 -147 -104 -44 0 -55 -17 -38 -60 16 -39 61 -70 102 -70 15 -1
54 -8 87 -16 33 -9 96 -18 139 -20 48 -3 90 -11 107 -21 31 -18 46 -65 41
-125 -3 -30 -7 -38 -23 -38 -26 0 -24 -16 7 -45 15 -14 22 -25 15 -25 -17 0
-13 -27 5 -34 9 -3 20 -6 25 -6 5 0 9 146 9 355 0 331 -1 355 -17 355 -10 0
-28 -6 -40 -13z"/>
<path d="M9720 4395 c0 -20 5 -25 25 -25 20 0 25 5 25 25 0 20 -5 25 -25 25
-20 0 -25 -5 -25 -25z"/>
<path d="M8903 4050 c5 -66 9 -73 72 -159 61 -83 146 -171 166 -171 5 0 23
-24 40 -52 38 -66 74 -122 117 -185 33 -47 34 -50 29 -125 -4 -64 -2 -79 12
-92 10 -9 24 -16 32 -16 8 0 24 -7 35 -14 23 -16 67 -10 61 8 -2 6 -15 11 -28
11 -20 0 -24 5 -27 35 -2 19 -9 49 -17 67 -8 17 -15 40 -15 51 0 43 -13 81
-39 109 -32 36 -68 90 -110 165 -18 31 -46 68 -64 83 -18 14 -41 33 -52 43
-11 10 -32 26 -47 35 -30 19 -128 171 -128 200 0 20 -27 77 -37 77 -3 0 -3
-31 0 -70z"/>
<path d="M9753 4040 c-5 -20 -23 -28 -23 -10 0 6 -4 10 -10 10 -5 0 -10 -6
-10 -14 0 -8 -5 -16 -12 -18 -8 -3 -5 -12 9 -27 17 -18 25 -21 40 -12 11 5 29
7 41 4 19 -5 22 -1 22 23 -1 52 -46 87 -57 44z"/>
<path d="M9266 3993 c-15 -16 -3 -53 29 -86 19 -20 35 -42 35 -50 0 -8 11 -19
25 -25 26 -12 55 -16 55 -7 0 15 -43 84 -56 89 -8 3 -14 11 -14 19 0 22 -61
72 -74 60z"/>
<path d="M6772 3880 c-44 -10 -56 -23 -47 -50 11 -36 67 -52 158 -47 63 4 84
9 100 26 20 20 20 22 4 38 -33 33 -144 50 -215 33z"/>
<path d="M10456 3845 c-4 -10 1 -15 14 -15 11 0 20 7 20 15 0 8 -6 15 -14 15
-8 0 -16 -7 -20 -15z"/>
<path d="M10287 3825 c-18 -17 -37 -20 -37 -4 0 31 -113 -15 -118 -49 -2 -15
-13 -22 -43 -27 -34 -6 -39 -10 -39 -33 0 -19 -3 -23 -9 -14 -6 10 -10 4 -15
-20 -8 -39 10 -57 52 -52 40 5 62 -5 62 -27 0 -10 6 -19 13 -20 6 0 24 -2 39
-3 18 -1 28 4 31 16 6 22 35 24 43 3 4 -8 14 -15 23 -15 9 0 22 -5 28 -11 16
-16 59 0 73 27 8 13 20 24 27 24 7 0 16 7 19 15 4 8 18 15 34 15 15 0 30 7 33
15 5 10 27 15 84 18 l78 3 -77 2 c-43 1 -78 6 -78 10 0 17 -59 0 -65 -18 -4
-13 -15 -18 -35 -18 -16 1 -29 4 -28 7 1 3 -7 24 -16 45 -10 22 -16 50 -13 63
3 17 0 23 -14 23 -9 0 -20 -6 -23 -12 -3 -7 -3 -1 0 13 7 32 -9 45 -29 24z
m-139 -105 c-7 -11 -21 -20 -30 -20 -11 0 -18 8 -18 20 0 16 7 20 30 20 28 0
29 -2 18 -20z"/>
<path d="M8100 3804 c0 -16 -10 -34 -25 -46 -29 -22 -31 -34 -10 -54 13 -14
15 -13 16 3 1 10 1 24 0 31 -1 6 9 16 23 21 13 6 30 18 37 29 8 10 23 24 34
30 17 10 13 11 -27 12 -45 0 -48 -2 -48 -26z"/>
<path d="M10427 3805 c-5 -11 0 -13 26 -8 48 9 57 23 15 23 -22 0 -38 -6 -41
-15z"/>
<path d="M10670 3665 c0 -11 -12 -15 -44 -15 -25 0 -48 5 -51 10 -3 6 -17 10
-31 10 -13 0 -24 -4 -24 -10 0 -5 7 -10 15 -10 8 0 15 -7 15 -15 0 -8 9 -15
20 -15 11 0 20 -4 20 -10 0 -17 87 -12 94 5 3 8 12 15 21 15 9 0 15 9 15 25 0
20 -5 25 -25 25 -16 0 -25 -6 -25 -15z"/>
<path d="M8096 3661 c-11 -18 8 -46 69 -106 63 -61 105 -127 85 -133 -5 -2 -8
-7 -5 -11 2 -4 0 -25 -6 -45 -12 -45 -5 -55 54 -86 23 -12 65 -37 92 -55 28
-18 88 -45 135 -60 46 -15 94 -34 106 -42 12 -7 38 -13 58 -11 29 2 42 -4 70
-31 23 -22 46 -34 72 -37 51 -6 67 5 58 40 -6 26 -17 33 -79 56 -54 19 -162
74 -219 111 -47 31 -69 54 -85 86 -11 23 -28 43 -36 43 -8 0 -20 9 -27 20 -7
11 -18 20 -25 20 -7 0 -20 8 -30 19 -10 10 -35 21 -56 24 -36 6 -86 41 -87 62
0 6 -21 30 -45 55 -25 25 -45 48 -45 53 0 12 -26 37 -39 37 -5 0 -12 -4 -15
-9z m369 -391 c3 -5 -3 -10 -15 -10 -12 0 -18 5 -15 10 3 6 10 10 15 10 5 0
12 -4 15 -10z"/>
<path d="M9656 3553 c-12 -12 -6 -39 19 -88 14 -27 28 -66 32 -87 3 -21 9 -38
14 -38 8 0 16 -26 33 -103 l7 -29 -53 7 c-29 4 -61 11 -70 16 -22 12 -124 16
-134 6 -4 -4 6 -22 23 -40 44 -46 52 -79 41 -171 -8 -63 -6 -90 6 -130 10 -34
14 -81 12 -140 -3 -94 4 -145 23 -168 52 -61 62 -78 42 -78 -4 0 -8 -15 -7
-32 1 -24 12 -44 39 -72 25 -27 37 -48 37 -68 0 -16 7 -39 15 -52 9 -13 15
-40 13 -60 -2 -28 3 -40 20 -52 15 -10 21 -22 17 -34 -4 -13 9 -32 46 -66 29
-27 64 -61 78 -75 14 -15 42 -30 61 -35 19 -4 38 -9 43 -10 4 -1 14 -2 21 -3
8 0 27 -12 42 -26 15 -14 37 -25 50 -25 12 0 26 -4 29 -10 9 -15 36 -12 57 7
20 18 158 27 158 10 0 -5 6 -7 14 -4 9 4 16 -1 18 -11 3 -12 6 -14 11 -5 5 7
0 19 -11 28 -39 34 0 105 49 90 11 -4 25 -2 32 3 10 8 34 9 111 3 15 -1 17 -6
12 -28 -9 -35 -64 -113 -80 -113 -15 0 -86 -69 -86 -84 -1 -25 -36 -56 -67
-58 -18 -1 -29 -6 -25 -12 3 -6 5 -25 4 -44 -3 -45 35 -82 83 -82 23 0 39 -7
52 -22 10 -13 35 -31 55 -40 20 -10 45 -29 54 -43 9 -14 25 -25 35 -25 10 0
24 -9 31 -20 7 -11 23 -20 35 -20 l23 0 0 960 c0 556 -4 960 -9 960 -5 0 -60
-13 -122 -29 -63 -16 -134 -32 -159 -36 -25 -4 -65 -18 -90 -30 -25 -12 -65
-26 -90 -30 -25 -4 -62 -16 -82 -26 -21 -11 -43 -19 -51 -19 -8 0 -22 -9 -31
-19 -26 -29 -92 -37 -117 -15 -10 9 -19 23 -19 29 0 7 -7 18 -16 26 -14 12
-23 26 -66 109 -7 14 -23 33 -35 43 -13 10 -23 25 -23 33 0 9 -11 30 -24 47
-13 18 -33 51 -46 74 -22 39 -69 71 -84 56z m674 -1374 c0 -18 -2 -19 -15 -9
-15 12 -12 30 6 30 5 0 9 -10 9 -21z"/>
<path d="M7987 3482 c-16 -3 -16 -5 -1 -32 10 -17 29 -30 46 -34 39 -8 43 -7
43 4 0 6 4 10 10 10 5 0 10 -6 10 -13 0 -16 42 -57 58 -57 22 0 26 11 15 36
-8 17 -17 23 -30 18 -10 -3 -18 0 -18 6 0 6 5 8 10 5 6 -3 10 -1 10 4 0 6 -4
11 -10 11 -5 0 -10 7 -10 16 0 10 -6 14 -15 10 -8 -3 -34 0 -57 7 -24 7 -51
11 -61 9z"/>
<path d="M9885 3395 c-21 -52 -24 -91 -4 -80 6 4 16 -1 23 -10 7 -9 21 -16 32
-13 30 5 28 42 -5 78 -16 18 -27 39 -24 46 12 31 -8 11 -22 -21z"/>
<path d="M9075 3345 c22 -14 57 -30 77 -35 20 -6 44 -17 52 -25 18 -19 50 -19
64 -2 9 10 -7 19 -76 41 -48 15 -97 32 -110 37 -43 17 -47 8 -7 -16z"/>
<path d="M9256 3126 c-14 -24 -30 -63 -35 -86 -9 -38 -7 -45 12 -61 45 -38 56
-26 67 74 4 40 11 82 15 95 6 18 4 22 -13 22 -13 0 -29 -15 -46 -44z"/>
<path d="M8030 2420 c20 -13 73 -13 65 0 -3 6 -23 10 -43 10 -28 0 -33 -3 -22
-10z"/>
<path d="M9215 2342 c-3 -3 -5 -22 -5 -43 0 -36 2 -39 40 -50 22 -7 43 -9 47
-6 3 4 -2 26 -11 51 -12 32 -23 45 -41 48 -14 3 -27 3 -30 0z"/>
<path d="M7798 2322 c-10 -2 -18 -10 -18 -18 0 -8 1 -14 3 -14 1 0 35 -11 74
-25 40 -13 105 -27 145 -31 40 -3 91 -13 113 -21 111 -40 134 -45 404 -84 36
-5 85 -16 110 -25 25 -9 105 -31 178 -49 155 -39 180 -50 162 -71 -14 -17 -3
-32 12 -17 6 6 18 9 27 6 10 -4 13 -2 8 5 -11 18 5 14 38 -7 26 -18 27 -19 8
-25 -10 -4 -47 -4 -81 -2 -59 4 -61 4 -61 -20 0 -16 -6 -24 -17 -25 -10 0 -28
-2 -40 -3 -13 -2 -23 1 -23 6 0 5 -9 0 -21 -10 -24 -23 -110 -42 -190 -42 -32
0 -61 -4 -64 -10 -3 -5 -15 -10 -25 -10 -10 0 -21 -6 -23 -12 -4 -10 -6 -10
-6 0 -1 6 -10 12 -21 12 -11 0 -20 5 -20 10 0 19 -35 10 -50 -12 -22 -34 -30
-89 -14 -95 22 -8 16 -33 -7 -33 -12 0 -23 -8 -26 -20 -3 -11 -11 -20 -17 -20
-20 0 -56 -44 -56 -68 0 -12 -4 -22 -9 -22 -5 0 -11 -22 -15 -49 -7 -53 -3
-50 -104 -68 -27 -4 -31 -8 -21 -20 11 -12 7 -14 -28 -10 -34 3 -42 0 -46 -15
-3 -10 -13 -21 -24 -25 -34 -12 -43 -23 -30 -38 6 -7 18 -10 24 -8 7 3 13 1
13 -5 0 -5 11 -7 25 -4 23 4 25 1 25 -29 0 -19 3 -44 6 -56 5 -17 2 -23 -9
-23 -8 0 -17 -7 -21 -15 -3 -8 -12 -15 -21 -15 -8 0 -15 -5 -15 -10 0 -6 -13
-17 -29 -23 -21 -9 -27 -17 -22 -26 5 -7 6 -22 4 -32 -7 -25 22 -36 42 -16 8
9 15 29 15 46 0 17 4 31 8 31 16 0 42 -36 42 -58 0 -12 5 -22 10 -22 6 0 10
11 10 25 0 32 5 31 35 -2 22 -27 27 -28 115 -28 76 0 94 -3 104 -17 9 -12 27
-18 53 -18 24 0 50 -8 64 -19 13 -10 34 -21 46 -25 11 -4 27 -13 33 -21 7 -8
29 -15 49 -15 42 0 141 47 141 67 0 7 7 30 16 51 14 34 17 35 28 20 7 -10 17
-18 21 -18 14 0 45 -43 51 -69 3 -14 10 -34 15 -44 7 -13 5 -19 -6 -23 -11 -5
-15 -22 -15 -69 0 -41 -4 -65 -12 -68 -8 -3 -5 -6 5 -6 10 -1 16 -5 12 -10 -3
-5 3 -12 12 -14 14 -4 13 -5 -4 -6 -17 -1 -23 -7 -23 -25 0 -13 -7 -26 -15
-30 -8 -3 -15 -18 -15 -33 0 -22 -2 -25 -10 -13 -13 20 -13 60 0 60 6 0 10 5
10 11 0 5 -4 7 -10 4 -11 -7 -2 23 12 42 13 17 3 30 -27 35 -31 6 -45 -10 -60
-70 -11 -41 -17 -49 -51 -61 -48 -18 -49 -19 -75 -106 -12 -38 -26 -74 -31
-79 -11 -14 -10 -56 2 -56 6 0 10 -6 10 -14 0 -8 7 -16 15 -20 8 -3 15 -17 15
-31 0 -18 5 -25 19 -25 11 0 21 -5 23 -12 3 -7 7 -5 11 6 4 10 3 15 -3 11 -6
-3 -7 1 -4 10 8 19 20 9 26 -20 2 -11 12 -21 23 -23 22 -3 45 -43 45 -77 0
-31 -19 -45 -62 -45 -29 0 -38 4 -38 17 0 15 -2 15 -20 -3 -16 -16 -19 -26
-12 -44 8 -21 5 -26 -24 -42 -19 -10 -52 -18 -74 -18 -40 0 -52 -12 -26 -27 8
-4 15 -17 18 -28 3 -18 12 -20 98 -22 52 -1 136 -6 185 -11 l90 -9 -72 -2
c-39 0 -75 -5 -78 -11 -4 -7 323 -10 974 -10 l981 0 0 474 0 474 -27 6 c-34 7
-50 20 -85 67 -15 20 -47 46 -72 57 -52 25 -106 74 -106 97 0 8 -11 20 -24 24
-13 5 -26 17 -29 25 -4 9 -17 16 -31 16 -13 0 -26 7 -30 15 -3 8 -13 15 -22
15 -11 0 -14 5 -10 16 4 10 -5 24 -24 40 -28 24 -48 29 -42 11 1 -5 -2 -7 -8
-5 -7 2 -11 7 -11 11 1 4 1 18 1 31 0 14 11 37 24 53 14 16 28 41 31 56 7 25
5 27 -23 27 -37 0 -112 31 -131 54 -7 9 -22 16 -33 16 -32 0 -100 46 -141 95
-21 25 -47 45 -57 45 -27 0 -167 107 -174 133 -4 15 0 26 14 36 32 22 24 37
-32 60 -29 12 -65 28 -79 36 -16 9 -67 17 -124 20 -53 3 -109 11 -124 19 -14
8 -45 17 -66 21 -22 4 -57 13 -78 21 -20 8 -61 14 -91 14 -40 0 -57 5 -71 20
-10 11 -24 20 -30 20 -7 0 -15 8 -18 19 -6 24 -90 35 -191 26 -60 -6 -78 -4
-99 9 -19 13 -46 17 -113 15 -123 -2 -122 -2 -138 29 l-14 27 -150 0 c-142 0
-152 1 -182 24 -26 19 -46 24 -105 25 -46 1 -79 7 -90 16 -16 13 -78 20 -117
12z m1023 -515 c-8 -8 -11 -8 -11 1 0 7 -15 13 -32 13 -31 2 -31 2 7 8 41 6
56 -2 36 -22z m-461 -407 c0 -5 -8 -10 -17 -10 -10 0 -29 -3 -43 -6 -24 -5
-24 -5 -6 10 22 18 66 22 66 6z m350 -935 c0 -8 -4 -15 -10 -15 -5 0 -10 7
-10 15 0 8 5 15 10 15 6 0 10 -7 10 -15z"/>
<path d="M9110 2230 l-35 -7 43 -2 c27 0 41 3 37 9 -3 6 -7 9 -8 9 -1 -1 -18
-5 -37 -9z"/>
<path d="M7883 1972 c-24 -2 -43 -7 -43 -11 0 -4 -8 -16 -19 -27 -10 -11 -23
-30 -29 -41 -10 -17 -9 -20 6 -19 24 2 23 -82 -1 -96 -10 -5 -17 -15 -17 -22
0 -18 -22 -26 -49 -19 -18 5 -21 1 -21 -25 0 -22 -9 -36 -34 -56 -19 -14 -39
-26 -44 -26 -6 0 -13 -6 -15 -12 -4 -10 -8 -9 -16 2 -7 10 -11 11 -11 3 0 -7
-7 -13 -15 -13 -8 0 -15 -4 -15 -10 0 -5 -6 -10 -14 -10 -14 0 -26 -29 -26
-62 0 -10 7 -18 15 -18 9 0 15 -9 15 -25 0 -14 4 -25 9 -25 5 0 8 -8 7 -17 0
-10 6 -18 14 -18 8 0 26 -8 40 -18 13 -9 30 -17 37 -17 9 0 13 -15 13 -44 0
-25 5 -48 10 -51 15 -9 12 -67 -5 -89 -10 -13 -13 -32 -9 -58 4 -25 3 -38 -5
-38 -15 0 -14 -11 4 -33 13 -18 15 -18 51 6 l37 26 35 -37 c20 -22 32 -29 28
-18 -4 11 -1 23 8 30 21 16 32 96 14 96 -8 0 -19 -5 -26 -12 -6 -6 -15 -8 -19
-4 -13 12 20 27 49 22 23 -5 29 -1 34 19 3 14 12 25 20 25 8 0 14 7 14 16 0 9
11 27 24 39 27 25 49 128 26 123 -7 -2 -15 3 -17 10 -3 6 2 12 11 12 15 0 23
27 28 100 2 24 8 36 21 38 13 3 17 -3 17 -27 0 -17 -6 -40 -12 -51 -11 -17
-10 -22 2 -30 12 -7 19 0 34 32 11 23 22 36 24 29 3 -9 7 -9 18 0 13 10 12 14
-2 31 -15 16 -16 25 -6 69 16 66 15 68 -8 62 -11 -3 -32 3 -47 13 -16 10 -31
17 -35 16 -5 -1 -8 3 -8 8 0 6 -7 10 -16 10 -9 0 -14 7 -12 18 1 9 -1 22 -5
28 -4 7 0 17 8 24 17 14 20 40 5 40 -5 0 -10 7 -10 15 0 8 5 15 11 15 7 0 10
14 7 35 -2 19 1 37 7 39 5 2 2 5 -7 5 -10 1 -18 5 -18 10 0 13 -19 17 -67 13z
m14 -249 c-11 -58 -30 -104 -49 -117 -11 -8 -26 -25 -32 -38 -6 -12 -19 -24
-29 -26 -26 -5 -25 74 1 82 14 5 19 17 20 46 1 22 -3 40 -8 40 -6 0 -10 7 -10
15 0 12 13 15 55 15 47 0 54 -3 52 -17z"/>
<path d="M8280 1710 c0 -5 -15 -9 -32 -9 -73 0 -77 -1 -72 -16 4 -10 20 -15
49 -15 24 0 47 -4 50 -10 11 -18 32 -11 38 12 4 12 1 28 -5 35 -12 15 -28 17
-28 3z"/>
<path d="M7220 1493 c-9 -2 -21 -17 -29 -33 -7 -17 -19 -30 -27 -30 -8 0 -14
-9 -14 -20 0 -15 -7 -20 -25 -20 -23 0 -25 -3 -25 -49 0 -65 -7 -81 -37 -81
-33 0 -63 35 -63 72 0 26 -3 29 -22 22 -13 -3 -24 -11 -26 -15 -2 -5 -20 -9
-40 -10 -20 0 -66 -8 -102 -18 -64 -16 -65 -17 -62 -48 2 -18 -2 -41 -8 -52
-8 -16 -8 -27 1 -42 8 -15 8 -24 0 -28 -6 -4 1 -19 19 -38 20 -21 28 -37 23
-49 -5 -13 -3 -16 10 -11 10 4 30 1 45 -5 33 -13 72 -17 72 -6 0 4 16 10 35
14 44 8 47 14 50 79 1 30 9 65 19 79 16 25 21 26 106 26 l89 0 3 103 c2 63 7
101 13 100 6 -1 15 13 21 31 10 33 8 36 -26 29z"/>
<path d="M5925 1220 c-3 -5 -12 -10 -19 -10 -8 0 -32 -17 -54 -37 -33 -30 -40
-44 -38 -66 5 -41 21 -54 43 -35 10 8 31 18 47 22 17 4 46 21 65 39 36 31 42
57 19 85 -12 14 -54 16 -63 2z"/>
<path d="M6970 995 c0 -16 27 -20 48 -6 11 7 10 10 -3 15 -28 10 -45 7 -45 -9z"/>
<path d="M6350 940 c0 -27 3 -30 30 -30 27 0 30 3 30 30 0 27 -3 30 -30 30
-27 0 -30 -3 -30 -30z"/>
<path d="M5803 928 c-4 -7 -8 -32 -8 -55 0 -35 3 -43 18 -43 10 0 21 -8 24
-17 14 -35 73 -70 73 -43 0 6 -7 10 -15 10 -12 0 -15 16 -15 80 l0 80 -34 0
c-19 0 -38 -6 -43 -12z"/>
<path d="M7597 883 c-4 -3 -7 -15 -7 -25 0 -13 8 -18 30 -18 l31 0 -18 25
c-19 26 -26 29 -36 18z"/>
<path d="M8517 714 c-25 -25 -28 -44 -6 -44 14 0 48 41 49 58 0 19 -15 14 -43
-14z"/>
<path d="M5621 526 c-7 -8 -8 -16 -4 -19 14 -9 82 -12 89 -4 4 4 16 7 27 7 10
0 17 5 15 13 -7 18 -112 22 -127 3z"/>
<path d="M6510 530 c0 -5 7 -10 15 -10 8 0 15 5 15 10 0 6 -7 10 -15 10 -8 0
-15 -4 -15 -10z"/>
<path d="M5962 493 c-10 -4 -10 -8 -1 -19 12 -15 99 -20 99 -6 0 26 -58 41
-98 25z"/>
<path d="M7380 163 c0 -5 5 -15 10 -23 8 -12 10 -11 10 8 0 12 -4 22 -10 22
-5 0 -10 -3 -10 -7z"/>
<path d="M7432 98 c-16 -16 -16 -49 1 -42 7 2 14 16 15 29 2 28 1 30 -16 13z"/>
<path d="M7516 15 c5 -12 25 -15 106 -15 75 0 99 3 96 12 -3 9 -36 14 -106 16
-88 2 -101 1 -96 -13z"/>
<path d="M8563 3 c15 -2 37 -2 50 0 12 2 0 4 -28 4 -27 0 -38 -2 -22 -4z"/>
</g>
</svg>
