<?xml version="1.0" standalone="no"?>
<!DOCTYPE svg PUBLIC "-//W3C//DTD SVG 20010904//EN"
 "http://www.w3.org/TR/2001/REC-SVG-20010904/DTD/svg10.dtd">
<svg version="1.0" xmlns="http://www.w3.org/2000/svg"
 width="1174.000000pt" height="765.565647pt" viewBox="0 0 1174.000000 765.565647"
 preserveAspectRatio="xMidYMid meet">
<metadata>
Created by potrace 1.12, written by Peter Selinger 2001-2015
</metadata>
<g transform="translate(-0.000000,765.565647) scale(0.100000,-0.100000)"
fill="#000000" stroke="none">
<path d="M5135 7653 c-11 -2 -58 -17 -105 -33 -47 -15 -105 -33 -130 -40 -25
-6 -74 -24 -110 -40 -36 -15 -110 -38 -165 -50 -55 -13 -123 -29 -152 -36 -28
-8 -64 -14 -80 -14 -26 0 -313 -59 -322 -66 -9 -8 37 -48 78 -68 25 -11 46
-26 48 -32 5 -15 -74 -72 -172 -125 -147 -79 -280 -186 -319 -260 -32 -58 -73
-190 -86 -279 -14 -92 -58 -224 -100 -300 -52 -94 -155 -361 -179 -462 -11
-48 -23 -117 -27 -155 -7 -73 -11 -79 -102 -179 -26 -29 -68 -87 -93 -130 -26
-44 -66 -113 -91 -154 -24 -42 -55 -103 -68 -135 -12 -33 -36 -85 -51 -115
-16 -30 -43 -96 -61 -147 -31 -85 -40 -98 -123 -186 -50 -52 -142 -133 -205
-180 -63 -47 -130 -98 -148 -113 -53 -47 -137 -213 -191 -379 -94 -284 -96
-308 -33 -377 76 -84 131 -89 247 -21 163 94 294 205 373 313 30 41 59 79 63
84 12 13 33 -13 74 -90 20 -38 41 -74 47 -81 9 -11 12 -86 6 -148 -3 -25 2
-33 34 -50 21 -11 38 -23 38 -27 0 -4 5 -19 10 -34 10 -26 11 -26 31 -8 28 26
37 7 37 -77 0 -38 3 -73 7 -79 3 -5 1 -10 -4 -10 -6 0 -11 8 -11 18 0 11 -9
27 -20 37 -11 10 -20 26 -20 37 0 22 -18 24 -27 3 -3 -9 2 -22 13 -30 11 -8
14 -14 7 -15 -16 0 -18 -66 -3 -75 6 -3 10 -23 9 -43 0 -20 -3 -31 -6 -24 -11
29 -23 8 -23 -43 0 -30 -4 -55 -10 -55 -5 0 -10 -20 -10 -45 0 -25 5 -45 10
-45 6 0 10 -7 10 -15 0 -10 10 -15 30 -15 23 0 30 4 30 20 0 15 7 20 25 20 25
0 25 -1 24 -77 -1 -46 -4 -68 -8 -54 -11 40 -29 36 -33 -6 -3 -36 -5 -38 -42
-41 -28 -2 -46 -12 -68 -35 -28 -31 -30 -31 -43 -13 -8 10 -16 22 -17 26 -2 4
-13 11 -25 14 -17 6 -23 3 -23 -8 0 -9 8 -16 18 -16 28 0 33 -10 17 -34 -9
-13 -16 -68 -21 -149 -5 -88 -11 -130 -19 -134 -19 -7 -6 -40 24 -59 36 -24
134 -106 144 -122 4 -7 31 -24 60 -38 29 -14 71 -44 94 -67 52 -50 61 -38 42
60 -10 52 -11 67 -1 71 8 2 12 31 12 88 0 47 5 94 10 105 8 13 7 25 0 40 -15
26 -34 20 -38 -13 -3 -22 -8 -26 -36 -26 -52 0 -76 -17 -76 -55 0 -38 -14 -65
-24 -48 -4 6 -23 11 -42 11 -30 0 -34 3 -34 25 0 15 11 36 25 50 18 16 22 25
13 28 -8 3 -2 9 15 16 15 6 27 17 27 26 0 13 24 21 52 16 4 0 10 10 14 24 3
14 11 25 18 25 6 0 17 9 24 20 7 11 19 20 27 20 9 0 15 10 15 25 0 20 -5 25
-27 26 l-28 1 30 7 30 6 0 117 c0 114 1 117 28 145 28 30 27 43 -3 43 -13 0
-15 10 -12 68 2 37 10 86 18 110 18 55 18 67 -2 83 -25 21 -11 165 18 196 21
22 33 22 33 0 0 -5 9 -11 20 -12 27 -2 95 -64 95 -87 0 -20 16 -25 22 -7 2 6
24 -7 48 -30 25 -22 48 -41 53 -41 13 0 7 -30 -6 -30 -7 0 -25 -6 -40 -12 -22
-11 -27 -20 -27 -50 0 -28 5 -38 20 -43 25 -8 74 21 67 38 -2 7 0 23 4 36 7
16 14 21 26 17 28 -11 222 -170 223 -183 0 -6 -11 -25 -25 -41 -14 -17 -25
-35 -25 -40 0 -6 -18 -26 -40 -45 -22 -19 -40 -41 -40 -49 0 -9 20 -36 45 -60
50 -51 54 -69 33 -169 -11 -54 -14 -58 -45 -64 -25 -4 -33 -11 -33 -26 0 -27
-24 -19 -28 9 -3 18 -10 22 -38 22 -19 0 -34 4 -34 8 0 15 24 32 47 32 18 0
23 6 23 24 0 20 -8 26 -45 37 -25 7 -45 17 -45 21 0 4 -12 -4 -26 -17 -29 -27
-30 -39 -18 -182 4 -58 3 -83 -5 -83 -21 0 -11 -19 12 -22 16 -2 23 -11 25
-31 5 -37 49 -39 58 -2 3 14 12 25 19 25 8 0 16 8 18 18 4 16 5 16 6 0 2 -32
30 -20 33 15 2 20 8 32 18 32 12 0 14 -12 11 -65 -2 -36 -4 -66 -6 -68 -1 -1
-17 -4 -35 -7 -38 -5 -37 -3 -45 -38 -7 -24 -5 -27 20 -27 25 0 27 -3 22 -30
-4 -16 -2 -30 3 -30 5 0 -1 -11 -14 -25 -15 -16 -34 -25 -54 -25 -17 0 -50 -8
-74 -18 -24 -11 -49 -17 -56 -15 -7 3 -18 0 -25 -5 -7 -6 -44 -18 -82 -27 -39
-8 -103 -27 -142 -41 -40 -13 -96 -29 -125 -34 -29 -6 -57 -15 -62 -20 -17
-17 44 -12 133 11 45 11 85 18 88 16 12 -13 -11 -26 -59 -32 -29 -4 -71 -14
-93 -22 -44 -15 -325 -76 -480 -104 -33 -6 -89 -17 -125 -25 -36 -7 -105 -20
-155 -29 -49 -8 -124 -21 -165 -29 -41 -8 -106 -20 -145 -26 -114 -17 -373
-59 -465 -75 -91 -15 -231 -37 -375 -59 -49 -8 -106 -14 -125 -15 -35 -1 -152
-15 -265 -31 -33 -5 -112 -12 -175 -16 -63 -4 -126 -13 -140 -20 -24 -13 -24
-13 16 -14 23 0 66 5 95 10 30 6 117 17 194 25 343 36 512 59 1115 156 414 66
738 126 1055 195 292 63 353 74 408 74 32 0 79 7 105 15 63 20 205 36 216 25
5 -5 -2 -12 -18 -16 -14 -3 -33 -16 -41 -27 -13 -18 -12 -22 2 -32 14 -11 22
-8 45 15 15 16 28 33 28 39 0 5 17 23 37 40 48 40 154 74 497 161 149 38 307
80 351 93 44 13 100 28 125 32 25 4 50 11 55 15 6 4 64 21 130 38 171 45 187
45 205 2 7 -17 10 -44 6 -63 -8 -45 41 -119 103 -158 25 -15 64 -39 87 -53 64
-40 161 -58 334 -63 148 -4 219 3 380 35 64 13 131 45 175 83 37 33 141 164
164 206 16 31 71 43 161 36 53 -4 79 -2 84 6 10 16 42 14 137 -10 170 -42 299
1 299 100 0 10 9 44 21 77 11 32 24 75 28 94 l6 35 55 -2 c30 -1 72 -4 93 -5
39 -3 44 2 77 72 4 8 22 18 41 23 19 4 41 9 49 11 8 3 23 5 33 5 10 1 15 6 12
11 -4 6 8 10 28 10 26 0 36 6 45 25 7 14 17 36 23 49 7 16 17 22 29 19 10 -3
33 2 52 10 18 8 53 18 78 20 25 3 117 15 205 27 88 11 215 21 282 21 l123 0
45 34 c49 38 113 64 250 101 50 13 118 36 152 50 127 53 342 241 358 313 3 15
16 40 28 55 47 57 170 297 183 355 3 14 15 50 25 79 10 29 19 64 19 79 0 42
22 103 37 103 12 0 443 224 594 309 220 123 375 212 484 278 55 32 147 86 204
119 57 32 120 69 140 81 20 13 53 32 74 43 20 11 110 67 200 124 89 56 185
116 212 131 28 16 113 70 190 120 77 51 155 100 173 111 29 17 32 23 32 66 0
26 -3 48 -6 48 -3 0 -78 -48 -167 -106 -213 -141 -355 -232 -414 -268 -26 -16
-91 -57 -143 -91 -52 -34 -126 -79 -165 -100 -38 -20 -88 -49 -110 -64 -22
-15 -67 -43 -100 -61 -76 -42 -230 -131 -320 -185 -80 -48 -202 -115 -290
-157 -33 -17 -67 -34 -75 -39 -144 -85 -476 -259 -496 -259 -10 0 -14 13 -14
44 0 56 -10 106 -21 106 -5 0 -9 -6 -9 -13 0 -7 -10 -23 -23 -37 -12 -14 -28
-37 -34 -52 -7 -15 -25 -35 -40 -44 -27 -17 -49 -36 -92 -78 -11 -10 -17 -24
-14 -31 2 -8 -5 -26 -16 -42 -12 -16 -25 -51 -30 -79 -4 -28 -17 -65 -29 -82
-12 -16 -22 -43 -22 -58 0 -27 -46 -132 -63 -145 -4 -3 -10 -18 -13 -33 -2
-15 -11 -47 -19 -69 -13 -38 -13 -43 2 -54 15 -12 15 -14 1 -25 -9 -7 -19 -29
-22 -49 -12 -67 -69 -159 -100 -159 -9 0 -16 -6 -16 -14 0 -13 -34 -22 -119
-33 -37 -4 -61 10 -61 38 0 11 -5 19 -11 19 -7 0 -8 -11 -4 -30 4 -19 3 -30
-4 -30 -12 0 -19 26 -23 79 -2 19 -8 36 -15 38 -7 3 -9 -3 -6 -16 3 -10 1 -27
-5 -36 -8 -15 -11 -13 -20 13 -6 17 -8 50 -4 74 4 33 7 38 11 20 11 -46 26
-16 25 51 l0 69 40 -4 c34 -3 45 1 79 33 34 31 40 42 39 74 -2 40 -30 81 -66
94 -11 5 -39 4 -64 -2 -24 -5 -46 -7 -49 -4 -3 3 5 24 17 46 20 35 21 43 11
70 -13 30 -7 56 10 46 9 -6 13 20 9 63 -1 13 8 35 21 48 l22 23 -32 18 c-35
20 -40 46 -15 82 13 18 14 28 5 48 -6 13 -9 29 -5 34 3 6 3 22 -1 37 -7 27 -7
27 -31 -18 l-24 -45 7 45 c4 28 19 61 41 90 19 25 39 55 45 68 6 12 14 22 19
22 13 0 9 54 -5 75 -13 17 -15 16 -30 -15 -10 -18 -17 -43 -18 -54 0 -13 -6
-6 -15 20 -8 22 -23 50 -34 61 -10 12 -22 38 -26 59 -4 22 -11 42 -17 45 -5 4
-7 15 -2 25 6 16 8 16 13 4 5 -15 22 -30 34 -30 4 0 5 7 1 16 -4 10 0 22 9 28
34 25 40 53 18 95 -11 22 -24 42 -30 46 -5 3 -10 13 -10 21 0 15 -77 93 -93
94 -4 0 -11 -8 -14 -17 -5 -12 6 -28 35 -54 37 -32 40 -38 26 -49 -30 -25 -34
-47 -19 -84 18 -41 18 -46 6 -46 -5 0 -13 10 -17 23 -3 12 -21 45 -39 72 -17
28 -47 76 -66 108 -46 79 -127 169 -148 164 -21 -5 -61 15 -86 43 l-20 23 29
-7 28 -7 -26 33 c-94 115 -99 131 -22 68 27 -22 54 -40 61 -40 7 0 19 -2 27
-5 7 -3 20 -1 27 4 12 8 11 13 -10 30 -33 27 -6 28 45 0 l39 -20 -8 28 c-8 34
-15 39 -85 59 -30 8 -60 17 -67 19 -18 6 -46 67 -84 180 -18 55 -50 142 -71
194 -21 52 -38 100 -38 107 0 7 -8 17 -17 23 -16 9 -17 13 -4 43 7 18 16 50
18 70 5 33 2 38 -22 44 -22 6 -25 10 -20 34 8 36 -1 41 -75 41 -47 1 -63 5
-73 19 -12 17 -16 18 -34 5 -12 -8 -28 -12 -36 -9 -8 3 -33 -4 -55 -15 -27
-14 -43 -17 -47 -10 -5 7 -29 8 -70 4 l-63 -7 -6 43 c-3 24 -8 103 -11 174 -7
165 -22 234 -69 318 -43 77 -101 131 -154 144 -44 12 -253 158 -371 260 -153
133 -209 162 -524 273 -262 93 -618 190 -797 219 -196 32 -419 54 -455 44z
m1040 -1007 c137 -45 204 -109 227 -218 10 -48 9 -79 -6 -190 -20 -140 -31
-179 -67 -230 -21 -29 -23 -30 -36 -12 -18 24 -16 61 3 72 23 13 39 152 23
201 -14 41 -50 101 -61 101 -12 0 -10 -5 12 -43 32 -53 43 -133 28 -191 -7
-27 -18 -51 -24 -53 -7 -2 -18 25 -29 69 -9 40 -19 81 -21 90 -8 28 -98 88
-132 88 -22 0 -35 7 -43 22 -7 13 -24 32 -38 43 -72 57 -142 71 -278 56 -200
-22 -213 -23 -213 -8 0 7 26 39 58 71 67 67 205 141 292 156 88 15 215 5 305
-24z m1033 -913 c-5 -25 -28 -28 -28 -4 0 12 6 21 16 21 9 0 14 -7 12 -17z
m832 -63 c11 -7 7 -10 -17 -10 -18 0 -33 5 -33 10 0 13 30 13 50 0z m-229 -30
c5 0 9 -4 9 -9 0 -12 -38 -2 -47 12 -4 7 0 8 11 4 10 -4 22 -7 27 -7z m-57
-41 c35 -18 46 -29 55 -60 7 -22 23 -50 38 -63 25 -23 26 -27 24 -137 -1 -62
-4 -115 -7 -118 -3 -3 -34 4 -69 17 -69 24 -105 28 -105 12 0 -11 -30 -13 -54
-4 -22 8 -20 57 3 120 18 45 25 80 47 222 6 38 10 39 68 11z m-815 -31 c17
-17 31 -38 31 -46 0 -14 -27 -41 -42 -42 -12 0 -50 90 -44 105 8 22 20 18 55
-17z m-61 -116 c3 -9 -18 -28 -127 -117 -60 -48 -62 -51 -56 -85 4 -20 23 -53
47 -78 27 -30 38 -49 33 -60 -32 -81 -56 -177 -61 -245 -6 -71 -13 -93 -53
-168 -59 -111 -100 -175 -132 -209 -23 -26 -33 -28 -130 -35 -142 -9 -175 -6
-171 20 2 11 14 36 26 55 29 45 37 76 22 93 -6 7 -35 31 -65 52 -47 34 -60 38
-103 36 -28 -1 -56 3 -64 10 -13 11 -14 9 -9 -14 6 -21 3 -27 -8 -27 -9 0 -18
8 -22 18 -3 9 -28 35 -55 57 -27 22 -50 43 -50 47 0 4 25 26 56 49 l56 41 47
-46 c51 -50 71 -56 98 -27 10 10 61 56 114 103 143 126 279 272 520 556 l20
23 32 -20 c17 -11 33 -24 35 -29z m1086 -178 c6 -54 1 -84 -15 -84 -5 0 -12 7
-15 15 -4 8 -12 15 -20 15 -17 0 -19 58 -3 114 l11 40 18 -24 c10 -13 20 -47
24 -76z m-3318 -206 c-21 -29 -20 -44 0 -27 15 12 16 7 10 -57 -4 -53 -2 -76
9 -90 8 -11 15 -33 15 -51 0 -17 7 -38 15 -47 16 -16 21 -76 6 -76 -5 0 -11
-10 -13 -22 -10 -71 -46 48 -48 154 0 28 -6 53 -15 62 -11 11 -14 26 -9 55 4
25 3 41 -4 41 -5 0 -12 12 -15 26 -4 22 1 28 27 40 17 7 32 13 34 14 2 0 -4
-10 -12 -22z m1200 -409 c23 -33 26 -44 16 -57 -30 -43 -86 -148 -104 -195
-19 -48 -32 -147 -44 -327 -7 -114 -33 -287 -52 -360 -19 -68 -38 -106 -87
-174 -17 -22 -45 -64 -63 -93 -34 -54 -58 -71 -76 -53 -7 7 10 54 54 147 62
136 70 169 81 318 0 6 -4 28 -10 50 -5 22 -12 52 -15 67 -4 15 -24 48 -46 73
-41 47 -43 52 -44 95 -1 21 -8 27 -54 39 -50 13 -54 13 -72 -7 -25 -27 -25
-29 6 -36 19 -5 24 -11 19 -24 -3 -9 -9 -39 -11 -67 -7 -67 -19 -88 -57 -104
-75 -30 -74 -30 -45 -30 15 -1 42 8 60 19 18 11 43 20 56 20 12 0 22 4 22 8 0
5 12 14 27 21 24 11 29 10 45 -9 22 -28 22 -32 0 -60 -11 -13 -39 -27 -72 -34
-51 -12 -55 -14 -52 -39 4 -36 -5 -34 -52 8 -22 19 -43 35 -47 35 -4 0 -11 9
-14 20 -3 11 -12 20 -20 20 -7 0 -28 12 -45 26 -28 24 -31 30 -25 67 7 39 6
40 -16 33 -76 -24 -111 -15 -132 34 -12 28 -144 146 -292 260 -38 29 -73 58
-77 64 -9 13 -3 42 22 116 10 30 21 67 24 82 4 16 12 27 18 25 6 -1 17 9 24
23 11 20 21 25 53 26 l39 1 -5 -59 c-5 -47 -3 -58 9 -58 8 0 20 12 27 26 14
30 37 27 33 -5 -3 -18 0 -22 15 -17 13 4 21 -1 28 -16 7 -16 19 -22 45 -22 31
-1 35 2 35 24 0 26 10 29 53 16 18 -6 22 -4 22 14 0 17 4 21 18 15 9 -3 31 -9
47 -12 17 -4 56 -23 88 -44 33 -21 65 -35 73 -32 10 4 19 -5 27 -26 9 -26 16
-31 32 -26 11 4 27 8 35 9 28 4 70 52 70 80 0 14 3 27 8 27 33 7 73 6 78 -2 7
-13 -60 -79 -80 -79 -9 0 -16 -6 -16 -14 0 -7 -11 -25 -25 -40 -14 -15 -25
-32 -25 -39 1 -7 9 -2 19 11 11 12 24 22 29 22 5 0 23 16 39 35 17 19 39 35
50 35 11 0 28 9 38 20 10 11 28 20 39 20 45 0 66 12 66 36 0 16 8 28 23 33 12
5 33 20 46 35 18 19 28 23 41 16 14 -7 19 -5 23 10 8 30 21 24 53 -21z m-1833
-36 c45 4 67 2 67 -5 0 -16 -42 -69 -108 -136 -32 -32 -66 -72 -76 -88 -19
-28 -199 -256 -223 -281 -6 -7 -14 -13 -17 -13 -7 0 53 113 64 120 4 3 16 25
27 50 11 25 27 51 36 59 10 7 17 28 17 47 0 26 6 37 30 51 17 9 30 21 30 25 0
4 11 8 25 8 32 0 33 29 5 85 -11 22 -20 51 -20 66 0 27 1 27 38 17 20 -6 67
-8 105 -5z m1937 -57 c-13 -13 -35 7 -25 24 5 8 11 8 21 -1 10 -8 12 -15 4
-23z m-1543 -216 c65 -58 132 -116 149 -130 16 -14 33 -31 37 -37 5 -8 -61
-99 -180 -248 -103 -130 -188 -241 -188 -248 0 -7 11 -12 24 -12 19 0 42 20
93 80 37 44 74 94 83 111 8 17 21 37 30 44 8 7 15 19 15 27 0 7 20 35 44 61
25 27 50 59 56 72 6 14 20 40 30 58 l18 33 66 -57 c60 -51 82 -84 56 -84 -5 0
-32 -28 -60 -62 -28 -35 -59 -72 -68 -84 -9 -11 -31 -38 -48 -60 -85 -106
-131 -163 -166 -205 -21 -25 -38 -51 -38 -58 0 -6 -9 -29 -20 -51 -11 -22 -20
-46 -20 -53 0 -8 26 -37 59 -63 32 -27 104 -89 161 -138 87 -75 105 -87 119
-77 9 6 23 14 32 17 10 3 24 25 34 49 17 45 45 79 45 55 0 -10 3 -10 15 0 9 7
14 19 11 27 -9 23 5 44 25 38 15 -5 18 -1 16 22 -2 24 2 28 23 28 20 0 25 5
25 27 0 30 118 183 150 194 11 3 37 24 58 46 22 21 42 38 46 36 26 -10 131
-117 126 -129 -3 -8 -19 -23 -36 -34 -16 -11 -52 -46 -80 -77 -28 -32 -57 -58
-65 -58 -8 0 -20 -11 -26 -25 -6 -14 -19 -25 -29 -25 -12 0 -27 -16 -40 -42
-12 -24 -42 -72 -66 -108 -33 -48 -43 -70 -38 -88 4 -18 -4 -38 -31 -78 -21
-30 -41 -54 -46 -54 -5 0 -136 109 -291 243 -155 134 -381 328 -502 432 -222
191 -237 205 -232 217 3 9 402 502 446 550 21 24 38 35 46 30 8 -4 67 -54 132
-112z m2651 -156 c3 -21 -32 -74 -49 -74 -13 0 -11 57 4 80 15 25 41 22 45 -6z
m-4510 -232 c2 -7 -3 -12 -10 -12 -15 0 -38 19 -38 32 0 11 43 -7 48 -20z
m4172 -28 c0 -11 -61 -127 -79 -150 -24 -31 -19 -48 28 -95 76 -78 73 -69 46
-124 -13 -28 -27 -71 -31 -96 -5 -40 -10 -48 -33 -53 -14 -3 -36 -8 -48 -12
-15 -4 -23 -2 -23 6 0 7 -22 34 -48 60 -63 62 -80 101 -59 134 12 18 22 22 44
18 15 -2 35 -10 43 -17 29 -24 82 -46 96 -41 21 8 -1 46 -26 46 -11 0 -22 11
-28 28 -6 15 -11 21 -11 15 -1 -7 -5 -13 -10 -13 -5 0 -7 9 -4 20 3 11 2 37
-2 57 -6 34 -8 36 -20 20 -12 -16 -13 -16 -19 5 -3 13 -6 47 -6 77 0 60 15 80
61 81 14 0 43 9 65 20 39 19 64 25 64 14z m-3370 -23 c0 -20 -35 -69 -43 -61
-7 7 24 80 34 80 5 0 9 -9 9 -19z m-934 -42 c-13 -78 -50 -129 -96 -129 -30 0
-60 30 -60 60 0 12 2 12 9 2 13 -22 56 -11 59 16 2 16 -2 22 -14 22 -16 0 -17
2 -3 15 8 9 26 17 40 20 13 2 28 11 34 20 5 8 16 15 24 15 10 0 12 -10 7 -41z
m3094 -25 c0 -17 -5 -45 -11 -62 -14 -42 -64 -53 -111 -25 -42 24 -50 53 -15
53 41 0 57 10 78 51 17 35 21 38 39 27 13 -8 20 -24 20 -44z m-1672 -101 c49
-43 233 -202 408 -353 539 -464 524 -450 513 -471 -20 -38 23 -70 -515 391
-170 146 -349 300 -399 342 -127 107 -139 121 -126 147 7 12 16 21 21 21 4 0
49 -35 98 -77z m-684 -415 c7 -18 19 -51 26 -73 7 -22 20 -45 28 -51 10 -7 17
-33 20 -70 3 -56 2 -60 -24 -71 -39 -18 -53 5 -54 89 0 55 -5 74 -25 104 -24
35 -33 83 -18 97 15 16 34 5 47 -25z m2054 -231 c-3 -53 -10 -73 -43 -122 -43
-66 -65 -141 -65 -231 0 -80 -14 -95 -110 -118 -82 -20 -130 -41 -130 -56 0
-6 5 -10 10 -10 6 0 10 -4 10 -9 0 -7 -73 -31 -95 -31 -3 0 7 18 22 41 18 27
26 52 25 74 -2 25 5 43 26 67 32 37 231 298 275 360 15 21 27 43 27 48 0 18
25 50 39 50 10 0 12 -14 9 -63z m2277 -57 c3 -5 -2 -26 -11 -46 -12 -25 -19
-32 -25 -23 -4 8 -4 18 1 25 6 6 7 14 4 17 -9 8 3 37 15 37 5 0 13 -4 16 -10z
m-157 -16 c35 -10 26 -30 -23 -46 -43 -14 -45 -14 -64 9 -12 12 -16 23 -10 23
5 0 7 5 4 10 -7 11 56 14 93 4z m-2862 -346 c99 -84 216 -188 211 -188 -1 0
-27 -9 -57 -20 -30 -11 -68 -20 -85 -19 -28 1 -27 2 20 24 64 31 30 33 -58 5
-43 -14 -65 -27 -72 -42 -13 -30 -123 -58 -117 -30 6 32 -92 4 -124 -35 -20
-26 -39 -33 -204 -79 -30 -8 -63 -14 -73 -12 -19 3 -18 4 0 28 11 14 23 38 27
54 4 16 25 55 47 87 21 32 39 64 39 72 0 8 10 17 23 21 12 3 47 35 77 72 69
83 118 134 129 134 5 0 14 -7 21 -15 17 -20 33 -19 55 5 10 11 24 20 31 20 7
0 57 -37 110 -82z m303 -154 c8 -7 -4 -12 -43 -19 l-38 -8 18 22 c16 19 45 21
63 5z m-504 -145 c-4 -5 -16 -9 -28 -9 -21 1 -21 1 -3 15 20 15 41 11 31 -6z"/>
<path d="M4140 4291 c-5 -11 -10 -24 -10 -29 0 -5 48 -51 107 -101 101 -86
108 -90 125 -74 10 9 18 22 18 29 0 16 -199 194 -217 194 -7 0 -17 -9 -23 -19z"/>
<path d="M4393 4088 c-23 -30 -22 -38 4 -62 25 -24 28 -24 45 -9 24 22 23 41
-4 64 -27 22 -33 23 -45 7z"/>
<path d="M3940 4001 c0 -6 9 -15 21 -21 18 -10 20 -9 17 7 -3 19 -38 32 -38
14z"/>
<path d="M4012 3943 c2 -10 11 -19 21 -21 16 -3 17 -1 7 17 -13 25 -33 28 -28
4z"/>
<path d="M4072 3888 c3 -7 12 -14 21 -16 12 -2 15 1 11 12 -7 19 -38 22 -32 4z"/>
<path d="M4276 3521 c-6 -10 3 -41 11 -41 7 0 32 33 33 43 0 10 -38 9 -44 -2z"/>
<path d="M8249 5649 c-37 -39 -38 -81 -4 -114 27 -28 79 -33 107 -11 31 23 48
66 37 95 -27 70 -90 83 -140 30z"/>
<path d="M9082 5411 c-9 -5 -5 -14 13 -31 24 -23 25 -23 25 -3 0 25 -21 45
-38 34z"/>
<path d="M9159 5333 c-1 -16 0 -40 1 -55 1 -16 -3 -28 -9 -28 -6 0 -11 12 -11
26 0 20 -4 24 -19 19 -13 -4 -23 0 -29 11 -5 9 -14 14 -21 10 -16 -10 -14 -43
4 -50 8 -3 15 -15 15 -27 0 -25 32 -82 68 -121 14 -15 21 -31 17 -38 -10 -16
13 -30 48 -30 42 0 33 -28 -15 -49 -43 -19 -43 -18 -68 3 -26 22 -70 49 -70
43 0 -2 4 -17 9 -33 5 -16 17 -56 26 -89 10 -33 23 -69 29 -80 6 -11 11 -27
12 -35 1 -8 11 -51 23 -95 11 -44 25 -120 31 -169 6 -49 13 -93 16 -98 3 -4
17 -8 32 -8 l27 0 -1 93 c-1 79 3 99 24 142 14 28 29 53 34 56 5 4 8 17 5 30
l-4 24 -8 -22 c-4 -13 -11 -23 -16 -23 -5 0 -9 10 -10 23 0 12 -3 16 -6 10 -9
-23 -33 -14 -33 11 0 14 -4 28 -10 31 -14 9 -13 42 2 51 7 4 27 7 44 6 26 -2
34 2 39 19 12 37 -29 151 -64 181 -12 10 -21 24 -21 32 0 7 -7 19 -15 26 -18
15 -20 34 -2 27 19 -7 12 62 -12 114 -10 24 -22 54 -26 67 -9 32 -35 28 -36
-5z m31 -98 c0 -8 -4 -15 -10 -15 -5 0 -10 7 -10 15 0 8 5 15 10 15 6 0 10 -7
10 -15z m61 -277 c0 -10 2 -10 6 0 7 18 30 14 36 -7 7 -28 -5 -40 -38 -37 -24
2 -31 8 -33 30 -2 18 1 26 12 26 9 0 16 -6 17 -12z m-51 -103 c0 -24 -5 -35
-15 -35 -18 0 -20 41 -3 58 17 17 18 16 18 -23z"/>
<path d="M8723 4583 c-17 -6 -16 -53 1 -94 10 -24 11 -39 4 -52 -5 -10 -7 -21
-4 -25 11 -11 20 9 20 46 0 32 -7 133 -8 131 -1 0 -7 -3 -13 -6z"/>
<path d="M3370 3509 c0 -26 3 -30 22 -27 26 3 37 36 16 49 -25 17 -38 9 -38
-22z"/>
<path d="M2857 3413 c-4 -3 -7 -17 -7 -30 0 -18 5 -23 25 -23 21 0 25 5 25 30
0 22 -5 30 -18 30 -10 0 -22 -3 -25 -7z"/>
<path d="M2897 3276 c-4 -9 -2 -26 3 -38 l9 -23 0 23 c1 13 7 22 17 22 20 0
13 24 -8 28 -9 2 -18 -4 -21 -12z"/>
<path d="M3410 3225 c0 -14 5 -25 10 -25 6 0 10 11 10 25 0 14 -4 25 -10 25
-5 0 -10 -11 -10 -25z"/>
<path d="M2693 3022 c-17 -11 -30 -182 -14 -182 6 0 11 15 11 35 0 19 5 35 10
35 6 0 10 6 10 13 0 8 9 25 20 37 12 13 20 33 18 45 -3 21 -34 31 -55 17z"/>
<path d="M2727 2723 c-4 -3 -7 -15 -7 -25 0 -12 7 -18 24 -18 22 0 36 16 36
41 0 10 -43 12 -53 2z"/>
<path d="M2820 2615 c0 -10 7 -15 18 -13 21 4 19 22 -2 26 -10 2 -16 -3 -16
-13z"/>
<path d="M3546 2375 c-6 -18 2 -45 15 -45 12 0 12 47 0 54 -5 3 -11 -1 -15 -9z"/>
<path d="M9842 2270 c0 -19 2 -27 5 -17 2 9 2 25 0 35 -3 9 -5 1 -5 -18z"/>
<path d="M2950 2113 c-58 -9 -283 -54 -390 -77 -106 -23 -110 -25 -50 -21 36
2 103 13 150 24 47 11 140 30 208 42 67 12 122 26 122 30 0 5 -3 8 -7 8 -5 -1
-19 -4 -33 -6z"/>
<path d="M2385 2004 c-11 -4 -212 -40 -309 -55 -61 -9 -85 -19 -49 -19 32 0
371 60 396 70 22 9 22 9 -3 9 -14 -1 -29 -2 -35 -5z"/>
<path d="M1520 1860 l-45 -7 45 0 c25 0 59 3 75 7 l30 8 -30 -1 c-16 0 -50 -3
-75 -7z"/>
<path d="M1367 1840 c-79 -10 -87 -24 -9 -16 64 7 131 26 87 24 -11 0 -46 -4
-78 -8z"/>
<path d="M1238 1813 c12 -2 30 -2 40 0 9 3 -1 5 -23 4 -22 0 -30 -2 -17 -4z"/>
<path d="M615 1740 l-40 -7 40 -1 c22 -1 47 3 55 8 18 12 10 12 -55 0z"/>
<path d="M370 1715 c-49 -10 -56 -13 -30 -14 49 -1 110 10 110 20 0 5 -3 8 -7
8 -5 -1 -37 -7 -73 -14z"/>
<path d="M10 1680 c-11 -7 -3 -10 30 -10 33 0 41 3 30 10 -8 5 -22 10 -30 10
-8 0 -22 -5 -30 -10z"/>
<path d="M310 1660 c-36 -5 -101 -9 -145 -10 -44 -1 -95 -9 -114 -16 -18 -8
-37 -11 -42 -8 -5 3 -9 0 -9 -7 0 -8 25 -10 95 -4 66 5 100 3 109 -4 10 -9 26
-7 62 8 27 10 82 22 122 26 39 4 72 11 72 16 0 10 -56 10 -150 -1z"/>
<path d="M9733 1075 c0 -22 2 -30 4 -17 2 12 2 30 0 40 -3 9 -5 -1 -4 -23z"/>
<path d="M9701 800 c-2 -25 -40 -385 -56 -530 -27 -243 -29 -270 -17 -270 13
0 19 32 28 145 7 103 8 115 22 216 15 107 36 422 29 440 -5 12 -6 12 -6 -1z"/>
<path d="M11730 571 c0 -11 -4 -23 -10 -26 -15 -9 -12 -25 5 -25 10 0 15 11
15 35 0 19 -2 35 -5 35 -3 0 -5 -9 -5 -19z"/>
<path d="M11726 381 c-4 -5 -7 -21 -8 -35 -2 -17 -8 -26 -20 -26 -9 0 -19 -9
-23 -19 -3 -11 -16 -21 -28 -23 -17 -2 -22 -10 -22 -33 0 -25 -5 -31 -30 -36
l-30 -7 32 -1 c35 -1 51 -17 34 -34 -6 -6 -11 -22 -11 -35 0 -13 -4 -20 -10
-17 -5 3 -10 15 -10 26 0 12 -7 19 -19 19 -25 0 -34 -37 -13 -50 16 -9 16 -9
0 -10 -23 0 -23 -12 1 -29 19 -14 19 -15 -5 -33 -13 -11 -24 -24 -24 -29 0 -5
45 -9 100 -9 l100 0 0 195 c0 107 -2 195 -4 195 -3 0 -7 -4 -10 -9z"/>
<path d="M10876 172 c-2 -4 -1 -14 4 -22 7 -11 12 -12 21 -3 6 6 8 16 5 22 -8
13 -23 14 -30 3z"/>
<path d="M11102 94 c-14 -10 -22 -26 -22 -44 0 -28 2 -29 45 -28 37 0 45 4 45
19 0 12 -7 19 -19 19 -14 0 -17 6 -13 25 5 29 -4 31 -36 9z"/>
<path d="M11457 103 c-11 -10 -8 -71 4 -78 5 -4 21 -4 35 -1 18 5 24 13 24 34
0 21 -2 24 -10 12 -8 -12 -10 -9 -10 13 0 19 -5 27 -18 27 -10 0 -22 -3 -25
-7z"/>
<path d="M10825 71 c-33 -11 -79 -35 -92 -47 -10 -10 -9 -13 3 -18 26 -10 67
5 97 35 37 40 36 45 -8 30z"/>
<path d="M11023 25 c-18 -20 -16 -25 10 -25 31 0 39 9 22 26 -16 17 -17 17
-32 -1z"/>
</g>
</svg>
