<?xml version="1.0" standalone="no"?>
<!DOCTYPE svg PUBLIC "-//W3C//DTD SVG 20010904//EN"
 "http://www.w3.org/TR/2001/REC-SVG-20010904/DTD/svg10.dtd">
<svg version="1.0" xmlns="http://www.w3.org/2000/svg"
 width="637.500000pt" height="533.800367pt" viewBox="0 0 637.500000 533.800367"
 preserveAspectRatio="xMidYMid meet">
<metadata>
Created by potrace 1.12, written by Peter Selinger 2001-2015
</metadata>
<g transform="translate(-140.500000,589.812333) scale(0.100000,-0.100000)"
fill="#000000" stroke="none">
<path d="M4233 5886 c-22 -8 -56 -24 -73 -36 -33 -23 -90 -95 -90 -113 0 -5
12 8 26 29 46 70 112 110 202 123 49 7 51 9 17 9 -22 0 -59 -5 -82 -12z"/>
<path d="M4415 5866 c63 -23 123 -58 190 -110 22 -17 33 -22 25 -12 -24 31
-152 112 -204 129 -73 25 -81 20 -11 -7z"/>
<path d="M4707 5660 c15 -22 34 -42 41 -45 7 -2 -4 16 -25 40 -46 56 -53 58
-16 5z"/>
<path d="M4780 5573 c13 -18 25 -33 27 -33 8 0 -17 38 -33 51 -11 9 -9 2 6
-18z"/>
<path d="M4825 5500 c9 -16 18 -30 21 -30 2 0 -2 14 -11 30 -9 17 -18 30 -21
30 -2 0 2 -13 11 -30z"/>
<path d="M4120 5456 c19 -21 44 -42 55 -48 11 -6 18 -9 15 -6 -3 2 -27 24 -55
48 -48 42 -48 42 -15 6z"/>
<path d="M4280 5357 c0 -2 15 -16 33 -33 l32 -29 -29 33 c-28 30 -36 37 -36
29z"/>
<path d="M2255 4751 c-3 -5 0 -13 6 -17 8 -5 9 -3 4 6 -5 8 -3 11 6 8 8 -3 20
-22 28 -44 9 -21 21 -43 28 -49 16 -13 43 -100 43 -142 0 -32 2 -33 39 -33 22
0 42 -3 44 -7 3 -5 -24 -8 -59 -8 -67 0 -110 -20 -66 -31 28 -8 29 -30 2 -44
-25 -13 -43 -55 -35 -81 8 -24 32 -25 38 -1 4 15 5 15 6 0 0 -9 -12 -23 -30
-32 -29 -14 -30 -14 -39 7 -7 16 -9 3 -9 -48 0 -38 -2 -115 -5 -170 -12 -207
-25 -472 -26 -512 0 -38 -3 -43 -23 -43 -19 0 -24 6 -25 28 -2 59 -63 789 -68
818 -4 18 -1 35 5 38 6 4 11 18 11 31 0 13 5 35 11 49 15 32 -2 57 -35 52 -16
-2 -22 -11 -24 -37 -1 -19 -7 -43 -12 -54 -27 -60 -34 -461 -12 -710 10 -115
18 -211 18 -211 -1 -1 -27 -4 -58 -8 -49 -5 -59 -3 -70 13 -12 17 -16 17 -33
5 -25 -19 -31 -18 -54 8 -18 18 -26 68 -11 66 14 -3 39 15 34 24 -7 12 38 -13
48 -26 8 -12 19 56 33 224 2 19 6 68 10 109 6 70 6 73 -13 69 -21 -6 -42 19
-42 50 0 24 30 50 52 47 18 -3 22 17 34 158 8 95 -2 167 -22 167 -20 0 -20
188 1 256 8 27 15 52 15 57 0 16 -17 6 -33 -20 -45 -72 -84 -104 -146 -119
-82 -19 -138 -54 -124 -78 3 -5 1 -6 -4 -3 -13 8 -36 -17 -25 -28 4 -5 1 -5
-6 0 -9 4 -25 -3 -45 -22 -18 -16 -45 -37 -60 -47 -18 -11 -26 -23 -23 -32 3
-8 2 -12 -4 -9 -28 17 -63 -172 -37 -204 8 -10 8 -13 0 -8 -13 8 -14 -3 -39
-316 -8 -109 -13 -205 -10 -213 3 -9 1 -12 -4 -9 -15 9 -12 -41 4 -54 7 -6 16
-37 20 -67 4 -31 14 -70 24 -86 13 -23 14 -32 4 -48 -16 -27 -16 -84 1 -74 9
6 9 4 -1 -8 -12 -15 -11 -33 5 -91 4 -14 11 -17 35 -12 l30 7 -6 -44 c-3 -23
-10 -61 -15 -83 -13 -49 -14 -68 -2 -61 4 3 16 -1 27 -8 17 -13 18 -18 6 -73
-31 -141 -54 -491 -31 -477 8 4 9 3 5 -5 -4 -6 -8 -29 -8 -52 0 -43 -18 -69
-48 -69 -27 0 -31 23 -31 164 1 129 -4 160 -12 76 -3 -25 -8 -52 -11 -61 -4
-9 -8 -36 -9 -60 -1 -24 -5 -46 -9 -49 -3 -3 -8 -21 -10 -40 l-3 -35 65 -6
c95 -10 160 -5 171 12 5 8 9 9 9 3 0 -15 74 -54 101 -54 16 0 19 4 14 18 -5
14 -4 15 7 4 11 -11 10 -16 -7 -28 -17 -13 -20 -29 -23 -147 -3 -110 0 -149
19 -232 12 -55 24 -148 27 -207 3 -95 6 -108 21 -108 22 0 142 39 157 51 6 5
14 51 17 101 4 51 13 111 21 133 11 29 15 87 16 217 0 107 4 179 10 183 6 3
10 15 10 26 0 13 7 19 23 19 23 0 23 -1 19 -90 -4 -85 -3 -91 20 -111 l24 -21
-17 -92 c-20 -107 -54 -615 -42 -626 18 -16 112 -39 176 -43 62 -4 69 -2 76
17 11 29 51 339 61 466 4 58 15 192 25 298 9 107 14 196 11 199 -3 4 -14 -1
-25 -11 -15 -13 -36 -16 -99 -15 l-80 2 -4 53 c-1 30 0 54 5 54 4 0 7 -22 7
-49 l0 -48 81 -2 c64 -2 79 1 73 11 -4 7 -4 10 1 6 4 -4 21 2 38 14 17 12 27
17 23 10 -9 -15 -3 -15 44 -1 35 11 41 9 72 -15 41 -31 88 -35 88 -8 0 29 -30
264 -35 272 -2 4 -7 34 -10 66 -10 95 -26 178 -38 193 -9 12 -9 13 1 7 10 -6
11 2 6 36 -9 64 -13 73 -26 60 -11 -11 -38 -5 -51 12 -8 11 0 149 12 206 9 44
32 58 64 41 23 -12 24 -16 15 -48 -13 -46 3 -64 32 -38 11 10 17 22 13 28 -3
5 -1 7 5 4 13 -9 74 82 65 97 -4 6 1 5 10 -3 9 -7 18 -11 18 -7 2 10 6 20 12
36 3 8 5 22 5 30 0 35 11 121 18 131 5 8 3 9 -7 4 -12 -7 -12 -6 -1 7 7 8 12
31 11 49 0 19 0 54 0 79 2 51 -5 106 -14 120 -3 6 -1 10 4 10 6 0 11 13 11 28
0 15 5 33 11 39 7 7 9 29 6 55 -6 43 -11 93 -21 218 -2 36 -8 99 -11 140 -4
41 -7 84 -6 95 0 10 -5 25 -10 32 -6 6 -8 16 -5 22 9 14 -33 121 -48 121 -7 0
-21 8 -32 18 -40 37 -91 71 -161 107 -60 30 -84 51 -138 116 -64 78 -78 88
-90 70z m225 -227 c0 -16 -2 -16 -24 -8 -13 5 -14 9 -5 20 13 16 29 9 29 -12z
m-796 -86 c-4 -7 -18 -26 -30 -43 -12 -16 -25 -40 -29 -52 -7 -27 -30 -30 -39
-7 -7 18 69 111 92 113 8 1 10 -4 6 -11z m266 2 c11 -7 5 -8 -20 -4 -43 8 -51
14 -19 14 13 0 31 -5 39 -10z m530 -15 c0 -7 -7 -18 -15 -25 -11 -9 -15 -9
-15 -1 0 7 -4 9 -10 6 -5 -3 -10 -1 -10 4 0 6 -3 10 -7 10 -22 -4 -43 2 -39
10 9 14 96 10 96 -4z m88 -7 c12 -15 9 -47 -17 -223 -11 -71 -18 -131 -16
-133 2 -3 0 -12 -5 -21 -4 -9 -11 -41 -14 -71 -3 -30 -13 -98 -21 -150 -9 -52
-14 -105 -12 -117 2 -12 0 -24 -4 -25 -7 -3 -20 -88 -22 -135 0 -7 -4 -13 -9
-13 -5 0 -7 -4 -4 -9 8 -12 -42 -1 -53 13 -15 18 -29 278 -32 583 -1 81 -5
120 -12 116 -5 -3 -7 -2 -4 4 3 5 24 10 47 10 41 0 45 -6 42 -50 -1 -12 2 -16
11 -11 9 6 9 4 0 -7 -7 -7 -13 -19 -13 -26 0 -7 6 -12 13 -10 13 2 13 -2 3
-48 -5 -20 -4 -27 3 -20 5 6 12 37 16 70 3 33 8 69 10 80 5 19 11 67 20 149 3
22 11 43 17 48 19 12 44 10 56 -4z m-176 -32 c3 -14 1 -31 -3 -38 -6 -8 -9 1
-9 25 0 42 6 48 12 13z m-665 -199 c-7 -11 -20 -23 -27 -25 -7 -3 -3 5 9 17
12 12 19 27 15 33 -5 7 -3 8 5 4 9 -6 9 -13 -2 -29z m-202 -149 c-4 -51 -11
-97 -17 -103 -11 -11 -5 166 7 185 14 23 16 5 10 -82z m1040 3 c-21 -43 -29
-39 -8 4 9 19 18 33 21 31 2 -2 -4 -18 -13 -35z m33 -118 c-16 -39 -28 -50
-22 -22 10 42 13 49 23 49 7 0 6 -10 -1 -27z m-732 -20 c-8 -15 -15 -25 -16
-21 0 12 23 58 27 54 3 -2 -2 -17 -11 -33z m460 11 c-4 -11 -2 -15 7 -11 8 3
14 -1 14 -8 0 -10 -5 -11 -19 -4 -10 5 -24 7 -31 3 -6 -4 -3 2 8 14 24 25 29
27 21 6z m-371 -75 c3 -4 -6 -7 -21 -6 -55 4 -58 -59 -3 -74 24 -7 24 -7 -3
-8 -15 -1 -30 4 -33 9 -4 6 -10 8 -15 5 -4 -3 -4 12 1 32 4 21 13 39 19 41 5
2 8 7 5 11 -2 5 7 6 20 3 14 -2 28 -8 30 -13z m797 -24 c7 -35 -12 -48 -48
-34 -16 7 -32 12 -36 11 -5 -1 -8 3 -8 8 0 12 13 13 26 1 5 -5 18 -12 30 -15
18 -6 20 -3 16 24 -5 36 14 41 20 5z m-884 -26 c-2 -6 -8 -11 -13 -11 -6 0
-15 -4 -21 -9 -7 -5 -11 -4 -11 5 0 8 8 13 19 11 10 -2 18 0 18 6 0 5 3 9 6 9
3 0 4 -5 2 -11z m404 -74 c-2 -14 -9 -25 -14 -25 -5 0 -7 3 -5 8 2 4 7 15 10
25 9 25 15 21 9 -8z m414 -37 c1 -8 -3 -22 -8 -29 -8 -11 -9 -10 -4 4 3 9 1
17 -3 17 -5 0 -11 6 -14 14 -4 9 0 13 10 12 9 -2 17 -10 19 -18z m-1188 -1
c14 6 15 5 2 -9 -15 -16 -31 -7 -29 17 0 6 3 5 5 -2 3 -7 13 -9 22 -6z m162
-127 c-6 -11 -15 -18 -20 -15 -4 3 -23 -7 -42 -21 l-33 -26 33 31 c18 17 37
29 41 26 5 -3 11 2 15 10 3 8 8 15 11 15 3 0 1 -9 -5 -20z m-133 -64 c-1 -19
-5 -32 -9 -30 -5 4 -5 49 1 62 6 13 11 -5 8 -32z m398 -73 c-4 -54 -9 -100
-12 -103 -2 -3 -3 41 -1 98 2 56 7 102 11 102 5 0 6 -44 2 -97z m315 50 c-4
-42 -5 -44 -8 -15 -3 30 2 62 10 62 2 0 1 -21 -2 -47z m492 -32 c2 -17 1 -28
-4 -25 -4 3 -8 -21 -9 -53 -1 -49 -15 -126 -18 -99 -1 5 -8 3 -16 -4 -19 -16
-19 -6 1 49 8 25 13 55 10 66 -3 12 -2 25 2 29 7 8 9 14 11 46 2 31 18 24 23
-9z m-249 2 c-4 -11 -3 -14 5 -9 7 4 12 2 12 -3 0 -6 -4 -11 -9 -11 -14 0 -23
18 -16 30 10 16 15 12 8 -7z m-841 -49 c-6 -12 -9 -7 -9 16 0 23 3 28 9 16 5
-9 5 -23 0 -32z m1022 34 c-5 -7 -2 -9 9 -5 11 4 14 2 10 -9 -4 -11 -9 -12
-19 -3 -12 10 -11 29 2 29 3 0 2 -5 -2 -12z m-323 -14 c-17 -13 -25 -14 -34
-5 -9 9 -8 11 4 6 10 -4 20 -2 24 4 3 6 11 11 18 11 6 0 1 -7 -12 -16z m-521
-72 c30 19 70 -4 70 -40 0 -15 -5 -33 -12 -40 -17 -17 -53 -15 -68 3 -7 8 -17
12 -24 8 -7 -4 -6 -1 1 7 10 11 16 10 33 -5 26 -23 55 -10 55 25 0 37 -30 49
-57 23 l-23 -22 -1 27 c-1 15 1 22 3 15 3 -9 9 -10 23 -1z m831 -34 c16 -29 2
-21 -22 15 -17 23 -18 28 -6 18 10 -8 23 -23 28 -33z m-418 -24 c0 -30 -4 -49
-12 -50 -8 -2 -8 -1 0 3 7 3 7 8 2 12 -5 3 -8 25 -5 49 5 55 14 47 15 -14z
m-623 5 c-10 -35 -20 -49 -20 -29 0 10 -3 10 -15 0 -8 -7 -15 -8 -15 -2 0 5 6
15 14 21 11 9 15 9 19 -1 3 -7 6 -4 6 8 1 18 9 34 17 34 1 0 -1 -14 -6 -31z
m295 -84 c-4 -53 -10 -94 -12 -91 -3 2 -2 48 2 101 4 53 10 94 12 91 3 -2 2
-48 -2 -101z m640 76 l20 -24 -22 14 c-13 8 -23 20 -23 28 0 8 1 12 3 10 1 -2
11 -15 22 -28z m-789 -3 c1 -12 -3 -15 -14 -10 -12 4 -13 7 -3 10 11 4 11 6 0
14 -12 8 -12 9 0 6 8 -2 15 -11 17 -20z m834 -61 c10 -20 10 -20 -3 -5 -8 10
-16 16 -19 13 -2 -3 -5 2 -5 10 0 19 14 10 27 -18z m-368 -39 c0 -18 -1 -35
-2 -38 -4 -9 -10 -113 -12 -212 -2 -54 -7 -98 -11 -98 -12 0 0 354 12 358 5 2
7 11 4 20 -3 9 -3 14 2 10 4 -4 7 -22 7 -40z m320 -303 c-5 -30 -19 -41 -19
-17 0 14 14 42 22 42 1 0 0 -11 -3 -25z m-230 -44 c7 11 9 11 6 1 -5 -17 -23
-17 -24 0 -1 9 1 8 4 -1 3 -12 5 -12 14 0z m-107 -156 c11 -229 11 -275 4
-275 -4 0 -7 24 -7 53 0 28 -4 124 -7 212 -4 88 -5 158 -2 155 3 -3 9 -68 12
-145z m-424 -190 c-11 -44 -20 -73 -20 -64 -1 23 32 166 35 154 2 -5 -5 -46
-15 -90z m-178 -17 c4 -26 2 -38 -6 -38 -9 0 -11 13 -9 41 5 47 7 47 15 -3z
m164 -130 c-2 -13 -4 -5 -4 17 -1 22 1 32 4 23 2 -10 2 -28 0 -40z m-184 12
c4 -17 3 -19 -9 -9 -8 6 -14 18 -14 26 0 20 16 8 23 -17z m1029 8 c-3 -14 -1
-19 6 -14 8 5 10 2 6 -8 -7 -18 -34 -22 -34 -5 0 11 19 49 24 49 2 0 2 -10 -2
-22z"/>
<path d="M4627 4727 c-25 -26 -72 -57 -86 -57 -5 0 -11 6 -14 13 -2 6 -3 5 -2
-5 2 -10 -11 -22 -39 -34 -22 -10 -48 -23 -56 -30 -8 -7 -38 -21 -66 -32 -89
-33 -163 -107 -170 -167 -1 -11 -10 -171 -19 -355 -17 -329 -18 -337 -48 -425
l-32 -90 0 -279 0 -279 25 -2 c13 -1 38 6 55 16 16 10 56 24 88 32 l57 15 0
-71 c0 -40 9 -108 19 -152 20 -83 71 -208 90 -219 6 -4 11 -37 11 -76 0 -38 5
-81 10 -96 9 -23 7 -29 -11 -42 -17 -12 -20 -22 -16 -53 5 -42 -9 -65 -16 -27
-2 13 -3 11 -2 -6 1 -16 -1 -45 -5 -63 -5 -19 -4 -30 1 -27 5 3 9 -12 9 -33 0
-23 -3 -33 -8 -25 -9 14 -5 -164 7 -276 6 -64 4 -81 -16 -130 -28 -70 -28 -78
-1 -93 31 -17 185 8 198 31 20 36 70 260 76 336 5 60 11 83 25 94 13 10 22 34
26 68 3 29 10 55 16 59 11 7 4 -126 -13 -222 -5 -33 -10 -101 -11 -152 -1 -51
-5 -91 -8 -89 -3 2 -5 -85 -3 -194 2 -174 5 -200 20 -214 31 -27 252 -50 252
-25 0 5 3 8 8 6 4 -3 7 95 8 216 0 134 6 248 13 287 7 36 15 88 17 115 2 28
35 235 73 460 54 321 70 444 76 566 7 153 8 156 26 138 12 -12 33 -19 55 -19
20 0 58 -12 86 -27 39 -21 51 -24 58 -14 12 20 19 106 26 334 4 114 10 210 14
212 4 3 4 24 0 47 -5 27 -4 48 2 56 8 9 8 20 -1 38 -6 14 -11 38 -11 53 0 16
-11 73 -25 127 -15 56 -28 136 -30 188 -6 139 -36 271 -71 307 -15 16 -33 29
-39 29 -7 0 -20 9 -31 21 -10 11 -46 40 -79 64 -34 24 -89 73 -123 110 -73 77
-92 79 -92 10 0 -26 -4 -44 -9 -41 -4 3 -16 -3 -26 -14 -15 -16 -16 -22 -5
-35 9 -11 16 -13 24 -5 16 16 23 12 29 -17 3 -18 0 -31 -11 -40 -14 -10 -15
-14 -3 -22 17 -11 6 -67 -15 -75 -19 -7 -18 -55 1 -62 21 -9 19 -50 -5 -74
-11 -11 -20 -25 -20 -30 0 -6 9 -18 20 -27 22 -19 26 -53 9 -70 -19 -19 -7
-58 17 -57 18 0 25 -11 43 -65 11 -36 27 -85 36 -109 14 -41 14 -45 -3 -67
-24 -30 -25 -110 -2 -110 9 0 15 9 14 23 -1 37 13 25 24 -20 7 -27 8 -44 2
-46 -6 -2 -10 -19 -10 -38 0 -26 4 -34 18 -34 13 0 20 -13 29 -47 13 -56 10
-63 -24 -63 -21 0 -23 2 -13 14 18 23 9 61 -15 61 -23 0 -34 -40 -16 -58 12
-12 15 -31 3 -23 -4 2 -32 -2 -62 -10 -71 -18 -124 -18 -140 1 -13 15 -50 21
-50 7 0 -4 12 -15 28 -24 20 -13 22 -18 10 -18 -10 0 -18 5 -18 10 0 6 -42 10
-105 10 -87 0 -105 3 -105 15 0 12 13 15 59 15 63 0 81 10 56 30 -13 11 -20
11 -39 0 -30 -15 -46 -6 -46 26 0 13 -4 24 -10 24 -5 0 -10 11 -10 25 0 20 5
25 25 25 20 0 25 5 25 25 0 14 -9 33 -20 42 -11 10 -20 21 -20 26 0 5 9 20 20
34 23 30 26 63 6 63 -8 0 -16 13 -18 30 -4 25 -1 29 16 27 16 -2 22 5 24 27 4
35 -14 58 -28 36 -7 -11 -10 -7 -10 18 0 20 6 35 15 38 13 5 15 32 13 172 l-3
166 25 6 c20 5 25 12 25 35 0 24 -5 31 -23 33 -23 4 -23 5 -18 95 8 133 10
155 19 163 11 11 8 54 -3 54 -6 0 -21 -10 -33 -23z m-330 -1280 c-2 -23 -3 -1
-3 48 0 50 1 68 3 42 2 -26 2 -67 0 -90z m10 -259 c-2 -18 -4 -6 -4 27 0 33 2
48 4 33 2 -15 2 -42 0 -60z"/>
<path d="M4895 4686 c-9 -13 -34 -36 -55 -51 -38 -26 -41 -27 -65 -11 -14 9
-30 14 -36 10 -6 -3 -13 3 -16 15 -6 22 -27 28 -38 11 -3 -5 -3 -20 0 -33 7
-27 40 -32 54 -8 7 11 13 10 36 -5 27 -18 27 -18 7 -27 -32 -15 -35 -37 -7
-65 21 -20 24 -31 19 -59 -6 -34 3 -42 24 -21 8 8 15 8 24 0 11 -8 14 -7 15 9
1 10 -2 19 -8 19 -5 0 -8 10 -6 23 1 16 -3 21 -15 19 -12 -2 -18 4 -18 18 0
12 -7 20 -17 21 -11 0 -13 3 -5 6 6 2 12 11 12 18 0 7 23 32 50 55 28 23 55
51 61 61 14 27 2 23 -16 -5z"/>
<path d="M7145 4660 c-15 -47 -7 -97 25 -146 28 -44 31 -47 36 -26 4 12 10 22
15 22 14 0 11 -20 -5 -36 -13 -12 -12 -19 2 -54 9 -22 20 -40 23 -40 11 0 23
72 20 118 -3 40 -2 42 26 42 27 0 29 -2 30 -47 1 -27 8 -70 16 -98 l14 -50 32
50 c17 28 43 85 56 127 20 64 23 82 13 103 -6 14 -14 25 -17 25 -3 0 -18 -15
-33 -34 -23 -28 -34 -34 -83 -39 -46 -5 -61 -2 -89 16 -19 12 -43 37 -54 56
-19 33 -20 33 -27 11z m53 -126 c-10 -10 -28 6 -28 24 0 15 1 15 17 -1 9 -9
14 -19 11 -23z"/>
<path d="M2321 4543 c-1 -52 2 -61 14 -57 18 7 18 25 0 79 l-13 40 -1 -62z"/>
<path d="M4666 4571 c-24 -26 -17 -56 13 -56 37 0 50 30 25 55 -20 21 -20 21
-38 1z"/>
<path d="M4735 4476 c-18 -13 -16 -46 3 -46 15 0 44 38 37 49 -8 14 -17 14
-40 -3z"/>
<path d="M4792 4398 c3 -20 -2 -23 -27 -23 -25 0 -31 -4 -33 -27 -4 -32 34
-61 44 -33 9 22 84 21 84 -1 0 -20 24 -13 28 8 2 9 -5 23 -14 32 -9 10 -16 28
-16 42 0 21 -5 24 -35 24 -30 0 -34 -3 -31 -22z"/>
<path d="M4662 4308 c-17 -17 -15 -45 4 -52 22 -9 46 13 42 38 -4 24 -28 32
-46 14z"/>
<path d="M7312 4295 c-6 -14 -7 -25 -2 -25 9 0 25 39 18 46 -3 2 -10 -7 -16
-21z"/>
<path d="M4789 4296 c-1 0 -3 -17 -4 -36 -4 -47 -5 -48 -16 -22 -10 27 -33 25
-37 -4 -4 -25 36 -64 47 -46 4 6 21 12 39 14 23 2 32 7 30 18 -1 8 4 26 11 38
7 13 10 27 6 30 -5 6 -72 13 -76 8z"/>
<path d="M4860 4215 c0 -17 5 -25 13 -22 6 2 12 12 12 22 0 10 -6 20 -12 23
-8 2 -13 -6 -13 -23z"/>
<path d="M4677 4193 c-13 -12 -7 -60 8 -73 32 -26 63 38 33 68 -13 13 -31 16
-41 5z"/>
<path d="M4783 4143 c0 -19 2 -22 8 -11 6 10 19 14 39 12 21 -3 30 1 30 11 0
11 -11 15 -39 15 -35 0 -38 -2 -38 -27z"/>
<path d="M4848 4124 c-3 -3 -20 -7 -38 -9 -18 -3 -35 -7 -39 -10 -11 -11 19
-21 53 -17 27 3 34 8 33 23 -1 21 -1 21 -9 13z"/>
<path d="M1933 4064 c-8 -22 9 -48 35 -52 16 -2 23 3 28 22 3 14 3 30 -1 35
-10 17 -55 13 -62 -5z"/>
<path d="M4680 4021 c0 -25 4 -31 21 -31 16 0 20 5 17 27 -2 17 -10 29 -20 31
-14 3 -18 -3 -18 -27z"/>
<path d="M4773 4038 c2 -7 18 -13 36 -13 17 0 35 -6 40 -14 6 -9 9 -5 9 13 0
24 -4 26 -45 26 -31 0 -43 -4 -40 -12z"/>
<path d="M4898 4005 c-9 -19 -9 -28 0 -37 15 -15 28 -2 37 35 9 36 -20 38 -37
2z"/>
<path d="M4774 3991 c-13 -14 1 -21 41 -21 25 0 45 4 45 9 0 9 -77 20 -86 12z"/>
<path d="M4850 3947 c0 -9 -13 -13 -37 -13 -21 1 -38 -4 -41 -12 -2 -8 10 -12
42 -12 42 0 46 2 46 25 0 14 -2 25 -5 25 -3 0 -5 -6 -5 -13z"/>
<path d="M4965 3939 c-13 -19 4 -59 25 -59 21 0 24 10 14 48 -7 23 -28 30 -39
11z"/>
<path d="M4683 3908 c-16 -20 -24 -66 -13 -73 29 -18 72 43 50 70 -15 18 -25
19 -37 3z"/>
<path d="M4890 3876 c0 -28 35 -57 56 -49 20 7 17 37 -4 56 -28 25 -52 22 -52
-7z"/>
<path d="M4767 3884 c-14 -14 6 -24 49 -24 30 0 44 4 44 13 0 14 -81 23 -93
11z"/>
<path d="M4762 3818 c3 -8 25 -14 57 -16 40 -2 52 0 49 10 -3 8 -25 14 -57 16
-40 2 -52 0 -49 -10z"/>
<path d="M4667 3783 c-12 -11 -7 -47 8 -67 18 -24 45 -14 45 16 -1 39 -34 71
-53 51z"/>
<path d="M4765 3769 c-9 -14 -7 -15 47 -23 29 -4 49 -3 53 4 7 12 -5 17 -57
24 -21 3 -40 1 -43 -5z"/>
<path d="M4935 3760 c-10 -17 23 -60 45 -60 26 0 26 31 2 53 -21 19 -38 22
-47 7z"/>
<path d="M4770 3720 c0 -5 1 -10 3 -11 1 0 23 -3 50 -6 48 -5 66 9 25 21 -36
9 -78 7 -78 -4z"/>
<path d="M4893 3699 c-5 -5 -8 -21 -5 -35 4 -20 10 -24 31 -22 18 2 26 9 26
22 0 24 -37 50 -52 35z"/>
<path d="M4766 3682 c-13 -13 -4 -20 40 -31 32 -8 50 -9 57 -2 11 11 7 13 -55
29 -20 6 -39 7 -42 4z"/>
<path d="M4958 3638 c-16 -5 -28 -17 -28 -25 0 -12 7 -14 32 -9 40 8 53 20 36
33 -9 7 -23 7 -40 1z"/>
<path d="M4645 3630 c-4 -7 -3 -16 3 -22 14 -14 65 -1 59 15 -5 16 -53 21 -62
7z"/>
<path d="M4760 3620 c0 -13 41 -29 84 -34 23 -2 32 -9 36 -27 8 -33 40 -38 40
-7 0 31 -23 62 -41 56 -8 -3 -31 1 -53 8 -46 17 -66 18 -66 4z"/>
<path d="M1870 3590 c-37 -37 9 -85 51 -51 25 20 21 44 -10 61 -17 8 -24 7
-41 -10z"/>
<path d="M4760 3567 c0 -10 14 -18 40 -22 22 -4 40 -12 40 -18 0 -7 5 -4 11 6
14 24 4 33 -48 42 -35 5 -43 4 -43 -8z"/>
<path d="M6591 3249 c-19 -11 -31 -25 -28 -33 3 -7 9 -34 12 -60 4 -25 8 -46
10 -46 1 0 17 8 36 17 18 9 48 17 67 17 l33 1 -2 52 c-3 56 -9 63 -65 69 -17
2 -44 -5 -63 -17z"/>
<path d="M6767 3193 c-12 -11 -8 -46 6 -62 11 -12 18 -113 30 -406 9 -214 16
-398 16 -408 0 -10 11 -42 25 -73 l25 -55 -30 -27 c-30 -27 -30 -27 -15 -72 8
-25 30 -102 49 -171 30 -105 35 -136 30 -190 -3 -35 -9 -66 -13 -69 -3 -3 -21
-48 -39 -100 -38 -109 -39 -172 -2 -275 25 -71 41 -89 70 -80 46 14 80 56 110
135 28 71 31 91 31 189 0 70 -4 112 -11 117 -7 4 -2 14 14 28 22 18 26 32 32
107 4 54 3 89 -3 93 -6 4 2 30 20 66 16 33 28 68 26 79 -2 11 8 30 23 44 25
22 27 32 34 139 5 82 4 127 -5 153 -13 38 -9 112 12 218 15 77 27 81 24 7 -1
-33 3 -77 11 -98 16 -45 16 -208 0 -234 -10 -15 -7 -28 16 -68 43 -79 38 -178
-28 -526 -28 -143 -35 -208 -37 -315 -1 -135 3 -165 24 -153 8 5 9 0 3 -17 -4
-13 -9 -53 -11 -89 -2 -55 1 -67 19 -86 32 -32 47 -52 47 -62 0 -16 54 -33
122 -39 59 -5 68 -4 68 11 0 9 7 16 15 16 12 0 13 9 8 48 -4 36 -15 57 -44 89
-41 45 -47 59 -26 66 9 3 7 9 -5 24 -22 24 -23 34 -3 27 20 -8 28 17 54 176
12 74 24 146 27 160 2 14 9 54 14 90 6 36 13 76 16 90 2 14 9 54 14 90 5 36
11 74 14 85 2 11 7 43 10 70 4 28 15 61 23 74 19 30 13 162 -12 254 -10 39
-12 64 -6 76 5 9 12 62 16 117 3 54 8 113 10 129 2 17 7 62 10 100 8 100 15
135 25 135 6 0 10 37 10 84 l0 85 30 -9 c28 -8 80 -13 108 -11 7 1 12 17 12
45 l0 43 -62 9 c-35 4 -70 8 -78 9 -10 0 -14 9 -12 24 1 13 -3 30 -9 37 -8 10
-8 14 0 14 6 0 11 6 11 13 0 8 -25 13 -87 15 -49 1 -135 7 -193 12 -118 11
-573 14 -583 3z m548 -2013 c7 -12 -22 -12 -50 0 -17 7 -15 9 12 9 17 1 35 -3
38 -9z"/>
<path d="M5237 3023 c-4 -3 -7 -11 -7 -17 0 -6 4 -4 10 4 7 12 12 11 32 -5
l23 -20 -19 23 c-20 23 -28 26 -39 15z"/>
<path d="M4269 2928 c-3 -22 -1 -34 4 -29 5 5 7 21 5 37 -3 27 -4 26 -9 -8z"/>
<path d="M4303 2915 c0 -22 2 -30 4 -17 2 12 2 30 0 40 -3 9 -5 -1 -4 -23z"/>
<path d="M5203 2870 c4 -15 30 -18 58 -6 10 5 19 -1 27 -16 6 -13 11 -18 11
-12 1 5 -5 18 -12 28 -11 15 -16 16 -41 5 -23 -11 -29 -10 -37 2 -9 12 -10 12
-6 -1z"/>
<path d="M4258 2833 c12 -2 30 -2 40 0 9 3 -1 5 -23 4 -22 0 -30 -2 -17 -4z"/>
<path d="M4422 2520 c0 -19 2 -27 5 -17 2 9 2 25 0 35 -3 9 -5 1 -5 -18z"/>
<path d="M4414 2446 c-3 -8 -4 -25 -1 -38 3 -17 5 -15 6 10 1 22 5 31 13 26 7
-4 8 -3 4 4 -10 16 -15 15 -22 -2z"/>
<path d="M4483 1550 c0 -25 2 -35 4 -22 2 12 2 32 0 45 -2 12 -4 2 -4 -23z"/>
<path d="M1860 1467 c-14 -12 -43 -62 -63 -110 -35 -80 -37 -93 -31 -147 10
-88 51 -125 138 -125 52 0 61 3 82 30 23 28 24 35 18 105 -4 41 -8 109 -10
150 -1 41 -3 79 -3 83 -1 10 -65 37 -88 37 -10 -1 -29 -11 -43 -23z"/>
<path d="M4470 1478 c0 -4 14 -8 30 -8 17 0 30 2 30 4 0 2 -13 6 -30 8 -16 3
-30 1 -30 -4z"/>
<path d="M4565 1455 c17 -9 36 -23 43 -32 6 -9 12 -12 12 -6 0 14 -53 53 -72
53 -7 0 1 -7 17 -15z"/>
<path d="M4490 1431 c0 -5 -12 -21 -26 -36 -26 -28 -48 -74 -40 -82 7 -7 64
26 74 42 8 16 42 11 42 -6 0 -5 5 -9 11 -9 7 0 9 11 6 30 -8 37 -2 37 48 3 26
-17 35 -20 25 -9 -33 41 -140 92 -140 67z m25 -20 c6 -11 -49 -71 -65 -71 -6
0 4 18 22 40 37 45 35 43 43 31z"/>
<path d="M5222 1390 c0 -19 2 -27 5 -17 2 9 2 25 0 35 -3 9 -5 1 -5 -18z"/>
<path d="M4674 1323 c19 -21 27 -39 23 -52 -3 -12 -1 -19 4 -15 18 11 8 41
-23 70 l-33 29 29 -32z"/>
<path d="M2169 1295 c-3 -3 -35 -8 -70 -11 -71 -6 -76 -8 -62 -26 9 -11 11
-117 3 -125 -7 -8 -5 -70 2 -85 6 -13 16 -16 41 -12 17 3 64 6 102 7 39 1 73
5 76 10 8 11 -2 67 -11 67 -16 0 -37 57 -35 93 0 21 -2 37 -5 37 -4 0 -6 10
-6 22 1 21 -23 36 -35 23z m9 -143 c2 -7 -6 -12 -17 -12 -21 0 -27 11 -14 24
9 9 26 2 31 -12z"/>
<path d="M4643 1230 c-23 -14 -33 -27 -32 -42 l2 -23 4 23 c2 12 18 29 34 37
16 9 29 18 29 20 0 7 -2 6 -37 -15z"/>
<path d="M4775 1221 c-3 -9 0 -11 10 -7 11 4 9 -3 -6 -23 -23 -31 -19 -51 9
-46 9 2 20 4 24 4 3 1 9 15 13 31 l7 31 34 -37 c18 -21 36 -35 39 -32 3 3 0
12 -7 20 -7 7 -22 24 -32 36 -19 22 -19 22 5 20 13 -2 29 -10 36 -18 6 -8 15
-12 19 -7 4 4 2 7 -4 7 -6 0 -9 7 -6 15 4 10 0 13 -15 10 -12 -2 -21 0 -21 4
0 14 -99 7 -105 -8z m35 -41 c-11 -20 -30 -28 -30 -12 0 11 22 32 32 32 5 0 4
-9 -2 -20z"/>
<path d="M4432 1083 c2 -16 10 -18 69 -15 88 5 84 26 -6 30 -56 3 -64 1 -63
-15z"/>
<path d="M4727 1028 c-5 -17 31 -48 57 -49 137 -4 206 7 190 32 -2 4 -45 8
-95 8 -49 0 -98 5 -109 11 -25 13 -37 13 -43 -2z"/>
<path d="M4211 985 c-17 -20 -31 -39 -31 -42 0 -4 3 -3 8 3 4 5 20 24 36 42
17 17 27 32 24 32 -3 0 -20 -16 -37 -35z"/>
<path d="M5085 908 l-50 -53 53 50 c48 46 57 55 49 55 -1 0 -25 -24 -52 -52z"/>
<path d="M4818 734 c-38 -20 -36 -28 2 -9 17 9 30 18 30 20 0 7 -1 6 -32 -11z"/>
<path d="M4708 679 c-32 -16 -58 -32 -58 -34 0 -5 119 52 129 61 13 12 -22 -1
-71 -27z"/>
<path d="M4200 651 c22 -32 103 -91 124 -91 6 0 -9 12 -34 25 -25 14 -60 42
-79 63 -33 37 -33 37 -11 3z"/>
</g>
</svg>
