<?xml version="1.0" standalone="no"?>
<!DOCTYPE svg PUBLIC "-//W3C//DTD SVG 20010904//EN"
 "http://www.w3.org/TR/2001/REC-SVG-20010904/DTD/svg10.dtd">
<svg version="1.0" xmlns="http://www.w3.org/2000/svg"
 width="2000.061556pt" height="1105.880892pt" viewBox="0 0 2000.061556 1105.880892"
 preserveAspectRatio="xMidYMid meet">
<metadata>
Created by potrace 1.12, written by Peter Selinger 2001-2015
</metadata>
<g transform="translate(0.061556,1106.000000) scale(0.100000,-0.100000)"
fill="#000000" stroke="none">
<path d="M0 10135 c0 -816 2 -925 15 -925 8 0 15 -6 15 -12 0 -23 14 -35 47
-43 26 -5 33 -3 33 9 0 9 5 16 10 16 13 0 13 -17 0 -25 -15 -9 -12 -25 5 -25
8 0 15 -6 15 -12 0 -8 17 -14 45 -15 25 -1 45 2 45 7 0 4 13 11 29 15 21 4 28
11 24 23 -4 16 5 17 98 14 68 -3 104 -1 108 7 4 6 19 12 34 13 20 2 28 9 32
30 6 25 11 28 51 28 49 0 59 14 17 25 -30 7 -22 16 27 29 19 6 21 5 10 -3 -8
-6 -10 -11 -5 -11 14 0 41 32 47 58 8 29 -15 46 -52 38 -30 -5 -30 -5 -29 37
0 23 3 36 6 30 8 -22 39 -14 53 12 17 32 45 29 45 -5 0 -20 5 -25 24 -25 30 0
39 21 11 28 -12 3 -20 13 -20 25 0 14 -8 22 -22 24 -27 4 -39 48 -14 48 9 0
16 -5 16 -11 0 -6 11 -8 28 -4 20 4 33 1 42 -10 8 -10 9 -15 1 -15 -6 0 -11
-7 -11 -15 0 -15 13 -19 62 -15 21 1 27 -2 22 -13 -3 -8 0 -18 6 -22 8 -5 6
-11 -7 -20 -15 -11 -15 -15 -4 -29 11 -13 11 -16 0 -16 -8 0 -5 -6 7 -15 18
-13 18 -14 -4 -8 -16 4 -22 11 -19 22 5 21 -18 43 -40 39 -15 -3 -48 -87 -37
-97 10 -10 33 -9 31 2 -1 6 5 12 14 14 23 5 34 -38 14 -53 -17 -13 -25 -81
-10 -86 6 -2 13 16 16 40 4 34 13 49 42 73 20 17 37 37 37 45 0 8 5 14 10 14
6 0 10 -11 10 -25 0 -14 -4 -25 -10 -25 -5 0 -10 -13 -10 -30 0 -23 -5 -30
-19 -30 -11 0 -23 -4 -26 -10 -3 -5 -1 -10 5 -10 6 0 9 -4 5 -9 -3 -5 2 -16
10 -25 18 -17 16 -36 -4 -52 -10 -8 -3 -19 38 -54 l50 -43 -17 -29 c-14 -25
-15 -30 -2 -38 8 -5 18 -6 22 -4 4 3 8 -2 8 -10 0 -9 6 -13 15 -10 9 4 16 -3
20 -19 6 -23 35 -41 99 -61 15 -5 16 -9 6 -21 -7 -8 -19 -15 -26 -15 -23 0
-16 -27 9 -34 45 -12 50 -8 44 32 -7 43 7 78 17 45 4 -11 4 -26 1 -34 -6 -16
16 -96 28 -98 4 0 12 -1 17 -1 7 0 7 -7 -1 -21 -8 -16 -8 -24 0 -32 9 -9 13
-6 18 11 7 29 28 22 27 -9 -1 -26 17 -49 39 -49 23 0 47 -11 47 -21 0 -5 -11
-9 -25 -9 -17 0 -25 -5 -25 -17 0 -29 13 -39 55 -42 43 -3 65 -16 65 -37 0 -8
6 -14 14 -14 16 0 29 -34 26 -67 -1 -18 4 -23 24 -23 21 0 26 -5 26 -25 0 -23
3 -25 51 -25 46 0 50 -2 47 -22 -3 -19 3 -24 37 -31 39 -8 55 -9 85 -5 38 4
59 -4 65 -22 3 -11 14 -20 24 -20 25 0 32 10 21 29 -8 16 -3 17 56 9 36 -4 68
-9 72 -11 4 -3 16 -1 27 3 15 5 9 8 -25 14 l-45 7 40 24 c29 18 41 21 47 12
10 -17 37 21 30 45 -2 11 2 20 13 24 13 6 14 9 3 16 -10 8 -10 9 2 5 8 -2 17
-12 18 -23 2 -10 7 -23 12 -27 11 -12 50 14 50 33 0 8 12 26 26 39 28 27 27
48 -2 43 -15 -2 -16 -1 -4 7 8 5 17 8 21 5 14 -8 19 46 7 66 -11 18 -9 24 19
50 30 28 36 60 12 60 -5 0 -9 5 -9 10 0 6 8 10 18 8 14 -2 16 3 14 30 -1 24 1
31 10 26 7 -5 9 -2 5 9 -3 9 -1 18 6 21 9 3 9 5 0 5 -6 1 -15 -3 -18 -9 -16
-26 -23 -5 -9 29 15 38 15 39 -10 64 -26 26 -26 57 0 57 9 0 14 11 14 30 0 28
-2 30 -21 19 -12 -6 -19 -7 -15 -1 3 5 -1 12 -9 16 -12 4 -12 11 5 48 l19 43
-24 8 c-21 7 -25 15 -25 48 0 21 -4 39 -10 39 -5 0 -10 7 -10 15 0 8 -6 15
-13 15 -9 0 -14 13 -14 35 0 19 4 35 9 35 14 0 9 41 -7 56 -10 11 -12 21 -6
32 5 10 5 26 0 41 -11 27 -4 55 10 46 6 -3 8 9 5 32 -17 114 -16 132 5 162 24
34 27 49 7 32 -22 -18 -33 43 -12 65 9 8 14 20 11 25 -4 5 -1 9 5 9 7 0 8 6 2
16 -10 17 -5 54 7 54 3 0 6 23 6 50 0 28 -3 50 -6 50 -11 0 -5 75 7 88 8 8 13
34 12 68 -2 37 2 58 11 64 11 6 11 12 -2 30 -12 17 -13 28 -6 42 7 12 6 25 -2
39 -6 12 -9 29 -6 39 2 9 1 24 -4 32 -6 10 -4 20 6 28 20 16 19 46 -1 54 -11
4 -13 10 -6 22 10 17 5 54 -7 54 -4 0 -8 14 -9 30 -1 17 2 30 8 30 6 0 10 26
9 63 0 68 -11 108 -23 89 -18 -29 -22 -8 -5 26 14 28 16 46 10 74 -6 26 -5 38
3 41 8 3 7 9 -3 20 -12 16 -10 62 5 101 3 7 -5 18 -18 24 -17 8 119 11 530 11
319 1 551 -3 548 -8 -3 -5 3 -11 14 -14 12 -3 20 -14 20 -26 0 -12 4 -21 9
-21 4 0 20 -11 35 -25 15 -14 22 -25 15 -25 -7 0 -2 -9 11 -20 13 -11 29 -20
35 -20 7 0 16 -11 19 -25 6 -22 11 -25 56 -25 28 0 50 5 50 10 0 20 47 10 57
-12 l10 -23 7 23 c6 17 14 22 37 20 24 -2 29 -6 26 -20 -3 -10 0 -18 6 -18 17
1 47 25 47 39 0 13 29 14 49 2 8 -6 24 -6 38 0 27 10 56 2 46 -14 -4 -7 7 -8
35 -3 34 5 40 3 36 -8 -8 -22 26 -74 53 -81 13 -3 21 -10 18 -14 -9 -16 6 -41
25 -41 11 0 22 -5 26 -12 4 -6 3 -8 -3 -5 -6 4 -25 2 -42 -4 -25 -9 -30 -15
-26 -30 4 -11 2 -19 -5 -19 -6 0 -18 -6 -26 -14 -12 -13 -12 -15 5 -21 10 -3
22 -18 26 -32 4 -19 9 -23 14 -14 14 21 20 -10 8 -36 -8 -17 -19 -23 -42 -23
-18 0 -38 -6 -45 -14 -6 -8 -24 -16 -38 -18 -15 -2 -26 -8 -25 -15 2 -6 -1
-33 -6 -58 -6 -34 -6 -44 2 -36 14 14 44 14 53 0 3 -6 2 -15 -4 -21 -6 -6 -8
-18 -5 -27 4 -13 3 -13 -5 -2 -17 23 -36 6 -39 -35 -7 -115 -11 -136 -23 -144
-11 -7 -11 -12 -2 -23 10 -11 9 -20 -3 -43 -16 -31 -2 -52 21 -33 9 7 15 5 22
-8 7 -12 6 -20 -3 -28 -8 -5 -16 -27 -19 -49 -4 -21 -9 -43 -13 -50 -3 -6 -3
-8 2 -4 13 12 35 -12 35 -38 0 -13 5 -24 10 -24 16 0 11 -40 -5 -41 -8 -1 -21
-2 -27 -3 -7 -1 -13 -14 -13 -29 0 -34 -26 -56 -59 -50 -13 3 -27 0 -30 -6 -8
-12 -46 17 -46 36 0 7 -7 13 -15 13 -19 0 -21 -86 -2 -93 9 -4 9 -6 0 -6 -7
-1 -20 10 -29 24 -11 16 -26 25 -43 25 -25 0 -27 -3 -23 -30 3 -23 0 -30 -13
-30 -17 0 -17 18 2 66 5 14 3 16 -13 10 -10 -5 -27 -11 -36 -13 -30 -9 -22
-46 12 -61 17 -8 30 -20 30 -28 0 -8 5 -14 10 -14 6 0 10 7 10 15 0 8 4 15 9
15 17 0 22 -19 11 -41 -10 -18 -8 -21 12 -27 l23 -6 -25 -7 c-14 -4 -38 -7
-54 -8 -25 -1 -28 2 -22 24 5 20 3 25 -14 25 -16 0 -20 -7 -20 -35 0 -31 3
-35 25 -35 28 0 45 -25 45 -69 0 -16 5 -42 10 -57 7 -17 7 -31 1 -38 -6 -7 -8
-22 -4 -34 3 -13 1 -22 -6 -22 -6 0 -11 11 -11 25 0 14 -7 28 -15 31 -8 4 -15
17 -15 30 0 30 -23 31 -50 4 -20 -20 -31 -20 -92 -3 -11 2 -18 14 -18 29 0 21
-4 24 -38 24 -38 0 -39 1 -52 50 -16 60 -47 90 -78 79 -27 -10 -28 -20 -2 -42
24 -20 26 -37 4 -37 -12 0 -15 -7 -12 -30 4 -23 1 -30 -13 -30 -19 0 -39 -43
-36 -80 1 -17 -4 -26 -17 -28 -31 -7 -50 -30 -37 -46 9 -10 8 -21 0 -42 -16
-39 -15 -194 1 -204 6 -4 12 -11 12 -16 1 -29 12 -35 23 -13 l13 22 7 -22 c4
-13 4 -38 0 -57 -3 -21 -2 -34 5 -34 5 0 10 -20 10 -45 0 -35 3 -43 15 -39 20
8 20 -37 0 -76 -9 -17 -11 -30 -6 -30 5 0 16 -11 25 -25 16 -24 15 -26 -3 -46
-16 -17 -18 -30 -14 -80 5 -49 3 -60 -11 -65 -14 -5 -16 -20 -15 -92 1 -69 -1
-86 -15 -94 -9 -5 -17 -21 -17 -36 -2 -24 -2 -25 -6 -4 l-5 23 -19 -22 c-10
-12 -19 -32 -19 -44 0 -13 -7 -39 -15 -58 -8 -20 -12 -43 -9 -52 4 -8 2 -21
-4 -28 -5 -6 -8 -20 -7 -29 2 -10 -5 -20 -17 -24 -15 -4 -17 -9 -9 -17 19 -19
13 -54 -10 -60 -12 -3 -18 -10 -14 -16 3 -6 1 -11 -4 -11 -6 0 -11 -12 -11
-27 0 -51 -11 -75 -31 -70 -14 4 -19 0 -19 -14 0 -10 5 -19 10 -19 23 0 8 -49
-27 -86 -48 -52 -86 -122 -80 -151 2 -13 1 -26 -4 -28 -7 -5 -24 -107 -19
-121 1 -6 -23 -29 -57 -52 -13 -9 -14 -14 -5 -18 15 -7 16 -54 1 -54 -7 0 -22
-11 -35 -25 -13 -14 -18 -25 -11 -25 7 0 18 -4 26 -9 11 -7 9 -14 -12 -37 -26
-28 -26 -29 -7 -39 20 -11 20 -11 -5 -35 -14 -13 -25 -29 -25 -37 0 -7 -9 -13
-20 -13 -14 0 -20 -7 -20 -24 0 -13 5 -26 11 -28 7 -2 4 -22 -9 -56 -11 -28
-17 -52 -14 -52 4 0 -6 -9 -21 -19 -31 -20 -35 -30 -17 -41 17 -11 -6 -52 -28
-49 -29 2 -46 -1 -39 -8 4 -3 -1 -12 -11 -19 -16 -12 -15 -13 6 -14 28 0 30
-30 2 -37 -30 -8 -27 -53 3 -53 21 0 23 -5 23 -42 -1 -39 -4 -43 -33 -51 -22
-7 -33 -17 -38 -36 -4 -14 -11 -29 -17 -32 -5 -4 1 -18 16 -34 14 -15 23 -31
20 -36 -9 -14 -14 -11 -25 19 -7 15 -13 22 -16 15 -3 -7 -11 -13 -19 -13 -15
0 -19 -21 -7 -34 14 -14 11 -36 -5 -37 -35 -2 -67 3 -70 12 -2 5 -12 9 -23 9
-12 0 -16 -5 -13 -15 4 -9 14 -14 23 -13 11 2 16 -4 15 -18 -1 -16 3 -20 17
-17 11 3 19 1 19 -5 0 -5 -9 -12 -19 -15 -14 -3 -18 -11 -14 -26 4 -17 1 -21
-21 -21 -14 0 -26 5 -26 10 0 6 -9 10 -20 10 -26 0 -26 -17 0 -25 11 -3 20
-10 20 -15 0 -12 -46 -24 -59 -16 -9 6 -51 -26 -51 -39 0 -10 28 -5 32 6 6 19
80 13 95 -7 12 -16 11 -19 -4 -25 -10 -3 -24 0 -31 8 -18 17 -32 17 -32 -2 0
-8 -9 -15 -19 -15 -11 0 -26 -7 -34 -15 -8 -8 -17 -12 -20 -9 -3 3 -8 -4 -12
-16 -7 -22 -26 -23 -33 -2 -2 7 3 12 12 12 24 0 38 35 28 72 -11 42 -32 49
-32 10 0 -26 -8 -40 -65 -104 -8 -10 -15 -27 -15 -38 0 -11 -6 -20 -14 -20 -8
0 -18 -9 -21 -20 -4 -11 -10 -18 -14 -16 -4 3 -13 1 -21 -5 -13 -7 -12 -9 3
-9 22 0 22 -22 -1 -43 -19 -18 -40 -21 -66 -11 -25 10 -19 22 15 29 44 10 22
23 -29 17 -33 -3 -42 -8 -38 -19 3 -8 6 -23 6 -33 0 -11 10 -20 25 -24 44 -11
27 -26 -30 -26 -58 0 -66 5 -38 26 29 21 4 37 -36 23 -28 -10 -31 -13 -17 -21
24 -13 19 -28 -9 -28 -16 0 -25 6 -25 15 0 10 -10 15 -30 15 -27 0 -30 -3 -30
-30 0 -36 -25 -41 -34 -8 -4 16 -8 20 -16 12 -7 -7 -8 -19 -1 -37 11 -29 6
-32 -37 -20 -17 4 -22 11 -19 24 3 11 1 22 -5 25 -11 7 -41 -24 -46 -46 -7
-29 -21 -33 -28 -6 -8 35 -45 35 -61 1 -6 -14 -8 -23 -3 -20 13 8 60 -61 60
-88 0 -14 -7 -27 -15 -31 -8 -3 -15 -16 -15 -29 0 -29 -18 -47 -46 -47 -12 0
-24 -7 -28 -15 -8 -22 4 -47 21 -41 8 3 23 6 34 6 12 0 19 7 19 20 0 10 9 24
20 30 11 6 18 15 15 21 -4 5 1 9 9 9 11 0 16 9 16 28 0 35 25 37 58 4 28 -28
28 -32 -4 -32 -30 0 -64 -33 -64 -62 0 -10 -5 -18 -11 -18 -5 0 -8 -4 -4 -9 6
-10 -6 -12 -67 -12 -32 -1 -37 -4 -43 -30 -6 -28 -7 -28 -31 -12 -20 13 -24
13 -22 2 2 -9 -7 -15 -24 -17 -20 -2 -28 1 -28 12 0 8 6 17 12 19 10 4 9 8 -2
16 -27 20 -45 8 -42 -27 3 -25 -3 -40 -22 -59 -24 -24 -25 -28 -11 -43 9 -10
32 -20 51 -23 20 -3 44 -16 55 -28 24 -28 24 -32 1 -20 -11 6 -24 6 -33 0 -23
-14 -59 -11 -59 6 0 9 -11 20 -24 27 -20 8 -28 7 -41 -6 -20 -20 -44 -21 -51
-1 -4 8 -10 12 -15 9 -11 -6 -12 -44 -1 -45 52 -7 65 -5 69 12 7 27 20 23 27
-7 9 -34 2 -40 -30 -25 -23 10 -26 10 -20 -4 3 -9 0 -18 -9 -20 -48 -15 -49
-15 -37 -27 15 -15 15 -45 0 -54 -7 -5 -8 -3 -3 5 5 9 1 9 -14 -1 -12 -7 -21
-18 -21 -25 0 -7 -4 -13 -10 -13 -5 0 -10 -9 -10 -21 0 -15 4 -19 16 -15 9 3
20 6 25 6 5 0 9 7 9 15 0 9 9 15 25 15 14 0 25 -5 25 -11 0 -17 -27 -39 -48
-39 -11 0 -22 -7 -26 -15 -3 -9 0 -15 9 -15 9 0 15 -10 15 -25 0 -13 7 -28 16
-33 12 -7 8 -14 -25 -37 -47 -32 -52 -51 -16 -65 28 -11 34 -30 9 -30 -13 0
-14 -3 -5 -14 7 -8 21 -12 33 -8 14 3 19 1 14 -6 -4 -7 2 -14 16 -17 13 -4 30
-16 39 -29 16 -21 16 -22 -3 -23 -11 -1 -29 7 -41 18 -19 17 -23 18 -36 4 -17
-17 -6 -35 25 -39 12 -2 20 -12 22 -27 l3 -24 -18 21 c-10 12 -26 20 -35 19
-13 -2 -18 3 -18 20 0 28 -40 56 -69 48 -15 -4 -21 -1 -21 11 0 24 -46 21 -53
-4 -4 -17 0 -20 32 -20 27 0 43 -7 58 -24 l21 -24 -27 -12 -26 -13 30 -12 c17
-7 35 -11 40 -8 6 2 1 -3 -9 -11 -25 -20 -75 -21 -82 -1 -4 8 -14 15 -24 15
-22 0 -35 -17 -18 -22 6 -2 9 -12 5 -21 -3 -9 -13 -14 -21 -11 -8 3 -17 1 -21
-5 -4 -7 3 -11 17 -11 13 0 28 -4 34 -10 6 -6 21 -6 42 -1 25 8 32 7 32 -5 0
-8 -9 -14 -20 -14 -13 0 -18 -5 -14 -15 4 -8 1 -15 -4 -15 -6 0 -12 8 -14 18
-2 9 -6 12 -10 7 -3 -6 0 -19 8 -30 13 -17 16 -18 25 -5 8 13 11 12 24 -5 9
-11 13 -26 10 -33 -3 -7 -2 -25 1 -39 9 -33 24 -11 24 34 0 17 6 35 13 39 6 4
9 4 5 -1 -4 -4 0 -14 8 -23 13 -12 17 -13 24 -2 4 7 13 9 19 6 17 -11 13 -46
-5 -46 -14 0 -14 -1 0 -16 9 -8 16 -20 16 -25 0 -5 11 -9 25 -9 23 0 25 -4 25
-40 0 -38 12 -52 25 -30 3 6 13 10 21 10 11 0 13 -6 8 -22 -3 -13 -11 -24 -15
-26 -5 -2 -9 -10 -9 -18 0 -8 -6 -14 -14 -14 -11 0 -14 -13 -13 -50 1 -28 6
-50 10 -50 4 0 12 0 19 0 9 0 9 3 0 12 -18 18 -15 58 5 65 10 4 23 12 28 19 6
7 22 16 38 20 24 5 27 3 27 -20 0 -14 -6 -26 -12 -26 -7 0 -2 -7 10 -16 12 -8
26 -13 30 -10 10 6 46 -34 37 -42 -3 -3 -19 -1 -35 5 -17 6 -30 7 -30 2 0 -5
4 -9 10 -9 5 0 12 -16 16 -35 9 -47 39 -49 39 -3 0 27 4 34 23 36 22 3 33 -23
12 -30 -6 -2 -12 -13 -15 -26 -2 -12 -7 -27 -10 -32 -3 -6 0 -10 8 -10 11 0
14 -13 11 -62 -2 -35 -8 -64 -14 -66 -6 -2 -8 -9 -4 -15 3 -7 -2 -3 -10 7 -9
11 -16 26 -16 33 0 22 -17 15 -24 -10 -8 -34 3 -64 31 -83 14 -9 22 -11 19 -5
-8 13 0 13 29 2 11 -5 25 -5 31 0 6 5 31 10 55 12 24 2 55 9 69 17 26 15 59
14 75 -1 15 -15 32 -10 38 10 3 11 17 22 35 26 17 3 40 15 53 26 18 16 41 21
84 19 3 0 16 11 29 25 14 15 40 29 60 32 20 3 36 11 36 18 0 12 55 40 73 36 4
0 7 3 7 9 0 5 7 10 15 10 8 0 15 4 15 9 0 5 11 12 25 15 14 4 25 10 25 15 0 5
17 18 37 29 68 35 117 64 161 93 24 16 46 29 50 29 5 0 27 18 51 40 23 22 47
40 52 40 5 0 27 18 49 40 22 22 45 40 50 40 6 0 10 5 10 10 0 6 8 10 17 10 9
0 33 17 53 39 40 43 145 131 157 131 5 1 22 12 38 25 24 20 26 25 12 25 -31 0
-13 25 20 28 21 2 33 10 36 22 3 11 17 24 31 30 14 5 26 17 26 26 0 8 43 57
95 108 52 51 95 100 95 109 0 9 11 19 25 23 28 7 31 14 14 31 -9 9 -5 14 15
19 16 4 26 13 26 24 0 10 7 23 15 30 22 18 19 27 -12 35 l-28 7 28 10 c35 13
34 21 -5 38 -18 7 -36 15 -40 18 -5 2 -8 -3 -8 -11 0 -9 6 -17 13 -20 9 -3 9
-7 -1 -20 -8 -9 -21 -13 -30 -10 -9 3 -14 3 -10 -2 11 -12 -11 -35 -26 -29 -8
3 -27 -9 -44 -25 -17 -17 -28 -31 -26 -31 3 0 0 -9 -6 -19 -5 -11 -28 -27 -50
-37 -22 -10 -40 -21 -40 -26 0 -4 -20 -8 -45 -8 -31 0 -47 -5 -51 -15 -7 -17
-34 -21 -34 -5 0 20 -20 9 -26 -15 -8 -31 -26 -46 -43 -36 -7 5 -12 11 -12 15
3 21 -2 26 -29 26 -23 0 -33 7 -45 31 -9 16 -25 39 -36 50 -22 22 -19 52 4 43
20 -7 36 37 30 83 -3 24 -1 43 5 47 6 4 9 13 5 22 -3 8 4 23 16 33 14 12 21
30 21 55 0 23 5 39 15 42 11 5 12 10 2 24 -9 16 -7 23 16 44 15 14 27 30 27
37 0 7 14 25 32 40 26 24 28 29 14 35 -23 9 -18 64 6 64 21 0 24 16 6 23 -10
3 -8 9 5 24 9 11 17 29 17 41 0 27 31 92 43 92 5 0 7 10 4 22 -4 14 0 30 12
43 13 14 20 40 23 87 4 71 13 92 28 68 8 -13 10 -12 10 3 0 9 -6 17 -14 17
-17 0 -29 42 -15 51 15 9 39 58 39 80 0 10 8 22 17 28 13 7 17 21 15 57 -1 29
3 51 11 57 9 7 9 10 0 14 -7 2 -13 15 -13 28 0 18 7 24 36 30 20 3 49 16 64
27 16 11 33 18 38 14 6 -4 8 2 4 16 -3 13 -1 19 5 15 6 -4 19 0 29 8 10 7 29
11 42 8 13 -3 22 -1 22 6 0 6 18 11 44 11 26 0 48 6 56 15 7 8 28 15 46 15 19
0 34 3 34 8 0 4 18 16 40 26 32 15 45 17 64 8 19 -9 25 -8 30 4 3 8 17 14 31
14 14 0 25 4 25 9 0 5 8 12 19 16 10 3 29 14 41 25 14 13 38 20 62 20 27 0 38
4 38 15 0 9 9 15 25 15 14 0 31 4 38 10 7 5 28 23 48 40 20 16 44 30 52 30 38
0 46 163 11 232 -34 67 -5 145 66 178 50 24 84 24 202 2 44 -8 183 11 198 27
3 4 22 15 43 26 22 10 47 29 57 42 10 13 23 23 28 23 6 0 17 6 24 13 7 7 33
23 58 35 25 12 59 33 75 47 48 40 165 147 193 178 14 15 31 27 39 27 7 0 13 4
13 9 0 13 217 223 351 341 34 30 67 61 73 69 6 7 54 57 106 112 122 125 190
199 190 205 0 4 7 13 57 72 13 15 23 33 23 40 0 6 5 12 10 12 7 0 7 6 1 19
-12 21 -5 31 21 31 10 0 18 6 18 13 0 7 8 20 18 28 11 9 25 37 32 62 9 28 22
49 35 55 12 6 30 31 40 58 10 27 25 55 32 62 7 7 13 26 13 42 0 16 4 30 9 32
13 5 -7 48 -23 48 -7 0 -16 -8 -19 -19 -3 -14 -11 -17 -30 -14 -23 5 -25 9
-20 39 5 33 -11 69 -27 59 -4 -2 -5 7 -2 22 6 30 31 58 61 68 12 3 21 11 21
16 0 5 7 9 15 9 8 0 15 5 15 10 0 18 39 10 45 -9 3 -10 15 -21 26 -24 20 -5
21 -3 15 36 -7 51 9 86 20 43 4 -18 11 -25 21 -22 8 3 19 6 23 6 10 0 -20 63
-32 68 -5 2 -8 8 -8 13 0 6 -12 21 -26 34 -21 19 -24 27 -15 44 10 17 8 20
-14 23 -14 2 -25 6 -25 11 0 4 0 21 0 37 0 17 5 30 10 30 6 0 10 -11 10 -24 0
-32 13 -39 58 -31 31 6 34 9 21 18 -8 7 -18 20 -22 29 -5 15 -2 16 25 11 30
-6 31 -5 26 27 -5 32 -5 32 30 26 19 -3 40 -11 46 -17 8 -9 8 -10 0 -6 -7 4
-17 0 -23 -7 -10 -11 -7 -19 10 -35 13 -12 28 -21 35 -21 6 0 17 -7 24 -15 7
-8 16 -15 21 -15 16 0 9 25 -10 40 -11 7 -18 17 -15 21 2 4 -2 14 -11 22 -13
13 -13 16 2 21 9 4 23 0 33 -9 33 -29 90 -13 90 26 0 9 13 32 30 50 16 19 30
42 30 51 0 22 46 112 65 128 8 7 15 20 15 30 0 9 9 29 20 43 11 14 17 32 14
41 -3 9 -1 16 5 16 6 0 11 11 11 25 0 14 7 28 15 31 22 9 18 23 -7 34 l-23 9
23 7 c13 4 22 14 22 25 0 11 8 34 18 53 14 26 17 51 15 110 -3 74 2 87 24 65
8 -8 13 -8 18 0 7 12 -17 41 -34 41 -6 0 -11 7 -11 15 0 8 8 15 18 15 27 0 51
33 40 55 -7 11 -6 21 1 28 6 6 11 25 11 43 0 25 5 33 24 38 16 4 24 13 25 28
0 13 4 46 8 73 7 44 11 50 31 48 14 -2 22 3 22 12 0 9 7 18 16 22 9 3 14 13
11 23 -3 13 3 19 24 24 24 4 29 11 30 36 2 42 3 47 11 55 4 4 4 13 2 20 -4 9
3 11 22 7 23 -4 25 -2 20 16 -7 20 -1 31 51 88 26 28 30 29 30 9 0 -8 -4 -15
-9 -15 -15 0 -8 -18 9 -24 11 -5 23 1 34 15 l17 22 27 -29 c33 -36 45 -65 38
-93 -6 -25 11 -25 39 -1 17 15 15 60 -2 60 -5 0 -11 14 -15 30 -6 28 -22 37
-57 31 -4 0 -13 9 -19 21 -9 17 -9 23 0 26 6 2 9 8 6 13 -4 5 1 6 9 3 9 -3 16
-14 16 -23 0 -14 2 -14 10 -1 5 8 10 10 10 4 0 -7 11 -15 24 -18 19 -5 25 -14
28 -38 l3 -33 22 24 c12 13 26 20 32 16 7 -3 10 -1 9 6 -2 7 5 15 15 17 27 6
21 -27 -8 -38 -14 -5 -25 -17 -26 -27 -1 -10 -2 -32 -4 -50 -2 -20 2 -31 9
-30 16 3 26 19 26 44 0 16 6 21 20 20 11 -1 20 -5 20 -10 0 -5 7 -16 17 -25
15 -16 16 -15 9 13 -16 73 -18 103 -6 110 6 4 17 2 23 -4 18 -18 37 -13 37 9
0 12 -7 20 -17 20 -15 0 -13 4 7 20 14 11 21 21 15 22 -5 2 2839 5 6320 8
6087 5 5946 5 -3672 8 l-10003 2 0 -925z m4156 899 c-4 -12 0 -15 17 -12 12 2
21 9 20 16 -2 6 4 12 13 12 9 0 12 -5 8 -12 -4 -6 1 -17 11 -25 18 -13 18 -13
-1 -13 -23 0 -58 -28 -69 -55 -8 -19 -9 -19 -12 2 -3 12 1 31 7 42 9 17 6 23
-15 37 -15 10 -34 14 -49 10 -14 -3 -28 -2 -31 4 -4 6 15 10 50 10 48 0 56 -3
51 -16z m379 6 c-4 -6 -16 -8 -27 -5 -14 5 -21 1 -25 -13 -3 -12 -21 -27 -44
-36 -27 -11 -39 -22 -39 -35 0 -11 -4 -23 -10 -26 -5 -3 -10 3 -10 14 0 23
-22 41 -28 23 -2 -7 -13 -12 -24 -12 -10 0 -26 -7 -34 -15 -9 -8 -29 -15 -45
-15 -26 0 -29 3 -29 31 0 20 4 29 13 26 6 -2 11 -11 9 -18 -2 -10 2 -9 14 3
17 17 17 20 1 53 l-17 35 151 0 c101 0 148 -3 144 -10z m481 -18 c-8 -16 -12
-39 -9 -51 3 -11 1 -27 -5 -34 -6 -6 -11 -30 -12 -52 -4 -81 -1 -97 20 -102
15 -4 18 -11 14 -28 -3 -13 -1 -26 5 -30 16 -9 3 -25 -20 -25 -15 0 -19 -7
-19 -34 0 -44 -13 -79 -40 -106 -15 -15 -20 -33 -20 -69 0 -29 -5 -51 -12 -53
-9 -3 -9 -12 2 -37 11 -27 11 -34 0 -41 -20 -12 -5 -39 19 -33 18 5 21 1 21
-31 0 -24 -5 -36 -14 -36 -29 0 -36 -30 -41 -166 -7 -189 -7 -191 -36 -261 -4
-13 -6 -30 -2 -39 3 -9 0 -20 -8 -25 -12 -8 -12 -11 2 -22 8 -6 18 -20 22 -31
4 -10 13 -16 21 -13 15 6 39 -16 49 -45 4 -10 11 -18 16 -18 6 0 10 -24 9 -54
-1 -44 -6 -57 -26 -72 -30 -23 -98 -27 -135 -8 -28 15 -30 14 -75 -28 -28 -26
-46 -50 -44 -60 2 -10 -4 -21 -12 -24 -9 -4 -16 -18 -16 -34 0 -16 -6 -35 -13
-42 -6 -7 -21 -30 -32 -50 -11 -21 -23 -38 -27 -38 -3 0 -10 -9 -13 -20 -3
-11 -14 -20 -23 -20 -9 0 -31 -13 -47 -28 -17 -16 -35 -27 -42 -25 -6 2 -14
-10 -18 -26 -8 -37 -21 -40 -31 -8 l-7 22 -10 -22 c-5 -12 -22 -25 -38 -28
-15 -4 -33 -13 -40 -21 -6 -8 -19 -14 -29 -14 -9 0 -23 -11 -30 -25 -7 -14
-19 -25 -27 -25 -7 0 -13 -11 -13 -25 0 -26 -15 -34 -23 -12 -3 6 -6 3 -6 -7
-1 -11 -8 -28 -18 -38 -9 -11 -11 -18 -5 -18 25 0 10 -19 -22 -30 -27 -8 -33
-15 -29 -30 3 -11 1 -20 -4 -20 -5 0 -7 -15 -5 -34 3 -28 0 -35 -18 -41 -20
-6 -22 -12 -18 -71 3 -53 1 -64 -12 -64 -13 0 -13 1 0 10 9 6 10 10 3 10 -6 0
-14 14 -18 30 -7 30 -21 41 -22 18 -6 -94 -18 -174 -27 -180 -22 -15 -54 -8
-59 12 -3 14 -10 18 -21 14 -23 -9 -15 -26 18 -42 21 -11 26 -20 24 -40 -4
-34 -30 -40 -43 -10 -6 14 -22 25 -42 29 -30 6 -33 4 -33 -17 0 -13 8 -28 18
-34 13 -8 6 -9 -30 -4 -33 4 -48 3 -48 -5 0 -6 -17 -11 -39 -11 -37 0 -39 2
-44 38 -5 31 -10 37 -31 37 -13 0 -22 -3 -19 -7 2 -5 0 -8 -5 -8 -14 0 -25 34
-13 38 13 4 15 62 2 62 -5 0 -11 -5 -13 -12 -6 -16 -28 -1 -28 19 0 9 7 24 16
34 17 19 13 49 -6 49 -5 0 -10 -8 -10 -18 0 -11 -11 -24 -24 -30 -21 -9 -25
-8 -30 11 -3 12 -1 24 4 25 17 6 11 26 -10 40 -20 12 -28 52 -10 52 6 0 10 7
10 16 0 8 5 12 10 9 6 -3 10 -2 10 3 0 5 11 12 25 14 31 6 33 -14 4 -43 -22
-22 -22 -60 -1 -67 7 -2 16 6 19 18 4 13 11 19 20 15 11 -3 13 -1 9 10 -3 8
-1 15 4 15 16 0 12 96 -5 110 -8 7 -15 9 -15 4 0 -20 -20 23 -20 44 0 28 13
28 31 1 11 -16 20 -19 41 -14 28 7 32 31 9 73 -10 18 -9 22 4 22 10 0 15 10
15 31 0 17 -4 28 -10 24 -14 -8 -30 38 -30 85 0 30 4 40 21 45 15 5 18 10 9
20 -6 8 -21 15 -33 17 -14 2 -23 11 -25 26 -2 12 -8 20 -13 17 -5 -4 -9 -1 -9
5 0 6 -4 9 -9 5 -5 -3 -19 7 -30 21 -16 21 -20 35 -15 61 4 21 2 39 -6 49 -16
19 -1 37 23 28 18 -7 24 -34 7 -34 -5 0 -10 -4 -10 -10 0 -5 9 -10 20 -10 11
0 20 -5 20 -11 0 -22 53 -61 74 -53 26 10 19 41 -14 56 -40 17 -38 28 5 28 23
0 35 -5 35 -14 0 -18 33 -26 52 -12 8 6 18 28 22 49 4 20 11 37 16 37 6 0 10
18 10 40 0 22 -5 40 -11 40 -5 0 -8 4 -4 9 3 5 1 12 -5 16 -17 11 -11 39 15
64 30 28 34 66 7 59 -12 -4 -18 1 -19 13 -1 12 5 19 17 19 39 0 49 10 43 42
-4 23 -2 34 11 44 15 10 15 15 4 33 -7 12 -18 21 -25 21 -28 0 -11 19 20 22
26 2 32 7 33 28 2 55 4 60 28 60 26 0 42 26 27 44 -12 15 -1 76 15 83 8 3 11
9 8 14 -3 5 0 9 6 9 7 0 29 14 50 30 21 17 45 30 54 30 12 0 16 10 16 40 0 29
4 40 15 40 9 0 12 6 9 15 -8 20 13 45 37 45 12 0 19 7 19 20 0 11 -4 20 -10
20 -16 0 -12 25 9 49 11 12 17 30 14 41 -3 11 -1 20 5 20 6 0 14 9 17 20 5 16
12 19 28 14 19 -6 20 -5 8 9 -21 26 -7 46 28 41 19 -3 31 -1 31 6 0 6 5 8 10
5 6 -3 10 3 10 14 0 22 14 28 25 11 11 -18 32 -10 44 17 18 40 31 12 31 -70 0
-82 21 -120 58 -106 12 5 22 15 22 24 0 8 5 15 10 15 13 0 13 84 1 108 -34 65
-42 96 -39 160 2 37 9 77 16 89 7 12 12 44 12 70 0 28 6 58 15 69 8 10 15 27
15 37 0 10 13 29 29 43 19 16 28 32 26 44 -4 19 3 20 216 20 l220 0 -15 -28z
m2143 17 c-16 -6 -35 -6 -50 0 -20 8 -16 10 26 10 43 -1 46 -2 24 -10z m-3399
-110 c0 -5 -11 -9 -25 -9 -24 0 -32 10 -19 22 8 8 44 -3 44 -13z m390 -51 c0
-4 -9 -8 -20 -8 -10 0 -24 -8 -29 -17 -9 -16 -10 -15 -11 7 0 21 5 25 30 25
17 1 30 -3 30 -7z m-230 -74 c0 -8 -7 -14 -15 -14 -10 0 -15 10 -15 26 0 22 2
25 15 14 8 -7 15 -19 15 -26z m72 -16 c-6 -6 -16 -7 -22 -3 -9 6 -9 9 1 16 17
10 34 0 21 -13z m2218 -523 c0 -8 -4 -15 -9 -15 -13 0 -22 16 -14 24 11 11 23
6 23 -9z m-130 -80 c0 -8 -4 -15 -10 -15 -5 0 -10 7 -10 15 0 8 5 15 10 15 6
0 10 -7 10 -15z m132 0 c0 -5 -5 -11 -11 -13 -6 -2 -11 4 -11 13 0 9 5 15 11
13 6 -2 11 -8 11 -13z m-57 -25 c-3 -5 -15 -10 -26 -10 -10 0 -19 5 -19 10 0
6 12 10 26 10 14 0 23 -4 19 -10z m82 -51 c3 -10 12 -19 19 -19 17 0 18 -42 2
-58 -10 -10 -7 -16 10 -28 14 -9 22 -26 22 -44 0 -41 10 -60 30 -60 20 0 30
-19 30 -56 0 -15 -6 -24 -15 -24 -8 0 -15 7 -15 15 0 8 -9 15 -20 15 -28 0
-25 -24 5 -40 21 -11 25 -19 20 -42 -4 -17 -2 -28 4 -28 24 0 9 -21 -18 -26
-22 -5 -27 -10 -24 -25 6 -22 -13 -49 -35 -49 -8 0 -12 3 -9 6 11 11 -13 44
-27 38 -11 -4 -12 -13 -5 -37 5 -18 14 -33 19 -35 12 -4 14 -62 2 -62 -4 0
-14 6 -21 13 -10 10 -15 9 -25 -5 -14 -18 -26 -14 -26 9 0 7 8 13 18 13 15 0
18 6 14 30 -2 17 -10 30 -18 30 -8 0 -14 5 -14 10 0 6 -7 10 -15 10 -8 0 -15
9 -15 19 0 11 -9 22 -19 26 -43 13 -35 61 13 73 38 10 44 45 9 50 -18 3 -23
-2 -23 -17 0 -17 -6 -21 -35 -21 -19 0 -35 -4 -35 -10 0 -5 -18 -10 -40 -10
-22 0 -40 5 -40 10 0 6 12 10 26 10 14 0 37 9 51 20 14 11 36 20 49 20 17 0
24 6 24 19 0 12 9 21 25 25 30 8 33 26 5 26 -11 0 -23 7 -26 15 -4 8 -17 15
-30 15 -13 0 -24 5 -24 10 0 6 4 10 9 10 5 0 16 3 25 6 11 4 16 1 16 -10 0
-10 9 -16 24 -16 33 0 42 37 14 62 -26 22 -38 23 -38 3 0 -23 -14 -18 -26 9
-9 19 -8 26 6 36 17 12 16 14 -7 36 -14 13 -22 28 -18 34 5 8 13 5 26 -9 25
-27 34 -26 60 2 26 31 79 34 86 6z m-2402 -77 c-4 -13 -12 -19 -21 -15 -17 6
-18 19 -1 38 16 18 31 3 22 -23z m2255 -143 c0 -6 -9 -13 -20 -16 -11 -3 -20
-9 -20 -14 0 -5 -11 -9 -25 -9 -16 0 -25 -6 -25 -16 0 -17 -22 -14 -28 4 -2 7
3 12 12 12 9 0 16 5 16 10 0 6 6 10 14 10 7 0 19 7 26 15 14 17 50 20 50 4z
m-5396 -140 c-3 -5 -11 -9 -18 -9 -17 0 -28 38 -12 43 13 6 38 -22 30 -34z
m-52 6 c0 -5 -5 -11 -11 -13 -6 -2 -11 4 -11 13 0 9 5 15 11 13 6 -2 11 -8 11
-13z m78 -41 c0 -8 -4 -14 -10 -14 -5 0 -10 9 -10 21 0 11 5 17 10 14 6 -3 10
-13 10 -21z m-38 -34 c7 -1 -2 -9 -21 -19 l-34 -18 28 -7 c22 -6 26 -11 23
-31 -3 -13 0 -26 6 -28 6 -2 -5 -11 -24 -20 -33 -15 -34 -16 -12 -22 12 -4 22
-11 22 -15 0 -11 -30 -34 -30 -24 0 5 -5 2 -10 -6 -7 -11 -10 -7 -10 18 0 17
-4 32 -10 32 -5 0 -8 6 -6 13 3 6 7 25 10 40 4 18 11 25 19 21 9 -5 9 -4 0 7
-7 7 -13 21 -13 31 0 10 -4 18 -10 18 -5 0 -10 7 -10 15 0 8 9 15 19 15 11 0
23 5 27 12 5 7 10 4 15 -10 5 -12 14 -22 21 -22z m-89 -86 c-9 -23 -33 -16
-33 9 0 13 3 27 7 31 11 10 33 -23 26 -40z m157 2 l9 -21 7 23 c8 27 34 29 34
2 0 -11 -5 -20 -11 -20 -7 0 -17 -7 -23 -16 -14 -19 -42 -9 -49 18 -3 11 -10
17 -16 13 -6 -3 -11 2 -11 13 0 27 48 17 60 -12z m5568 -31 c0 -14 -4 -25 -9
-25 -5 0 -9 11 -9 25 0 14 4 25 9 25 5 0 9 -11 9 -25z m-2728 -75 c0 -5 -9
-10 -20 -10 -11 0 -20 5 -20 10 0 6 9 10 20 10 11 0 20 -4 20 -10z m-152 -153
c6 0 12 -6 12 -14 0 -7 5 -13 10 -13 6 0 5 -6 -2 -14 -7 -8 -16 -12 -20 -9 -5
2 -8 0 -8 -5 0 -12 -38 -4 -45 9 -3 4 -3 20 1 34 5 19 11 24 23 19 9 -3 22 -7
29 -7z m-2918 -61 c0 -34 -35 -48 -37 -16 -1 14 4 20 18 20 10 0 19 -2 19 -4z
m-47 -60 c30 -23 20 -36 -27 -36 -49 0 -76 7 -76 21 0 5 9 9 19 9 11 0 23 5
26 10 9 14 37 12 58 -4z m517 -106 c0 -4 10 -11 23 -15 21 -7 21 -7 2 -12 -10
-3 -21 0 -23 6 -2 6 -14 11 -27 11 -26 0 -42 16 -23 23 17 5 48 -3 48 -13z
m2450 -25 c0 -8 -4 -15 -10 -15 -5 0 -10 7 -10 15 0 8 5 15 10 15 6 0 10 -7
10 -15z m80 1 c0 -8 -4 -17 -9 -21 -6 -3 -9 4 -8 15 1 23 17 28 17 6z m-166
-53 c3 -7 11 -13 18 -13 9 0 14 -21 15 -70 1 -64 -1 -72 -22 -86 -13 -9 -29
-13 -35 -9 -8 5 -10 -1 -8 -16 2 -16 -2 -24 -12 -25 -8 0 -21 -2 -27 -2 -9 -1
-13 -19 -13 -52 0 -38 -4 -50 -15 -50 -19 0 -22 100 -2 101 10 0 10 2 0 6 -7
2 -13 11 -13 19 0 9 -4 13 -9 9 -17 -10 -24 18 -8 30 19 14 22 40 7 50 -5 3
-10 16 -10 28 0 31 46 36 55 7 4 -11 13 -20 22 -20 11 0 14 10 12 38 -3 61 0
71 21 69 11 -1 22 -7 24 -14z m166 -8 c0 -13 -7 -28 -16 -33 -9 -5 -14 -18
-12 -28 2 -15 13 -20 51 -22 42 -3 47 -6 47 -27 0 -20 -4 -23 -29 -20 -22 3
-30 -1 -34 -16 -6 -24 -41 -23 -43 1 0 8 -4 22 -7 30 -11 30 -14 129 -3 134
29 12 46 5 46 -19z m-2480 -21 c0 -17 -22 -14 -28 4 -2 7 3 12 12 12 9 0 16
-7 16 -16z m2408 4 c-3 -7 -11 -13 -18 -13 -7 0 -15 6 -17 13 -3 7 4 12 17 12
13 0 20 -5 18 -12z m-2354 -44 c9 -3 16 -10 16 -14 0 -12 -33 -5 -38 8 -4 14
0 15 22 6z m2356 -35 c0 -12 -29 -24 -37 -16 -3 4 -3 13 0 21 6 16 37 11 37
-5z m-2227 -131 c-3 -16 -9 -28 -14 -28 -11 0 -12 53 -2 64 12 12 22 -9 16
-36z m1977 -3 c0 -8 -7 -15 -15 -15 -26 0 -18 20 13 29 1 1 2 -6 2 -14z m165
7 c6 -4 10 -13 9 -19 -1 -7 -2 -17 -3 -23 -2 -14 -41 22 -41 37 0 14 19 17 35
5z m125 -7 c0 -9 -9 -15 -25 -15 -16 0 -25 6 -25 15 0 9 9 15 25 15 16 0 25
-6 25 -15z m-40 -193 c-5 -9 -12 -26 -15 -37 -7 -20 -7 -20 -15 0 -10 28 -2
51 20 52 15 1 17 -2 10 -15z m-85 -65 c15 -30 17 -41 7 -45 -6 -2 -12 -10 -12
-18 0 -26 -19 -14 -22 14 -2 19 -9 28 -25 30 -18 3 -23 10 -23 31 0 24 4 28
28 28 23 0 32 -8 47 -40z m-1714 -186 c-13 -23 -21 3 -14 45 l7 39 7 -35 c4
-19 4 -41 0 -49z m319 63 c0 -14 -3 -14 -15 -4 -8 7 -15 14 -15 16 0 2 7 4 15
4 8 0 15 -7 15 -16z m91 -2326 c20 -25 25 -48 10 -48 -5 0 -17 -3 -26 -6 -13
-5 -16 0 -14 35 2 22 5 41 7 41 2 0 12 -10 23 -22z m-33 -96 c2 -7 -3 -12 -12
-12 -9 0 -16 7 -16 16 0 17 22 14 28 -4z m-39 -61 c-15 -5 -22 6 -14 19 6 9
10 9 16 -1 5 -8 4 -15 -2 -18z m-299 -63 c0 -21 16 -24 24 -5 3 6 3 1 0 -13
-8 -32 -10 -34 -27 -27 -8 3 -19 18 -24 34 -9 25 -8 29 8 29 12 0 19 -7 19
-18z m-159 -78 c10 0 19 -4 19 -9 0 -5 12 -14 28 -19 l27 -10 -28 -1 c-15 -1
-30 -8 -33 -16 -8 -20 -24 -9 -24 16 0 17 -17 25 -45 19 -5 -1 -1 7 10 18 11
10 22 15 23 11 2 -5 12 -9 23 -9z m119 -59 c0 -5 -9 -11 -20 -14 -22 -6 -28 8
-7 16 19 8 27 8 27 -2z m-136 -163 c-6 -45 -14 -48 -14 -5 0 21 4 37 9 37 4 0
7 -14 5 -32z m-104 -68 c0 -26 3 -30 29 -30 24 0 30 5 36 33 5 22 9 27 12 14
6 -25 -29 -97 -47 -94 -28 4 -67 107 -40 107 6 0 10 -13 10 -30z m-155 -30
c13 -21 -6 -50 -31 -50 -22 0 -24 3 -18 23 10 33 36 47 49 27z m101 -17 c3
-16 8 -37 11 -47 4 -16 1 -18 -18 -13 -13 4 -27 7 -30 7 -12 0 -16 35 -8 58
12 31 37 28 45 -5z m-135 -145 c1 -4 2 -13 3 -18 0 -6 8 -15 16 -20 10 -7 -10
-10 -62 -10 -46 0 -78 4 -78 10 0 6 7 10 15 10 8 0 24 9 35 20 19 19 69 24 71
8z m-73 -94 c10 -17 52 -12 52 7 0 5 5 9 10 9 16 0 12 -39 -7 -71 -16 -27 -53
-41 -53 -19 0 6 -7 10 -15 10 -11 0 -15 11 -15 40 0 41 12 52 28 24z m162 -9
c0 -15 -6 -25 -14 -25 -7 0 -16 11 -18 25 -4 19 -1 25 13 25 14 0 19 -7 19
-25z m-190 -131 c0 -73 -23 -69 -26 4 -1 39 2 52 12 52 10 0 14 -15 14 -56z
m138 32 c-8 -15 -6 -22 12 -36 l22 -16 -26 -17 c-40 -27 -49 -22 -42 21 3 20
6 45 6 54 0 10 7 16 19 15 16 -1 18 -5 9 -21z m152 -41 c0 -16 6 -25 15 -25 8
0 15 -5 15 -10 0 -16 -36 6 -44 26 -9 23 -7 34 4 34 6 0 10 -11 10 -25z m-235
-23 c0 -30 -18 -28 -27 4 -5 20 -3 25 10 22 10 -2 17 -13 17 -26z m-55 -62 c0
-5 -7 -10 -16 -10 -14 0 -16 -7 -11 -40 3 -22 2 -42 -3 -45 -13 -8 -31 21 -24
39 4 11 1 16 -10 16 -10 0 -13 6 -10 15 4 8 14 15 24 15 11 0 22 5 25 10 3 6
10 10 16 10 5 0 9 -4 9 -10z m87 3 c-2 -5 -7 -16 -10 -26 -6 -16 -8 -16 -27 3
-27 27 -25 30 11 30 16 0 28 -3 26 -7z m43 -163 c0 -5 -7 -10 -15 -10 -8 0
-15 5 -15 10 0 6 7 10 15 10 8 0 15 -4 15 -10z m-48 -64 c3 -25 0 -32 -9 -29
-8 3 -13 19 -11 39 3 41 14 35 20 -10z m-112 -66 c0 -9 -42 -22 -48 -15 -3 2
-2 11 1 19 6 15 47 11 47 -4z m-76 1 c8 -12 -3 -41 -15 -41 -5 0 -9 11 -9 25
0 25 14 34 24 16z m189 -62 c4 -16 12 -20 36 -17 16 2 31 -1 33 -6 2 -5 -25
-10 -59 -12 -50 -2 -64 1 -79 17 -19 22 -12 38 9 20 11 -9 17 -8 27 4 17 20
27 19 33 -6z m-83 -14 c10 -12 10 -16 -1 -19 -29 -9 -49 -2 -49 16 0 22 32 24
50 3z m38 -72 c18 1 32 5 32 10 0 4 7 7 15 7 8 0 15 -4 15 -10 0 -5 -4 -10
-10 -10 -5 0 -10 -11 -10 -25 0 -28 -15 -34 -24 -9 -4 10 -13 13 -25 9 -23 -7
-66 29 -55 47 5 7 11 6 19 -5 7 -10 24 -16 43 -14z m64 -98 c8 -33 3 -46 -16
-39 -10 4 -12 13 -6 34 7 23 5 28 -6 23 -8 -3 -14 -1 -14 5 0 23 35 3 42 -23z
m108 -54 c0 -17 -18 -21 -24 -6 -3 9 0 15 9 15 8 0 15 -4 15 -9z"/>
<path d="M3712 9215 c1 -14 6 -25 10 -25 4 0 7 11 6 25 -1 14 -6 25 -10 25 -4
0 -7 -11 -6 -25z"/>
<path d="M6174 10035 c3 -11 6 -26 6 -32 0 -18 29 -16 36 2 4 8 1 21 -5 29 -6
7 -8 16 -5 19 4 3 -4 5 -15 4 -17 -1 -21 -6 -17 -22z"/>
<path d="M16720 10820 c0 -6 -15 -10 -32 -10 -18 0 -42 -7 -52 -15 -11 -8 -27
-15 -37 -15 -9 0 -33 -11 -53 -25 -20 -14 -43 -25 -51 -25 -8 0 -15 -4 -15 -9
0 -5 -10 -13 -22 -17 -13 -4 -32 -17 -44 -29 -11 -13 -31 -26 -42 -30 -12 -3
-22 -11 -22 -16 0 -5 -5 -9 -10 -9 -6 0 -45 -33 -87 -72 -172 -163 -208 -202
-262 -283 -14 -22 -29 -41 -33 -43 -5 -2 -8 -8 -8 -14 0 -5 -11 -24 -25 -42
-14 -18 -25 -38 -25 -44 0 -6 -6 -17 -13 -24 -7 -7 -24 -37 -37 -65 -14 -29
-28 -53 -32 -53 -5 0 -8 -7 -8 -15 0 -8 -4 -23 -9 -33 -5 -9 -17 -37 -26 -62
-10 -25 -35 -81 -56 -125 -58 -123 -89 -193 -89 -200 0 -4 -7 -23 -16 -43 -27
-62 -32 -76 -40 -102 -4 -14 -9 -27 -13 -30 -10 -8 -39 -74 -44 -100 -11 -55
-49 -187 -63 -214 -8 -16 -14 -37 -14 -47 0 -10 -4 -20 -9 -23 -5 -3 -12 -22
-16 -42 -3 -20 -10 -44 -15 -53 -4 -9 -16 -34 -25 -56 -10 -22 -24 -52 -32
-67 -7 -14 -13 -44 -13 -66 0 -23 -4 -44 -10 -47 -5 -3 -10 -15 -10 -25 0 -20
-30 -83 -42 -88 -5 -2 -8 -12 -8 -22 0 -11 -6 -23 -12 -27 -31 -20 -62 -113
-38 -113 6 0 10 -5 10 -11 0 -8 -5 -7 -15 1 -9 7 -16 11 -18 9 -1 -2 -8 -13
-15 -24 -7 -11 -15 -28 -18 -37 -4 -10 -10 -18 -14 -18 -12 0 -40 -59 -40 -82
0 -10 -7 -21 -15 -24 -8 -4 -15 -14 -15 -24 0 -10 -7 -20 -15 -24 -8 -3 -15
-12 -15 -21 0 -8 -4 -15 -10 -15 -5 0 -10 -9 -10 -20 0 -11 -7 -23 -15 -26 -8
-4 -15 -12 -15 -20 0 -8 -4 -14 -10 -14 -5 0 -12 -11 -16 -25 -3 -14 -10 -25
-15 -25 -5 0 -23 -24 -39 -54 -17 -30 -38 -60 -45 -66 -8 -7 -15 -19 -15 -26
0 -8 -4 -14 -9 -14 -5 0 -12 -11 -15 -25 -4 -14 -11 -25 -16 -25 -6 0 -10 -6
-10 -14 0 -8 -3 -16 -7 -18 -12 -5 -43 -68 -43 -87 0 -9 -6 -25 -14 -36 -14
-21 -22 -61 -32 -158 -6 -56 5 -121 27 -157 5 -8 12 -22 16 -30 6 -13 46 -60
89 -104 30 -31 34 -53 14 -74 -11 -12 -20 -23 -20 -26 0 -3 -13 -20 -30 -38
-16 -18 -30 -38 -30 -45 0 -7 -4 -13 -10 -13 -15 0 -12 -78 3 -83 14 -5 12
-216 -4 -232 -5 -5 -9 -26 -9 -46 0 -21 -4 -40 -9 -44 -6 -3 -20 -27 -33 -53
-13 -26 -26 -48 -30 -50 -5 -2 -8 -9 -8 -15 0 -7 -11 -39 -24 -72 -14 -33 -32
-87 -41 -120 -9 -33 -23 -81 -31 -107 -8 -26 -14 -55 -14 -65 -1 -42 -41 -129
-80 -173 -38 -43 -58 -72 -76 -110 -4 -8 -18 -32 -31 -52 -13 -21 -23 -46 -23
-55 0 -10 -7 -27 -15 -37 -8 -11 -15 -30 -15 -43 0 -13 -4 -31 -9 -41 -8 -15
-24 -166 -38 -355 -4 -56 -9 -71 -29 -86 -13 -10 -24 -24 -24 -30 0 -6 -3 -11
-8 -11 -4 0 -19 -21 -32 -46 -26 -47 -62 -74 -100 -74 -28 0 -80 -31 -80 -47
0 -7 -3 -13 -8 -13 -4 0 -15 -24 -25 -52 -10 -29 -25 -68 -34 -87 -13 -28 -17
-61 -22 -188 -1 -7 -17 -20 -36 -29 -38 -18 -44 -34 -20 -58 8 -8 15 -19 15
-25 0 -6 7 -11 15 -11 8 0 15 -4 15 -10 0 -19 -46 -39 -104 -44 -32 -3 -64
-10 -70 -15 -6 -4 -23 -11 -37 -14 -14 -4 -40 -21 -58 -38 -30 -28 -33 -36
-28 -72 3 -22 9 -43 14 -46 15 -12 43 -73 43 -96 0 -13 5 -27 10 -30 19 -12
10 -43 -25 -79 -19 -21 -38 -48 -41 -62 -8 -32 5 -134 17 -134 5 0 9 -9 9 -20
0 -10 6 -23 14 -27 23 -14 47 -173 26 -173 -7 0 -10 -8 -7 -20 8 -29 -11 -38
-93 -43 -41 -2 -93 -9 -115 -14 -58 -14 -115 -53 -115 -80 0 -12 -4 -25 -10
-28 -5 -3 -10 -17 -10 -30 0 -18 4 -22 20 -18 11 3 20 9 20 14 0 5 7 9 15 9 8
0 15 -5 15 -12 0 -6 3 -9 6 -5 3 3 17 1 31 -4 20 -7 30 -6 44 7 11 10 19 12
19 6 0 -15 37 -16 42 -1 2 6 10 -1 18 -15 12 -23 12 -29 -3 -43 -16 -16 -18
-16 -32 2 -8 11 -15 15 -15 9 0 -5 8 -19 19 -30 10 -11 22 -31 26 -44 4 -12
19 -36 34 -53 14 -16 25 -33 23 -38 -1 -5 4 -9 12 -9 8 0 14 10 14 25 0 14 -5
25 -11 25 -7 0 -7 4 1 12 20 20 14 38 -13 38 -14 0 -25 5 -25 10 0 6 4 10 9
10 5 0 16 3 25 6 9 3 16 2 16 -4 0 -13 58 -72 71 -72 5 0 9 -5 9 -11 0 -5 4
-8 9 -5 5 4 11 1 13 -6 4 -10 10 -10 29 -2 28 13 52 7 43 -9 -5 -8 -2 -8 7 1
17 16 43 16 33 0 -5 -9 -3 -9 9 1 9 7 15 17 12 21 -3 4 1 13 9 19 11 9 15 6
18 -14 4 -19 1 -25 -13 -25 -21 0 -27 -19 -6 -21 27 -3 63 3 74 13 13 11 133
7 133 -4 0 -4 18 -12 40 -18 22 -6 40 -16 40 -21 0 -7 14 -10 36 -7 27 3 41
-1 60 -19 30 -27 66 -31 62 -7 -2 10 3 19 11 22 9 3 11 0 6 -9 -6 -10 -5 -11
4 -3 19 18 2 42 -35 49 -40 7 -38 22 3 19 42 -2 43 -3 41 -16 -2 -8 7 -12 25
-10 21 3 30 -1 33 -15 4 -16 14 -19 54 -18 31 0 56 7 68 18 20 18 33 22 31 10
-4 -27 3 -34 34 -31 30 3 32 1 30 -27 -2 -17 1 -41 7 -55 5 -14 12 -38 14 -54
11 -62 16 -34 16 82 l0 121 30 16 c16 8 38 15 50 15 11 0 23 7 26 15 4 8 11
15 16 15 14 0 68 62 68 77 0 7 6 16 13 20 7 4 21 25 30 45 10 20 22 40 27 43
6 3 10 14 10 24 0 10 7 24 15 31 8 7 15 20 16 29 0 23 52 124 65 128 7 2 15
-12 18 -32 4 -19 11 -35 16 -35 6 0 10 -8 10 -19 0 -20 43 -106 66 -132 8 -8
14 -21 14 -28 0 -6 7 -14 15 -17 8 -4 15 -10 15 -16 0 -5 32 -41 70 -79 39
-39 70 -74 70 -78 0 -4 16 -24 35 -44 19 -20 35 -41 35 -47 0 -5 5 -10 10 -10
6 0 27 -15 46 -34 51 -50 91 -28 43 23 -12 12 -18 25 -14 29 4 4 10 1 12 -5 3
-7 11 -13 19 -13 8 0 14 -7 14 -15 0 -8 6 -15 14 -15 8 0 16 -5 18 -10 2 -6
19 -12 38 -13 19 -1 40 -6 46 -9 6 -4 14 -4 18 -1 10 10 86 9 86 -1 0 -5 7 -3
15 4 12 10 16 8 26 -12 13 -29 45 -28 78 3 22 21 61 26 61 8 0 -6 7 -8 16 -5
9 3 12 2 9 -4 -4 -7 3 -9 20 -6 17 3 28 0 32 -10 3 -8 12 -14 20 -14 8 0 13 6
10 13 -2 6 -10 11 -16 9 -15 -3 -14 35 2 41 19 7 67 -14 67 -29 0 -18 29 -18
36 0 9 23 44 7 44 -20 0 -28 14 -38 29 -21 8 10 6 19 -9 35 -11 12 -20 23 -20
26 0 5 -33 45 -72 87 -47 50 -67 101 -49 123 5 6 12 41 16 79 4 37 11 70 16
73 5 3 9 24 9 47 0 23 5 58 11 77 6 19 15 73 19 120 16 151 30 253 35 258 2 3
12 -1 21 -9 16 -13 17 -12 9 11 -15 45 -17 166 -4 226 18 82 23 305 8 315 -6
4 -8 12 -5 18 10 16 36 14 42 -4 4 -8 11 -15 18 -15 6 0 27 -15 47 -33 20 -17
45 -39 55 -48 20 -16 122 -131 158 -177 45 -58 100 -102 121 -96 29 9 29 9 11
54 -9 22 -16 49 -16 60 0 11 -4 20 -8 20 -4 0 -16 25 -27 55 -10 30 -22 55
-26 55 -4 0 -11 10 -14 23 -11 36 -35 86 -45 92 -6 3 -10 16 -10 28 0 12 -11
44 -24 72 -46 98 -70 195 -47 195 5 0 29 -19 54 -43 66 -61 73 -67 107 -74 17
-3 33 -10 36 -14 3 -5 18 -9 34 -9 15 0 30 -7 34 -15 3 -8 15 -15 26 -15 11 0
20 -4 20 -10 0 -5 7 -10 15 -10 8 0 15 -7 15 -15 0 -8 9 -15 20 -15 22 0 63
-24 93 -53 18 -18 18 -19 -7 -42 -32 -30 -32 -35 -1 -35 14 0 25 5 25 10 0 6
7 10 15 10 9 0 15 9 15 22 0 14 4 18 9 13 5 -6 13 -163 16 -350 4 -187 11
-342 15 -345 4 -3 10 -43 13 -89 4 -46 11 -89 16 -95 4 -6 11 -24 14 -41 12
-63 32 -125 39 -125 5 0 8 -6 8 -14 0 -16 38 -104 86 -199 19 -38 34 -75 34
-83 0 -8 5 -14 10 -14 6 0 10 -11 10 -24 0 -13 7 -29 15 -36 11 -9 15 -33 15
-89 0 -52 3 -71 10 -61 5 8 8 22 5 30 -2 8 6 27 18 42 20 24 26 26 60 18 22
-4 55 -7 75 -5 21 2 40 -2 44 -8 6 -9 8 -9 8 0 0 6 9 9 20 6 11 -3 20 -9 20
-13 0 -4 9 -10 20 -13 21 -5 44 15 32 28 -4 5 -1 5 6 1 7 -4 10 -12 7 -17 -8
-12 9 -11 22 2 12 12 27 -46 16 -65 -4 -6 1 -5 10 2 14 12 16 11 12 -5 -2 -12
2 -20 10 -20 8 0 12 4 9 8 -2 4 0 10 6 14 6 4 8 10 5 15 -3 5 4 14 15 20 21
11 29 36 8 25 -7 -4 -5 0 5 8 13 11 15 16 5 20 -10 3 -10 8 -2 17 9 9 15 4 27
-19 9 -17 12 -29 7 -26 -5 3 -11 1 -15 -5 -3 -6 1 -13 11 -17 10 -4 20 0 25
10 7 12 20 14 57 10 26 -2 52 -9 58 -14 6 -5 13 -6 16 -3 3 3 33 6 67 8 48 3
61 0 61 -11 0 -9 6 -13 13 -10 7 3 22 -2 32 -10 15 -12 16 -14 3 -10 -9 3 -19
0 -22 -8 -4 -12 4 -14 40 -10 25 2 57 0 70 -5 13 -5 24 -6 24 -1 0 14 37 20
49 8 8 -8 11 -8 11 0 0 13 25 11 37 -2 4 -4 2 -5 -6 0 -10 6 -12 4 -7 -4 5 -7
11 -10 14 -7 3 3 11 1 18 -5 15 -12 58 6 49 21 -9 15 18 24 65 21 25 -2 59 -3
77 -4 18 0 30 -4 26 -10 -3 -5 5 -4 17 3 17 9 21 9 15 0 -5 -9 2 -11 29 -7 24
3 36 1 36 -7 0 -7 7 -13 15 -13 8 0 15 5 15 10 0 5 7 4 15 -3 8 -7 15 -9 15
-4 0 5 5 2 10 -6 6 -10 10 -11 10 -2 0 6 5 12 11 12 5 0 8 -4 4 -9 -18 -30 94
-34 149 -7 22 11 52 19 68 18 22 -2 29 3 34 23 6 24 34 36 34 14 0 -5 3 -8 8
-6 4 3 13 -1 20 -9 7 -8 9 -14 5 -14 -4 0 0 -5 10 -11 25 -15 46 4 28 24 -9
11 -8 17 4 27 13 11 17 8 26 -19 6 -17 15 -31 20 -31 5 0 9 -8 10 -17 0 -15 2
-15 9 2 5 13 3 26 -6 36 -8 9 -11 19 -7 22 3 4 0 7 -8 7 -8 0 -20 9 -27 20 -7
12 -8 20 -2 20 5 0 10 -5 10 -11 0 -8 17 -10 53 -7 28 3 58 3 65 1 15 -6 16
-45 1 -60 -8 -8 -4 -15 12 -27 13 -8 25 -13 28 -9 3 3 0 8 -6 10 -7 3 -13 11
-13 19 0 17 30 19 30 2 1 -8 6 -6 14 5 11 14 15 15 19 5 3 -7 6 -3 6 9 2 60
44 75 63 23 9 -28 11 -29 23 -14 12 17 13 16 18 -2 3 -10 8 -38 12 -61 5 -29
11 -40 20 -37 8 3 13 13 13 22 -1 9 2 38 6 64 4 31 3 48 -4 48 -5 0 -10 10
-10 23 1 20 2 21 14 5 14 -19 36 -24 36 -9 0 6 -4 13 -10 16 -9 6 -15 45 -6
45 2 0 20 -7 40 -15 24 -10 36 -22 36 -34 0 -11 8 -22 19 -26 14 -4 18 -14 15
-47 -2 -28 0 -38 8 -30 6 6 17 8 26 5 8 -4 13 -2 9 3 -3 5 6 14 19 21 13 6 24
7 24 2 0 -5 -5 -9 -11 -9 -5 0 -7 -4 -4 -10 9 -14 25 -12 23 3 -3 13 35 15 84
4 16 -3 28 -1 31 6 5 16 79 16 95 0 9 -9 19 -10 30 -4 10 6 23 4 36 -4 21 -13
45 -18 79 -16 16 1 17 63 17 1146 l0 1145 -85 0 c-81 0 -86 1 -97 25 -6 14
-15 25 -20 25 -14 0 -9 55 7 76 8 10 15 32 15 47 0 18 12 41 35 64 35 37 43
53 25 53 -5 0 -10 21 -10 46 0 25 -6 55 -12 67 -7 12 -16 60 -20 107 -4 47
-12 146 -18 220 -11 139 -13 154 -23 180 -4 8 -8 148 -10 310 -3 162 -7 318
-9 345 -11 118 -21 190 -27 195 -3 3 -14 22 -25 42 -11 21 -28 39 -42 42 -13
4 -24 11 -24 16 0 6 -9 10 -20 10 -11 0 -28 4 -38 10 -9 5 -35 17 -57 26 -54
24 -79 51 -79 88 -1 27 3 31 27 34 15 2 27 7 27 12 0 4 11 11 25 14 14 4 25
11 25 16 0 6 7 10 15 10 8 0 15 7 15 15 0 8 4 15 10 15 15 0 45 63 31 68 -6 2
-11 9 -11 15 -1 31 -140 65 -315 78 -66 4 -149 12 -185 18 -36 5 -92 10 -124
10 -70 1 -84 11 -92 63 -4 21 -11 41 -15 44 -5 3 -9 18 -9 34 0 18 -7 33 -19
39 -10 6 -26 27 -35 48 -17 39 -37 74 -47 83 -3 3 -9 17 -13 33 -3 15 -11 27
-16 27 -6 0 -10 9 -10 19 0 11 -11 41 -25 67 -14 26 -25 51 -25 56 0 6 -7 25
-16 44 -9 19 -13 41 -10 50 6 16 8 15 25 -3 10 -11 22 -29 25 -41 4 -12 12
-22 17 -22 5 0 9 -9 9 -20 0 -11 4 -20 9 -20 5 0 11 9 14 20 6 23 -2 60 -13
60 -12 0 -19 50 -8 56 6 4 23 -3 38 -15 43 -31 47 -7 6 37 -44 46 -67 74 -86
102 -8 12 -20 28 -26 34 -6 6 -19 29 -28 51 -10 22 -24 54 -31 70 -8 17 -16
46 -19 65 -11 74 -23 126 -34 147 -7 12 -12 46 -12 76 0 30 -6 67 -14 82 -9
17 -11 36 -7 53 8 28 -5 141 -19 177 -11 27 -29 139 -40 250 -5 50 -13 108
-19 130 -6 22 -11 59 -11 82 0 23 -4 45 -10 48 -5 3 -10 18 -10 33 0 15 -7 48
-15 75 -8 26 -22 68 -30 95 -8 26 -15 57 -15 69 0 12 -4 24 -9 27 -5 3 -11 16
-14 28 -13 59 -71 199 -120 293 -6 11 -21 42 -35 69 -21 42 -64 107 -102 153
-6 7 -10 14 -10 17 0 7 -119 126 -125 126 -5 0 -47 35 -76 62 -9 9 -26 19 -36
22 -11 3 -28 14 -39 24 -10 9 -38 26 -61 37 -24 11 -43 23 -43 28 0 4 -5 7
-11 7 -19 0 -84 33 -92 47 -4 7 -18 13 -30 13 -13 0 -27 4 -32 9 -30 28 -316
35 -413 9 -32 -8 -46 -8 -55 1 -6 6 -20 11 -31 11 -12 0 -43 11 -71 25 -27 13
-58 25 -67 25 -10 0 -18 4 -18 9 0 5 -36 10 -80 10 -46 0 -80 -4 -80 -9z m80
-379 c0 -11 -4 -23 -10 -26 -6 -4 -10 5 -10 19 0 14 5 26 10 26 6 0 10 -9 10
-19z m-109 -474 c-1 -12 -15 -9 -19 4 -3 6 1 10 8 8 6 -3 11 -8 11 -12z m-155
-22 c7 -18 50 -20 58 -2 5 10 7 10 12 0 3 -7 14 -13 25 -13 10 0 19 6 20 13 0
10 2 10 6 0 3 -9 34 -13 103 -13 74 0 102 -4 114 -15 8 -8 19 -15 24 -15 6 0
12 -7 16 -15 3 -8 14 -15 24 -15 13 0 23 -14 35 -47 9 -27 17 -56 17 -65 0
-10 5 -18 10 -18 6 0 10 -8 10 -19 0 -10 7 -24 15 -31 9 -7 13 -20 10 -28 -3
-8 3 -33 13 -56 45 -97 52 -115 52 -135 0 -12 4 -21 9 -21 9 0 27 -61 38 -127
5 -30 2 -33 -48 -57 -29 -15 -59 -26 -66 -26 -7 0 -13 -6 -13 -14 0 -26 -30
-46 -71 -46 -28 0 -39 -4 -39 -15 0 -8 -5 -15 -12 -15 -9 0 -9 -3 0 -12 16
-16 15 -49 -3 -72 -10 -13 -15 -43 -15 -84 0 -72 13 -91 63 -92 15 0 27 -4 27
-10 0 -5 9 -10 20 -10 21 0 27 15 10 25 -18 11 -11 56 13 76 24 20 47 25 47 9
0 -5 -5 -10 -11 -10 -6 0 -9 -8 -7 -17 4 -22 88 -31 88 -9 0 7 8 21 19 30 18
16 19 15 29 -25 13 -50 0 -94 -24 -85 -9 3 -20 3 -25 0 -11 -6 14 -33 79 -83
42 -33 52 -57 31 -78 -8 -8 -5 -17 10 -32 12 -12 21 -25 21 -29 0 -5 8 -17 18
-28 10 -10 24 -32 33 -49 32 -64 55 -95 72 -101 9 -3 17 -13 17 -23 0 -9 13
-28 30 -41 16 -14 29 -31 30 -37 0 -7 7 -13 15 -13 20 0 19 -17 -1 -28 -11 -6
-13 -11 -5 -16 15 -10 14 -73 -1 -83 -18 -11 -50 -82 -42 -94 3 -5 -5 -26 -18
-47 -12 -20 -21 -43 -20 -50 2 -8 -6 -16 -17 -19 -14 -3 -21 -14 -21 -29 0
-13 -4 -24 -9 -24 -18 0 -41 -31 -41 -55 0 -16 -7 -25 -24 -29 -16 -4 -28 -17
-36 -40 -8 -26 -18 -35 -40 -40 -29 -5 -43 -35 -17 -37 6 0 2 -5 -10 -11 -13
-6 -25 -18 -28 -28 -8 -25 -57 -58 -98 -65 -20 -4 -36 -10 -35 -14 6 -24 -16
-50 -50 -56 -20 -4 -56 -18 -79 -32 -41 -24 -50 -25 -193 -24 -82 0 -158 5
-167 10 -10 5 -42 20 -71 33 -38 16 -55 30 -59 47 -3 14 -12 36 -19 50 -8 14
-14 32 -14 39 0 6 -4 12 -10 12 -5 0 -10 12 -10 28 -1 28 -36 80 -47 68 -3 -3
-1 -16 5 -29 6 -12 14 -32 17 -44 4 -13 11 -23 16 -23 12 0 12 -57 -1 -65 -6
-3 -13 2 -17 12 -4 10 -14 26 -22 35 -9 9 -27 38 -41 65 -14 26 -28 50 -32 51
-5 2 -8 13 -8 25 0 12 -7 31 -15 41 -8 11 -15 30 -15 42 0 12 -7 24 -15 28 -9
3 -15 18 -15 39 0 19 -7 40 -15 47 -8 7 -15 25 -15 41 0 16 -4 29 -9 29 -5 0
-12 12 -15 28 -15 66 -31 112 -38 112 -4 0 -8 16 -8 35 0 20 -7 52 -15 72 -8
19 -15 50 -15 67 0 18 -4 36 -10 42 -13 13 -31 143 -37 265 -4 85 17 302 30
316 9 9 47 -31 47 -50 0 -9 8 -21 18 -24 9 -4 39 -27 65 -52 37 -35 62 -50
110 -63 40 -11 67 -13 79 -7 9 5 32 9 50 9 20 0 45 10 63 25 34 28 36 27 -84
29 -58 1 -86 5 -88 14 -3 6 -15 12 -28 12 -24 0 -55 37 -55 65 0 24 44 15 48
-10 14 -75 133 -73 171 3 15 29 44 28 61 -2 8 -16 25 -27 47 -31 42 -8 51 -1
35 25 -16 27 -15 30 8 30 11 0 23 -7 26 -15 4 -8 12 -15 20 -15 8 0 14 -5 14
-12 0 -9 3 -9 12 0 9 9 9 27 1 80 -7 40 -8 71 -3 76 15 15 -9 46 -35 46 -35 0
-55 10 -55 29 0 20 -43 57 -90 78 -8 4 -18 11 -21 16 -6 9 -43 15 -241 39 -92
11 -98 13 -98 35 0 13 5 23 10 23 6 0 10 10 10 23 0 13 7 32 15 43 8 10 15 27
15 37 0 9 4 25 10 35 5 9 23 48 40 85 34 77 69 125 152 209 32 32 62 67 68 78
7 13 21 20 38 20 16 0 37 7 48 15 24 18 33 19 40 0z m-356 -670 c7 -8 23 -15
36 -15 13 0 24 -4 24 -10 0 -5 8 -10 18 -10 11 0 29 -9 42 -20 13 -11 26 -20
30 -20 5 0 11 -8 14 -17 8 -20 -10 -33 -46 -33 -16 0 -28 -4 -28 -10 0 -5 23
-10 50 -10 37 0 55 -5 70 -20 11 -11 20 -22 20 -24 0 -2 -49 -3 -109 -3 -86 1
-114 -3 -135 -16 -15 -10 -26 -13 -26 -7 0 19 26 38 55 42 16 2 30 9 33 16 5
16 -71 17 -97 1 -30 -19 -80 8 -87 48 -8 40 2 82 24 105 22 22 95 24 112 3z
m1192 -640 c7 -8 27 -31 43 -51 17 -20 39 -47 51 -59 11 -12 19 -30 18 -38 -1
-9 6 -19 17 -22 10 -4 19 -13 19 -21 0 -8 5 -14 10 -14 6 0 10 -3 10 -7 0 -5
-14 -8 -30 -7 -22 1 -40 11 -63 37 -18 21 -38 37 -45 37 -6 0 -12 9 -12 20 0
27 -33 89 -47 90 -14 0 -16 10 -7 34 8 20 19 20 36 1z m-2332 -695 c0 -16 -4
-30 -10 -30 -5 0 -10 -9 -10 -19 0 -11 -6 -26 -14 -33 -7 -8 -17 -24 -20 -36
-4 -12 -12 -22 -17 -22 -5 0 -9 -8 -9 -18 0 -10 -18 -37 -40 -60 -22 -22 -40
-45 -40 -51 0 -5 -7 -11 -15 -15 -8 -3 -15 -15 -15 -26 0 -11 -4 -20 -10 -20
-5 0 -10 11 -10 25 0 14 5 25 10 25 6 0 10 7 10 15 0 8 7 15 15 15 9 0 15 9
15 25 0 14 4 25 10 25 5 0 12 11 16 25 3 14 10 25 15 25 5 0 9 7 9 15 0 9 7
18 15 21 8 4 15 17 15 29 0 13 7 30 15 39 8 8 15 17 15 21 0 10 34 54 43 55 4
0 7 -13 7 -30z m110 -74 c0 -13 -7 -29 -15 -36 -8 -7 -15 -21 -15 -31 0 -10
-4 -21 -10 -24 -13 -8 -13 49 -1 73 5 9 12 25 15 35 8 24 26 12 26 -17z m197
-47 c9 -9 8 -18 -5 -36 -14 -23 -14 -26 1 -35 10 -5 17 -21 17 -39 0 -30 -25
-79 -41 -79 -6 0 -7 184 0 198 3 6 18 1 28 -9z m-76 -240 c11 -7 7 -15 -21
-39 -19 -16 -37 -30 -40 -30 -31 1 -47 81 -25 124 8 15 15 35 15 43 0 8 10 26
23 39 l22 23 6 -75 c3 -50 10 -78 20 -85z m-231 60 c0 -83 19 -139 47 -139 18
0 16 -19 -2 -26 -8 -4 -15 -10 -15 -15 0 -5 7 -9 15 -9 11 0 15 -11 15 -40 0
-29 -4 -40 -15 -40 -8 0 -15 -7 -15 -15 0 -8 -6 -15 -12 -15 -7 0 -23 -16 -36
-35 -32 -50 -95 -88 -124 -75 -47 19 -71 48 -64 78 4 15 12 52 17 82 6 30 14
59 20 65 5 5 9 17 9 27 0 10 4 18 10 18 5 0 12 11 16 25 3 14 10 25 15 25 5 0
9 6 9 13 0 6 14 32 30 57 16 25 30 53 30 62 0 16 24 37 43 38 4 0 7 -36 7 -81z
m3810 -95 c0 -21 -4 -33 -10 -29 -17 10 -11 65 7 65 2 0 3 -16 3 -36z m-4030
-69 c0 -14 -4 -25 -10 -25 -6 0 -10 -28 -10 -65 0 -51 -3 -65 -15 -65 -21 0
-21 99 0 126 8 10 15 27 15 37 0 27 20 20 20 -8z m1888 -442 c2 -8 -5 -13 -17
-13 -12 0 -21 6 -21 16 0 18 31 15 38 -3z m4 -133 c-5 -32 -22 -42 -22 -12 0
14 17 42 25 42 1 0 0 -13 -3 -30z m-81 -59 c30 -18 30 -20 11 -30 -28 -15 -52
-4 -52 25 0 29 1 29 41 5z m-140 -393 c10 -24 10 -33 1 -36 -7 -2 -12 -10 -12
-17 0 -7 -7 -16 -16 -19 -8 -3 -13 -10 -10 -15 10 -16 -5 -41 -25 -41 -10 0
-19 4 -19 9 0 15 23 76 31 81 6 5 15 37 18 73 2 16 19 -3 32 -35z m-761 -53
c0 -8 -4 -15 -9 -15 -13 0 -22 16 -14 24 11 11 23 6 23 -9z m670 -200 c0 -29
-7 -80 -15 -112 -19 -72 -19 -122 0 -147 8 -11 15 -32 15 -47 0 -15 4 -30 9
-34 5 -3 12 -19 16 -35 4 -17 11 -30 16 -30 5 0 9 -11 9 -24 0 -13 7 -26 15
-30 8 -3 15 -13 16 -23 0 -10 9 -31 20 -48 10 -16 26 -45 34 -63 9 -18 22 -35
30 -39 8 -3 15 -11 15 -19 0 -8 7 -14 15 -14 8 0 15 -7 15 -15 0 -8 14 -27 31
-42 18 -16 38 -34 45 -40 7 -7 15 -13 19 -13 3 0 25 -18 47 -40 23 -22 50 -40
60 -40 10 0 18 -4 18 -9 0 -11 59 -35 82 -33 26 2 39 -23 39 -75 1 -80 -12
-317 -17 -333 -3 -8 -5 -104 -5 -213 0 -152 -3 -198 -12 -194 -42 18 -67 33
-67 40 0 13 -24 34 -48 41 -12 4 -22 12 -22 17 0 5 -6 9 -14 9 -7 0 -19 7 -26
15 -7 8 -23 15 -37 15 -13 0 -26 7 -29 15 -4 8 -12 15 -20 15 -8 0 -14 5 -14
10 0 6 -6 10 -14 10 -8 0 -21 6 -28 13 -7 7 -20 16 -28 20 -46 21 -90 61 -90
82 0 8 -4 15 -10 15 -5 0 -35 25 -66 55 -39 39 -54 60 -50 72 5 12 9 14 18 5
7 -7 17 -12 22 -12 6 0 4 6 -4 13 -8 7 -24 30 -34 52 -10 22 -23 48 -27 57 -5
10 -9 25 -9 33 0 17 25 21 35 5 3 -5 17 -10 30 -10 13 0 27 -4 30 -10 3 -5 24
-10 45 -10 21 0 42 -4 45 -10 3 -5 16 -10 27 -10 19 0 19 1 -5 20 -14 12 -40
20 -61 20 -20 0 -36 4 -36 10 0 5 -22 20 -50 32 -41 19 -54 32 -80 79 -32 61
-37 98 -18 129 10 16 10 24 0 41 -19 30 -15 373 5 454 8 33 19 68 25 79 5 10
14 60 18 110 11 115 18 153 36 193 8 17 14 36 14 42 0 6 5 11 10 11 6 0 10
-25 10 -55z m377 -560 c0 -8 -4 -15 -8 -15 -4 0 -9 7 -13 15 -3 9 0 15 8 15 7
0 13 -7 13 -15z m65 -35 c12 -11 36 -20 52 -20 17 0 38 -5 46 -10 13 -8 12
-10 -3 -10 -10 0 -20 -7 -23 -15 -10 -25 -57 -18 -84 13 -14 16 -32 31 -40 35
-13 5 -13 7 0 16 21 15 28 14 52 -9z m-571 -739 c27 -26 92 -161 104 -216 8
-34 22 -69 70 -170 129 -275 128 -272 115 -280 -8 -5 -130 108 -130 121 0 8
-60 64 -68 64 -4 0 -16 15 -27 33 -10 17 -24 36 -32 40 -7 4 -13 13 -13 18 0
14 -26 39 -39 39 -6 0 -11 7 -11 15 0 8 -4 15 -10 15 -13 0 -40 54 -40 82 -4
145 1 211 17 232 20 27 41 29 64 7z m-911 -751 c0 -5 14 -32 30 -58 17 -27 30
-61 30 -76 0 -14 5 -26 10 -26 6 0 10 -7 10 -15 0 -9 10 -29 21 -44 12 -16 18
-34 15 -40 -9 -14 -36 -14 -36 -1 0 18 -22 10 -27 -10 -3 -11 -9 -20 -14 -20
-5 0 -14 -11 -19 -25 -16 -42 -56 -33 -107 22 -32 36 -43 56 -43 80 0 29 3 33
25 33 18 0 25 5 25 19 0 11 -4 23 -10 26 -5 3 -10 1 -10 -4 0 -6 -7 -11 -15
-11 -17 0 -20 31 -6 58 6 9 12 28 15 42 3 14 18 33 33 42 31 19 73 24 73 8z
m2492 -152 c15 -15 17 -23 9 -31 -6 -6 -11 -25 -11 -42 0 -19 -8 -37 -21 -48
-16 -14 -19 -25 -14 -45 4 -15 12 -30 18 -34 8 -5 0 -18 -23 -38 -31 -28 -35
-29 -44 -13 -15 26 -7 153 12 185 14 24 14 29 -1 52 -16 23 -16 26 1 35 21 13
48 5 74 -21z m78 -75 c24 -21 27 -78 5 -87 -8 -3 -15 -13 -15 -21 0 -11 -7
-15 -22 -13 -19 2 -24 10 -26 47 -2 32 1 47 12 53 9 5 16 16 16 23 0 19 5 19
30 -2z m-4330 -523 c0 -11 -7 -20 -15 -20 -15 0 -21 21 -8 33 12 13 23 7 23
-13z m5758 -344 c-3 -19 -9 -21 -85 -21 -65 -1 -80 2 -71 12 6 7 14 11 18 8 5
-3 15 2 24 10 12 13 19 13 35 4 15 -10 22 -9 35 4 21 21 48 11 44 -17z m-1518
-3 c0 -20 -3 -24 -11 -16 -7 7 -9 19 -6 27 10 24 17 19 17 -11z m895 -115 c3
-3 20 -4 38 -2 19 2 27 1 19 -4 -11 -7 -45 -8 -62 -2 -3 1 -17 1 -32 0 -16 -1
-28 2 -28 7 0 9 57 10 65 1z"/>
<path d="M16573 8501 c-47 -51 -47 -51 -23 -73 16 -15 25 -17 33 -9 6 6 28 11
49 11 31 0 38 -4 38 -20 0 -59 90 -83 132 -35 28 32 83 36 73 5 -5 -16 -2 -20
14 -20 12 0 21 5 21 10 0 6 13 10 29 10 38 0 51 18 55 79 4 51 4 52 -15 30
-10 -12 -19 -28 -19 -36 0 -18 -6 -17 -48 12 -54 37 -114 35 -151 -6 -24 -25
-33 -29 -57 -23 -16 4 -46 24 -66 46 -21 21 -40 38 -43 38 -3 0 -13 -9 -22
-19z"/>
<path d="M16703 8163 c-7 -2 -13 -13 -13 -24 0 -21 -16 -26 -22 -7 -6 16 -198
18 -218 2 -8 -7 -28 -14 -45 -16 -25 -2 -31 -8 -33 -32 l-4 -28 49 6 c61 8 73
8 223 -3 69 -5 143 -14 165 -20 22 -6 66 -11 98 -11 31 0 57 -4 57 -10 0 -5
23 -10 51 -10 38 0 55 5 65 18 19 25 18 28 -23 59 -31 24 -46 28 -104 29 -63
0 -137 24 -147 47 -4 8 -80 8 -99 0z"/>
<path d="M16430 7923 c1 -51 43 -66 220 -76 198 -10 243 -9 255 7 6 7 20 16
33 20 13 5 22 15 22 28 0 17 -4 19 -27 13 -54 -15 -405 -4 -463 14 -43 14 -40
14 -40 -6z"/>
<path d="M16645 5010 c-3 -5 3 -10 15 -10 12 0 18 5 15 10 -3 6 -10 10 -15 10
-5 0 -12 -4 -15 -10z"/>
<path d="M16727 5013 c-7 -10 32 -47 40 -39 3 2 -4 14 -15 26 -11 12 -22 17
-25 13z"/>
<path d="M16600 4740 c0 -5 9 -10 21 -10 11 0 17 5 14 10 -3 6 -13 10 -21 10
-8 0 -14 -4 -14 -10z"/>
<path d="M16670 4721 c-24 -7 -24 -7 7 -14 40 -8 72 1 51 14 -15 10 -23 10
-58 0z"/>
<path d="M16803 4713 c15 -2 39 -2 55 0 15 2 2 4 -28 4 -30 0 -43 -2 -27 -4z"/>
<path d="M6755 10617 c-4 -10 -5 -21 -1 -24 10 -10 18 4 13 24 -4 17 -4 17
-12 0z"/>
<path d="M7150 10578 c0 -25 3 -29 10 -18 13 20 13 50 0 50 -5 0 -10 -15 -10
-32z"/>
<path d="M3871 10541 c-7 -5 -24 -6 -38 -3 -19 4 -24 1 -21 -9 3 -8 10 -14 16
-13 7 1 28 2 47 3 19 0 35 5 35 10 0 13 -25 20 -39 12z"/>
<path d="M7195 10542 c-15 -10 -12 -35 5 -49 12 -9 16 -8 21 10 10 37 -3 56
-26 39z"/>
<path d="M7100 10474 c0 -30 -3 -34 -25 -34 -14 0 -28 -7 -31 -15 -4 -8 -11
-15 -18 -15 -21 -1 -54 -37 -75 -83 -26 -57 -26 -56 1 -66 35 -13 123 37 246
140 19 16 10 44 -15 47 -12 2 -25 11 -28 20 -3 9 -16 22 -30 29 -24 11 -25 10
-25 -23z"/>
<path d="M3554 9766 c-8 -22 3 -33 18 -18 9 9 9 15 0 24 -9 9 -13 7 -18 -6z"/>
<path d="M3170 9636 c0 -33 41 -58 88 -53 l37 4 -41 1 c-39 2 -42 4 -48 37 -8
40 -36 49 -36 11z"/>
<path d="M3377 9623 c-4 -3 -7 -17 -7 -29 0 -12 -7 -29 -15 -37 -13 -13 -13
-16 2 -21 15 -6 32 8 33 27 0 5 6 5 13 1 6 -4 4 2 -7 14 -10 12 -16 28 -13 37
7 16 4 19 -6 8z"/>
<path d="M3303 9493 c-17 -6 -16 -33 1 -33 7 0 16 9 19 20 5 20 2 22 -20 13z"/>
<path d="M6058 9364 c-11 -11 39 -54 56 -48 18 7 22 24 6 24 -5 0 -10 7 -10
15 0 14 -40 22 -52 9z"/>
<path d="M740 9286 c0 -22 11 -46 21 -46 15 0 10 48 -6 54 -9 3 -15 0 -15 -8z"/>
<path d="M674 9185 c0 -30 4 -55 8 -55 4 0 8 15 8 33 0 17 3 42 6 55 5 15 2
22 -8 22 -11 0 -14 -14 -14 -55z"/>
<path d="M780 9145 c0 -19 5 -35 10 -35 6 0 10 9 10 19 0 11 3 26 6 35 4 11 1
16 -10 16 -12 0 -16 -10 -16 -35z"/>
<path d="M497 9153 c-13 -12 -7 -23 13 -23 11 0 20 7 20 15 0 15 -21 21 -33 8z"/>
<path d="M5950 9131 c0 -11 5 -23 10 -26 6 -4 10 5 10 19 0 14 -4 26 -10 26
-5 0 -10 -9 -10 -19z"/>
<path d="M830 9090 c0 -5 7 -10 15 -10 8 0 15 5 15 10 0 6 -7 10 -15 10 -8 0
-15 -4 -15 -10z"/>
<path d="M895 9060 c-3 -5 3 -10 14 -10 12 0 21 5 21 10 0 6 -6 10 -14 10 -8
0 -18 -4 -21 -10z"/>
<path d="M5920 9035 c0 -8 7 -15 15 -15 8 0 15 7 15 15 0 8 -7 15 -15 15 -8 0
-15 -7 -15 -15z"/>
<path d="M89 8666 c-3 -3 -24 -7 -47 -8 l-42 -1 0 -523 c0 -488 1 -522 18
-529 16 -6 16 -7 -1 -19 -20 -15 -22 -32 -4 -39 9 -4 9 -6 0 -6 -22 -2 -15
-41 6 -41 11 0 33 -12 48 -27 15 -14 22 -23 15 -19 -10 6 -13 1 -10 -20 3 -26
7 -29 37 -29 38 0 41 -5 65 -85 10 -34 12 -56 6 -58 -18 -6 -11 -22 10 -22 11
0 20 6 20 14 0 14 21 26 46 26 8 0 14 -4 14 -10 0 -5 -7 -10 -15 -10 -8 0 -15
-7 -15 -15 0 -8 -4 -15 -9 -15 -5 0 -14 -13 -19 -29 -10 -29 -10 -30 14 -20
35 13 64 11 61 -3 -1 -7 13 -17 31 -22 17 -6 32 -13 32 -17 0 -12 -79 -15 -84
-3 -6 17 -66 24 -66 8 0 -7 15 -14 33 -16 l32 -3 3 -64 c2 -41 -1 -67 -9 -71
-8 -6 -8 -9 0 -14 6 -4 11 -2 11 3 0 6 6 11 13 11 8 0 12 17 12 52 0 47 2 53
23 56 13 2 22 -2 23 -10 0 -7 1 -33 2 -58 2 -41 19 -69 24 -38 9 64 15 88 23
88 6 0 10 -20 10 -45 0 -25 5 -45 10 -45 6 0 10 -8 10 -19 0 -24 25 -45 45
-38 8 4 17 2 20 -3 4 -6 -6 -10 -20 -10 -23 0 -26 -4 -23 -27 2 -20 9 -29 26
-31 12 -2 22 -8 22 -14 0 -6 -3 -9 -6 -5 -3 3 -12 1 -19 -6 -9 -9 -9 -14 2
-25 8 -8 17 -27 20 -43 7 -36 38 -35 65 3 17 25 18 29 4 34 -9 3 -16 13 -16
21 0 10 6 13 16 9 9 -3 20 -6 25 -6 4 0 6 -7 3 -15 -4 -9 -1 -29 6 -45 9 -23
10 -33 1 -44 -6 -7 -8 -22 -5 -32 4 -11 4 -16 -1 -12 -4 4 -14 3 -21 -3 -8 -6
-25 -8 -39 -5 -21 5 -24 11 -19 32 6 23 4 26 -17 24 -42 -4 -69 0 -69 9 0 5 9
11 21 14 29 8 18 33 -13 29 -31 -3 -42 26 -32 86 5 34 3 40 -16 45 -27 7 -38
-17 -16 -38 9 -9 16 -25 16 -35 0 -26 -11 -51 -20 -45 -4 2 -7 -6 -6 -18 1
-18 6 -21 29 -19 25 3 27 1 27 -32 0 -34 2 -36 33 -36 24 0 38 -8 56 -30 18
-24 27 -28 37 -19 11 9 15 7 19 -7 3 -11 13 -32 21 -47 19 -39 19 -127 0 -127
-25 0 -28 -19 -6 -37 11 -10 20 -29 20 -43 0 -14 4 -30 8 -36 10 -15 82 -28
82 -14 0 19 -4 25 -17 22 -7 -2 -13 4 -13 12 0 10 7 14 18 12 9 -2 36 -7 60
-11 35 -6 43 -12 48 -34 11 -51 18 -56 22 -13 2 33 7 42 22 42 10 0 20 6 22
13 9 24 -4 37 -38 37 -34 0 -34 0 -28 39 l6 39 -63 -2 c-35 0 -63 -3 -62 -6
12 -37 13 -63 3 -75 -24 -29 -38 -17 -42 39 -5 77 -1 85 33 83 16 -1 29 -5 29
-9 0 -5 9 -8 19 -8 19 0 35 25 26 40 -3 4 7 10 20 13 33 6 41 -8 15 -26 -23
-16 -17 -27 16 -27 18 0 23 -5 22 -29 -1 -45 12 -58 32 -31 11 15 23 21 34 17
18 -7 22 -37 4 -37 -9 0 -9 -3 0 -12 7 -7 12 -29 12 -49 0 -25 5 -39 17 -43
22 -9 43 12 24 23 -7 5 -13 20 -13 35 0 15 -6 26 -14 26 -8 0 -14 5 -14 11 0
7 7 8 18 4 9 -4 25 -10 34 -12 25 -7 39 -65 27 -108 -6 -19 -14 -35 -19 -35
-18 0 -10 -18 10 -23 11 -3 20 -13 20 -24 1 -10 8 1 16 25 8 24 23 52 32 62 9
10 23 26 30 35 7 8 17 13 22 10 4 -3 10 17 12 44 1 27 0 47 -4 45 -9 -6 -58
17 -58 28 0 4 -4 8 -10 8 -5 0 -10 -9 -10 -20 0 -13 5 -18 14 -14 8 3 23 1 33
-5 10 -6 12 -11 6 -11 -8 0 -13 -15 -13 -40 0 -47 -17 -53 -31 -11 -5 15 -21
34 -34 41 -29 16 -30 21 -9 66 16 33 16 34 -15 65 -32 32 -41 69 -17 69 8 0
19 -13 24 -29 11 -32 59 -52 73 -29 4 7 4 15 -2 19 -5 3 5 6 23 6 41 0 57 -20
58 -73 0 -49 24 -78 34 -42 16 61 1 161 -19 128 -16 -27 -42 11 -29 44 5 12
10 14 20 5 7 -6 22 -8 33 -4 15 4 20 1 23 -17 5 -35 23 -28 26 10 3 30 1 33
-20 30 -15 -2 -24 3 -26 15 -3 13 1 18 15 16 10 -2 24 0 31 4 25 17 35 -5 29
-69 -2 -35 -4 -64 -2 -64 1 0 12 9 25 20 13 11 18 20 12 20 -17 0 -15 55 3 70
8 7 15 25 15 40 0 39 9 60 26 60 12 0 12 4 4 20 -13 23 1 43 38 54 12 4 22 12
22 17 0 5 9 9 20 9 24 0 26 22 5 40 -17 14 -20 46 -5 55 8 5 7 11 -1 21 -6 8
-8 14 -3 15 5 1 -1 4 -14 7 -30 9 -33 26 -4 30 12 2 22 8 22 13 0 16 18 10 40
-13 14 -16 30 -22 50 -20 25 3 29 1 23 -14 -5 -14 -2 -13 15 4 23 23 29 42 13
42 -6 0 -13 -4 -16 -10 -9 -15 -35 -12 -35 4 0 7 -6 19 -14 25 -17 14 -9 51
10 51 8 0 11 6 8 15 -5 11 1 15 25 15 25 0 31 4 31 20 0 23 -25 24 -48 2 -8
-6 -24 -10 -38 -8 -18 4 -24 0 -24 -14 0 -10 -6 -21 -12 -23 -10 -4 -10 -6 0
-6 6 -1 12 -5 12 -10 0 -6 -19 -11 -42 -13 -39 -3 -43 -6 -46 -30 -3 -24 -8
-28 -33 -28 -25 0 -29 4 -29 26 0 17 6 28 20 31 12 3 20 14 20 25 0 16 -5 19
-28 16 -25 -4 -28 -2 -24 23 2 16 12 29 23 32 26 7 24 22 -6 41 -24 16 -25 15
-25 -3 0 -27 -20 -38 -32 -17 -12 21 -25 20 -31 -3 -3 -14 -11 -17 -31 -14
-20 4 -26 1 -26 -11 0 -10 -4 -15 -9 -12 -5 4 -5 20 1 39 9 31 14 34 42 30 24
-2 38 3 53 20 19 22 19 26 5 60 -17 44 -32 40 -32 -9 0 -31 -2 -34 -31 -34
-17 0 -29 3 -27 8 2 4 10 19 17 35 17 33 14 37 -21 30 -28 -5 -39 -35 -18 -48
5 -3 10 -16 10 -29 0 -33 -28 -29 -47 7 -12 24 -13 35 -3 56 9 21 9 23 -1 14
-16 -16 -53 3 -45 22 3 8 0 17 -6 21 -7 4 -8 3 -4 -4 5 -8 0 -12 -13 -12 -35
0 -51 12 -51 36 0 15 -6 24 -15 24 -8 0 -17 11 -21 25 -4 16 -13 25 -25 25
-10 0 -19 7 -19 15 0 8 -4 15 -10 15 -5 0 -10 5 -10 10 0 17 20 11 46 -15 30
-30 54 -32 54 -6 0 11 6 22 12 25 7 2 4 4 -7 4 -46 -2 -65 3 -65 17 0 8 -9 15
-20 15 -12 0 -20 7 -20 16 0 13 7 15 30 11 33 -7 43 11 11 20 -12 3 -23 17
-26 34 -6 24 -12 29 -37 29 -18 0 -37 -8 -44 -17 -12 -16 -13 -8 -14 53 0 56
-3 73 -16 78 -9 3 -21 3 -26 -1 -6 -3 -8 -1 -5 4 10 15 -52 83 -69 76 -10 -3
-14 3 -14 19 0 19 5 24 23 24 13 -1 22 5 22 14 0 11 -11 15 -38 15 -36 0 -37
1 -38 35 -1 42 -9 64 -26 68 -9 1 -13 -11 -13 -35 0 -34 -1 -35 -14 -17 -8 10
-11 21 -6 24 13 9 21 48 10 55 -5 3 -10 16 -10 29 0 12 -9 40 -19 61 -10 22
-17 45 -14 52 3 7 -7 15 -24 18 -48 11 -54 14 -48 25 3 5 16 10 28 11 l22 0
-22 11 c-12 6 -24 21 -27 34 -8 29 -36 32 -36 4 0 -15 -6 -19 -30 -17 -16 1
-30 5 -30 10 0 4 -7 7 -15 7 -8 0 -15 7 -15 15 0 8 -9 23 -19 32 -15 13 -18
21 -10 35 6 10 7 28 4 39 -5 16 -12 19 -31 15 -38 -10 -70 2 -71 27 -1 12 -7
23 -13 25 -5 2 -10 11 -10 19 0 9 -6 13 -15 9 -9 -3 -15 0 -15 9 0 8 -9 15
-20 15 -11 0 -19 3 -18 8 0 4 -2 14 -5 22 -3 8 -7 28 -9 43 -2 16 -6 26 -9 23z
m295 -425 c19 -7 18 -8 -4 -14 -25 -6 -40 -2 -40 14 0 11 17 11 44 0z m116
-61 c0 -13 -30 -13 -50 0 -11 7 -7 10 18 10 17 0 32 -4 32 -10z m90 -235 c0
-8 -4 -15 -9 -15 -13 0 -22 16 -14 24 11 11 23 6 23 -9z m155 -196 c-8 -12
-35 -12 -35 0 0 11 22 20 33 14 4 -2 5 -9 2 -14z m160 -329 c-5 -8 -11 -8 -17
-2 -6 6 -7 16 -3 22 5 8 11 8 17 2 6 -6 7 -16 3 -22z m135 -97 c0 -16 -5 -35
-10 -43 -8 -12 -10 -11 -10 7 0 13 -8 24 -20 28 -11 3 -20 10 -20 15 0 7 10
11 53 19 4 0 7 -11 7 -26z m-152 -24 c-12 -7 -24 -7 -35 0 -15 9 -12 10 17 10
29 0 32 -1 18 -10z m12 -79 c0 -5 -9 -10 -20 -10 -11 0 -20 5 -20 10 0 6 9 10
20 10 11 0 20 -4 20 -10z m-480 -50 c0 -5 -6 -10 -14 -10 -8 0 -18 5 -21 10
-3 6 3 10 14 10 12 0 21 -4 21 -10z m756 -42 c4 -7 4 -10 -1 -6 -4 4 -14 0
-21 -10 -10 -13 -15 -14 -25 -5 -11 11 -2 19 38 32 1 1 5 -5 9 -11z m-106 -19
c11 -19 10 -20 -10 -9 -11 6 -18 15 -15 21 9 13 13 11 25 -12z m-571 -46 c0
-25 -1 -25 -8 -8 -5 11 -7 23 -4 28 8 14 13 7 12 -20z m602 2 c12 8 23 -41 14
-62 -6 -15 -10 -11 -20 17 -13 33 -20 81 -8 52 2 -6 9 -10 14 -7z m-56 -5 c-3
-5 -19 -10 -36 -10 -16 0 -29 5 -29 10 0 6 16 10 36 10 21 0 33 -4 29 -10z
m226 -40 c6 0 7 -4 4 -10 -3 -5 0 -10 9 -10 19 0 76 -48 76 -65 0 -12 -21 -25
-40 -25 -5 0 -17 14 -27 30 -17 29 -43 41 -43 19 0 -6 -7 -17 -15 -25 -8 -9
-15 -24 -15 -35 0 -11 -4 -17 -10 -14 -16 10 -11 44 10 65 15 15 18 27 13 51
-5 28 -4 31 11 26 10 -4 22 -7 27 -7z m-770 -53 c-18 -18 -38 8 -21 28 12 15
14 15 23 0 6 -11 5 -21 -2 -28z m699 24 c0 -23 -16 -36 -25 -21 -9 14 1 40 15
40 5 0 10 -9 10 -19z m-640 -6 c0 -8 -4 -15 -9 -15 -13 0 -22 16 -14 24 11 11
23 6 23 -9z m480 0 c0 -8 -9 -15 -20 -15 -11 0 -20 7 -20 15 0 8 9 15 20 15
11 0 20 -7 20 -15z m-170 -5 c0 -5 -9 -10 -20 -10 -11 0 -20 5 -20 10 0 6 9
10 20 10 11 0 20 -4 20 -10z m-70 -30 c0 -5 -9 -10 -20 -10 -11 0 -20 5 -20
10 0 6 9 10 20 10 11 0 20 -4 20 -10z m-237 -24 c7 -18 -3 -56 -14 -56 -5 0
-9 16 -9 35 0 35 13 47 23 21z m408 -45 c-27 -27 -31 -26 -31 3 0 15 7 26 18
29 29 6 35 -10 13 -32z m99 32 c0 -5 -11 -18 -24 -31 -30 -28 -43 -13 -15 16
20 22 39 29 39 15z m214 -45 c9 -34 8 -37 -14 -31 -19 5 -27 33 -13 46 12 12
21 7 27 -15z m-644 -20 c0 -5 -4 -8 -10 -8 -5 0 -10 10 -10 23 0 18 2 19 10 7
5 -8 10 -18 10 -22z m130 17 c0 -13 -4 -14 -20 -5 -11 6 -20 13 -20 15 0 3 9
5 20 5 11 0 20 -7 20 -15z m380 -35 c18 -22 37 -40 41 -40 5 0 9 16 9 35 0 40
8 44 33 14 13 -15 17 -33 15 -67 -3 -46 -4 -46 -16 -19 -15 34 -26 34 -38 0
l-9 -27 -20 42 c-14 30 -26 42 -42 42 -22 0 -40 31 -28 50 11 17 21 11 55 -30z
m-460 -56 c0 -14 -4 -23 -9 -19 -11 6 -10 45 1 45 4 0 8 -12 8 -26z m276 11
c-3 -8 0 -15 6 -15 6 0 8 -3 5 -6 -8 -8 -37 14 -37 27 0 5 7 9 16 9 10 0 14
-6 10 -15z m104 5 c0 -5 -7 -10 -15 -10 -8 0 -15 5 -15 10 0 6 7 10 15 10 8 0
15 -4 15 -10z m-204 -25 c4 -10 20 -15 46 -15 26 0 37 -4 32 -11 -6 -11 -98
-8 -109 3 -8 8 6 38 16 38 5 0 12 -7 15 -15z m254 -26 c0 -33 -3 -40 -17 -37
-32 6 -30 78 2 78 11 0 15 -11 15 -41z m-294 -24 c-8 -23 -25 -9 -19 16 4 13
9 17 16 10 5 -5 7 -17 3 -26z m200 9 c-22 -21 -39 -17 -18 4 9 11 20 17 25 15
4 -2 1 -11 -7 -19z m-280 -52 c-3 -9 1 -29 9 -45 14 -27 14 -27 -16 -25 -24 2
-28 5 -22 23 4 11 7 31 8 45 4 54 5 56 16 37 6 -9 8 -25 5 -35z m210 19 c-3
-4 1 -17 9 -27 8 -10 15 -14 15 -8 0 6 14 14 31 18 17 3 28 9 25 14 -2 4 4 9
15 9 23 2 25 -13 4 -33 -8 -9 -15 -24 -15 -35 0 -16 -5 -18 -27 -13 -16 3 -34
15 -42 25 -10 15 -17 16 -33 8 -22 -12 -52 -4 -43 11 3 5 15 10 26 10 10 0 19
7 19 15 0 8 5 15 11 15 5 0 8 -4 5 -9z m-293 -22 c13 -20 -6 -42 -41 -47 -20
-3 -22 0 -16 25 4 15 9 32 11 36 7 12 35 4 46 -14z m191 -25 c7 -18 0 -34 -15
-34 -5 0 -9 11 -9 25 0 28 15 34 24 9z m-21 -64 c3 -12 14 -20 26 -20 12 0 21
-4 21 -9 0 -5 -9 -7 -21 -4 -12 3 -25 0 -29 -7 -11 -18 -30 -3 -30 24 0 38 24
50 33 16z m-113 -150 c0 -30 -13 -40 -25 -20 -8 13 4 50 16 50 5 0 9 -13 9
-30z"/>
<path d="M18806 7885 c-3 -10 -2 -23 4 -29 15 -15 22 -2 12 24 -8 21 -9 22
-16 5z"/>
<path d="M1020 7510 c0 -5 -7 -10 -15 -10 -8 0 -15 -4 -15 -9 0 -5 -3 -16 -6
-25 -4 -12 0 -16 15 -16 12 0 21 -6 21 -15 0 -8 5 -15 10 -15 6 0 10 7 10 15
0 8 -4 15 -10 15 -14 0 -12 27 3 33 9 4 9 6 0 6 -7 1 -10 8 -7 16 4 8 3 15 0
15 -3 0 -6 -4 -6 -10z"/>
<path d="M1180 7423 c0 -22 2 -25 10 -13 13 20 13 40 0 40 -5 0 -10 -12 -10
-27z"/>
<path d="M1260 7384 c0 -8 5 -14 10 -14 6 0 10 -7 10 -16 0 -9 5 -14 11 -12 6
2 10 7 10 11 -1 4 -1 13 -1 21 0 7 -9 16 -20 19 -13 3 -20 0 -20 -9z"/>
<path d="M10086 7382 c-2 -4 -8 -31 -12 -59 -6 -49 -8 -52 -51 -68 -38 -15
-47 -15 -55 -4 -7 11 -11 11 -15 2 -5 -14 -33 -18 -33 -5 0 4 -12 13 -27 19
-24 11 -30 10 -50 -9 -27 -25 -29 -62 -8 -106 21 -42 89 -56 244 -49 119 5
208 24 268 58 21 12 53 19 85 19 73 0 175 19 189 36 22 26 3 44 -48 44 -49 0
-166 -24 -195 -40 -25 -14 -56 -12 -61 3 -3 9 -7 9 -20 -2 -14 -11 -21 -10
-45 10 -16 13 -43 35 -60 48 -18 13 -32 29 -32 35 -1 23 -65 83 -74 68z"/>
<path d="M1307 7292 c-23 -25 -21 -32 8 -32 25 0 31 14 17 38 -7 10 -12 8 -25
-6z"/>
<path d="M1360 7265 c0 -14 -5 -25 -11 -25 -9 0 -9 -13 1 -77 0 -2 7 -3 15 -3
18 0 19 12 3 28 -8 8 -8 12 -1 12 11 0 34 76 25 85 -14 14 -32 3 -32 -20z"/>
<path d="M1530 7249 c0 -5 13 -9 30 -9 23 0 28 -4 24 -17 -5 -16 -4 -16 6 0 7
10 9 21 6 24 -10 10 -66 11 -66 2z"/>
<path d="M9527 7213 c-4 -3 -7 -17 -7 -30 0 -19 5 -23 30 -23 23 0 30 4 30 20
0 24 -38 48 -53 33z"/>
<path d="M1512 7121 c-11 -7 -10 -10 3 -15 26 -10 35 -7 35 9 0 17 -18 19 -38
6z"/>
<path d="M1576 7121 c-10 -15 10 -22 36 -12 12 6 18 10 11 10 -6 1 -18 4 -26
7 -8 3 -18 1 -21 -5z"/>
<path d="M1578 7011 c-4 -45 14 -57 27 -18 12 37 11 52 -6 55 -13 2 -18 -6
-21 -37z"/>
<path d="M1430 6988 c0 -5 7 -16 15 -24 13 -14 15 -13 15 9 0 14 -6 24 -15 24
-8 0 -15 -4 -15 -9z"/>
<path d="M1577 6868 c-4 -12 -4 -33 -1 -45 4 -14 2 -23 -5 -23 -6 0 -11 -4
-11 -8 0 -4 8 -8 18 -8 14 0 17 10 19 53 3 53 -10 72 -20 31z"/>
<path d="M1630 6875 c0 -8 7 -15 15 -15 8 0 15 7 15 15 0 8 -7 15 -15 15 -8 0
-15 -7 -15 -15z"/>
<path d="M1900 6873 c0 -5 5 -15 10 -23 8 -12 10 -11 10 8 0 12 -4 22 -10 22
-5 0 -10 -3 -10 -7z"/>
<path d="M10458 6863 c-30 -5 -46 -36 -29 -57 6 -7 7 -17 3 -22 -4 -4 1 -2 11
5 9 8 20 11 23 8 11 -11 64 15 64 32 0 20 -19 42 -34 40 -6 -1 -23 -4 -38 -6z"/>
<path d="M1670 6846 c0 -9 7 -12 20 -9 11 3 17 9 14 14 -8 14 -34 10 -34 -5z"/>
<path d="M1470 6835 c0 -8 9 -19 19 -25 26 -13 31 -13 31 5 0 8 -7 15 -15 15
-8 0 -15 5 -15 10 0 6 -4 10 -10 10 -5 0 -10 -7 -10 -15z"/>
<path d="M1395 6820 c3 -6 -1 -13 -9 -16 -9 -3 -16 -10 -16 -15 0 -10 33 -12
42 -3 9 8 -3 44 -14 44 -5 0 -6 -5 -3 -10z"/>
<path d="M10270 6761 c-8 -5 -40 -10 -70 -12 -30 -1 -61 -7 -67 -12 -9 -6 -18
-5 -28 3 -16 13 -103 9 -127 -6 -15 -10 -63 -11 -116 -3 -23 3 -45 2 -48 -3
-3 -4 -10 -5 -16 -2 -5 4 -20 2 -31 -4 -12 -5 -48 -21 -79 -33 -53 -22 -58
-26 -58 -56 0 -36 -23 -46 -35 -15 -5 14 -10 9 -26 -23 -18 -37 -19 -41 -2
-52 9 -7 20 -13 24 -13 4 0 9 -10 11 -22 2 -17 9 -22 26 -21 14 2 22 -3 22
-12 0 -16 -20 -15 -84 6 -40 13 -73 11 -79 -3 -4 -10 -7 -10 -15 0 -12 17 -42
4 -42 -18 0 -11 -4 -22 -10 -25 -5 -3 -10 -15 -10 -26 0 -26 -16 -24 -24 3 -4
18 -8 20 -18 10 -15 -15 -50 -16 -66 0 -9 9 -12 9 -12 0 0 -7 -8 -12 -18 -12
-9 0 -33 -11 -52 -24 -19 -13 -50 -27 -67 -30 -18 -4 -33 -12 -33 -17 0 -5 -7
-9 -15 -9 -8 0 -15 5 -15 10 0 6 -11 10 -25 10 -14 0 -25 -4 -25 -10 0 -5 -20
-10 -45 -10 -26 0 -45 -5 -45 -11 0 -7 -12 -10 -30 -7 -22 3 -31 0 -35 -13 -4
-11 -21 -19 -53 -24 -26 -4 -53 -12 -60 -18 -10 -8 -16 -7 -21 2 -5 7 -26 15
-47 17 -22 3 -48 7 -58 9 -11 2 -26 -1 -33 -7 -8 -6 -38 -10 -68 -9 -30 1 -55
-2 -55 -6 0 -14 -97 -53 -115 -47 -10 4 -21 1 -25 -7 -5 -7 -24 -15 -42 -17
-18 -2 -36 -9 -40 -15 -4 -6 -26 -10 -52 -8 -35 2 -48 -1 -52 -13 -4 -10 -18
-16 -38 -16 -26 0 -34 -5 -43 -30 -8 -21 -16 -28 -26 -24 -9 3 -20 -2 -25 -13
-8 -14 -22 -18 -68 -17 -50 0 -62 -4 -81 -24 -15 -17 -23 -20 -24 -11 0 8 -5
2 -11 -13 -10 -30 -27 -35 -46 -16 -9 9 -12 9 -12 0 0 -7 -11 -12 -24 -12 -13
0 -40 -7 -61 -16 -27 -11 -54 -13 -103 -8 -37 3 -69 8 -71 10 -2 2 -15 -8 -27
-22 -19 -20 -27 -23 -43 -14 -24 12 -34 13 -27 1 4 -5 -3 -7 -14 -4 -11 3 -27
0 -35 -7 -8 -6 -19 -9 -26 -5 -6 4 -14 4 -18 -1 -3 -5 -23 -17 -44 -26 -21
-10 -42 -29 -47 -42 -5 -14 -17 -24 -27 -24 -10 0 -31 -5 -48 -12 -16 -7 -34
-12 -38 -12 -4 1 -10 -5 -13 -13 -4 -10 -21 -15 -54 -15 -40 0 -50 -4 -64 -25
-14 -21 -20 -24 -37 -14 -17 8 -23 7 -33 -7 -8 -10 -26 -17 -45 -17 -27 0 -33
-5 -37 -27 -5 -23 -10 -25 -40 -22 -21 3 -34 0 -34 -7 0 -6 -9 -11 -20 -11
-29 0 -82 -29 -75 -40 4 -6 -2 -10 -11 -10 -47 0 -138 -36 -157 -62 -27 -37
-83 -40 -96 -6 l-8 22 -12 -21 c-8 -17 -22 -23 -58 -25 -37 -2 -48 -7 -53 -23
-5 -21 -30 -33 -30 -15 0 6 -5 10 -11 10 -5 0 -7 -4 -4 -10 4 -6 -7 -10 -24
-10 -17 0 -31 4 -31 9 0 5 -23 11 -51 13 -28 3 -55 11 -60 19 -6 11 -12 9 -28
-8 -14 -15 -29 -20 -46 -17 -14 2 -25 0 -25 -6 0 -5 -6 -10 -14 -10 -8 0 -17
-12 -20 -26 -5 -19 -11 -24 -25 -19 -12 3 -21 0 -25 -10 -3 -9 -10 -13 -16
-10 -5 3 -10 1 -10 -4 0 -6 11 -11 25 -11 20 0 25 -5 25 -24 0 -13 -6 -26 -14
-29 -8 -3 -12 -15 -9 -30 4 -22 1 -26 -36 -32 -32 -5 -42 -12 -47 -31 -7 -27
-22 -32 -30 -9 -8 20 -33 19 -41 -2 -11 -30 -46 -72 -55 -67 -4 3 -8 0 -8 -6
0 -6 -4 -9 -9 -5 -5 3 -13 0 -16 -6 -8 -13 -56 -3 -67 14 -6 9 -8 9 -8 0 0 -7
-6 -13 -13 -13 -7 0 -19 -8 -27 -18 -41 -49 -41 -49 -29 -76 8 -18 9 -29 1
-38 -19 -23 -50 -126 -41 -135 5 -5 4 -22 -3 -40 -11 -30 -10 -35 19 -70 17
-21 34 -53 38 -71 3 -18 15 -37 26 -43 11 -5 17 -14 14 -20 -4 -5 8 -12 26
-16 19 -4 34 -13 37 -25 6 -26 28 -16 24 12 -3 33 25 60 65 60 37 0 44 15 12
25 -26 9 -21 39 8 43 15 2 23 -4 28 -19 6 -17 9 -19 16 -8 5 8 9 9 9 3 0 -11
35 -12 46 -1 17 16 52 5 72 -23 25 -33 78 -42 88 -16 3 8 14 16 24 19 10 3 20
15 22 28 2 16 11 25 26 27 14 2 22 10 22 22 0 20 49 60 73 60 8 0 17 7 21 15
3 8 12 15 21 15 8 0 15 5 15 11 0 5 5 7 10 4 6 -3 10 -1 10 4 0 8 23 9 70 5
50 -5 70 -4 70 5 0 20 28 12 48 -14 20 -25 54 -26 51 -1 -4 37 23 52 35 20 5
-14 9 -14 23 -3 9 8 19 13 22 12 3 -2 6 1 6 6 0 5 3 12 7 16 8 8 2 -67 -7 -96
-3 -10 -16 -21 -28 -25 -21 -7 -61 -43 -68 -62 -4 -10 -67 -21 -127 -21 -29
-1 -32 -3 -26 -26 4 -17 2 -25 -7 -25 -16 0 -3 -13 17 -16 9 -2 13 3 11 11 -4
9 1 11 14 8 12 -3 19 -14 19 -29 0 -27 24 -33 34 -8 5 12 13 14 33 9 16 -4 30
-10 33 -14 3 -4 13 -10 23 -14 18 -7 24 -37 7 -37 -5 0 -10 -4 -10 -9 0 -6 12
-4 27 4 15 8 31 11 36 8 6 -4 8 0 5 8 -4 10 1 15 13 16 12 1 17 -3 13 -9 -4
-6 -7 -24 -6 -39 0 -22 -4 -29 -19 -29 -10 0 -19 -4 -19 -10 0 -5 7 -10 15
-10 23 0 65 30 65 46 0 8 3 13 8 12 4 -1 25 2 46 7 32 6 42 5 53 -10 12 -17
13 -17 13 -2 0 9 -4 17 -10 17 -18 0 -10 17 13 26 36 15 73 6 86 -22 9 -21 14
-23 31 -14 11 6 20 18 20 28 0 15 -2 15 -10 2 -5 -8 -10 -10 -10 -4 0 7 -9 14
-20 17 -28 7 -25 20 7 35 25 11 30 10 51 -14 l24 -25 19 20 c11 12 26 21 34
21 8 0 15 5 15 10 0 6 9 10 20 10 24 0 26 9 4 25 -15 11 -15 14 7 33 24 23 63
29 74 12 10 -16 23 -12 30 11 4 11 13 18 20 15 7 -2 21 4 31 15 9 10 23 19 31
19 16 0 20 3 83 60 25 22 48 40 52 40 7 0 24 14 87 70 9 8 38 31 64 50 25 19
49 43 52 53 4 9 13 17 21 17 16 0 82 39 105 63 8 8 25 18 37 21 12 4 22 12 22
17 0 5 7 9 15 9 8 0 15 3 15 8 0 4 17 18 38 32 20 14 39 27 42 30 25 25 120
90 133 90 9 0 20 6 24 13 9 14 41 35 66 43 9 4 17 10 17 14 0 5 21 18 48 30
111 52 157 75 160 83 2 4 20 7 39 7 21 0 41 7 48 16 9 12 28 16 80 15 37 0 73
3 79 8 6 5 34 11 61 14 60 6 155 36 155 48 0 5 7 9 15 9 8 0 15 4 15 10 0 5
11 12 25 16 14 3 25 10 25 15 0 5 9 9 19 9 11 0 23 5 27 11 5 8 -4 10 -30 7
-39 -4 -52 16 -16 27 25 8 26 24 3 41 -16 12 -15 13 15 14 20 0 31 4 27 10 -3
6 -1 10 4 10 6 0 11 8 11 18 0 11 3 13 8 5 5 -8 13 -9 22 -3 20 13 40 12 40 0
0 -5 -9 -10 -20 -10 -25 0 -16 -25 19 -57 18 -16 34 -21 50 -17 27 6 141 84
141 96 0 4 7 8 14 8 16 0 193 171 221 214 14 21 25 26 61 26 23 0 45 4 48 9
10 15 121 23 152 10 16 -7 52 -15 79 -19 28 -4 64 -12 80 -18 17 -6 56 -19 88
-28 31 -10 57 -22 57 -26 0 -4 7 -8 15 -8 23 0 157 -47 229 -80 35 -17 71 -30
80 -30 9 0 16 -4 16 -10 0 -5 12 -10 28 -10 l27 1 -27 22 c-15 12 -37 29 -50
38 -19 13 -24 27 -26 67 -1 37 2 51 13 56 9 3 15 19 15 41 0 35 23 51 32 23 3
-8 10 -4 17 10 11 21 10 24 -8 29 -12 3 -21 9 -21 13 0 4 -11 11 -25 14 -14 4
-25 11 -25 16 0 6 -7 10 -15 10 -8 0 -15 4 -15 8 0 15 -83 102 -96 102 -8 0
-14 5 -14 10 0 6 -5 10 -11 10 -7 0 -34 14 -61 30 -26 17 -55 30 -63 30 -8 0
-15 4 -15 9 0 5 -11 12 -25 15 -14 4 -25 11 -25 16 0 6 -6 10 -13 10 -20 0
-47 33 -47 58 0 36 31 44 90 22 59 -22 157 -39 271 -49 84 -7 78 -3 189 -112
44 -44 82 -79 85 -79 3 0 5 7 5 15 0 8 7 15 15 15 8 0 15 4 15 9 0 5 20 19 45
31 39 19 48 20 71 8 28 -14 30 -16 63 -87 l20 -43 6 38 c41 262 58 347 83 407
9 20 19 37 24 37 4 0 8 4 8 9 0 13 -69 19 -115 9 -22 -5 -52 -9 -67 -8 -18 0
-28 -5 -28 -14 0 -21 -30 -25 -64 -8 -16 8 -44 14 -62 15 -23 1 -36 7 -40 19
-6 21 -15 23 -31 7 -7 -7 -27 -7 -69 0 -68 13 -65 13 -84 2z m-1260 -972 c0
-23 -25 -25 -34 -3 -10 26 -7 32 14 27 11 -3 20 -14 20 -24z m-3010 -408 c0
-15 -16 -22 -34 -15 -25 9 -19 24 9 24 14 0 25 -4 25 -9z m-110 -161 c0 -5
-11 -10 -25 -10 -14 0 -25 5 -25 10 0 6 11 10 25 10 14 0 25 -4 25 -10z m-28
-82 c-6 -6 -15 -9 -18 -5 -4 3 -4 14 0 23 5 13 9 15 18 6 9 -9 9 -15 0 -24z
m794 -295 c-11 -11 -19 6 -11 24 8 17 8 17 12 0 3 -10 2 -21 -1 -24z m-126
-208 c0 -8 -4 -15 -10 -15 -5 0 -10 7 -10 15 0 8 5 15 10 15 6 0 10 -7 10 -15z"/>
<path d="M1390 6746 c0 -8 5 -18 10 -21 6 -3 10 3 10 14 0 12 -4 21 -10 21 -5
0 -10 -6 -10 -14z"/>
<path d="M1500 6715 c0 -16 16 -20 24 -6 3 5 -1 11 -9 15 -9 3 -15 0 -15 -9z"/>
<path d="M1596 6721 c-17 -6 -17 -8 -3 -14 8 -3 17 -18 20 -34 3 -20 4 -16 6
15 0 23 0 42 -1 41 -2 0 -12 -4 -22 -8z"/>
<path d="M12485 6698 c-4 -18 -2 -44 4 -58 8 -21 10 -16 10 33 1 64 -5 74 -14
25z"/>
<path d="M348 6694 c-3 -5 -2 -19 3 -32 8 -20 11 -21 31 -11 18 10 20 13 8 17
-8 3 -20 12 -26 20 -6 8 -13 11 -16 6z"/>
<path d="M1286 6656 c3 -8 12 -12 20 -9 21 8 17 23 -6 23 -13 0 -18 -5 -14
-14z"/>
<path d="M1330 6620 c-13 -9 -13 -11 0 -20 20 -13 47 -13 56 1 7 11 -12 29
-31 29 -5 0 -17 -5 -25 -10z"/>
<path d="M1446 6595 c-8 -22 3 -40 16 -27 7 7 7 16 1 27 -9 16 -10 16 -17 0z"/>
<path d="M11432 6590 c-12 -12 -22 -27 -22 -35 0 -8 -4 -15 -10 -15 -5 0 -10
-11 -10 -25 0 -14 -7 -28 -15 -31 -8 -4 -15 -19 -15 -34 0 -16 -4 -32 -10 -35
-5 -3 -10 -17 -10 -30 0 -14 -6 -42 -14 -62 -16 -44 -33 -135 -46 -248 -12
-102 -30 -204 -40 -230 -10 -23 -30 -130 -37 -192 -3 -24 -9 -43 -14 -43 -5 0
-9 -9 -9 -21 0 -21 -17 -66 -46 -122 -8 -16 -14 -38 -14 -50 -1 -12 -7 -33
-15 -47 -25 -44 -18 -66 35 -107 53 -41 76 -87 66 -129 -4 -14 -41 -59 -84
-102 -105 -104 -127 -136 -146 -210 -14 -56 -49 -118 -81 -147 -22 -19 -65
-95 -65 -115 0 -11 -4 -20 -10 -20 -5 0 -10 -6 -10 -12 0 -7 -14 -22 -30 -33
-16 -11 -30 -23 -30 -27 0 -5 -6 -8 -13 -8 -27 0 -85 -50 -92 -79 -3 -17 -17
-46 -31 -66 -13 -20 -24 -41 -24 -48 0 -7 -12 -23 -25 -36 -26 -24 -35 -84
-15 -96 6 -3 10 -18 10 -33 0 -15 7 -40 15 -56 8 -15 15 -42 15 -59 0 -39 26
-70 49 -58 9 5 27 30 41 55 13 25 28 46 32 46 5 0 8 5 8 11 0 23 83 143 126
182 25 22 63 49 85 59 50 22 160 24 192 4 13 -9 49 -14 91 -14 38 0 73 -5 79
-11 12 -12 64 -15 69 -3 2 4 33 22 71 40 37 19 67 37 67 41 0 4 21 14 46 24
43 16 48 16 100 -3 l54 -19 14 22 c8 12 17 39 20 60 4 20 11 37 16 37 6 0 10
11 10 25 0 14 4 25 9 25 8 0 51 162 51 195 0 8 -13 41 -30 72 -16 31 -30 62
-30 69 0 8 -4 14 -9 14 -5 0 -15 15 -22 33 -6 17 -18 48 -26 67 -28 68 -32
101 -18 139 13 38 48 114 65 141 5 8 17 34 26 58 15 34 23 42 44 42 31 0 50
-17 50 -45 0 -12 5 -26 10 -31 6 -6 12 -35 14 -65 2 -30 14 -74 26 -98 25 -49
22 -84 -10 -144 -24 -45 -26 -92 -4 -101 20 -8 122 -8 151 0 15 4 22 16 26 42
21 148 29 197 37 213 15 27 15 186 1 203 -8 10 -9 16 -1 21 17 11 11 47 -14
79 -13 18 -25 40 -27 50 -2 10 -13 24 -23 30 -31 18 -56 45 -56 60 0 7 -7 30
-15 49 -11 26 -15 73 -15 160 0 99 -3 127 -15 137 -8 7 -15 20 -15 29 0 9 -16
25 -35 35 -27 15 -36 27 -41 55 -4 20 -15 57 -25 83 -33 86 -49 177 -49 286 0
75 -5 115 -15 136 -8 15 -15 34 -15 41 0 16 -23 25 -66 25 -32 0 -48 -20 -25
-34 4 -3 11 -28 15 -55 5 -39 2 -58 -14 -89 -20 -38 -20 -40 -3 -73 10 -18 24
-39 31 -47 18 -20 14 -91 -8 -139 -26 -58 -107 -143 -136 -143 -45 0 -54 -10
-54 -59 0 -29 -8 -61 -22 -86 -27 -51 -60 -169 -47 -173 5 -2 9 -9 9 -17 0 -7
19 -29 42 -48 42 -36 42 -37 41 -96 -1 -33 -7 -69 -13 -80 -11 -22 -14 -204
-3 -215 17 -17 31 -101 20 -121 -14 -26 -33 -45 -46 -45 -6 0 -11 -4 -11 -10
0 -5 -18 -10 -40 -10 -22 0 -40 5 -40 10 0 6 -7 10 -15 10 -8 0 -15 4 -15 10
0 5 -10 21 -22 36 -21 23 -41 75 -52 130 -2 11 2 45 10 74 8 30 14 71 14 91 0
21 5 39 11 41 6 2 11 15 11 28 -1 14 -1 66 -2 115 -1 60 3 105 14 135 9 25 16
53 16 62 0 9 6 21 14 25 13 8 21 34 34 108 5 30 14 43 35 53 l27 13 -36 43
c-51 61 -73 133 -74 234 0 61 4 87 15 98 8 9 15 26 15 40 0 13 5 24 10 24 6 0
10 13 10 29 0 16 6 31 15 35 8 3 15 12 15 21 0 9 11 26 25 39 29 27 32 41 9
50 -20 8 -17 9 -42 -14z m-197 -1230 c14 -28 14 -31 -5 -50 -38 -38 -80 -20
-80 35 0 39 6 45 41 45 21 0 32 -7 44 -30z m406 -262 c25 -28 24 -53 -3 -72
-29 -20 -47 -20 -70 1 -22 20 -25 73 -3 73 8 0 15 5 15 10 0 18 42 10 61 -12z
m379 -55 c0 -20 -3 -24 -11 -16 -7 7 -9 19 -6 27 10 24 17 19 17 -11z m-796
-228 c14 -37 -27 -68 -50 -38 -18 24 -17 34 1 27 8 -4 17 1 21 10 8 20 20 21
28 1z m397 -57 c22 -42 -48 -79 -77 -40 -21 27 -16 50 14 60 33 11 49 6 63
-20z m-468 -98 c20 -24 21 -49 4 -71 -33 -43 -97 -23 -97 31 0 55 58 80 93 40z
m571 -106 c37 -37 2 -81 -54 -69 -37 8 -48 39 -24 66 21 23 57 25 78 3z"/>
<path d="M12460 6518 c0 -51 3 -68 10 -58 13 20 13 130 0 130 -6 0 -10 -31
-10 -72z"/>
<path d="M342 6553 c5 -25 28 -28 28 -4 0 12 -6 21 -16 21 -9 0 -14 -7 -12
-17z"/>
<path d="M498 6563 c-21 -5 -24 -23 -4 -23 8 0 16 7 20 15 3 8 4 14 3 14 -1
-1 -10 -3 -19 -6z"/>
<path d="M1250 6545 c0 -8 5 -15 10 -15 6 0 10 -10 10 -22 0 -31 15 -52 30
-43 15 9 4 57 -16 68 -8 5 -12 12 -9 18 4 5 -1 9 -9 9 -9 0 -16 -7 -16 -15z"/>
<path d="M406 6531 c-4 -5 -3 -17 0 -26 5 -13 8 -14 15 -3 5 7 9 19 9 26 0 14
-16 16 -24 3z"/>
<path d="M540 6525 c0 -8 5 -15 10 -15 6 0 10 7 10 15 0 8 -4 15 -10 15 -5 0
-10 -7 -10 -15z"/>
<path d="M1181 6498 c-1 -21 4 -38 9 -38 12 0 12 27 0 55 -7 16 -9 13 -9 -17z"/>
<path d="M310 6501 c0 -6 6 -11 13 -11 8 0 20 -11 27 -25 17 -31 30 -23 21 13
-5 20 -15 28 -34 30 -15 2 -27 -1 -27 -7z"/>
<path d="M487 6483 c-12 -11 -8 -23 8 -23 8 0 15 7 15 15 0 16 -12 20 -23 8z"/>
<path d="M394 6446 c-3 -9 -1 -23 5 -30 7 -8 9 -25 5 -41 -5 -21 -4 -27 7 -23
8 3 15 19 15 39 1 19 3 40 5 48 5 20 -30 26 -37 7z"/>
<path d="M496 6442 c-15 -3 -17 -11 -13 -42 3 -21 0 -43 -6 -49 -14 -14 10
-42 32 -39 28 5 43 38 17 38 -26 0 -29 21 -7 44 17 18 19 25 8 37 -6 9 -20 14
-31 11z"/>
<path d="M12437 6423 c-4 -3 -7 -42 -7 -85 0 -44 -5 -88 -10 -99 -6 -10 -13
-55 -17 -99 -3 -44 -10 -83 -15 -86 -4 -3 -8 -34 -8 -70 0 -41 4 -63 10 -59 6
3 10 28 10 55 0 33 5 50 15 54 11 4 15 21 15 64 0 32 4 62 9 68 10 10 20 264
10 264 -3 0 -9 -3 -12 -7z"/>
<path d="M1340 6387 c0 -15 4 -27 9 -27 6 0 8 10 6 21 -6 33 -15 36 -15 6z"/>
<path d="M1420 6370 c0 -5 9 -10 21 -10 11 0 17 5 14 10 -3 6 -13 10 -21 10
-8 0 -14 -4 -14 -10z"/>
<path d="M1150 6345 c0 -8 5 -15 10 -15 6 0 10 7 10 15 0 8 -4 15 -10 15 -5 0
-10 -7 -10 -15z"/>
<path d="M613 6274 c-18 -18 -16 -25 5 -22 13 2 17 -4 17 -24 -1 -16 3 -28 7
-28 4 0 8 -7 8 -16 0 -8 5 -12 10 -9 6 3 10 -3 10 -14 0 -12 5 -21 10 -21 6 0
10 31 10 74 l0 75 -29 -9 c-17 -4 -31 -5 -33 0 -2 4 -9 2 -15 -6z"/>
<path d="M726 6283 c-8 -9 -6 -83 3 -107 7 -18 8 -18 14 5 15 56 4 123 -17
102z"/>
<path d="M394 6269 c-9 -16 18 -30 33 -17 7 6 13 14 13 19 0 13 -38 11 -46 -2z"/>
<path d="M807 6259 c-4 -13 -7 -38 -7 -55 0 -16 -9 -40 -20 -52 -27 -29 -25
-47 5 -50 19 -1 25 3 25 18 0 11 5 20 10 20 12 0 12 96 1 124 -7 18 -8 18 -14
-5z"/>
<path d="M1980 6260 c0 -19 3 -21 12 -12 9 9 9 15 0 24 -9 9 -12 7 -12 -12z"/>
<path d="M455 6240 c-3 -5 -3 -10 1 -10 4 0 -1 -7 -12 -16 -10 -8 -14 -13 -9
-11 6 3 29 10 53 16 23 7 40 16 37 21 -8 13 -62 13 -70 0z"/>
<path d="M1060 6210 c0 -5 7 -10 15 -10 8 0 15 5 15 10 0 6 -7 10 -15 10 -8 0
-15 -4 -15 -10z"/>
<path d="M1900 6179 c0 -11 5 -17 10 -14 6 3 10 13 10 21 0 8 -4 14 -10 14 -5
0 -10 -9 -10 -21z"/>
<path d="M10663 6156 c-13 -27 -23 -52 -23 -57 0 -5 -18 -12 -40 -15 -36 -6
-40 -9 -40 -36 0 -23 12 -42 46 -76 48 -47 64 -46 64 6 0 13 5 32 10 43 6 10
9 56 8 102 l-3 82 -22 -49z"/>
<path d="M566 6176 c5 -13 4 -17 -4 -12 -7 4 -12 1 -12 -8 0 -8 7 -13 18 -11
18 3 18 22 1 40 -7 7 -8 3 -3 -9z"/>
<path d="M1275 6183 c3 -7 2 -13 -3 -13 -6 0 -12 -7 -16 -15 -4 -11 1 -15 19
-15 29 0 31 9 9 36 -8 10 -13 13 -9 7z"/>
<path d="M1147 6163 c-12 -11 -8 -23 8 -23 8 0 15 7 15 15 0 16 -12 20 -23 8z"/>
<path d="M490 6131 c0 -5 7 -12 16 -15 22 -9 24 -8 24 9 0 8 -9 15 -20 15 -11
0 -20 -4 -20 -9z"/>
<path d="M1360 6125 c0 -8 5 -15 10 -15 6 0 10 7 10 15 0 8 -4 15 -10 15 -5 0
-10 -7 -10 -15z"/>
<path d="M1960 6122 c0 -7 -9 -12 -19 -12 -10 0 -21 -7 -25 -15 -3 -8 -16 -15
-28 -16 -22 0 -22 -1 -3 -9 36 -16 53 -10 69 22 9 17 14 34 11 36 -3 3 -5 0
-5 -6z"/>
<path d="M647 6083 c-11 -10 -8 -41 5 -49 6 -4 16 0 23 9 7 10 17 17 24 17 20
0 12 17 -11 24 -29 7 -33 7 -41 -1z"/>
<path d="M572 6045 c-1 -16 3 -25 12 -25 16 0 29 27 20 41 -11 18 -30 8 -32
-16z"/>
<path d="M1500 6036 c0 -28 1 -29 15 -10 19 25 19 41 0 41 -10 0 -15 -10 -15
-31z"/>
<path d="M1159 6043 c-7 -10 -9 -15 -4 -10 4 4 17 -1 28 -10 11 -10 17 -12 13
-5 -4 7 -1 15 8 18 24 9 19 24 -8 24 -13 0 -30 -8 -37 -17z"/>
<path d="M470 6029 c0 -25 45 -82 72 -92 14 -5 16 -3 9 11 -5 9 -13 30 -17 46
-6 20 -18 32 -36 37 -16 4 -28 3 -28 -2z"/>
<path d="M866 6033 c-12 -12 -5 -23 14 -23 11 0 20 4 20 9 0 11 -26 22 -34 14z"/>
<path d="M1697 6033 c-13 -3 -16 -10 -11 -26 9 -30 10 -30 38 -23 21 5 24 10
17 28 -9 24 -17 28 -44 21z"/>
<path d="M335 6020 c3 -5 13 -10 21 -10 8 0 14 5 14 10 0 6 -9 10 -21 10 -11
0 -17 -4 -14 -10z"/>
<path d="M790 6021 c0 -13 26 -32 33 -24 14 13 6 33 -13 33 -11 0 -20 -4 -20
-9z"/>
<path d="M1403 6016 c0 -8 8 -11 19 -8 10 2 15 8 12 13 -8 14 -31 11 -31 -5z"/>
<path d="M1580 6004 c0 -33 33 -30 38 4 3 17 -2 22 -17 22 -16 0 -21 -6 -21
-26z"/>
<path d="M373 5943 c-3 -10 -8 -21 -10 -25 -2 -4 3 -5 11 -2 9 3 16 2 16 -3 0
-5 7 -10 15 -10 8 0 15 4 15 9 0 4 -4 8 -10 8 -5 0 -10 9 -10 20 0 25 -18 26
-27 3z"/>
<path d="M705 5945 c-19 -14 -18 -14 13 -15 22 0 32 4 30 12 -6 18 -22 20 -43
3z"/>
<path d="M603 5931 c-30 -15 -46 -51 -22 -51 16 0 53 22 62 36 11 19 27 18 27
-1 0 -8 -4 -15 -10 -15 -5 0 -10 -4 -10 -9 0 -15 29 -21 52 -11 13 5 18 9 11
9 -6 1 -20 15 -30 31 -19 33 -33 35 -80 11z"/>
<path d="M1020 5942 c0 -5 20 -9 45 -8 25 0 45 4 45 8 0 4 -20 8 -45 8 -25 0
-45 -4 -45 -8z"/>
<path d="M1390 5916 c0 -10 9 -16 25 -16 14 0 25 5 25 10 0 6 -4 10 -9 10 -5
0 -16 3 -25 6 -11 4 -16 1 -16 -10z"/>
<path d="M460 5886 c0 -20 34 -59 53 -62 13 -2 16 5 14 25 -2 15 -7 32 -11 39
-10 17 -56 15 -56 -2z"/>
<path d="M860 5885 c0 -17 9 -19 28 -6 11 7 10 10 -3 15 -23 9 -25 8 -25 -9z"/>
<path d="M1060 5891 c0 -5 -16 -12 -35 -15 -45 -9 -45 -23 0 -28 24 -3 40 1
50 12 19 21 19 40 0 40 -8 0 -15 -4 -15 -9z"/>
<path d="M1206 5865 c-3 -9 0 -15 9 -15 16 0 20 16 6 24 -5 3 -11 -1 -15 -9z"/>
<path d="M663 5843 c-20 -7 12 -34 31 -27 20 8 20 20 0 28 -9 3 -16 6 -17 5
-1 0 -8 -3 -14 -6z"/>
<path d="M608 5833 c6 -2 10 -8 8 -12 -7 -10 12 -37 19 -29 12 12 -6 48 -23
47 -11 0 -12 -2 -4 -6z"/>
<path d="M1129 5812 c-3 -18 -2 -35 2 -38 12 -7 16 9 9 41 l-6 30 -5 -33z"/>
<path d="M860 5810 c0 -21 7 -25 27 -12 9 6 7 11 -7 20 -17 11 -20 10 -20 -8z"/>
<path d="M1310 5806 c0 -16 23 -27 36 -18 19 14 13 32 -11 32 -15 0 -25 -6
-25 -14z"/>
<path d="M676 5793 c-3 -3 -6 -20 -6 -36 0 -25 2 -28 15 -17 8 7 15 21 15 31
0 19 -13 32 -24 22z"/>
<path d="M750 5780 c0 -5 13 -8 29 -7 16 1 27 5 24 10 -6 10 -53 9 -53 -3z"/>
<path d="M544 5759 c-5 -8 -1 -10 26 -13 6 -1 11 3 13 8 3 12 -31 17 -39 5z"/>
<path d="M1360 5730 c0 -32 14 -40 24 -15 6 18 -2 45 -15 45 -5 0 -9 -13 -9
-30z"/>
<path d="M255 5730 c3 -5 13 -10 21 -10 8 0 14 5 14 10 0 6 -9 10 -21 10 -11
0 -17 -4 -14 -10z"/>
<path d="M867 5733 c-15 -26 -17 -71 -3 -83 14 -11 16 -6 15 39 -2 50 -4 58
-12 44z"/>
<path d="M115 5701 c3 -6 -4 -15 -16 -21 l-21 -12 23 -12 c19 -9 27 -8 39 4
13 13 13 17 -2 33 -19 18 -33 23 -23 8z"/>
<path d="M986 5702 c-2 -4 0 -14 5 -22 8 -13 10 -13 18 0 10 15 6 30 -9 30 -5
0 -11 -4 -14 -8z"/>
<path d="M1207 5677 c-3 -8 -1 -20 4 -28 6 -10 9 -7 9 14 0 29 -5 35 -13 14z"/>
<path d="M1284 5674 c4 -9 0 -27 -8 -39 -13 -20 -13 -24 -1 -29 24 -9 30 -7
29 9 -1 8 -2 29 -3 45 0 17 -6 30 -12 30 -6 0 -8 -7 -5 -16z"/>
<path d="M12333 5645 c0 -27 2 -38 4 -22 2 15 2 37 0 50 -2 12 -4 0 -4 -28z"/>
<path d="M1121 5661 c-19 -12 -5 -47 18 -47 11 0 17 4 15 8 -3 4 0 8 5 8 17 0
13 27 -5 34 -19 7 -16 8 -33 -3z"/>
<path d="M750 5640 c0 -11 5 -20 10 -20 6 0 10 9 10 20 0 11 -4 20 -10 20 -5
0 -10 -9 -10 -20z"/>
<path d="M1208 5605 c2 -14 8 -23 12 -20 10 6 1 45 -10 45 -4 0 -5 -11 -2 -25z"/>
<path d="M356 5602 c-3 -3 -6 -9 -6 -14 0 -11 37 -10 44 1 6 10 -30 22 -38 13z"/>
<path d="M1040 5560 c0 -35 12 -38 42 -10 24 22 19 32 -17 37 -22 3 -25 0 -25
-27z"/>
<path d="M300 5571 c0 -5 -3 -16 -6 -25 -4 -11 -1 -16 10 -16 18 0 22 35 6 45
-5 3 -10 2 -10 -4z"/>
<path d="M960 5572 c0 -5 7 -17 15 -28 8 -10 15 -29 15 -41 0 -26 15 -31 24
-7 10 25 7 31 -15 37 -16 4 -19 11 -14 26 5 15 2 21 -9 21 -9 0 -16 -4 -16 -8z"/>
<path d="M1143 5554 c-4 -16 -7 -33 -8 -39 0 -5 -12 -10 -27 -10 -34 -1 -47
-13 -28 -25 23 -15 60 -12 60 4 0 7 9 16 20 19 23 6 26 34 5 61 -13 17 -14 17
-22 -10z"/>
<path d="M880 5521 c0 -9 24 -21 41 -21 5 0 9 7 9 15 0 9 -9 15 -25 15 -14 0
-25 -4 -25 -9z"/>
<path d="M10960 5476 c0 -13 -11 -34 -25 -47 -21 -21 -25 -33 -25 -91 0 -39 4
-68 10 -68 6 0 10 12 10 28 1 15 7 38 15 52 8 14 14 39 15 56 0 19 6 34 15 38
8 3 15 17 15 31 0 16 -6 25 -15 25 -9 0 -15 -9 -15 -24z"/>
<path d="M12301 5448 c0 -39 3 -48 9 -33 12 28 12 85 0 85 -5 0 -10 -24 -9
-52z"/>
<path d="M866 5459 c3 -5 10 -7 15 -4 5 3 6 -2 2 -12 -5 -15 -3 -16 8 -5 7 6
21 12 31 12 10 0 18 4 18 9 0 6 -18 9 -40 9 -22 0 -37 -4 -34 -9z"/>
<path d="M1041 5448 c17 -34 19 -34 19 -5 0 18 -5 27 -15 27 -13 0 -14 -4 -4
-22z"/>
<path d="M752 5423 c2 -12 14 -19 37 -21 21 -2 31 0 26 7 -3 6 -15 11 -26 11
-10 0 -19 5 -19 10 0 6 -5 10 -11 10 -6 0 -9 -8 -7 -17z"/>
<path d="M963 5420 c1 -11 8 -20 15 -20 11 0 12 3 3 13 -6 8 -8 17 -4 20 3 4
1 7 -5 7 -6 0 -10 -9 -9 -20z"/>
<path d="M216 5385 c-3 -9 0 -15 9 -15 16 0 20 16 6 24 -5 3 -11 -1 -15 -9z"/>
<path d="M910 5365 c0 -16 6 -25 15 -25 16 0 19 9 9 34 -9 25 -24 19 -24 -9z"/>
<path d="M999 5365 c-1 -3 -2 -10 -3 -15 0 -6 -8 -15 -16 -20 -12 -8 -11 -10
8 -10 17 0 22 6 22 25 0 22 -8 35 -11 20z"/>
<path d="M12276 5348 c-9 -35 -7 -68 4 -68 6 0 10 20 10 45 0 50 -4 57 -14 23z"/>
<path d="M942 5254 c-21 -9 -3 -24 29 -24 20 0 29 4 27 13 -5 13 -35 19 -56
11z"/>
<path d="M10865 5244 c-17 -18 -18 -85 0 -90 11 -4 45 64 45 89 0 22 -24 22
-45 1z"/>
<path d="M888 5184 c5 -9 23 -23 41 -30 29 -12 31 -12 31 6 0 11 -7 20 -15 20
-8 0 -15 5 -15 10 0 6 -11 10 -25 10 -21 0 -24 -3 -17 -16z"/>
<path d="M12248 5155 c-3 -25 -2 -59 1 -77 7 -31 8 -29 14 22 9 74 9 100 -2
100 -4 0 -11 -20 -13 -45z"/>
<path d="M951 5121 c-15 -20 -31 -31 -47 -31 -17 0 -24 -5 -24 -20 0 -11 7
-20 15 -20 8 0 15 6 15 14 0 11 10 13 40 9 35 -5 40 -3 40 14 0 10 3 23 8 29
4 5 5 8 3 7 -2 -2 -9 5 -16 14 -10 14 -14 12 -34 -16z"/>
<path d="M10810 5065 c0 -15 4 -24 10 -20 6 3 10 12 10 20 0 8 -4 17 -10 20
-6 4 -10 -5 -10 -20z"/>
<path d="M945 5042 c-3 -3 -5 -14 -5 -25 0 -19 1 -20 20 -2 11 10 20 21 20 25
0 8 -28 9 -35 2z"/>
<path d="M882 5009 c2 -6 8 -10 13 -10 5 0 11 4 13 10 2 6 -4 11 -13 11 -9 0
-15 -5 -13 -11z"/>
<path d="M12221 4923 c1 -50 3 -61 9 -43 12 36 12 110 0 110 -6 0 -10 -29 -9
-67z"/>
<path d="M10829 4944 c-11 -14 -10 -18 6 -30 10 -8 24 -14 31 -14 15 0 28 35
19 50 -9 15 -41 12 -56 -6z"/>
<path d="M971 4918 c-1 -16 4 -28 9 -28 12 0 12 8 0 35 -8 18 -9 17 -9 -7z"/>
<path d="M12197 4833 c-11 -10 -8 -51 3 -58 6 -4 10 8 10 29 0 37 -2 41 -13
29z"/>
<path d="M860 4794 c0 -8 10 -14 26 -14 28 0 25 15 -6 23 -13 3 -20 0 -20 -9z"/>
<path d="M656 4789 c3 -5 -6 -9 -19 -9 -18 0 -27 -7 -31 -26 -4 -15 -5 -29 -1
-32 3 -3 5 2 5 10 0 18 20 28 56 28 13 0 24 5 24 10 0 6 0 13 0 18 0 4 -9 8
-20 8 -11 1 -17 -3 -14 -7z"/>
<path d="M803 4773 c4 -3 2 -12 -5 -20 -13 -17 -4 -28 17 -20 21 9 20 47 -2
47 -9 0 -13 -3 -10 -7z"/>
<path d="M720 4740 c0 -5 14 -10 30 -10 17 0 30 5 30 10 0 6 -13 10 -30 10
-16 0 -30 -4 -30 -10z"/>
<path d="M6246 4665 c-4 -14 -4 -30 -1 -36 10 -16 27 2 22 22 -3 11 -2 17 3
14 4 -3 13 2 20 10 10 13 8 15 -13 15 -18 0 -26 -7 -31 -25z"/>
<path d="M510 4635 c0 -7 -8 -19 -17 -24 -12 -7 -13 -11 -5 -11 16 0 42 24 42
39 0 6 -4 11 -10 11 -5 0 -10 -7 -10 -15z"/>
<path d="M4620 4629 c0 -5 5 -9 10 -9 13 0 1 -50 -16 -67 -7 -7 -17 -13 -22
-13 -6 0 -10 -16 -10 -36 0 -20 -5 -40 -11 -43 -6 -4 -12 -18 -14 -31 -3 -20
-11 -26 -35 -28 -31 -3 -37 -13 -32 -52 1 -8 9 -21 18 -27 19 -16 8 -17 -19
-3 -15 9 -21 7 -26 -6 -3 -9 0 -19 6 -24 10 -5 9 -8 -1 -13 -10 -3 -13 -20
-12 -55 2 -36 -2 -52 -12 -56 -8 -3 -14 1 -14 9 0 8 -6 15 -14 15 -21 0 -8
-37 14 -43 15 -4 20 -16 22 -58 3 -47 6 -54 25 -57 14 -2 23 3 28 17 3 12 15
21 25 21 20 0 34 47 16 53 -6 2 -7 8 -3 13 4 4 16 3 26 -3 13 -8 18 -8 18 1 0
23 35 66 54 66 11 0 19 5 19 11 0 5 -4 7 -10 4 -6 -3 -7 1 -4 10 4 8 16 18 28
21 24 6 30 30 13 52 -7 9 -7 16 1 24 7 7 12 18 12 25 0 8 6 21 13 29 6 8 17
20 22 27 6 7 12 28 13 47 2 21 12 42 24 53 22 18 31 54 17 63 -4 2 -12 -4 -18
-13 -13 -24 -19 -16 -22 32 -4 55 -9 61 -29 35 l-17 -22 -41 20 c-23 11 -42
16 -42 11z"/>
<path d="M810 4594 c0 -29 30 -26 41 4 7 19 5 21 -16 20 -18 -2 -25 -8 -25
-24z"/>
<path d="M5680 4597 c0 -30 10 -40 26 -26 10 8 11 16 3 30 -14 26 -29 24 -29
-4z"/>
<path d="M5840 4595 c0 -28 15 -34 24 -9 10 25 7 34 -9 34 -9 0 -15 -9 -15
-25z"/>
<path d="M883 4544 c-7 -7 -13 -18 -13 -24 0 -5 -4 -10 -10 -10 -5 0 -10 -7
-10 -15 0 -8 -6 -15 -12 -16 -7 0 -4 -4 7 -8 25 -11 35 -5 35 20 0 10 7 19 15
19 8 0 15 9 15 19 0 26 -12 32 -27 15z"/>
<path d="M5650 4550 c0 -5 7 -10 15 -10 8 0 15 5 15 10 0 6 -7 10 -15 10 -8 0
-15 -4 -15 -10z"/>
<path d="M30 4525 c0 -8 5 -15 10 -15 6 0 10 7 10 15 0 8 -4 15 -10 15 -5 0
-10 -7 -10 -15z"/>
<path d="M590 4525 c0 -16 9 -19 34 -9 25 9 19 24 -9 24 -16 0 -25 -6 -25 -15z"/>
<path d="M5708 4515 c2 -14 8 -25 13 -25 5 0 9 11 9 25 0 14 -6 25 -14 25 -9
0 -12 -8 -8 -25z"/>
<path d="M5845 4530 c-4 -6 6 -10 22 -10 22 0 25 2 13 10 -19 12 -27 12 -35 0z"/>
<path d="M6400 4525 c0 -8 -7 -15 -15 -15 -8 0 -15 -4 -15 -10 0 -5 13 -10 28
-10 22 0 28 5 30 25 1 16 -3 25 -13 25 -8 0 -15 -7 -15 -15z"/>
<path d="M6190 4500 c0 -5 11 -10 25 -10 14 0 25 5 25 10 0 6 -11 10 -25 10
-14 0 -25 -4 -25 -10z"/>
<path d="M60 4475 c0 -8 5 -15 10 -15 6 0 10 7 10 15 0 8 -4 15 -10 15 -5 0
-10 -7 -10 -15z"/>
<path d="M540 4477 c0 -9 -5 -17 -11 -17 -5 0 -7 -4 -4 -10 3 -5 10 -10 15
-10 13 0 21 33 10 44 -7 7 -10 5 -10 -7z"/>
<path d="M700 4468 c0 -12 3 -18 7 -14 11 10 12 36 2 36 -5 0 -9 -10 -9 -22z"/>
<path d="M1017 4483 c-14 -13 -6 -39 18 -62 20 -18 25 -20 25 -7 0 9 -4 16
-10 16 -5 0 -10 14 -10 30 0 29 -9 38 -23 23z"/>
<path d="M5630 4475 c0 -8 5 -15 10 -15 6 0 10 7 10 15 0 8 -4 15 -10 15 -5 0
-10 -7 -10 -15z"/>
<path d="M5577 4454 c-8 -8 1 -24 14 -24 5 0 9 7 9 15 0 15 -12 20 -23 9z"/>
<path d="M483 4439 c10 -6 14 -15 10 -22 -4 -7 1 -6 10 2 20 16 16 24 -16 28
-20 2 -20 2 -4 -8z"/>
<path d="M11954 4413 c-12 -39 -39 -93 -46 -93 -5 0 -8 -5 -8 -10 0 -15 -63
-143 -77 -158 -7 -7 -13 -17 -13 -21 0 -4 -11 -13 -25 -19 -38 -18 -30 -35 28
-62 28 -13 54 -27 57 -30 3 -3 18 -12 33 -20 36 -18 47 -4 47 62 0 26 5 50 10
53 6 3 10 32 10 64 0 32 7 91 16 130 9 39 13 82 10 96 -7 29 -34 33 -42 8z"/>
<path d="M370 4395 c0 -8 7 -15 15 -15 8 0 15 7 15 15 0 8 -7 15 -15 15 -8 0
-15 -7 -15 -15z"/>
<path d="M810 4353 c0 -21 3 -24 9 -14 5 8 7 20 4 28 -8 21 -13 15 -13 -14z"/>
<path d="M590 4357 c0 -8 6 -14 14 -14 8 0 12 6 9 14 -3 7 -9 13 -14 13 -5 0
-9 -6 -9 -13z"/>
<path d="M486 4353 c-11 -11 -6 -23 9 -23 8 0 15 4 15 9 0 13 -16 22 -24 14z"/>
<path d="M1070 4306 c0 -14 5 -26 10 -26 6 0 10 7 10 15 0 8 0 18 1 22 0 4 -4
9 -10 11 -6 2 -11 -8 -11 -22z"/>
<path d="M882 4308 c6 -18 46 -18 52 -2 4 10 -4 14 -25 14 -20 0 -29 -4 -27
-12z"/>
<path d="M1196 4255 c4 -9 11 -14 16 -13 15 5 11 23 -6 26 -11 2 -14 -2 -10
-13z"/>
<path d="M12118 4240 c-4 -14 -9 -43 -12 -65 -3 -22 -8 -57 -12 -77 -6 -38 0
-45 24 -30 9 6 12 34 10 103 -2 58 -6 84 -10 69z"/>
<path d="M4412 4040 c0 -19 2 -27 5 -17 2 9 2 25 0 35 -3 9 -5 1 -5 -18z"/>
<path d="M4395 3970 c-3 -5 3 -10 15 -10 12 0 18 5 15 10 -3 6 -10 10 -15 10
-5 0 -12 -4 -15 -10z"/>
<path d="M5574 3973 c-7 -2 -10 -13 -7 -23 3 -11 1 -20 -5 -20 -9 0 -22 -27
-27 -60 -1 -8 -6 -33 -10 -54 -6 -28 -5 -37 4 -32 6 4 11 3 11 -2 0 -5 -10
-13 -22 -17 -14 -4 -18 -8 -10 -12 6 -2 12 -17 12 -32 0 -62 13 -121 26 -121
8 0 14 -4 14 -10 0 -5 -4 -10 -10 -10 -5 0 -7 -7 -4 -15 4 -9 0 -15 -9 -15
-10 0 -13 -8 -9 -25 5 -27 22 -35 22 -10 0 8 5 15 10 15 6 0 10 -4 10 -10 0
-5 6 -10 14 -10 7 0 16 -9 19 -19 4 -16 11 -19 37 -15 19 3 30 2 26 -4 -3 -5
6 -7 20 -4 24 4 26 8 22 47 -3 42 3 48 30 32 7 -5 12 -4 12 2 0 6 5 11 11 11
5 0 7 -5 3 -11 -4 -7 7 -1 25 12 17 13 29 29 27 35 -7 19 35 25 52 7 14 -14
14 -17 -1 -28 -22 -16 -21 -20 4 -22 12 -1 28 5 37 13 12 13 13 19 2 40 -8 13
-17 24 -22 24 -5 0 -6 5 -3 10 3 6 -1 10 -9 10 -9 0 -16 7 -16 15 0 8 -6 15
-14 15 -15 0 -66 62 -66 79 0 6 -4 11 -10 11 -5 0 -10 8 -10 18 0 10 -16 37
-35 59 -19 23 -33 48 -30 55 4 9 -4 19 -20 26 -15 7 -25 20 -25 32 0 11 -4 20
-10 20 -5 0 -10 -11 -10 -25 0 -16 -6 -25 -15 -25 -8 0 -15 9 -15 19 0 22 -9
30 -26 24z m197 -367 c5 3 9 -7 9 -22 0 -21 -3 -24 -13 -15 -8 6 -17 8 -20 4
-9 -8 -9 11 0 33 4 11 8 13 11 6 2 -7 8 -10 13 -6z"/>
<path d="M13390 3296 c0 -8 5 -18 10 -21 6 -4 4 -12 -6 -22 -13 -14 -17 -14
-25 -2 -5 8 -9 17 -9 22 0 14 -20 7 -20 -8 0 -9 -7 -26 -15 -38 -10 -15 -12
-35 -8 -61 7 -46 23 -29 23 27 0 20 5 37 11 37 5 0 8 -4 4 -9 -8 -14 37 -56
62 -57 13 -1 20 3 17 11 -3 7 1 15 9 18 10 4 13 14 9 32 -3 16 0 30 8 35 18
11 1 33 -20 27 -11 -3 -21 1 -24 9 -7 18 -26 18 -26 0z"/>
<path d="M17878 2928 c9 -9 15 -9 24 0 9 9 7 12 -12 12 -19 0 -21 -3 -12 -12z"/>
<path d="M18841 2881 c-10 -6 -10 -10 -1 -16 9 -6 9 -10 -1 -17 -12 -8 -12 -9
0 -6 8 2 15 14 16 26 1 12 1 22 1 22 -1 0 -7 -4 -15 -9z"/>
<path d="M4183 3 c703 -2 1851 -2 2550 0 700 1 125 2 -1278 2 -1402 0 -1975
-1 -1272 -2z"/>
<path d="M12788 3 c12 -2 30 -2 40 0 9 3 -1 5 -23 4 -22 0 -30 -2 -17 -4z"/>
<path d="M13563 3 c37 -2 97 -2 135 0 37 2 6 3 -68 3 -74 0 -105 -1 -67 -3z"/>
<path d="M15053 3 c632 -2 1662 -2 2290 0 628 1 112 2 -1148 2 -1259 0 -1773
-1 -1142 -2z"/>
<path d="M19483 3 c82 -2 212 -2 290 0 78 1 12 3 -148 3 -159 0 -223 -2 -142
-3z"/>
</g>
</svg>
