<?xml version="1.0" standalone="no"?>
<!DOCTYPE svg PUBLIC "-//W3C//DTD SVG 20010904//EN"
 "http://www.w3.org/TR/2001/REC-SVG-20010904/DTD/svg10.dtd">
<svg version="1.0" xmlns="http://www.w3.org/2000/svg"
 width="1338.000000pt" height="944.000000pt" viewBox="0 0 1338.000000 944.000000"
 preserveAspectRatio="xMidYMid meet">
<metadata>
Created by potrace 1.12, written by Peter Selinger 2001-2015
</metadata>
<g transform="translate(0.000000,944.000000) scale(0.100000,-0.100000)"
fill="#000000" stroke="none">
<path d="M0 4720 l0 -4720 6690 0 6690 0 0 4720 0 4720 -6690 0 -6690 0 0
-4720z m11382 3588 c70 -32 128 -85 159 -143 13 -25 31 -48 41 -51 9 -2 21
-19 27 -36 14 -39 14 -473 1 -797 -7 -171 -6 -238 2 -248 17 -21 1 -363 -18
-384 -11 -13 -13 -31 -8 -80 3 -35 1 -167 -5 -294 -16 -325 -30 -765 -37
-1184 -6 -317 -5 -365 9 -409 14 -43 16 -85 12 -289 -10 -442 -23 -688 -41
-735 -8 -24 -19 -61 -24 -83 -10 -45 -16 -422 -8 -445 27 -76 30 -94 19 -134
-21 -82 -32 -219 -31 -387 2 -155 0 -172 -17 -184 -10 -8 -21 -15 -25 -15 -5
0 -8 -9 -8 -19 0 -11 -6 -26 -14 -34 -8 -8 -18 -32 -21 -53 -23 -127 -91 -268
-159 -327 -117 -100 -171 -114 -536 -137 -141 -8 -156 -8 -170 8 -62 71 -118
80 -189 28 -25 -18 -66 -43 -91 -55 -25 -11 -58 -29 -75 -39 -39 -23 -120 -44
-148 -37 -12 3 -27 2 -32 -2 -17 -12 -61 -95 -69 -127 -6 -26 -9 -27 -22 -14
-13 13 -20 74 -13 120 1 9 22 27 46 40 24 13 43 26 43 30 0 5 -95 8 -211 8
-117 0 -218 4 -229 10 -29 16 -31 54 -9 157 26 124 47 189 65 204 8 6 14 17
14 23 0 7 18 30 40 51 22 21 40 47 40 56 0 10 4 19 10 21 5 2 10 28 12 58 3
52 2 54 -27 64 -52 16 -100 39 -107 50 -4 8 -48 9 -150 4 -186 -9 -228 -16
-228 -33 0 -8 -12 -18 -27 -21 -41 -10 -116 -50 -133 -71 -9 -10 -21 -32 -29
-50 -10 -24 -25 -37 -58 -49 -60 -23 -165 -25 -189 -3 -11 9 -31 19 -46 23
-52 12 -66 101 -78 500 -8 287 -11 317 -37 419 -27 108 -27 109 -8 123 41 28
45 36 45 87 0 29 3 82 6 119 6 62 9 68 35 77 15 5 36 7 47 4 26 -6 136 34 158
59 18 19 97 58 118 58 36 0 157 73 211 128 33 34 63 61 68 62 10 0 8 -83 -3
-145 -5 -27 -12 -70 -16 -95 -5 -37 -12 -49 -35 -63 -20 -11 -29 -24 -29 -42
0 -19 -6 -29 -20 -32 -31 -8 -53 -59 -51 -121 1 -57 -20 -112 -44 -112 -8 0
-15 -12 -17 -27 -3 -24 -7 -28 -31 -25 -18 2 -29 -2 -34 -14 -6 -17 -2 -22 76
-84 17 -14 31 -28 31 -32 0 -5 11 -31 25 -60 34 -71 33 -92 -2 -83 -16 3 -30
11 -31 16 -8 22 -36 39 -73 45 -24 4 -44 14 -50 25 -5 11 -18 19 -28 19 -10 0
-26 9 -35 19 -10 10 -33 22 -52 25 -63 11 -109 16 -96 10 6 -3 9 -10 6 -16 -3
-5 4 -19 17 -31 19 -18 36 -22 87 -22 53 0 65 -3 74 -20 6 -11 20 -26 30 -33
10 -7 18 -25 18 -41 0 -16 10 -36 23 -48 24 -23 130 -73 154 -73 8 0 28 -7 44
-16 35 -18 125 -25 152 -12 9 5 17 18 17 29 0 12 10 23 25 29 16 6 25 18 26
32 0 15 15 34 41 53 45 32 58 62 50 114 -4 26 -14 39 -48 59 -42 26 -44 29
-44 77 0 30 -10 74 -25 110 -26 62 -35 178 -16 190 6 3 13 27 16 53 8 64 44
183 61 203 8 8 14 19 14 23 0 31 129 255 152 264 4 2 8 10 8 17 0 25 39 37
103 32 82 -7 176 -22 218 -35 19 -6 54 -13 79 -17 45 -6 202 -42 230 -53 8 -3
22 -6 30 -7 139 -16 239 -78 174 -107 -14 -6 -23 -16 -21 -22 2 -6 37 -22 79
-36 41 -14 86 -31 99 -37 35 -18 107 -40 157 -48 32 -5 46 -13 54 -31 7 -14
20 -24 32 -24 19 0 19 -1 -4 -13 -14 -7 -26 -22 -28 -33 -3 -22 32 -38 115
-54 125 -23 185 -38 196 -49 6 -6 28 -11 48 -11 29 0 40 -6 54 -27 l17 -26 15
34 c16 36 20 134 42 949 6 206 13 447 16 535 5 156 15 535 35 1325 5 212 10
435 10 495 l0 111 -32 9 c-46 14 -48 42 -6 59 l33 14 6 -31 c3 -18 6 33 7 113
1 80 4 229 8 331 4 103 4 207 0 233 -9 57 8 56 -294 16 -231 -30 -882 -112
-1747 -221 -263 -33 -481 -61 -483 -63 -5 -6 -10 -97 -32 -611 -11 -258 -29
-670 -40 -915 -28 -622 -49 -1091 -59 -1321 -4 -110 -13 -204 -19 -215 -6 -10
-12 -13 -12 -6 0 6 -8 12 -17 12 -9 0 -24 7 -33 15 -12 11 -45 17 -105 20
-105 5 -122 16 -80 52 17 14 51 44 77 67 25 22 58 50 73 60 55 41 51 7 85 636
5 96 14 270 20 385 6 116 15 284 21 375 5 91 14 271 19 400 6 129 14 298 20
375 5 77 12 241 15 365 7 270 30 557 51 637 41 156 157 279 309 326 44 14 236
46 365 61 50 6 491 66 705 96 158 22 363 49 605 81 91 12 192 25 225 29 111
15 235 6 297 -22z m-1747 -1149 c0 -18 -5 -23 -20 -21 -26 5 -34 13 -17 19 6
3 12 11 12 20 0 8 6 13 13 11 6 -3 12 -16 12 -29z m191 -36 c8 -11 13 -46 14
-89 0 -51 4 -75 15 -84 8 -7 15 -21 15 -31 0 -21 -41 -115 -61 -142 -13 -16
-16 -16 -37 -1 -22 15 -65 93 -61 110 1 5 -3 22 -9 37 -21 51 -16 67 23 69 19
0 41 1 48 2 7 1 11 -8 8 -24 -10 -65 -9 -68 49 -61 18 2 11 30 -11 41 -18 10
-20 17 -14 61 6 40 4 54 -10 69 -11 12 -14 26 -10 39 8 26 23 27 41 4z m64
-71 c0 -32 -2 -34 -14 -22 -9 9 -12 26 -9 42 7 38 23 25 23 -20z m-130 -453
c0 -6 -11 -20 -24 -30 -13 -10 -27 -30 -30 -44 -4 -17 -16 -27 -39 -33 -38
-11 -47 -7 -25 11 9 6 28 32 43 56 20 32 29 40 35 30 7 -11 10 -10 16 4 7 19
24 23 24 6z m-160 -104 c10 -12 10 -18 0 -31 -12 -13 -15 -13 -28 0 -15 15
-10 46 6 46 5 0 15 -7 22 -15z m184 -61 c9 -24 7 -27 -9 -10 -17 17 -19 26 -6
26 5 0 12 -7 15 -16z m-189 -54 c3 -6 0 -17 -8 -25 -12 -12 -17 -12 -26 -1 -7
9 -7 16 1 24 15 15 25 15 33 2z m235 -70 c0 -11 -4 -20 -10 -20 -5 0 -10 9
-10 20 0 11 5 20 10 20 6 0 10 -9 10 -20z m-250 -75 c0 -8 -4 -15 -9 -15 -13
0 -22 16 -14 24 11 11 23 6 23 -9z m303 -86 c-4 -13 -9 -17 -16 -10 -12 12 -1
45 12 37 5 -3 7 -15 4 -27z m-395 -260 c-2 -6 -8 -10 -13 -10 -5 0 -11 4 -13
10 -2 6 4 11 13 11 9 0 15 -5 13 -11z m210 -73 c-2 -2 -16 -6 -33 -10 -24 -5
-27 -4 -12 5 12 7 16 17 12 29 -3 11 0 30 6 42 12 22 13 21 22 -20 5 -24 7
-45 5 -46z m28 -52 c5 -26 2 -40 -9 -52 -19 -18 -22 -16 -32 16 -5 19 -2 25
14 29 17 4 19 9 10 24 -6 12 -6 19 0 19 6 0 13 -16 17 -36z m-86 -70 c0 -14
-4 -23 -9 -20 -5 3 -7 15 -4 26 7 28 13 25 13 -6z m0 -107 c0 -18 -5 -38 -12
-45 -6 -6 -8 -15 -4 -19 4 -4 11 -1 16 6 5 9 14 11 26 6 11 -5 23 -7 27 -6 5
1 7 -4 5 -11 -3 -7 -15 -13 -28 -13 -13 0 -25 -6 -28 -13 -2 -8 5 -11 20 -10
17 2 24 -3 26 -19 2 -14 8 -20 18 -16 17 6 17 1 3 -31 -7 -14 -18 -27 -26 -30
-11 -4 -11 -1 -3 14 8 15 8 20 -2 20 -20 1 -67 46 -78 75 -15 39 -12 75 5 75
9 0 15 9 15 25 0 14 5 25 10 25 6 0 10 -15 10 -33z m108 -190 c2 -11 -3 -15
-17 -14 -12 1 -21 2 -21 3 0 32 32 41 38 11z m120 -140 c-9 -36 -15 -44 -25
-35 -16 13 -6 58 16 75 22 16 23 12 9 -40z m-198 -11 c0 -6 -7 -2 -15 8 -8 11
-15 25 -15 30 0 6 7 2 15 -8 8 -11 15 -25 15 -30z m-160 19 c0 -8 -4 -15 -9
-15 -5 0 -11 7 -15 15 -3 9 0 15 9 15 8 0 15 -7 15 -15z m-127 -82 c-5 -12 -7
-12 -14 -1 -5 7 -9 19 -9 27 0 11 3 11 14 1 8 -6 12 -18 9 -27z m67 1 c0 -8
-4 -12 -10 -9 -5 3 -10 13 -10 21 0 8 5 12 10 9 6 -3 10 -13 10 -21z m116 -20
c-4 -9 -2 -22 3 -28 6 -8 6 -17 -1 -26 -8 -13 -9 -13 -5 1 3 9 -4 21 -16 28
-20 13 -20 14 -2 27 24 18 29 18 21 -2z m518 -10 c6 -10 21 -36 34 -58 15 -24
22 -46 18 -61 -3 -12 -1 -37 5 -55 7 -20 8 -35 2 -41 -6 -6 -14 6 -22 33 -6
24 -17 53 -23 66 -14 28 -48 30 -48 2 0 -11 -7 -20 -15 -20 -16 0 -18 23 -6
55 4 10 3 32 -3 48 -9 24 -8 31 9 43 23 17 35 14 49 -12z m-871 -62 c14 -39
15 -56 7 -97 -6 -28 -13 -67 -17 -87 -3 -21 -9 -38 -14 -38 -11 0 -32 68 -25
85 6 18 -3 45 -15 45 -5 0 -9 -30 -9 -67 0 -76 -10 -77 -21 0 -12 76 -12 77
-11 139 2 56 3 58 35 66 44 12 51 8 70 -46z m466 49 c7 -5 16 -29 18 -55 3
-25 10 -46 16 -46 5 0 7 13 4 29 -6 30 15 52 29 29 12 -18 14 -78 3 -78 -5 0
-1 -10 11 -22 18 -20 26 -38 16 -38 -14 0 -36 14 -36 22 0 12 -30 37 -43 38
-5 0 -5 -4 -2 -10 3 -5 -1 -10 -9 -10 -17 0 -19 13 -7 45 6 15 3 22 -13 30
-14 7 -22 21 -23 43 -1 32 10 40 36 23z m188 -121 c-6 -26 -4 -30 16 -30 18 0
23 -5 22 -27 0 -21 -5 -27 -17 -25 -12 2 -16 -2 -12 -13 6 -15 17 -19 42 -16
20 3 14 -23 -10 -38 -18 -11 -22 -11 -32 5 -15 26 -36 135 -30 157 9 30 27 19
21 -13z m-369 -84 c3 -12 -1 -17 -10 -14 -7 3 -15 13 -16 22 -3 12 1 17 10 14
7 -3 15 -13 16 -22z m261 -10 c-16 -14 -47 -15 -53 -1 -3 9 -2 14 2 11 4 -2
14 -1 22 4 14 8 40 -4 29 -14z m61 -1 c0 -8 -4 -15 -10 -15 -5 0 -10 7 -10 15
0 8 5 15 10 15 6 0 10 -7 10 -15z m-63 -61 c-6 -7 -37 7 -37 16 0 15 35 16 38
2 2 -7 2 -16 -1 -18z m23 -48 c0 -9 -13 -7 -29 3 -7 5 -10 14 -7 20 5 8 11 7
22 -3 8 -8 14 -17 14 -20z m-1291 -485 c39 -21 20 -71 -27 -71 -27 0 -52 -21
-52 -45 0 -24 -31 -87 -52 -106 -10 -9 -18 -22 -18 -28 0 -16 -52 -87 -110
-151 -111 -121 -146 -191 -165 -335 -4 -27 -19 -75 -35 -107 -16 -31 -32 -73
-36 -94 -4 -22 -19 -59 -34 -84 -15 -25 -31 -61 -34 -81 -4 -21 -15 -48 -26
-62 -17 -21 -18 -30 -9 -51 10 -21 8 -29 -12 -55 -21 -26 -42 -39 -109 -71 -9
-4 -30 -11 -47 -14 -37 -8 -58 -30 -49 -51 6 -17 -34 -37 -96 -49 -36 -7 -48
-19 -30 -30 5 -3 30 -6 56 -7 48 -3 77 -19 34 -19 -26 0 -68 -25 -68 -41 0 -5
11 -14 25 -19 44 -17 25 -56 -47 -95 -35 -19 -35 -33 -3 -41 38 -9 24 -28 -26
-36 -60 -8 -132 -29 -144 -40 -24 -24 207 10 288 41 16 6 70 10 120 10 51 -1
82 -4 69 -6 -13 -3 -26 -11 -29 -19 -3 -8 -12 -14 -20 -14 -34 0 -105 -43
-121 -73 -20 -36 -67 -85 -97 -99 -32 -15 -66 -35 -78 -47 -14 -14 2 -14 57
-2 48 12 74 4 50 -14 -10 -7 -14 -17 -9 -24 9 -16 -42 -71 -65 -71 -10 0 -29
-11 -44 -25 -15 -14 -31 -25 -37 -25 -5 0 -9 -6 -9 -13 0 -7 -20 -18 -46 -25
-56 -15 -49 -32 15 -32 33 0 56 -6 72 -19 l24 -19 -30 -13 c-36 -17 -55 -33
-55 -50 0 -7 -10 -23 -22 -36 -17 -18 -19 -26 -10 -35 19 -19 14 -28 -17 -39
-34 -12 -42 -27 -46 -88 -3 -33 -12 -52 -36 -77 -27 -28 -30 -36 -19 -49 11
-13 7 -21 -26 -50 -21 -19 -43 -35 -47 -35 -5 0 -5 -5 -2 -10 3 -6 -1 -13 -10
-16 -9 -4 -22 -18 -29 -33 -8 -14 -27 -41 -42 -58 -16 -18 -40 -46 -54 -62
-14 -17 -40 -38 -57 -48 -32 -17 -58 -62 -54 -95 1 -9 -8 -19 -21 -24 -35 -10
-109 -64 -103 -74 7 -11 -41 -60 -59 -60 -8 0 -16 -6 -19 -14 -3 -8 -37 -35
-75 -60 -48 -31 -75 -56 -86 -81 -12 -24 -30 -42 -52 -51 -19 -8 -34 -18 -35
-22 0 -4 -2 -37 -4 -73 -2 -49 -11 -81 -34 -127 -17 -34 -31 -67 -31 -74 -1
-20 -35 -56 -56 -60 -10 -2 -22 -6 -25 -11 -15 -20 -98 12 -170 66 -74 55 -99
88 -99 127 0 10 -8 23 -17 29 -17 9 -17 13 2 68 11 32 34 84 52 115 18 31 33
63 33 72 0 8 5 18 10 21 6 3 10 13 10 21 0 8 11 32 24 53 14 21 32 62 41 90
10 27 23 55 31 62 8 6 14 22 14 36 0 13 18 62 40 109 22 47 40 91 40 98 0 7 9
21 20 31 11 10 20 22 20 26 0 9 84 195 166 367 24 51 44 97 44 101 0 8 68 141
80 156 5 6 49 91 100 190 50 98 99 191 109 205 10 14 21 32 25 40 19 40 58 96
134 189 45 56 82 108 82 115 0 7 11 23 25 36 14 13 25 27 25 32 0 10 95 162
116 188 60 70 86 103 126 155 25 34 54 67 64 75 20 17 187 269 190 287 1 6 21
37 45 70 24 32 51 72 59 89 9 17 31 48 48 70 85 105 189 236 233 296 45 59 57
69 117 92 60 24 77 26 168 22 56 -2 111 -9 123 -15z m735 -32 c12 -60 8 -78
-19 -84 -14 -3 -37 -7 -51 -10 -14 -3 -46 -3 -70 1 -40 6 -44 9 -44 35 0 23
-4 29 -22 29 -21 0 -68 35 -68 52 0 4 60 8 134 8 l134 0 6 -31z m93 -1091 c-2
-13 -4 -3 -4 22 0 25 2 35 4 23 2 -13 2 -33 0 -45z m13 -49 c0 -11 -4 -17 -10
-14 -5 3 -10 13 -10 21 0 8 5 14 10 14 6 0 10 -9 10 -21z m2370 -159 c24 -15
-17 -85 -50 -85 -29 0 -38 26 -20 61 11 20 22 27 50 33 3 0 12 -4 20 -9z"/>
<path d="M10126 7894 c-157 -22 -200 -34 -183 -50 5 -5 307 27 375 40 51 11
59 37 10 35 -18 -1 -109 -12 -202 -25z"/>
<path d="M8730 3543 c0 -23 -3 -50 -7 -60 -3 -10 -3 -15 2 -11 12 12 23 85 14
100 -6 8 -9 -2 -9 -29z"/>
<path d="M8717 3374 c-9 -52 -9 -92 1 -97 4 -3 19 -3 34 0 22 4 25 8 17 22 -5
9 -18 38 -28 65 l-18 48 -6 -38z"/>
<path d="M9896 3371 c-3 -5 -23 -12 -45 -16 -37 -6 -61 -33 -61 -67 0 -13 -47
-58 -62 -58 -7 0 -9 -16 -6 -44 l5 -44 -63 -16 c-35 -9 -72 -16 -84 -16 -25 0
-26 -22 -2 -42 18 -16 23 -18 174 -45 53 -10 100 -21 104 -25 4 -5 19 -8 32
-8 43 0 15 -13 -45 -21 -32 -4 -59 -12 -60 -16 -4 -12 -107 -3 -115 11 -5 8
-10 8 -20 -2 -6 -6 -24 -12 -39 -12 -15 0 -37 -9 -50 -19 -20 -16 -22 -23 -13
-38 16 -26 84 -63 119 -63 17 0 41 -7 55 -15 14 -8 34 -15 45 -15 11 0 31 -9
45 -20 14 -11 33 -20 42 -20 10 0 41 -11 70 -24 77 -34 113 -44 142 -39 22 4
26 11 26 37 0 45 -33 74 -162 146 -46 25 -48 38 -9 51 18 6 28 16 25 23 -5 13
72 26 152 26 39 0 64 29 64 75 0 25 -6 33 -29 42 -28 10 -29 12 -26 74 4 62 3
65 -33 99 -20 20 -45 39 -54 42 -9 4 -18 19 -20 35 -3 26 -7 28 -50 31 -25 2
-49 -1 -52 -7z"/>
<path d="M11099 3371 c12 -8 51 -4 51 5 0 2 -15 4 -32 4 -23 0 -29 -3 -19 -9z"/>
<path d="M11228 3353 c12 -2 32 -2 45 0 12 2 2 4 -23 4 -25 0 -35 -2 -22 -4z"/>
<path d="M11113 2893 c-15 -3 -23 -12 -23 -24 0 -10 -7 -19 -15 -19 -8 0 -15
-7 -15 -16 0 -10 6 -14 15 -10 9 3 15 0 15 -9 0 -8 5 -15 10 -15 6 0 10 -15
10 -34 0 -34 1 -35 43 -38 23 -2 2 -4 -48 -4 -49 -1 -100 -4 -112 -8 -28 -9
-30 -36 -4 -36 17 0 18 -4 11 -29 -4 -16 -6 -32 -2 -35 7 -8 130 -7 215 1 l67
6 0 127 0 127 -37 1 c-20 1 -41 6 -47 12 -10 10 -41 11 -83 3z"/>
<path d="M9915 2443 c-73 -18 -155 -86 -182 -152 -8 -18 -17 -64 -20 -100 -5
-55 -2 -76 15 -114 19 -43 45 -67 58 -54 3 3 -2 27 -11 54 -37 107 7 233 103
294 37 23 57 29 102 29 106 0 170 -71 170 -191 0 -122 -54 -200 -172 -245 -81
-31 -93 -44 -41 -44 51 1 110 29 156 76 56 56 78 106 84 188 5 59 2 80 -16
122 -45 105 -146 161 -246 137z"/>
<path d="M9755 6871 c-3 -6 0 -11 7 -12 7 0 26 -3 41 -5 21 -4 28 -1 25 8 -6
16 -64 23 -73 9z"/>
<path d="M9761 6836 c2 -2 14 -8 26 -14 17 -9 22 -9 27 3 4 11 -2 15 -26 15
-17 0 -29 -2 -27 -4z"/>
</g>
</svg>
