<?xml version="1.0" standalone="no"?>
<!DOCTYPE svg PUBLIC "-//W3C//DTD SVG 20010904//EN"
 "http://www.w3.org/TR/2001/REC-SVG-20010904/DTD/svg10.dtd">
<svg version="1.0" xmlns="http://www.w3.org/2000/svg"
 width="1108.000000pt" height="1058.000439pt" viewBox="0 0 1108.000000 1058.000439"
 preserveAspectRatio="xMidYMid meet">
<metadata>
Created by potrace 1.12, written by Peter Selinger 2001-2015
</metadata>
<g transform="translate(0.000000,1058.000000) scale(0.100000,-0.100000)"
fill="#000000" stroke="none">
<path d="M0 10505 c0 -41 2 -75 5 -75 3 0 30 20 61 45 30 25 83 59 117 75 l62
30 -122 0 -123 0 0 -75z"/>
<path d="M2190 10548 c-13 -27 -21 -32 -55 -34 -109 -7 -181 -17 -190 -25 -5
-5 -51 -9 -101 -9 -75 0 -96 -3 -110 -17 -16 -16 -17 -16 -12 -1 6 14 2 16
-30 11 -20 -3 -50 -11 -67 -19 -16 -7 -48 -15 -70 -18 -175 -24 -205 -30 -205
-43 0 -7 -11 -18 -24 -23 -13 -5 -28 -16 -33 -24 -6 -12 -31 -16 -103 -18
l-95 -3 -5 -30 -5 -30 -124 -3 c-113 -2 -123 -4 -128 -22 -3 -11 -14 -20 -24
-20 -10 0 -21 -4 -24 -10 -3 -5 -17 -10 -31 -10 -17 0 -24 -6 -24 -19 0 -10
-9 -21 -20 -24 -11 -3 -20 -12 -20 -20 0 -9 -13 -18 -29 -22 -26 -5 -30 -12
-33 -43 -3 -34 -6 -37 -35 -40 -25 -2 -33 -8 -33 -23 0 -16 -7 -19 -40 -19
l-40 0 0 -45 c0 -25 5 -45 11 -45 6 0 17 -7 25 -15 14 -13 13 -15 -9 -15 -20
0 -26 -6 -31 -34 -4 -18 -15 -41 -26 -51 -26 -23 -27 -83 -3 -101 16 -12 16
-13 2 -14 -9 0 -22 -7 -29 -15 -9 -11 -8 -20 7 -42 11 -15 32 -59 47 -98 15
-38 34 -81 42 -95 8 -14 41 -81 75 -150 33 -69 65 -132 69 -140 21 -36 70
-143 70 -153 0 -5 -16 6 -35 26 -19 20 -35 44 -35 53 0 26 -33 93 -46 94 -24
0 -22 -31 6 -87 17 -32 30 -68 30 -81 0 -21 21 -58 61 -107 9 -11 28 -55 43
-99 15 -43 43 -108 62 -145 20 -36 56 -103 80 -147 24 -45 44 -89 44 -98 0
-24 80 -177 96 -183 7 -3 16 -21 20 -41 4 -21 17 -51 30 -69 13 -17 24 -38 24
-46 0 -8 11 -26 24 -40 14 -15 35 -55 46 -89 26 -73 39 -107 51 -128 5 -8 17
-33 28 -55 11 -22 25 -47 30 -55 5 -8 47 -91 92 -185 46 -93 86 -172 89 -175
3 -3 14 -25 24 -50 21 -49 69 -150 90 -190 21 -38 50 -95 106 -205 28 -54 54
-102 58 -105 14 -10 56 -105 53 -121 -1 -9 12 -37 29 -62 16 -25 30 -50 30
-57 0 -7 14 -28 30 -47 16 -18 30 -44 30 -56 0 -12 9 -38 19 -57 49 -89 70
-134 66 -138 -6 -6 27 -62 37 -62 4 0 8 10 8 22 0 12 3 18 7 14 4 -4 7 -41 8
-84 1 -72 3 -79 33 -112 18 -19 35 -46 38 -60 8 -35 24 -68 60 -120 17 -25 38
-61 48 -80 25 -52 54 -83 71 -76 15 6 20 -5 8 -18 -12 -12 -13 -40 0 -76 6
-19 12 -48 13 -65 2 -37 22 -108 42 -155 13 -29 25 -170 14 -170 -14 0 -126
134 -233 280 -105 143 -118 159 -193 238 -38 40 -75 71 -80 69 -6 -2 -17 2
-24 10 -21 21 -36 16 -51 -17 -14 -33 -12 -88 8 -183 12 -57 20 -75 69 -148
12 -19 25 -47 29 -62 3 -15 14 -33 23 -40 10 -7 21 -31 25 -52 4 -22 15 -49
24 -60 28 -34 59 -126 66 -200 4 -38 18 -96 31 -128 23 -54 24 -66 18 -158 -4
-54 -10 -99 -14 -99 -14 0 -18 -25 -7 -50 5 -14 11 -38 13 -54 6 -44 35 -87
72 -107 19 -9 41 -24 50 -32 9 -8 32 -22 49 -31 18 -9 33 -21 33 -26 0 -18 44
-105 57 -113 7 -4 13 -12 13 -16 0 -5 30 -53 68 -106 37 -54 72 -105 77 -114
6 -9 22 -31 37 -49 15 -18 30 -45 34 -60 10 -46 45 -156 55 -174 5 -10 14 -64
19 -120 14 -144 18 -181 23 -198 8 -33 40 -100 47 -100 4 0 15 -18 25 -39 10
-22 23 -42 30 -45 10 -3 137 -202 153 -238 2 -4 19 -24 38 -44 19 -21 34 -43
34 -50 0 -7 10 -25 23 -41 12 -15 27 -37 33 -48 14 -26 45 -41 117 -56 33 -7
70 -21 83 -32 22 -17 24 -24 18 -63 -4 -30 -2 -49 7 -60 10 -13 10 -17 0 -23
-16 -11 14 -74 72 -150 l42 -54 -4 -108 -3 -108 61 -61 c34 -33 61 -63 61 -66
0 -14 -39 -42 -66 -48 -27 -6 -31 -12 -41 -59 -6 -29 -7 -56 -3 -61 5 -5 6
-47 4 -95 -6 -97 4 -119 52 -125 73 -10 84 -17 84 -50 0 -18 5 -37 12 -44 7
-7 8 -12 4 -12 -4 0 4 -14 18 -31 14 -17 26 -38 26 -47 1 -22 24 -52 39 -52
14 0 41 -24 41 -37 0 -8 84 -87 109 -103 18 -11 46 -507 30 -527 -7 -8 -9 -32
-6 -58 3 -29 0 -48 -7 -53 -19 -11 -34 -63 -34 -113 1 -25 -3 -52 -8 -60 -8
-12 -17 -44 -54 -179 -5 -19 -10 -57 -10 -83 0 -52 -23 -97 -49 -97 -9 0 -22
-9 -29 -21 -32 -50 -58 -49 894 -49 779 0 884 2 884 15 0 8 -9 24 -20 35 -12
12 -15 20 -8 20 7 0 3 7 -8 15 -13 8 -21 24 -20 37 1 13 -4 31 -13 41 -8 9
-19 27 -25 40 -8 15 -22 23 -46 25 -19 2 -40 8 -47 13 -6 6 -51 9 -99 7 l-88
-3 -8 35 c-4 19 -6 40 -4 45 2 6 33 21 70 35 36 14 66 28 66 33 0 4 8 7 19 7
23 0 128 55 160 84 42 38 78 100 109 186 45 129 56 212 56 430 0 192 -1 197
-31 282 -17 48 -35 93 -40 100 -5 7 -26 54 -46 103 l-37 90 3 136 c3 114 7
142 25 180 12 25 22 57 22 72 0 14 6 30 14 34 7 4 18 18 25 31 18 34 -6 37
-102 14 -45 -11 -125 -30 -177 -41 -52 -12 -111 -26 -130 -31 -19 -4 -62 -14
-95 -20 -33 -7 -71 -16 -85 -20 -14 -5 -62 -14 -108 -20 -45 -7 -85 -17 -88
-21 -3 -5 -10 -7 -15 -4 -5 4 -24 2 -42 -4 -17 -5 -59 -15 -92 -21 -33 -7 -69
-16 -80 -20 -11 -5 -42 -12 -70 -15 -27 -4 -65 -13 -84 -21 -18 -8 -37 -11
-42 -8 -5 3 -63 116 -130 251 -92 187 -118 248 -108 254 8 4 45 16 84 25 38 9
79 23 89 30 16 11 6 13 -65 12 -46 -1 -86 -5 -89 -9 -7 -10 -60 1 -60 12 0 5
11 11 24 15 21 5 24 12 25 60 1 41 -3 54 -13 54 -8 0 -17 -10 -19 -22 -3 -14
-5 -9 -6 15 -1 30 -5 37 -21 37 -19 0 -20 7 -20 149 0 110 -3 151 -12 154 -10
4 -10 6 0 6 17 1 15 21 -3 21 -8 0 -15 -4 -15 -10 0 -5 -4 -10 -9 -10 -5 0
-11 27 -13 60 -3 57 -2 60 20 60 19 0 22 5 22 40 0 37 -3 41 -30 47 -29 5 -30
8 -30 57 0 44 -4 55 -30 79 -32 30 -38 53 -17 60 9 3 9 7 -2 20 -7 10 -9 17
-3 17 10 0 7 26 -5 60 -4 8 -5 22 -4 31 1 9 -5 22 -14 29 -8 7 -15 18 -15 24
0 6 -12 29 -27 51 -15 22 -27 48 -28 60 -1 21 -61 116 -95 150 -14 15 -20 35
-21 70 -1 72 -9 105 -24 105 -8 0 -22 16 -31 35 -9 20 -28 45 -42 55 -22 18
-25 29 -26 81 -1 66 9 83 53 86 38 2 118 21 140 33 11 5 30 10 42 10 13 0 52
7 88 15 87 21 134 31 206 45 33 7 96 20 140 30 44 11 94 21 110 23 38 6 228
43 320 64 39 8 88 17 110 20 22 2 49 8 60 13 21 9 40 13 158 32 54 9 71 8 80
-2 9 -10 9 -14 0 -17 -9 -3 -13 -30 -13 -86 l0 -82 -34 -2 c-30 -3 -33 0 -29
17 4 14 0 20 -12 20 -9 0 -19 -9 -22 -19 -3 -11 -16 -22 -30 -26 -37 -9 -22
-16 42 -20 31 -2 58 -5 60 -7 1 -2 5 -27 7 -55 4 -40 2 -53 -8 -53 -8 0 -14
-7 -14 -15 0 -8 3 -15 8 -15 4 0 15 -17 25 -38 17 -33 74 -82 97 -82 5 0 30
-18 55 -40 57 -50 73 -51 44 -4 -18 29 -20 40 -11 53 7 9 18 31 26 49 15 31
16 32 80 32 42 0 85 -7 118 -20 29 -11 76 -20 104 -20 33 0 60 -6 75 -18 13
-9 33 -22 44 -28 34 -19 30 -43 -9 -59 -19 -8 -63 -34 -96 -56 -62 -43 -76
-72 -41 -84 11 -3 22 -12 25 -20 8 -21 49 -19 77 4 19 15 34 18 76 14 62 -7
97 11 107 54 12 45 34 73 61 73 32 0 36 -10 41 -83 2 -34 4 -64 5 -67 1 -3 3
-26 3 -51 1 -29 8 -52 19 -63 9 -10 17 -25 17 -34 0 -8 10 -26 21 -38 33 -35
19 -48 -66 -61 -114 -19 -195 -43 -195 -60 0 -7 16 -37 35 -66 19 -28 35 -46
35 -39 0 19 13 15 50 -16 l33 -28 -88 -85 c-49 -46 -135 -130 -192 -185 l-103
-102 0 -51 c0 -63 29 -171 48 -179 14 -5 90 9 262 49 164 38 381 87 575 129
141 31 186 52 154 70 -35 20 -113 91 -131 118 -15 24 -16 31 -4 47 12 16 15
17 35 3 17 -12 28 -13 56 -4 38 12 44 23 18 33 -31 11 -73 56 -73 79 0 30 10
55 20 49 5 -3 29 0 54 7 44 12 47 11 76 -17 16 -16 30 -34 30 -40 0 -7 14 -29
30 -50 37 -47 38 -84 5 -166 -18 -46 -21 -61 -11 -65 7 -3 71 9 142 25 71 17
185 42 254 56 69 15 179 39 245 55 66 16 176 41 245 55 200 43 263 60 267 72
5 15 -122 115 -188 148 -30 15 -99 40 -154 55 -181 51 -691 236 -720 261 -5 5
-16 9 -25 9 -9 0 -29 33 -54 90 -47 106 -98 186 -144 225 -18 15 -57 59 -86
99 -30 39 -73 86 -95 104 -23 19 -53 50 -66 70 -27 41 -173 192 -254 261 -28
25 -74 59 -102 77 -28 17 -47 34 -42 37 5 3 79 20 164 37 85 18 217 45 294 62
77 16 163 33 190 38 28 5 113 23 190 40 159 34 505 106 610 125 39 8 113 23
165 34 52 12 118 26 145 31 28 5 70 14 95 20 132 28 236 50 245 50 6 0 15 -10
21 -23 6 -12 71 -130 144 -262 73 -132 148 -269 167 -305 20 -36 55 -99 78
-140 44 -78 74 -133 130 -235 61 -113 98 -180 148 -270 27 -49 65 -118 83
-152 19 -34 47 -85 64 -113 16 -28 30 -53 30 -55 0 -2 25 -47 55 -100 30 -54
55 -99 55 -100 0 -1 21 -40 46 -86 26 -46 59 -106 74 -134 15 -27 39 -71 54
-97 32 -58 32 -68 2 -68 -12 0 -36 -4 -52 -9 -16 -5 -51 -13 -79 -19 -85 -19
-276 -62 -362 -83 -46 -10 -120 -28 -165 -38 -168 -40 -215 -51 -308 -71 -52
-11 -115 -25 -140 -31 -25 -6 -63 -14 -85 -19 -22 -5 -78 -18 -125 -29 -107
-25 -222 -51 -375 -85 -66 -15 -158 -36 -205 -47 -47 -11 -105 -25 -130 -30
-25 -6 -61 -14 -80 -19 -19 -5 -57 -14 -85 -20 -27 -6 -66 -15 -85 -20 -96
-26 -241 -54 -292 -58 -55 -4 -58 -3 -76 27 -10 17 -39 47 -64 66 -38 30 -62
39 -149 56 -101 19 -172 19 -185 -2 -3 -5 10 -10 28 -11 18 0 38 -2 43 -3 6
-2 20 -3 32 -4 12 0 28 -7 35 -14 7 -7 20 -16 29 -19 9 -4 47 -27 83 -52 37
-25 79 -49 94 -52 15 -4 43 -15 62 -26 19 -10 50 -21 69 -24 27 -5 92 -45 129
-79 10 -9 -31 -65 -47 -65 -11 0 -42 -5 -69 -12 -40 -9 -51 -16 -55 -34 -3
-19 5 -27 51 -51 72 -37 129 -92 146 -142 8 -21 13 -41 10 -43 -2 -3 -6 -60
-9 -128 -2 -67 -9 -137 -14 -154 -28 -90 -50 -225 -45 -279 3 -39 0 -68 -10
-90 -9 -17 -20 -54 -26 -81 -6 -27 -15 -57 -21 -67 -7 -14 -3 -45 16 -117 21
-76 25 -109 20 -154 -4 -36 -12 -58 -19 -58 -7 0 -23 -11 -36 -25 -13 -14 -30
-25 -39 -25 -8 0 -24 -9 -36 -19 -139 -131 -164 -158 -304 -335 -17 -22 -34
-50 -37 -63 -4 -12 -10 -23 -14 -23 -4 0 -13 -13 -20 -30 -7 -16 -16 -30 -20
-30 -4 0 -21 -22 -38 -50 -17 -27 -36 -50 -42 -50 -11 0 -124 -74 -154 -102
-11 -10 -28 -18 -37 -18 -10 0 -21 -5 -24 -10 -4 -7 893 -10 2684 -10 l2691 0
0 5290 0 5290 -1282 0 c-706 0 -1278 -4 -1272 -8 20 -13 34 -50 34 -90 0 -22
6 -45 14 -51 16 -13 26 -142 30 -386 1 -82 7 -186 14 -230 6 -44 17 -233 23
-420 6 -187 15 -344 19 -350 4 -5 10 -127 14 -270 12 -449 17 -538 32 -569 8
-16 14 -42 14 -57 0 -25 5 -29 43 -39 45 -11 102 -26 155 -42 28 -8 32 -14 32
-44 0 -24 -5 -36 -17 -40 -10 -3 -26 -10 -35 -15 -10 -5 -24 -9 -32 -9 -13 0
-13 -4 0 -27 22 -43 17 -59 -27 -101 -30 -30 -42 -50 -46 -80 -5 -35 -9 -41
-35 -46 -58 -11 -76 -7 -80 17 -2 14 -15 27 -35 36 -35 16 -42 27 -50 86 -3
22 -9 48 -14 57 -5 9 -6 36 -3 60 6 42 5 44 -27 58 -26 12 -34 21 -34 42 -1
15 3 24 7 22 4 -3 8 2 8 10 0 9 4 16 9 16 4 0 8 19 7 42 l-1 43 -75 32 c-73
31 -194 64 -235 64 -12 0 -25 9 -30 22 -7 15 -25 26 -59 34 -47 12 -67 29 -72
62 -2 8 -10 18 -18 23 -9 5 -26 19 -39 32 -25 25 -84 69 -107 79 -8 4 -49 29
-90 56 -163 108 -313 171 -361 152 -31 -12 -85 -69 -94 -100 -11 -38 33 -137
88 -195 26 -28 47 -57 47 -65 0 -7 11 -22 25 -33 14 -11 25 -24 25 -29 0 -6 9
-30 20 -54 20 -45 18 -70 -13 -134 -9 -19 -9 -25 1 -28 6 -3 12 -13 12 -23 0
-10 8 -21 18 -24 10 -4 25 -28 36 -59 15 -45 16 -63 7 -137 -6 -46 -11 -86
-11 -87 0 -2 -7 -3 -15 -3 -8 0 -15 -7 -15 -15 0 -8 -7 -15 -15 -15 -8 0 -15
-7 -15 -16 0 -9 -8 -28 -19 -42 -28 -40 -47 -92 -50 -138 -2 -39 0 -42 28 -47
23 -5 31 -12 32 -29 0 -13 2 -30 4 -39 1 -9 0 -32 -4 -50 -7 -31 -2 -40 58
-109 36 -42 86 -92 111 -113 25 -20 81 -71 125 -113 44 -42 100 -93 125 -113
25 -19 66 -54 91 -76 26 -23 75 -56 110 -75 35 -18 68 -39 72 -47 4 -7 19 -13
34 -13 14 0 51 -6 82 -14 31 -7 89 -19 130 -27 74 -13 76 -14 150 -88 42 -42
81 -87 86 -101 16 -39 44 -84 123 -202 39 -60 72 -114 72 -122 0 -7 9 -24 19
-38 20 -25 20 -25 -16 -134 -19 -60 -39 -117 -44 -126 -5 -10 -9 -29 -9 -43 0
-13 -8 -39 -18 -57 -10 -18 -21 -52 -25 -76 -3 -24 -8 -46 -10 -49 -3 -3 -41
-5 -84 -4 -94 0 -113 -5 -113 -30 0 -10 -4 -19 -10 -19 -5 0 -10 -11 -10 -25
0 -14 -4 -25 -9 -25 -5 0 -11 -9 -14 -20 -3 -11 -10 -20 -16 -20 -14 0 -15 96
-1 105 12 8 13 55 1 74 -10 15 -45 1 -54 -23 -3 -8 -26 -18 -52 -22 -25 -3
-52 -13 -60 -20 -7 -8 -20 -14 -28 -14 -20 0 -40 -26 -32 -42 4 -7 -3 -2 -14
11 -15 17 -27 22 -45 17 -29 -7 -37 9 -29 58 3 19 3 50 -1 69 -6 34 -8 35 -64
41 -78 9 -97 8 -173 -10 -20 -4 -32 2 -58 28 -52 53 -63 84 -94 273 -10 61
-17 82 -32 90 -11 6 -36 21 -55 33 -19 12 -43 22 -52 22 -10 0 -25 11 -34 25
-9 13 -30 33 -48 44 -20 13 -37 37 -50 68 -10 26 -24 62 -32 80 -8 17 -14 53
-14 80 0 40 -5 53 -25 71 -14 12 -25 26 -25 32 0 17 -155 87 -211 95 -80 11
-94 19 -162 91 -80 86 -95 109 -179 271 -38 73 -84 157 -102 186 -18 29 -60
104 -93 167 -33 63 -85 156 -116 205 -30 50 -85 149 -122 220 -38 72 -76 142
-86 156 -10 14 -53 93 -95 175 -42 82 -82 156 -89 164 -16 20 -65 108 -135
245 -32 61 -69 128 -84 149 -14 21 -26 43 -26 48 0 13 -79 169 -95 188 -7 8
-33 53 -57 100 -80 152 -121 225 -133 240 -18 22 -141 240 -241 430 -63 120
-99 185 -156 285 -22 39 -63 113 -91 165 -27 52 -67 117 -88 144 -22 27 -39
55 -39 62 0 7 -13 32 -29 56 -15 24 -39 63 -53 88 l-25 45 -1389 2 -1389 3
-15 -32z m2838 -175 c-10 -2 -28 -2 -40 0 -13 2 -5 4 17 4 22 1 32 -1 23 -4z
m-1 -55 c6 -7 24 -38 40 -68 17 -30 43 -77 58 -105 15 -27 42 -77 60 -110 41
-75 78 -142 109 -197 74 -133 75 -138 25 -138 -17 0 -49 -4 -72 -9 -23 -5 -73
-14 -112 -20 -38 -6 -140 -22 -225 -35 -85 -14 -186 -30 -225 -36 -38 -6 -90
-15 -115 -20 -25 -4 -79 -13 -120 -20 -78 -12 -148 -23 -247 -40 -32 -5 -87
-14 -123 -19 -107 -17 -249 -40 -350 -56 -52 -9 -122 -20 -155 -25 -33 -6 -87
-15 -120 -20 -33 -6 -89 -15 -125 -20 -36 -5 -92 -14 -125 -20 -33 -6 -103
-17 -155 -25 -52 -9 -162 -26 -245 -39 -82 -14 -166 -27 -185 -30 -19 -3 -60
-10 -90 -15 -30 -6 -100 -17 -155 -25 -55 -8 -125 -20 -155 -25 -51 -10 -166
-28 -320 -52 -36 -5 -90 -14 -120 -19 -30 -5 -140 -23 -245 -40 -104 -17 -216
-35 -247 -40 -337 -58 -497 -82 -507 -76 -10 6 -36 60 -206 411 -42 88 -84
175 -93 192 -10 21 -13 36 -7 41 6 5 82 19 170 32 199 28 253 36 335 50 64 11
120 19 250 39 36 6 94 15 130 21 36 6 90 15 120 19 30 5 136 21 235 36 99 14
207 31 240 36 33 6 89 15 125 20 63 10 98 16 240 38 131 21 318 50 460 70 80
12 168 26 195 31 50 9 119 20 248 39 181 28 215 33 257 41 72 13 452 72 590
91 41 5 98 14 125 19 28 5 68 12 90 15 22 3 65 10 95 15 30 5 89 14 130 20 41
6 100 16 130 21 49 8 355 56 371 58 4 1 11 -5 16 -11z m-1077 -1117 c15 -28
-8 -39 -29 -14 -9 11 -28 28 -43 38 -15 9 -25 21 -22 26 7 12 81 -27 94 -50z
m1694 4 c12 -22 69 -125 126 -230 57 -104 111 -203 120 -220 9 -16 45 -82 80
-145 34 -63 74 -135 88 -160 14 -25 41 -74 60 -110 19 -36 54 -99 77 -140 23
-41 62 -111 85 -155 23 -44 53 -98 65 -120 12 -22 37 -67 55 -100 18 -33 54
-98 80 -145 26 -47 61 -110 77 -140 16 -30 36 -65 44 -78 15 -25 13 -28 -59
-81 -26 -19 -26 -20 -8 -34 25 -18 13 -41 -14 -27 -37 20 -89 11 -143 -23 -28
-19 -64 -41 -79 -51 -16 -9 -28 -23 -28 -31 0 -8 -3 -15 -6 -15 -12 0 -94 84
-94 97 0 19 -40 65 -131 149 -24 22 -59 58 -78 80 -19 21 -49 50 -67 64 -18
14 -61 59 -96 100 -218 262 -272 325 -358 410 -52 53 -126 118 -163 144 l-68
48 -69 -6 -69 -7 -35 48 c-20 26 -61 71 -93 98 -81 71 -240 174 -277 179 -86
13 -126 15 -126 6 0 -6 4 -10 9 -10 5 0 14 -14 21 -31 7 -17 24 -46 36 -65 26
-37 16 -46 -16 -14 -24 24 -65 26 -74 5 -3 -9 -18 -15 -40 -15 -19 0 -38 -4
-41 -10 -3 -5 -17 -10 -31 -10 -30 0 -94 -66 -129 -132 -12 -24 -34 -49 -49
-56 -24 -12 -37 -42 -17 -42 20 0 57 -172 38 -177 -30 -9 -69 -38 -88 -64 -24
-35 -16 -49 30 -49 50 0 9 -12 -71 -21 -46 -5 -91 -12 -100 -15 -11 -3 -22 4
-32 23 -14 27 -13 30 19 69 18 22 44 60 58 85 30 54 67 201 67 267 0 43 -3 50
-26 61 -30 13 -35 10 -90 -49 -26 -28 -32 -42 -29 -67 3 -32 -11 -55 -24 -36
-16 24 -128 48 -224 47 -97 0 -97 0 -132 -34 -20 -19 -38 -44 -41 -56 -4 -16
-11 -20 -29 -16 -23 4 -24 3 -19 -59 3 -35 12 -89 20 -120 8 -31 14 -81 14
-111 0 -30 6 -63 14 -73 13 -18 14 -18 31 -2 9 10 19 35 22 57 6 45 23 54 23
12 0 -15 12 -45 27 -67 35 -50 52 -113 53 -192 0 -53 3 -63 20 -68 11 -3 20
-13 20 -22 0 -9 8 -22 18 -29 16 -12 15 -13 -5 -14 -12 0 -28 -6 -35 -14 -30
-29 -81 -48 -119 -43 -30 4 -38 1 -42 -13 -3 -10 -18 -21 -36 -25 -47 -10 -26
-28 25 -21 24 3 46 1 49 -4 3 -6 19 -10 36 -10 18 0 29 -5 29 -14 0 -18 -55
-65 -98 -83 -19 -8 -37 -25 -43 -40 -5 -14 -17 -32 -27 -39 -22 -17 -59 -18
-65 -1 -3 7 -6 4 -6 -6 -1 -10 -6 -15 -11 -12 -16 10 -25 -25 -12 -46 7 -10
12 -28 12 -39 0 -11 5 -20 10 -20 6 0 10 -8 10 -18 0 -10 10 -23 23 -29 12 -6
45 -21 72 -34 28 -12 66 -22 85 -22 25 1 40 -5 52 -20 15 -19 19 -20 28 -7 7
11 8 5 3 -20 -11 -54 -9 -136 5 -240 16 -117 29 -156 59 -175 28 -19 28 -16 3
59 -11 33 -20 69 -20 81 0 32 27 40 34 10 4 -14 23 -33 46 -46 22 -13 46 -36
52 -52 14 -31 12 -31 123 -4 33 8 93 20 133 27 l72 13 2 46 c3 75 -2 104 -19
123 -9 10 -12 18 -6 18 16 0 39 -31 67 -89 31 -64 31 -70 10 -86 -14 -10 -15
-14 -3 -33 17 -28 44 -28 197 -3 64 11 149 24 187 29 39 6 178 29 310 52 250
43 301 51 424 69 95 14 119 20 156 39 60 30 65 32 76 32 6 0 44 14 86 30 41
17 86 30 99 30 30 0 103 36 110 54 3 7 0 25 -5 39 -6 15 -7 27 -2 27 5 0 47
-32 95 -71 60 -49 97 -72 123 -76 37 -6 37 -6 -55 82 -91 86 -139 142 -130
151 5 4 163 -120 214 -167 31 -30 104 -51 104 -32 0 6 -21 28 -47 49 -83 68
-183 168 -180 178 4 11 234 46 253 39 12 -4 87 -143 99 -183 4 -14 18 -49 31
-78 13 -29 24 -60 24 -70 1 -14 4 -13 21 7 23 28 36 22 17 -9 -11 -18 -11 -23
6 -35 23 -17 12 -39 -13 -26 -22 12 -123 -34 -175 -79 -53 -47 -134 -180 -152
-251 -18 -71 -10 -136 26 -211 26 -53 26 -55 -9 -72 -15 -8 -50 -32 -76 -52
-47 -35 -79 -46 -220 -74 -33 -6 -78 -16 -100 -20 -22 -5 -80 -16 -130 -25
-49 -9 -146 -28 -215 -42 -69 -14 -145 -29 -170 -33 -67 -11 -213 -39 -315
-61 -154 -33 -446 -87 -539 -100 -88 -12 -89 -12 -107 10 -11 13 -19 31 -19
41 0 26 -129 266 -191 356 -143 207 -420 444 -729 624 -192 113 -374 179 -488
180 -47 0 -82 14 -82 32 0 17 -71 88 -88 88 -8 0 -12 6 -9 14 8 20 -142 178
-208 220 -28 18 -84 64 -125 102 -100 92 -129 112 -208 140 -108 38 -207 31
-260 -19 -54 -50 -63 -121 -37 -294 8 -56 14 -109 13 -119 -3 -43 3 -110 12
-124 9 -13 13 -11 29 9 18 24 20 24 45 8 14 -9 36 -17 50 -17 25 0 25 1 20 77
-4 72 -28 186 -44 208 -4 6 -15 41 -24 78 -37 147 22 194 159 128 75 -36 130
-85 225 -202 41 -51 124 -142 183 -203 l109 -110 -29 -20 c-55 -41 -145 -132
-189 -193 -35 -47 -49 -60 -64 -56 -11 3 -20 0 -20 -6 0 -5 7 -8 16 -4 14 5
15 1 9 -28 -12 -55 -47 -117 -68 -123 -24 -6 -52 11 -69 42 -7 14 -32 41 -55
62 -24 21 -43 46 -43 57 0 52 154 171 268 208 58 19 65 30 25 38 -16 3 -70 15
-122 27 -52 11 -97 20 -101 20 -13 0 -72 -65 -110 -122 -27 -40 -40 -71 -40
-94 0 -18 -5 -36 -10 -39 -5 -3 -10 -24 -10 -47 0 -30 3 -39 14 -35 11 4 13
-3 10 -36 l-4 -42 18 25 c20 31 44 28 66 -6 l16 -24 -51 0 c-34 0 -59 -6 -70
-16 -10 -9 -22 -13 -27 -10 -20 12 -127 245 -117 254 3 3 5 -1 5 -8 0 -11 3
-11 12 -2 7 7 22 12 34 12 25 0 41 17 70 74 16 31 30 44 60 54 21 7 46 20 54
27 12 13 9 15 -27 15 -23 0 -44 -4 -47 -9 -3 -5 -27 -12 -53 -16 -57 -8 -93
-29 -93 -53 0 -23 -23 -72 -33 -72 -5 0 -5 5 -2 10 3 6 2 10 -4 10 -11 0 -38
50 -52 94 -7 24 -5 29 11 33 32 8 23 21 -20 28 -39 7 -41 8 -94 118 -29 62
-65 137 -79 167 -14 30 -52 113 -86 183 -34 71 -61 130 -61 132 0 1 -31 67
-68 146 -38 79 -84 178 -102 219 -18 41 -55 120 -81 175 -37 81 -46 109 -43
142 2 23 -1 45 -6 48 -6 3 -10 -6 -10 -22 -1 -24 -2 -26 -11 -10 -8 14 -6 24
6 44 10 15 15 37 13 55 -3 16 0 32 5 35 6 4 7 1 2 -8 -5 -8 -4 -10 0 -6 5 4
10 21 11 37 2 23 -3 31 -24 38 -19 7 -23 11 -12 15 19 6 178 42 250 56 30 6
78 15 105 20 145 28 407 76 505 91 30 5 96 16 145 24 100 17 427 72 520 87 33
5 85 14 115 19 30 5 83 14 118 20 34 5 88 14 120 20 59 10 135 22 237 39 33 6
103 17 155 25 52 9 119 20 149 26 92 17 93 17 85 -37 -3 -27 -15 -64 -27 -85
-16 -30 -18 -46 -13 -95 4 -32 8 -74 9 -93 2 -42 18 -46 91 -28 44 12 51 17
63 53 18 51 11 89 -27 149 -32 50 -36 75 -19 124 11 33 38 47 109 57 137 19
120 21 190 -31 52 -40 67 -57 77 -92 15 -55 44 -94 99 -136 42 -32 46 -33 91
-24 78 15 77 13 38 75 -42 67 -71 94 -137 127 -49 26 -148 96 -148 106 0 8 81
24 335 65 121 19 246 40 278 45 31 6 84 15 117 20 72 12 166 28 235 41 80 14
232 39 335 54 52 8 127 21 165 29 100 21 113 18 139 -29z m-1936 -20 c20 -42
21 -45 4 -45 -17 0 -52 55 -52 80 0 26 28 5 48 -35z m62 31 c0 -7 12 -21 26
-31 19 -12 23 -20 15 -28 -8 -8 -19 -2 -41 23 -33 40 -36 50 -15 50 8 0 15 -6
15 -14z m-270 -56 c23 -46 25 -60 7 -60 -15 0 -59 84 -50 94 13 13 23 5 43
-34z m72 17 c-2 -9 3 -17 10 -17 7 0 19 -9 26 -20 19 -32 -8 -26 -41 9 -31 33
-35 54 -9 49 10 -2 16 -11 14 -21z m-268 -49 c19 -38 20 -58 3 -58 -12 0 -47
59 -47 80 0 22 30 8 44 -22z m-124 -1 c0 -8 9 -22 20 -32 23 -21 26 -35 8 -35
-16 0 -59 60 -52 72 8 13 24 9 24 -5z m-65 -27 c17 -33 20 -60 5 -60 -12 0
-50 59 -50 78 0 23 30 12 45 -18z m-205 -40 c22 -43 19 -70 -6 -49 -19 16 -45
70 -38 80 11 18 24 8 44 -31z m70 24 c0 -9 10 -24 23 -34 12 -10 19 -22 14
-26 -9 -9 -67 45 -67 63 0 7 7 13 15 13 8 0 15 -7 15 -16z m-276 -59 c11 -19
16 -38 12 -43 -10 -9 -56 44 -56 64 0 26 25 14 44 -21z m-106 -15 c21 -28 28
-50 16 -50 -7 0 -40 38 -55 63 -17 30 15 20 39 -13z m-85 -3 c20 -32 25 -59
10 -64 -10 -4 -53 63 -53 82 0 14 30 2 43 -18z m-1744 -98 c23 -50 24 -82 0
-37 -6 12 -15 25 -18 28 -4 3 -12 17 -18 33 -10 21 -10 27 0 27 6 -1 23 -23
36 -51z m95 -211 c16 -31 16 -31 -4 -13 -11 10 -20 24 -20 32 0 21 7 15 24
-19z m3855 -153 c58 -30 107 -115 66 -115 -20 0 -115 96 -115 115 0 19 13 19
49 0z m-59 -118 c0 -7 8 -20 18 -29 9 -8 25 -26 34 -39 16 -20 16 -24 3 -39
-12 -13 -13 -23 -5 -44 12 -34 12 -36 0 -36 -5 0 -10 7 -10 16 0 8 -7 22 -15
30 -8 9 -15 29 -15 45 0 29 -14 61 -37 87 -18 18 -16 22 7 22 11 0 20 -6 20
-13z m-4 -74 c-4 -4 -11 -1 -16 7 -16 25 -11 35 7 17 9 -9 13 -20 9 -24z m113
-78 c31 -36 42 -80 19 -73 -7 3 -20 18 -28 34 -8 16 -23 35 -32 42 -10 7 -18
17 -18 23 0 20 30 7 59 -26z m37 -101 c-3 -9 -6 -21 -6 -27 0 -8 -3 -8 -11 0
-13 13 -5 43 12 43 6 0 8 -7 5 -16z m-1200 -84 c2 -14 9 -38 14 -54 8 -23 6
-32 -8 -42 -23 -18 -31 -17 -39 2 -4 10 0 22 10 29 9 7 13 16 8 21 -5 5 -12
32 -15 59 -6 47 -6 49 9 30 9 -11 18 -31 21 -45z m1572 -81 c35 -36 50 -59 45
-69 -9 -20 -9 -47 0 -92 7 -36 5 -40 -48 -94 -38 -38 -60 -54 -71 -50 -12 5
-14 9 -5 20 17 20 -3 108 -41 176 l-31 57 31 47 c18 26 32 54 32 62 0 22 26 5
88 -57z m3912 22 c9 -16 -3 -94 -16 -98 -17 -6 -44 25 -44 50 0 13 -7 33 -17
46 l-16 24 43 -6 c23 -3 46 -10 50 -16z m-1196 -125 c-9 -15 -21 -22 -30 -19
-16 6 -16 6 -8 27 3 9 17 16 30 16 24 0 24 -1 8 -24z m1154 -54 c3 -46 -8 -54
-40 -25 -21 19 -23 44 -6 61 24 24 43 9 46 -36z m-4176 -153 c55 -13 55 -29 0
-29 -20 0 -53 -4 -72 -10 -72 -19 -285 -40 -329 -33 l-44 8 38 29 c30 24 52
31 104 35 125 11 256 11 303 0z m838 -55 c32 -28 60 -73 60 -99 0 -17 -49 -21
-78 -6 -9 5 -46 14 -82 19 l-65 8 30 14 30 14 -34 4 c-21 2 -38 -2 -43 -10 -8
-10 -11 -10 -15 0 -3 7 -22 22 -44 32 -21 11 -39 22 -39 24 0 8 60 4 65 -5 9
-14 43 -11 70 7 15 10 34 14 49 10 14 -3 28 -2 31 4 10 17 32 11 65 -16z
m-467 10 c11 -11 -3 -24 -18 -18 -8 4 -12 10 -9 15 6 11 18 12 27 3z m-1143
-74 c0 -5 -10 -10 -22 -10 -19 0 -20 2 -8 10 19 13 30 13 30 0z m706 -19 c-3
-5 12 -11 34 -15 26 -4 40 -11 40 -21 0 -9 10 -20 23 -24 17 -7 28 -4 48 15
14 14 41 27 60 30 29 4 40 -1 72 -31 24 -23 37 -44 37 -61 0 -31 30 -72 48
-66 6 2 12 -1 12 -6 0 -6 6 -17 13 -24 17 -18 58 -136 62 -179 1 -19 16 -55
32 -80 17 -24 47 -71 68 -104 21 -32 59 -80 85 -105 51 -50 67 -78 47 -86 -7
-2 -41 0 -76 4 -46 7 -84 5 -135 -5 -39 -8 -102 -18 -141 -24 -38 -5 -115 -17
-170 -26 -55 -9 -139 -17 -188 -19 -77 -2 -88 0 -98 17 -7 14 -5 30 9 62 18
40 22 43 80 56 34 7 69 19 78 26 15 11 13 13 -20 19 -51 10 -86 27 -86 41 0 7
-7 18 -15 25 -16 13 -65 105 -65 121 0 5 10 9 21 9 31 0 227 30 277 42 24 6
47 19 53 29 9 18 3 68 -10 79 -3 3 -16 23 -28 45 -29 53 -63 71 -150 79 -56 5
-75 3 -87 -9 -10 -10 -35 -15 -75 -15 -42 0 -61 -4 -61 -12 0 -7 -5 -5 -11 5
-7 12 -23 17 -53 17 -31 0 -48 6 -63 23 -19 20 -43 60 -43 70 0 2 33 10 73 17
76 14 122 34 112 51 -11 17 58 38 128 39 38 0 66 -4 63 -9z m2819 -11 c-3 -5
-13 -10 -21 -10 -8 0 -14 5 -14 10 0 6 9 10 21 10 11 0 17 -4 14 -10z m-1800
-60 c3 -6 -1 -13 -10 -16 -19 -8 -30 0 -20 15 8 14 22 14 30 1z m-238 -38 c-8
-8 -20 -11 -27 -7 -16 10 7 35 27 28 13 -5 13 -7 0 -21z m-147 -2 c0 -5 -7
-10 -15 -10 -8 0 -15 5 -15 10 0 6 7 10 15 10 8 0 15 -4 15 -10z m-1690 -24
c0 -3 -7 -12 -16 -20 -17 -18 -59 -22 -49 -5 10 15 65 36 65 25z m220 -10 c0
-8 -5 -18 -10 -21 -6 -4 -8 -11 -4 -16 4 -6 10 -6 19 1 7 6 19 8 28 4 8 -3 24
-1 34 4 10 6 52 12 93 13 l75 2 11 -34 c8 -24 9 -51 2 -89 -5 -30 -11 -117
-13 -192 -3 -120 -6 -141 -23 -163 -12 -14 -24 -39 -27 -55 -4 -17 -8 -30 -10
-30 -9 0 -95 87 -95 96 0 5 -11 25 -23 44 -28 40 -61 135 -53 149 3 5 -1 15
-10 22 -10 8 -13 21 -9 37 3 13 0 39 -7 58 -12 34 -12 34 -24 12 -12 -22 -12
-21 -28 16 -23 55 -20 90 10 125 27 32 64 42 64 17z m1879 -33 c6 -21 11 -45
11 -54 0 -19 -29 -34 -41 -22 -11 13 -15 103 -4 107 20 9 24 5 34 -31z m-954
-69 c17 -18 17 -45 -1 -51 -7 -2 -10 6 -7 22 5 22 2 25 -26 25 -34 0 -41 -18
-16 -43 8 -8 12 -17 9 -20 -3 -3 0 -15 6 -27 16 -30 65 -25 64 8 0 12 5 22 13
22 18 0 16 -47 -3 -54 -9 -3 -30 -6 -48 -6 -29 0 -34 5 -63 64 -23 45 -28 66
-20 70 27 10 77 5 92 -10z m-152 -72 c29 -60 32 -72 19 -72 -4 0 -20 26 -36
57 -32 65 -46 59 -38 -18 5 -52 -8 -66 -28 -29 -7 14 -7 20 0 20 5 0 10 20 10
43 0 24 3 47 7 50 18 19 40 2 66 -51z m-150 14 l29 -23 -30 1 c-19 1 -28 5
-25 14 3 6 0 12 -6 12 -6 0 -11 5 -11 10 0 15 12 11 43 -14z m-217 -106 c4
-31 3 -42 -4 -35 -5 6 -12 29 -14 52 -5 55 9 42 18 -17z m-46 -119 c0 -17 5
-33 10 -36 6 -4 10 7 10 24 0 24 4 31 20 31 11 0 20 -1 20 -2 0 -2 5 -30 10
-63 8 -49 7 -69 -7 -107 -15 -41 -21 -48 -44 -48 -26 0 -28 3 -33 58 -3 31 -8
83 -12 115 -5 48 -3 57 10 57 11 0 16 -9 16 -29z m-652 -3 c-3 -7 -18 -14 -34
-16 -28 -2 -28 -2 -10 13 24 18 49 20 44 3z m-954 -24 c26 -26 18 -34 -34 -34
-57 0 -62 8 -22 32 34 22 37 22 56 2z m1126 -20 c0 -14 -5 -35 -11 -46 -7 -12
-15 -55 -20 -96 -8 -73 -27 -132 -41 -132 -10 0 -10 10 3 153 12 127 19 147
50 147 14 0 19 -7 19 -26z m1850 -49 c0 -8 -4 -15 -10 -15 -5 0 -10 7 -10 15
0 8 5 15 10 15 6 0 10 -7 10 -15z m858 -140 l3 -30 -20 25 c-25 31 -26 42 -3
38 11 -2 18 -14 20 -33z m79 9 c-9 -9 -28 6 -21 18 4 6 10 6 17 -1 6 -6 8 -13
4 -17z m3223 17 c19 -5 76 -12 125 -15 50 -3 117 -10 150 -16 33 -5 61 -10 63
-10 1 0 2 -7 2 -16 0 -9 9 -18 20 -21 11 -3 20 -9 20 -14 0 -5 5 -9 10 -9 6 0
32 -21 58 -47 27 -27 65 -57 85 -67 20 -10 56 -39 79 -64 24 -25 53 -54 64
-66 18 -17 22 -36 25 -102 4 -81 4 -82 47 -123 23 -22 42 -50 42 -61 0 -11 4
-20 9 -20 6 0 11 -17 13 -37 2 -28 9 -41 26 -48 18 -8 22 -18 22 -51 0 -25 -6
-47 -15 -54 -8 -7 -15 -21 -15 -31 0 -11 -4 -19 -10 -19 -5 0 -10 -7 -10 -15
0 -8 5 -15 10 -15 6 0 10 -20 10 -45 0 -49 -19 -68 -59 -58 -29 7 -58 -23 -67
-72 -5 -27 -3 -40 7 -47 11 -7 11 -11 2 -15 -7 -2 -13 -11 -13 -18 0 -7 -16
-28 -36 -47 -19 -18 -42 -45 -50 -60 -7 -14 -27 -32 -44 -40 -17 -7 -33 -23
-36 -35 -3 -12 -13 -25 -22 -28 -19 -6 -72 -49 -72 -59 0 -3 22 -6 48 -6 40 0
55 -5 82 -30 34 -30 96 -53 126 -48 9 2 20 -7 25 -19 7 -18 4 -25 -14 -34 -12
-6 -33 -25 -46 -41 -14 -17 -29 -27 -38 -24 -18 7 -53 -11 -53 -28 0 -7 -11
-22 -25 -34 -14 -12 -25 -28 -25 -34 0 -7 -7 -26 -15 -42 -8 -16 -18 -46 -21
-67 -4 -22 -9 -39 -13 -39 -11 0 -43 -68 -37 -78 4 -6 2 -13 -4 -17 -6 -4 -8
-11 -5 -16 4 -5 -1 -19 -9 -31 -9 -12 -16 -33 -16 -45 0 -19 -8 -25 -45 -34
-40 -10 -45 -14 -45 -40 0 -26 2 -28 29 -23 35 7 91 -22 91 -48 0 -22 -21 -68
-31 -68 -4 0 -11 -9 -14 -20 -3 -11 -13 -20 -21 -20 -9 0 -14 -11 -14 -35 0
-24 -5 -35 -14 -35 -9 0 -16 -12 -18 -27 -2 -24 -8 -29 -36 -31 -27 -3 -40 4
-72 36 -30 29 -46 38 -64 35 -19 -4 -25 0 -30 21 -13 54 -150 84 -163 36 -10
-36 -38 -16 -70 50 -40 82 -46 104 -53 200 -5 87 -7 93 -18 65 -7 -16 -19 -42
-27 -57 -8 -14 -15 -36 -15 -47 0 -34 -32 -154 -47 -177 -8 -12 -13 -26 -12
-30 1 -5 1 -24 0 -43 -1 -29 -3 -32 -16 -21 -8 7 -15 19 -15 26 0 8 -7 14 -15
14 -16 0 -26 18 -45 90 -7 25 -19 62 -26 83 -8 20 -14 48 -14 62 0 13 -4 27
-10 30 -18 11 -11 98 10 133 11 18 20 39 20 46 0 7 7 19 15 26 28 24 78 105
80 131 1 15 23 66 49 114 26 47 58 111 71 140 26 60 40 70 108 80 55 9 61 15
53 60 -5 25 -15 38 -44 52 -27 14 -45 35 -66 76 -25 51 -31 57 -60 57 -36 0
-56 15 -56 42 0 10 -6 21 -14 24 -21 8 -41 95 -24 106 10 6 10 10 -2 18 -8 5
-20 10 -26 10 -19 0 -42 34 -54 80 -7 24 -22 55 -33 67 -12 12 -29 30 -37 38
-8 9 -26 24 -40 35 -23 16 -25 26 -28 103 -5 109 5 129 60 125 40 -2 64 15 41
31 -6 3 -13 16 -17 29 -9 28 16 40 49 22 13 -7 33 -10 44 -7 12 3 21 1 21 -4
0 -15 40 -10 47 7 3 8 -3 33 -12 55 -25 53 -24 97 2 118 12 9 24 26 28 39 3
12 13 22 22 22 8 0 17 8 20 19 2 10 16 24 29 32 29 15 37 42 32 104 -3 44 -3
45 27 45 16 0 37 5 45 10 19 12 26 12 70 1z m-6756 -57 c152 -77 282 -165 403
-273 288 -256 480 -550 529 -808 6 -30 5 -32 -32 -38 -22 -3 -57 -10 -79 -15
-100 -22 -114 -22 -170 5 -70 35 -98 31 -105 -14 -6 -43 -27 -51 -40 -15 -12
30 -26 23 -32 -16 -3 -21 -8 -25 -37 -23 -49 2 -56 14 -40 68 16 54 33 72 52
57 6 -5 21 -6 31 -3 17 7 16 10 -16 35 -42 31 -72 88 -63 116 4 13 1 22 -8 26
-17 6 -33 63 -42 144 -8 76 -43 157 -100 229 -26 33 -51 61 -55 61 -4 0 -21
20 -39 45 -17 24 -37 50 -44 57 -7 7 -18 24 -25 38 -7 14 -35 57 -62 95 -78
109 -101 145 -113 179 -6 17 -19 45 -29 61 -37 61 -24 60 116 -11z m3607 -7
c-16 -16 -26 0 -10 19 9 11 15 12 17 4 2 -6 -1 -17 -7 -23z m-3731 -79 c0 -9
7 -23 15 -32 21 -20 19 -29 -11 -55 -20 -18 -23 -25 -14 -37 7 -8 9 -14 6 -14
-4 0 7 -14 24 -30 17 -17 35 -28 41 -25 5 4 12 -1 15 -9 3 -8 24 -18 47 -21
53 -8 98 -46 94 -77 -7 -44 -85 -83 -190 -93 -15 -2 -36 -10 -46 -19 -10 -9
-35 -16 -58 -16 -36 0 -43 5 -68 40 -15 22 -30 40 -34 40 -3 0 -15 7 -25 15
-19 15 -19 16 13 48 42 41 85 164 78 222 -7 53 3 74 44 101 l34 22 17 -21 c10
-12 18 -30 18 -39z m1453 42 c9 -11 17 -25 17 -31 0 -16 -52 -2 -67 18 -27 35
21 47 50 13z m5177 -37 c0 -5 -7 -16 -14 -26 -13 -17 -14 -16 -19 2 -3 11 -2
22 1 25 8 9 32 7 32 -1z m-5570 -58 c0 -8 -7 -15 -16 -15 -14 0 -14 3 -4 15 7
8 14 15 16 15 2 0 4 -7 4 -15z m-1861 -359 c12 -14 2 -27 -31 -39 -19 -7 -25
-27 -7 -27 5 0 7 -5 3 -11 -4 -8 -12 -3 -20 12 -18 33 -17 39 7 39 11 0 17 5
14 10 -7 11 2 30 14 30 5 0 14 -6 20 -14z m73 -58 l33 -43 -42 33 c-41 32 -54
52 -34 52 5 0 24 -19 43 -42z m1167 -161 c4 -25 6 -58 3 -72 -5 -31 -69 -98
-115 -121 -17 -10 -43 -26 -57 -36 -23 -17 -45 -19 -205 -18 -99 0 -215 -5
-257 -12 -118 -18 -121 10 -4 34 42 9 60 18 66 33 4 11 20 31 34 44 14 14 26
32 26 42 0 9 7 22 15 29 12 10 20 9 41 -6 55 -39 69 -44 103 -38 19 3 43 12
55 19 12 8 47 23 78 35 31 11 87 46 124 76 37 30 71 51 75 47 5 -5 13 -30 18
-56z m5751 -137 c0 -22 -18 -36 -30 -24 -11 12 7 57 20 49 5 -3 10 -15 10 -25z
m-1732 -121 c12 -5 22 -13 22 -19 0 -13 -27 -13 -35 0 -3 6 -19 10 -35 10 -34
0 -60 9 -60 21 0 10 70 2 108 -12z m-178 -14 c0 -8 -4 -15 -10 -15 -5 0 -10 7
-10 15 0 8 5 15 10 15 6 0 10 -7 10 -15z m-70 -27 c22 -36 25 -48 11 -48 -8 0
-51 64 -51 76 0 15 23 -1 40 -28z m-1168 -20 c26 -39 31 -68 14 -68 -16 0 -58
74 -48 84 10 11 20 6 34 -16z m967 -12 c23 -37 25 -46 12 -46 -12 0 -51 62
-45 72 8 13 11 10 33 -26z m299 16 c2 -7 -2 -10 -12 -6 -9 3 -16 11 -16 16 0
13 23 5 28 -10z m-1184 -23 c34 -20 47 -39 27 -39 -16 0 -81 41 -81 51 0 14
16 11 54 -12z m-250 -78 c-7 -7 -35 11 -48 31 -7 12 -6 21 3 32 12 14 16 11
32 -21 10 -20 16 -39 13 -42z m1052 65 c3 -8 4 -23 2 -33 -3 -14 -7 -11 -20
15 -14 27 -14 32 -2 32 8 0 17 -6 20 -14z m-99 -26 c9 -23 8 -30 0 -30 -16 0
-39 38 -32 50 11 17 20 11 32 -20z m-1038 -54 c11 -14 11 -16 -4 -16 -26 0
-95 53 -95 73 0 15 6 14 43 -12 24 -16 49 -36 56 -45z m-3265 26 c61 -23 109
-63 94 -78 -3 -3 -40 11 -82 31 -42 20 -88 40 -101 45 -14 5 -25 17 -25 25 0
19 10 17 114 -23z m4155 2 c25 -41 25 -44 9 -44 -16 0 -50 58 -42 71 8 14 10
12 33 -27z m-3644 6 c-3 -5 -28 -10 -56 -10 -27 0 -49 5 -49 10 0 6 25 10 56
10 34 0 53 -4 49 -10z m3543 -12 c13 -13 17 -58 5 -58 -14 1 -42 70 -29 70 7
0 17 -5 24 -12z m-1073 -8 c3 -5 26 -10 49 -10 45 0 74 -19 61 -40 -5 -8 -12
-7 -24 4 -9 8 -36 16 -61 18 -33 2 -46 8 -48 21 -4 18 13 24 23 7z m983 -32
c13 -31 2 -37 -22 -12 -17 16 -21 36 -9 47 8 9 16 0 31 -35z m-1134 -19 c13
11 21 9 51 -9 36 -22 46 -40 22 -40 -7 0 -22 7 -33 15 -27 20 -44 19 -44 -4 0
-35 -17 -32 -40 5 -26 46 -19 82 10 44 15 -20 21 -22 34 -11z m956 4 c0 -9 7
-25 17 -35 14 -16 14 -18 0 -18 -17 0 -47 26 -47 40 0 5 3 15 6 24 7 19 24 11
24 -11z m-3345 -4 c4 -5 28 -20 53 -32 32 -15 48 -29 50 -45 3 -17 -2 -22 -18
-22 -38 0 -150 74 -150 100 0 13 57 13 65 -1z m2177 -56 c21 -44 17 -51 -17
-29 -15 10 -25 26 -25 41 0 37 22 30 42 -12z m946 17 c12 -11 26 -20 31 -20
14 0 23 -18 16 -30 -4 -6 -17 -3 -35 10 -15 11 -33 20 -39 20 -6 0 -11 2 -11
4 0 2 -3 11 -6 20 -9 23 18 20 44 -4z m-53 -34 c31 -25 30 -42 -2 -32 -28 10
-75 55 -68 66 7 12 26 3 70 -34z m-1085 13 c0 -6 9 -24 21 -40 l20 -29 -20 0
c-13 0 -26 11 -36 30 -19 37 -19 50 0 50 8 0 15 -5 15 -11z m870 -41 c23 -38
25 -58 7 -58 -12 0 -47 59 -47 80 0 21 21 9 40 -22z m-1050 -3 c0 -7 4 -15 9
-17 14 -5 17 -51 4 -55 -12 -4 -55 76 -47 89 7 11 34 -3 34 -17z m80 10 c0 -8
9 -20 20 -27 23 -15 26 -28 7 -28 -18 0 -57 38 -57 55 0 8 7 15 15 15 8 0 15
-7 15 -15z m815 -34 c28 -10 51 -26 53 -35 4 -21 0 -20 -58 9 -28 14 -52 25
-55 25 -22 0 -25 1 -20 10 9 14 23 13 80 -9z m-1161 -45 c19 -40 20 -59 4 -54
-14 5 -46 57 -47 76 -2 25 27 11 43 -22z m-1864 -18 c0 -4 -15 -8 -34 -8 -32
0 -53 20 -41 40 6 9 75 -20 75 -32z m1741 -9 c13 -26 17 -45 11 -51 -12 -12
-56 57 -48 77 8 23 14 19 37 -26z m1004 20 c5 -5 18 -9 30 -9 21 0 45 -17 45
-32 0 -14 -28 -9 -65 12 -20 11 -44 20 -55 20 -20 0 -33 13 -23 23 7 8 54 -2
68 -14z m-1102 -38 c20 -34 22 -51 5 -51 -11 0 -25 21 -45 68 -11 25 23 11 40
-17z m956 -7 c24 -41 26 -54 8 -54 -11 0 -27 24 -55 83 -2 4 3 7 11 7 8 0 24
-16 36 -36z m-1109 -24 c24 -46 24 -50 7 -50 -7 0 -23 20 -35 45 -18 36 -19
45 -7 45 8 0 24 -18 35 -40z m833 -25 c20 -42 21 -55 5 -55 -12 0 -48 60 -48
80 0 23 28 7 43 -25z m-170 -41 c16 -33 16 -54 -2 -54 -8 0 -41 64 -41 80 0
24 28 7 43 -26z m-124 -8 c5 -13 17 -26 27 -30 13 -5 15 -9 6 -18 -14 -14 -45
14 -56 50 -10 30 12 28 23 -2z m-69 -28 c23 -38 25 -58 7 -58 -12 0 -47 59
-47 80 0 21 21 9 40 -22z m-134 -30 c28 -20 41 -35 35 -41 -10 -10 -101 49
-101 65 0 16 22 8 66 -24z m-227 -44 c25 -42 25 -44 6 -44 -11 0 -45 57 -45
76 0 16 22 -2 39 -32z m-124 -20 c18 -42 19 -54 5 -54 -12 0 -50 77 -42 84 12
13 22 4 37 -30z m-134 -31 c39 -28 49 -43 28 -43 -14 0 -89 53 -89 63 0 14 22
7 61 -20z m-197 -38 c22 -19 37 -37 34 -40 -8 -8 -98 56 -92 66 8 14 16 11 58
-26z m-126 -26 c45 -33 49 -39 29 -39 -16 0 -86 51 -87 63 0 14 16 7 58 -24z
m-267 -69 c5 0 9 -7 9 -15 0 -8 -4 -15 -9 -15 -5 0 -14 7 -21 15 -7 8 -18 15
-25 15 -18 0 -38 27 -30 40 4 7 17 1 37 -15 16 -14 34 -25 39 -25z m-111 -1
c53 -43 40 -57 -15 -18 -25 18 -42 36 -39 40 8 13 12 12 54 -22z m-109 -20
c11 -11 19 -25 17 -31 -8 -23 -23 -16 -39 17 -18 39 -9 45 22 14z m-103 -26
c15 -32 15 -43 2 -43 -14 0 -43 48 -35 60 10 16 19 12 33 -17z m1732 16 c0 -6
13 -31 30 -55 16 -24 25 -44 20 -44 -5 0 -16 13 -24 28 -8 16 -22 34 -30 41
-18 15 -21 41 -6 41 6 0 10 -5 10 -11z m-90 -29 c18 -16 19 -20 7 -20 -9 0
-21 9 -27 20 -6 11 -9 20 -7 20 2 0 14 -9 27 -20z m-1775 -9 c28 -10 51 -26
53 -35 3 -14 -1 -13 -37 3 -23 10 -44 21 -48 24 -3 4 -17 7 -30 7 -12 0 -23 5
-23 10 0 15 30 12 85 -9z m1815 -31 c0 -5 7 -10 15 -10 8 0 15 -7 15 -15 0
-20 -3 -19 -30 10 -13 14 -18 25 -12 25 7 0 12 -4 12 -10z m1045 -1420 c-3 -5
-12 -10 -20 -10 -8 0 -17 5 -20 10 -4 6 5 10 20 10 15 0 24 -4 20 -10z m189
-26 c10 -27 7 -30 -34 -43 -29 -8 -45 -9 -60 -1 -27 14 -26 17 18 39 47 24 68
25 76 5z m-2026 -854 c15 0 15 -2 2 -10 -24 -16 -30 -12 -29 18 1 16 3 20 6
10 2 -10 12 -18 21 -18z m12 -52 c0 -13 -23 -5 -28 10 -2 7 2 10 12 6 9 -3 16
-11 16 -16z m34 -84 c9 -24 7 -28 -9 -14 -17 14 -20 30 -6 30 5 0 12 -7 15
-16z m5068 -1288 c32 -9 51 -10 63 -3 13 7 24 6 38 -2 10 -7 54 -16 96 -21 42
-4 87 -13 101 -19 14 -6 54 -17 90 -25 98 -21 183 -48 200 -62 8 -7 26 -15 40
-19 41 -11 67 -53 75 -122 7 -62 7 -63 -22 -74 -28 -11 -137 -5 -343 21 -156
19 -278 5 -272 -31 3 -22 -9 -30 -102 -68 -44 -18 -98 -47 -120 -65 -74 -59
-206 -116 -283 -123 -62 -5 -76 -3 -140 26 -39 17 -78 31 -85 31 -8 0 -23 7
-34 15 -10 8 -27 15 -36 15 -9 0 -29 7 -45 15 -15 8 -62 24 -103 36 -88 25
-120 43 -120 67 0 9 -13 25 -28 36 -30 19 -62 68 -62 92 0 14 34 54 46 54 4 0
13 8 20 18 19 26 98 23 429 -19 107 -13 145 -4 145 35 0 27 54 96 74 96 7 0
26 16 43 35 17 19 38 35 47 35 9 0 24 4 34 10 47 27 188 36 254 16z m756 -435
c47 -16 81 -42 82 -63 0 -4 -18 -28 -40 -53 -22 -26 -48 -61 -57 -78 -29 -56
-85 -116 -116 -123 -34 -7 -61 14 -92 73 -20 40 -39 65 -105 146 -22 27 -40
57 -40 68 0 28 44 42 120 36 36 -3 74 -1 85 3 34 14 108 10 163 -9z"/>
<path d="M4970 10263 c0 -10 7 -27 15 -37 14 -18 15 -18 21 -1 8 19 -5 46 -24
53 -7 2 -12 -5 -12 -15z"/>
<path d="M4718 10247 c-54 -6 -98 -14 -98 -19 0 -5 7 -23 16 -39 l16 -31 81 6
c45 3 100 8 122 12 70 11 99 55 49 74 -29 11 -49 11 -186 -3z"/>
<path d="M4480 10196 c0 -10 9 -16 21 -16 24 0 21 23 -4 28 -10 2 -17 -3 -17
-12z"/>
<path d="M4536 10193 c-8 -19 28 -52 57 -53 25 0 21 15 -8 28 -14 6 -25 18
-25 27 0 20 -16 19 -24 -2z"/>
<path d="M4395 10190 c-3 -5 1 -20 10 -32 l16 -23 -6 27 c-5 20 -3 27 12 31
15 4 14 5 -4 6 -12 0 -25 -3 -28 -9z"/>
<path d="M4306 10181 c-8 -12 9 -57 25 -67 9 -5 10 -2 5 12 -14 33 -12 49 7
48 9 -1 17 2 17 7 0 12 -47 12 -54 0z"/>
<path d="M4460 10165 c8 -22 7 -27 -13 -35 -21 -8 -21 -9 6 -9 20 -1 27 4 27
18 0 26 -10 51 -21 51 -5 0 -4 -11 1 -25z"/>
<path d="M4240 10165 c0 -7 9 -16 19 -20 10 -3 21 -15 25 -27 3 -12 8 -19 12
-16 8 9 -26 66 -43 72 -7 3 -13 -1 -13 -9z"/>
<path d="M4370 10149 c0 -14 -6 -31 -12 -38 -11 -10 -9 -12 7 -9 23 4 33 44
16 61 -8 8 -11 4 -11 -14z"/>
<path d="M4896 9984 c-46 -43 -25 -109 42 -135 59 -23 122 14 107 61 -9 28
-22 25 -37 -7 -9 -20 -21 -28 -40 -29 -36 -1 -72 37 -63 65 7 23 20 27 30 11
8 -14 45 6 45 24 0 8 -13 19 -29 24 -24 9 -32 6 -55 -14z"/>
<path d="M2980 9971 c0 -14 58 -76 65 -69 11 11 -30 78 -47 78 -10 0 -18 -4
-18 -9z"/>
<path d="M2905 9958 c-3 -7 -6 -24 -7 -38 -3 -21 2 -25 35 -31 21 -3 40 -2 43
2 7 12 -39 79 -54 79 -7 0 -15 -6 -17 -12z"/>
<path d="M2737 9943 c-4 -3 -7 -15 -7 -25 0 -18 -2 -18 -22 -4 -12 9 -33 16
-45 16 -18 0 -23 -6 -23 -25 0 -54 81 -89 88 -39 3 18 10 22 38 21 19 -1 34
-5 34 -10 0 -4 -4 -6 -8 -3 -4 2 -14 1 -22 -4 -12 -7 -11 -10 4 -16 24 -9 50
7 54 33 5 35 -68 80 -91 56z m48 -23 c3 -5 -3 -10 -15 -10 -12 0 -18 5 -15 10
3 6 10 10 15 10 5 0 12 -4 15 -10z m-85 -31 c7 -11 9 -24 5 -27 -9 -9 -40 13
-43 32 -5 23 25 20 38 -5z"/>
<path d="M3800 9797 c0 -7 -10 -17 -22 -22 -54 -24 -18 -95 47 -95 48 0 52 17
19 79 -27 49 -44 64 -44 38z m24 -62 c15 -23 15 -26 1 -32 -21 -7 -50 21 -42
41 9 23 22 20 41 -9z"/>
<path d="M3550 9745 c-7 -8 -19 -15 -27 -15 -10 0 -12 -6 -8 -22 10 -32 34
-68 45 -68 15 0 12 17 -6 46 -9 13 -14 27 -12 30 8 8 38 -7 38 -20 1 -32 70
-74 70 -42 0 9 -6 16 -13 16 -8 0 -19 12 -26 28 -25 52 -27 56 -38 59 -5 2
-16 -3 -23 -12z"/>
<path d="M3639 9739 c-9 -18 -7 -26 9 -48 21 -29 42 -36 77 -27 19 5 23 12 21
33 -6 54 -84 85 -107 42z m56 -9 c-3 -5 -13 -10 -21 -10 -8 0 -14 5 -14 10 0
6 9 10 21 10 11 0 17 -4 14 -10z m30 -40 c-3 -5 -15 -10 -26 -10 -10 0 -19 5
-19 10 0 6 12 10 26 10 14 0 23 -4 19 -10z"/>
<path d="M3393 9713 c-55 -5 -70 -23 -48 -57 10 -16 13 -26 6 -26 -6 0 -17 16
-25 35 -8 19 -20 35 -25 35 -14 0 -14 -2 5 -49 14 -35 19 -39 50 -38 31 1 34
4 29 22 -17 56 4 75 30 26 20 -39 49 -44 35 -5 -21 55 -1 61 32 9 28 -42 43
-45 33 -7 -9 37 -34 62 -59 60 -12 -1 -40 -3 -63 -5z"/>
<path d="M3167 9702 c-8 -12 44 -118 56 -114 4 1 23 2 43 2 21 0 33 4 29 10
-3 6 -18 10 -31 10 -25 0 -63 34 -64 56 0 19 -27 48 -33 36z"/>
<path d="M1048 9679 c-27 -15 -22 -32 7 -27 21 5 23 3 13 -10 -11 -13 -7 -14
32 -7 25 4 53 14 63 23 18 16 18 17 0 23 -27 11 -96 10 -115 -2z"/>
<path d="M3080 9636 c0 -31 -11 -33 -35 -6 -20 22 -89 28 -101 9 -9 -15 26
-89 43 -89 15 0 18 26 3 35 -18 11 -11 45 8 45 22 0 79 -58 84 -85 2 -11 8
-19 13 -17 15 3 13 124 -2 130 -8 2 -13 -6 -13 -22z"/>
<path d="M923 9643 c-24 -9 -14 -41 16 -51 23 -8 32 -7 42 4 9 11 8 18 -6 34
-18 20 -29 23 -52 13z"/>
<path d="M826 9614 c-9 -22 11 -44 41 -44 28 0 40 24 23 45 -17 20 -56 19 -64
-1z"/>
<path d="M1110 9615 c7 -8 19 -15 26 -15 8 0 14 7 14 15 0 10 -10 15 -26 15
-22 0 -25 -2 -14 -15z"/>
<path d="M2863 9610 c-5 -18 -7 -18 -26 -5 -29 20 -40 19 -34 -5 3 -12 0 -20
-8 -20 -8 0 -11 8 -8 21 5 19 4 20 -15 10 -11 -6 -22 -16 -25 -23 -4 -10 -7
-11 -18 0 -7 6 -32 12 -56 12 -24 0 -43 5 -43 10 0 6 -7 10 -15 10 -8 0 -15
-2 -15 -5 0 -11 53 -110 62 -116 15 -10 61 2 83 21 14 12 26 15 40 10 47 -19
96 -6 80 20 -5 8 -11 7 -21 0 -7 -7 -19 -10 -26 -8 -7 3 2 11 19 20 30 15 32
15 54 -11 21 -23 24 -24 27 -8 2 10 -2 24 -8 32 -6 8 -9 23 -5 35 5 16 2 20
-15 20 -13 0 -24 -8 -27 -20z m-149 -52 c8 -13 7 -21 -2 -30 -17 -17 -46 1
-50 31 -3 18 1 22 19 19 12 -2 27 -11 33 -20z"/>
<path d="M747 9613 c-14 -13 -7 -43 12 -53 25 -13 51 -3 51 21 0 26 -46 50
-63 32z"/>
<path d="M663 9603 c-20 -7 -15 -41 6 -53 25 -13 51 -3 51 21 0 15 -29 41 -42
38 -2 0 -9 -3 -15 -6z"/>
<path d="M567 9584 c-16 -17 -6 -44 19 -50 33 -8 53 10 38 34 -12 18 -45 28
-57 16z"/>
<path d="M2553 9570 c-12 -14 -20 -16 -29 -9 -18 15 -27 -6 -14 -31 6 -11 8
-25 5 -30 -12 -19 -31 -10 -49 25 -19 35 -44 43 -38 11 4 -25 -17 -19 -27 8
-5 13 -17 26 -26 30 -19 7 -95 -3 -95 -13 0 -16 53 -113 64 -116 25 -9 81 12
92 33 9 19 13 20 17 8 5 -12 20 -16 58 -16 54 0 55 1 34 53 -4 10 -3 17 4 17
6 0 11 -6 11 -13 0 -8 9 -22 20 -32 19 -17 20 -17 20 -1 0 10 -5 27 -11 38 -8
14 -8 23 0 31 6 6 11 15 11 19 0 15 -30 8 -47 -12z m-188 -30 c0 -22 -39 -19
-43 3 -3 15 1 18 20 15 12 -2 23 -10 23 -18z m33 -52 c3 -13 -3 -18 -22 -18
-20 0 -26 5 -26 21 0 15 5 20 22 17 13 -2 24 -11 26 -20z"/>
<path d="M2091 9520 c-10 -6 -12 -20 -8 -50 8 -61 24 -74 78 -63 38 8 44 12
41 33 -1 13 -10 32 -19 42 -17 19 -43 24 -43 8 0 -14 -37 -13 -46 1 -3 6 0 15
7 20 7 4 11 10 8 13 -2 3 -11 1 -18 -4z"/>
<path d="M3588 7620 c-4 -25 -10 -60 -14 -77 -5 -26 -3 -33 9 -33 22 0 27 26
19 95 l-8 60 -6 -45z"/>
<path d="M9730 6716 c0 -9 7 -16 16 -16 9 0 14 5 12 12 -6 18 -28 21 -28 4z"/>
<path d="M2970 5855 c-25 -14 -25 -14 18 -16 51 -2 63 -2 103 0 27 1 30 3 19
16 -16 19 -106 19 -140 0z"/>
<path d="M0 5616 l0 -3954 49 -7 c28 -4 59 -4 71 0 29 9 450 12 450 3 0 -5 17
-8 39 -8 59 0 282 -39 319 -55 17 -8 32 -20 32 -27 0 -8 8 -18 18 -23 37 -20
108 -70 110 -78 7 -30 36 -66 60 -75 25 -9 31 -18 41 -64 13 -54 27 -92 45
-116 21 -29 4 -108 -32 -154 -8 -9 -11 -21 -8 -27 3 -5 3 -11 -1 -13 -12 -5
-53 -66 -53 -77 0 -6 -17 -27 -38 -48 -26 -25 -43 -54 -52 -85 -7 -26 -18 -53
-26 -59 -7 -5 -16 -24 -19 -40 -4 -16 -13 -29 -21 -29 -8 0 -14 -9 -14 -19 0
-11 -4 -23 -10 -26 -5 -3 -10 -14 -10 -24 0 -10 -7 -24 -15 -31 -7 -6 -17 -33
-20 -58 -4 -26 -14 -63 -22 -82 -24 -52 -50 -176 -69 -325 -3 -22 -12 -54 -20
-72 -8 -17 -14 -34 -14 -37 0 -3 207 -6 459 -6 l459 0 15 63 c18 75 52 173 86
247 13 30 28 64 32 75 5 11 22 52 40 90 17 39 37 95 44 125 20 83 8 279 -25
410 -44 172 -50 232 -50 484 0 137 3 252 5 257 3 4 -2 58 -10 120 -16 121
-111 439 -147 491 -10 14 -18 32 -18 40 0 24 -30 98 -54 136 -14 20 -28 51
-32 67 -4 17 -18 52 -31 78 -13 26 -22 51 -19 56 3 4 -4 22 -15 39 -25 42 -54
123 -89 247 -34 123 -108 363 -120 390 -32 70 -77 228 -86 298 -3 23 -12 65
-20 94 -8 29 -14 95 -14 151 l0 100 -45 6 c-29 5 -56 18 -77 37 -18 16 -35 29
-39 29 -11 0 -69 54 -69 64 0 5 -15 24 -34 42 -19 19 -35 42 -34 51 0 10 -2
93 -6 185 -3 101 -2 169 4 173 5 3 7 12 4 20 -3 7 1 29 9 47 8 18 20 47 26 64
7 16 23 42 36 57 14 14 25 30 25 35 0 5 9 17 20 27 11 10 20 24 20 32 0 7 7
13 15 13 8 0 15 7 15 15 0 14 11 19 36 16 7 -1 13 63 17 196 4 109 14 239 22
288 8 50 22 176 30 281 28 371 70 444 278 480 122 21 123 21 141 58 35 74 25
113 -86 336 -57 112 -113 222 -125 245 -12 22 -22 50 -22 61 -1 25 -39 123
-57 144 -7 8 -30 51 -51 95 -104 214 -177 342 -218 382 -41 41 -43 44 -43 105
0 54 -6 75 -42 148 -23 47 -50 94 -60 105 -23 26 -47 67 -110 190 -28 55 -58
114 -67 130 -23 42 -33 62 -64 125 -28 57 -70 110 -89 110 -5 0 -10 7 -10 16
0 39 -128 310 -192 406 -20 31 -44 73 -52 95 -12 34 -73 173 -121 278 -10 22
-26 49 -36 60 -9 11 -31 55 -48 98 -27 69 -84 167 -96 167 -3 0 -5 -1779 -5
-3954z"/>
<path d="M542 9254 c-10 -18 5 -54 22 -54 9 0 7 43 -3 59 -7 11 -11 10 -19 -5z"/>
<path d="M5240 3847 c0 -21 19 -33 61 -41 28 -5 40 -13 49 -36 13 -31 18 -34
44 -24 41 16 -5 76 -71 94 -26 7 -56 14 -65 17 -11 3 -18 -1 -18 -10z"/>
<path d="M5636 3683 c-3 -3 -6 -15 -6 -25 0 -11 -7 -18 -18 -18 -11 0 -25 -14
-34 -34 l-17 -34 27 -5 c15 -2 34 -7 43 -11 13 -6 22 3 39 38 13 24 20 51 17
60 -7 18 -42 38 -51 29z"/>
<path d="M6460 2835 c0 -10 7 -15 18 -13 21 4 19 22 -2 26 -10 2 -16 -3 -16
-13z"/>
<path d="M7642 2798 c3 -7 13 -15 22 -16 12 -3 17 1 14 10 -3 7 -13 15 -22 16
-12 3 -17 -1 -14 -10z"/>
<path d="M4330 2253 c-19 -36 -29 -66 -25 -78 6 -21 160 -104 171 -92 11 11
-8 27 -66 57 -32 16 -61 34 -65 39 -3 6 3 28 15 50 42 83 15 105 -30 24z"/>
</g>
</svg>
